<svg width="56" height="56" viewBox="0 0 56 56" fill="none" xmlns="http://www.w3.org/2000/svg">
<path d="M28 11.25C29.4017 11.25 31.8735 11.2746 34.4639 11.5332C36.9135 11.7778 39.3866 12.2243 41.1592 13.0117L41.5039 13.1738C42.8599 13.8495 43.5213 14.3971 44.0879 15.2246C44.5479 15.8966 44.9465 16.7493 45.5312 18.0381L46.1875 19.4814C46.2018 19.5134 46.2211 19.5549 46.2246 19.5625L46.4258 20H49.875C49.9135 20 49.9446 20.0041 49.9697 20.0059C49.9778 20.0538 49.987 20.1231 49.9932 20.2207C50.0056 20.4176 50.0068 20.665 50.0068 21C50.0068 21.2657 49.9847 21.4286 49.96 21.5273C49.9373 21.6179 49.9154 21.6412 49.915 21.6416C49.9116 21.6458 49.8957 21.6646 49.8242 21.7051C49.7187 21.7649 49.6609 21.7859 49.4639 21.8877L48.0566 22.6143L49.5107 23.2432H49.5127C49.514 23.2437 49.5159 23.2449 49.5186 23.2461C49.5243 23.2486 49.5334 23.2528 49.5449 23.2578C49.5679 23.2678 49.6019 23.2826 49.6455 23.3018C49.7328 23.3402 49.8589 23.3961 50.0107 23.4648C50.315 23.6025 50.7221 23.7908 51.1377 23.9951C51.5561 24.2008 51.9714 24.4163 52.2959 24.6094C52.4589 24.7063 52.5866 24.7901 52.6758 24.8574C52.7074 24.8813 52.7278 24.9004 52.7412 24.9121C52.7515 24.937 52.7702 24.9801 52.792 25.0488C52.8294 25.1667 52.8725 25.3278 52.918 25.5352C53.0088 25.9496 53.1045 26.5202 53.1914 27.2422C53.365 28.6846 53.5 30.705 53.5 33.25C53.5 35.8013 53.3912 38.4115 53.2822 40.3867C53.2278 41.3732 53.1736 42.1997 53.1328 42.7793C53.1273 42.8573 53.1212 42.9311 53.1162 43H51.75V43.75C51.75 44.0891 51.7365 44.3444 51.7139 44.5352C51.703 44.6271 51.6905 44.6973 51.6787 44.75H42.875C42.8542 44.75 42.8361 44.7476 42.8203 44.7471C42.8099 44.7042 42.7979 44.6472 42.7881 44.5723C42.7635 44.3835 42.75 44.1199 42.75 43.75V43H13.25V43.75C13.25 44.1199 13.2365 44.3835 13.2119 44.5723C13.2021 44.6474 13.1891 44.7042 13.1787 44.7471C13.1632 44.7476 13.1454 44.75 13.125 44.75H4.375C4.35249 44.75 4.33311 44.7477 4.31641 44.7471C4.30571 44.7042 4.29239 44.6467 4.28223 44.5703C4.25723 44.3823 4.24316 44.1193 4.24316 43.75V43H2.88281C2.87809 42.9355 2.87238 42.8666 2.86719 42.7939C2.82641 42.223 2.7722 41.4064 2.71777 40.4268C2.60883 38.4658 2.5 35.8559 2.5 33.25C2.5 30.643 2.60848 28.5941 2.76855 27.1533C2.8488 26.4312 2.94054 25.8765 3.0332 25.4873C3.07971 25.292 3.12321 25.1533 3.15918 25.0625C3.16813 25.0399 3.17589 25.023 3.18164 25.0107C3.20569 24.9927 3.24736 24.9621 3.31348 24.9189C3.42384 24.847 3.56827 24.7599 3.73926 24.6621C4.08038 24.4671 4.50143 24.2432 4.91602 24.0293C5.32937 23.8161 5.73057 23.6158 6.02832 23.4688C6.17686 23.3954 6.29947 23.3355 6.38477 23.2939C6.42745 23.2732 6.46084 23.257 6.4834 23.2461C6.49466 23.2406 6.50308 23.2362 6.50879 23.2334C6.51165 23.232 6.51423 23.2311 6.51562 23.2305H6.5166L6.51758 23.2295L7.87109 22.5771L6.53613 21.8877C6.33909 21.7859 6.2813 21.7649 6.17578 21.7051C6.10435 21.6646 6.08842 21.6458 6.08496 21.6416C6.08459 21.6412 6.0627 21.6179 6.04004 21.5273C6.01533 21.4286 5.99316 21.2657 5.99316 21C5.99316 20.6648 5.99444 20.4169 6.00684 20.2197C6.01297 20.1222 6.02128 20.053 6.0293 20.0049C6.05316 20.0033 6.08241 20 6.11816 20H9.53027L9.74512 19.6162C9.74559 19.6154 9.74572 19.6136 9.74707 19.6113C9.74758 19.6105 9.75928 19.5928 9.76562 19.582C9.77206 19.5712 9.79057 19.5401 9.80859 19.502C9.81237 19.4939 9.81604 19.4831 9.82129 19.4707C10.3736 18.3574 10.7964 17.4529 11.1377 16.752C11.4899 16.0285 11.7613 15.5105 12.04 15.0947C12.4946 14.4167 12.9882 13.9752 14.0215 13.4199L14.499 13.1738C16.2851 12.2849 18.9243 11.7941 21.5371 11.5332C24.127 11.2746 26.5983 11.25 28 11.25ZM28 32.5C23.2843 32.5 18.8654 33.8409 16.7051 34.583L15.9238 34.8584C15.4343 35.0342 14.9022 35.3194 14.5801 35.7979C14.2577 36.2766 14.2204 36.8318 14.4307 37.3828L14.5352 37.6191C14.7273 37.9959 14.8441 38.2466 14.917 38.4092L14.3799 39.25H40.7578L40.9463 38.7783L41.4268 37.5752L41.4297 37.5762C41.5756 37.2121 41.6551 36.8584 41.6348 36.5176C41.6134 36.159 41.4838 35.8585 41.2852 35.6182C41.0992 35.3933 40.8725 35.2452 40.6924 35.1436C40.5367 35.0557 40.3054 34.9472 40.2109 34.8984H40.2119C39.3188 34.4362 37.5939 33.8403 35.458 33.3604C33.3085 32.8774 30.6915 32.5 28 32.5ZM50.3984 25.5107C49.1908 25.4679 47.9746 25.5413 46.082 26.0342L45.2295 26.2715C44.1147 26.5966 43.0597 27.0962 42.1025 27.75L41.6982 28.0391L41.6875 28.0479C41.2675 28.3758 41.2158 28.8856 41.2764 29.2148C41.3362 29.5402 41.5812 30.0483 42.168 30.1533L42.1924 30.1582L42.2178 30.1611C43.9838 30.3542 45.7581 30.4649 47.5342 30.4932L48.2959 30.5H48.2979C48.8628 30.5 49.3182 30.5068 49.6484 30.4951C49.9529 30.4843 50.3171 30.4583 50.6221 30.2949C51.0131 30.0853 51.1666 29.742 51.2422 29.4619C51.3033 29.2354 51.3473 28.9023 51.3955 28.6211L51.3115 28.6064L51.3975 28.6133C51.5044 27.9194 51.5239 27.2145 51.4561 26.5156H51.4551C51.435 26.2861 51.3442 26.0696 51.1953 25.8955L51.126 25.8213L51.0498 25.7539C50.8919 25.6266 50.7021 25.5448 50.501 25.5186L50.4004 25.5107H50.3984ZM4.625 26.0986L4.55566 26.4316L4.55176 26.4512L4.54883 26.4707C4.44343 27.1646 4.42345 27.8695 4.48828 28.5684V28.5752L4.48926 28.583C4.5263 28.9109 4.56731 29.2532 4.66504 29.5312C4.7841 29.8699 5.00431 30.1667 5.39062 30.335C5.69765 30.4686 6.05578 30.4917 6.37695 30.5H7.7041C9.73457 30.4947 11.7638 30.3818 13.7822 30.1611L13.793 30.1592L13.8037 30.1582L14.541 30.0557L15.4346 29.9307L15.1494 29.0752L14.4375 29.3125C15.149 29.0753 15.1486 29.0746 15.1484 29.0742V29.0723C15.1481 29.0713 15.1478 29.0703 15.1475 29.0693C15.1468 29.0674 15.1453 29.0656 15.1445 29.0635C15.143 29.0591 15.1415 29.0538 15.1396 29.0488C15.136 29.039 15.1319 29.0279 15.127 29.0156C15.1167 28.9905 15.1036 28.9599 15.0869 28.9258C15.0535 28.8575 15.0056 28.7731 14.9395 28.6777C14.8061 28.4857 14.6002 28.2553 14.291 28.0312H14.29C13.3613 27.3457 12.3356 26.8044 11.2471 26.4258L10.7754 26.2734L10.7725 26.2725L9.91797 26.0352C8.03582 25.5478 6.88626 25.5 5.6875 25.5H4.74805L4.625 26.0986ZM28 13.2412C25.8963 13.2412 23.4905 13.3873 21.2783 13.6973C19.2232 13.9852 17.2695 14.423 15.8799 15.0508L15.6094 15.1797C14.5567 15.7038 13.7718 16.5678 13.1514 17.4941C12.5328 18.4177 12.041 19.4596 11.6074 20.3809C11.4549 20.7039 11.3343 21.0231 11.2295 21.2881C11.1202 21.5644 11.0248 21.7915 10.9092 21.9971L10.3105 23.0615L11.5303 23.1143C11.8989 23.1302 12.2684 23.1277 12.6367 23.1074H43.374V23.1064C43.931 23.1258 44.227 23.1411 44.4854 23.127L45.7002 23.0605L45.0947 22.0049C44.9773 21.8003 44.882 21.5733 44.7725 21.2959C44.72 21.1631 44.6633 21.0161 44.6006 20.8613L44.3926 20.3818L44.3916 20.3809L44.0537 19.6719C43.7028 18.9474 43.3101 18.1879 42.8467 17.4951C42.227 16.5689 41.4436 15.704 40.3906 15.1797H40.3916C38.9911 14.4801 36.9131 14.0029 34.7207 13.6963C32.5085 13.3869 30.1033 13.2412 28 13.2412Z" fill="#EFEFEF" stroke="#444444" stroke-width="1.5"/>
</svg>
