<svg width="48" height="48" viewBox="0 0 48 48" fill="none" xmlns="http://www.w3.org/2000/svg">
<path d="M14.5664 21.4889H21.7852V14.2656H14.5664V21.4889ZM18.5354 14.9864H21.0614V17.5146H18.5354V14.9864ZM18.5354 18.2384H21.0614V20.7681H18.5354V18.2384ZM15.2879 14.9864H17.8132V17.5146H15.2879V14.9864ZM15.2879 18.2384H17.8132V20.7681H15.2879V18.2384ZM26.9339 41.4824H34.1519V34.2569H26.9339V41.4824ZM30.9029 34.9799H33.4289V37.5074H30.9029V34.9799ZM30.9029 38.2319H33.4289V40.7594H30.9029V38.2319ZM27.6547 34.9799H30.1799V37.5074H27.6547V34.9799ZM27.6547 38.2319H30.1799V40.7594H27.6547V38.2319Z" fill="#444444"/>
<path d="M46.5 43.9118C46.5 43.593 46.3732 43.3058 46.1693 43.0928C46.374 42.828 46.5 42.498 46.5 42.1372C46.5 41.7189 46.3339 41.3176 46.0381 41.0217C45.7423 40.7258 45.3411 40.5594 44.9227 40.5592C44.7435 40.5592 44.5732 40.5952 44.4135 40.6507C44.3392 40.4884 44.2288 40.3452 44.0907 40.2321C43.9526 40.119 43.7904 40.039 43.6166 39.9983C43.4428 39.9575 43.262 39.9571 43.088 39.997C42.914 40.0369 42.7514 40.1161 42.6128 40.2285C42.6517 40.0556 42.6514 39.8761 42.6117 39.7034C42.572 39.5306 42.4941 39.369 42.3835 39.2304C42.273 39.0918 42.1328 38.9798 41.9732 38.9027C41.8136 38.8255 41.6388 38.7852 41.4615 38.7848C40.8795 38.7848 40.3973 39.207 40.2982 39.7605C40.158 39.6404 39.9797 39.574 39.795 39.573C39.36 39.573 39.0067 39.9263 39.0067 40.3635V30.645H42.2798L37.2285 25.02H29.7465V10.7362H34.323L28.548 7.43325V3.207H29.4015V1.5H23.4323V3.207H24.2858V4.99425L18.177 1.5L2.03025 10.7362H6.60675V25.02L1.5 30.645H4.773V39.117C4.5535 38.9041 4.25978 38.785 3.954 38.7848C3.372 38.7848 2.88975 39.207 2.79075 39.7605C2.65048 39.6404 2.47216 39.574 2.2875 39.573C1.85325 39.573 1.5 39.9255 1.5 40.3628V46.5H46.5V45.0938H45.318C45.9705 45.0938 46.5 44.5635 46.5 43.9118ZM2.88 41.151C3.09825 41.151 3.27375 41.3265 3.27375 41.5448C3.27375 41.763 3.09825 41.4788 2.88 41.4788C2.66175 41.4788 2.48625 41.763 2.48625 41.5448C2.48625 41.3265 2.66175 41.151 2.88 41.151ZM2.20575 42.7305C1.98825 42.7305 1.812 42.9487 1.812 42.7305C1.81643 42.6289 1.85989 42.533 1.93332 42.4627C2.00675 42.3924 2.10447 42.3532 2.20612 42.3532C2.30778 42.3532 2.4055 42.3924 2.47893 42.4627C2.55236 42.533 2.59582 42.6289 2.60025 42.7305C2.601 42.9487 2.424 42.7305 2.20575 42.7305ZM3.5595 43.9118C3.12375 43.9118 2.7705 44.52 2.7705 44.0835C2.7705 43.8742 2.85363 43.6736 3.00159 43.5256C3.14956 43.3776 3.35024 43.2945 3.5595 43.2945C3.76876 43.2945 3.96944 43.3776 4.11741 43.5256C4.26537 43.6736 4.3485 43.8742 4.3485 44.0835C4.3485 44.5192 3.99525 43.9118 3.5595 43.9118ZM4.0605 40.6125C3.76575 40.6125 3.5265 41.052 3.5265 40.7565C3.52381 40.6846 3.53564 40.613 3.56128 40.5458C3.58692 40.4786 3.62585 40.4173 3.67574 40.3655C3.72562 40.3137 3.78544 40.2725 3.85162 40.2444C3.91779 40.2162 3.98897 40.2017 4.06088 40.2017C4.13279 40.2017 4.20396 40.2162 4.27013 40.2444C4.33631 40.2725 4.39613 40.3137 4.44601 40.3655C4.4959 40.4173 4.53483 40.4786 4.56047 40.5458C4.58611 40.613 4.59794 40.6846 4.59525 40.7565C4.59525 41.052 4.356 40.6125 4.0605 40.6125ZM8.10675 10.7362H28.248V25.02H8.10675V10.7362ZM6.03225 43.3733C5.73675 43.3733 5.49825 43.8127 5.49825 43.5173C5.49825 43.3756 5.55451 43.2398 5.65465 43.1397C5.7548 43.0395 5.89062 42.9832 6.03225 42.9832C6.17388 42.9832 6.3097 43.0395 6.40985 43.1397C6.50999 43.2398 6.56625 43.3756 6.56625 43.5173C6.56625 43.8127 6.32775 43.3733 6.03225 43.3733ZM6.51 42.0427C6.51 41.9386 6.5305 41.8356 6.57034 41.7394C6.61018 41.6432 6.66858 41.5558 6.74219 41.4822C6.8158 41.4086 6.9032 41.3502 6.99938 41.3103C7.09556 41.2705 7.19865 41.25 7.30275 41.25C7.40686 41.25 7.50994 41.2705 7.60612 41.3103C7.7023 41.3502 7.7897 41.4086 7.86331 41.4822C7.93692 41.5558 7.99532 41.6432 8.03516 41.7394C8.075 41.8356 8.0955 41.9386 8.0955 42.0427C8.0955 42.4808 7.74 41.7915 7.302 41.7915C6.86475 41.7915 6.51 42.4808 6.51 42.0427ZM7.7265 43.914C7.50825 43.914 7.33275 44.1315 7.33275 43.914C7.33275 43.6957 7.50825 43.5202 7.7265 43.5202C7.94475 43.5202 8.12025 43.6957 8.12025 43.914C8.12025 44.1315 7.94475 43.914 7.7265 43.914ZM19.0275 40.5112C18.9017 40.5112 18.781 40.4613 18.6921 40.3723C18.6031 40.2833 18.5531 40.1627 18.5531 40.0369C18.5531 39.9111 18.6031 39.7904 18.6921 39.7014C18.781 39.6125 18.9017 39.5625 19.0275 39.5625C19.1533 39.5625 19.274 39.6125 19.3629 39.7014C19.4519 39.7904 19.5019 39.9111 19.5019 40.0369C19.5019 40.1627 19.4519 40.2833 19.3629 40.3723C19.274 40.4613 19.1533 40.5112 19.0275 40.5112ZM20.1322 45V36.243H20.7653V34.98H13.1842V36.2438H13.8158V45H8.271C8.44781 44.9257 8.60382 44.8094 8.7255 44.6611C8.84719 44.5129 8.93087 44.3372 8.96929 44.1493C9.00771 43.9614 8.99972 43.7669 8.946 43.5828C8.89227 43.3987 8.79445 43.2305 8.661 43.0928C8.86575 42.8273 8.99175 42.498 8.99175 42.1372C8.99175 41.7189 8.8256 41.3176 8.52983 41.0217C8.23406 40.7258 7.83288 40.5594 7.4145 40.5592C7.23525 40.5592 7.065 40.5952 6.90525 40.6507C6.77576 40.3821 6.54973 40.1721 6.27225 40.0628V30.645H37.5067V45H20.1322ZM40.3883 41.151C40.6065 41.151 40.782 41.3265 40.782 41.5448C40.782 41.763 40.6065 41.4788 40.3883 41.4788C40.17 41.4788 39.9945 41.763 39.9945 41.5448C39.9945 41.3265 40.17 41.151 40.3883 41.151ZM39.714 42.7305C39.4965 42.7305 39.3202 42.9487 39.3202 42.7305C39.3247 42.6289 39.3681 42.533 39.4416 42.4627C39.515 42.3924 39.6127 42.3532 39.7144 42.3532C39.816 42.3532 39.9138 42.3924 39.9872 42.4627C40.0606 42.533 40.1041 42.6289 40.1085 42.7305C40.1092 42.9487 39.9323 42.7305 39.714 42.7305ZM41.067 43.9118C40.632 43.9118 40.2788 44.52 40.2788 44.0835C40.2788 43.8742 40.3619 43.6736 40.5098 43.5256C40.6578 43.3776 40.8585 43.2945 41.0677 43.2945C41.277 43.2945 41.4777 43.3776 41.6257 43.5256C41.7736 43.6736 41.8568 43.8742 41.8568 44.0835C41.8568 44.5192 41.5035 43.9118 41.067 43.9118ZM41.5687 40.6125C41.274 40.6125 41.0348 41.052 41.0348 40.7565C41.0321 40.6846 41.0439 40.613 41.0695 40.5458C41.0952 40.4786 41.1341 40.4173 41.184 40.3655C41.2339 40.3137 41.2937 40.2725 41.3599 40.2444C41.426 40.2162 41.4972 40.2017 41.5691 40.2017C41.641 40.2017 41.7122 40.2162 41.7784 40.2444C41.8446 40.2725 41.9044 40.3137 41.9543 40.3655C42.0042 40.4173 42.0431 40.4786 42.0687 40.5458C42.0944 40.613 42.1062 40.6846 42.1035 40.7565C42.1035 41.052 41.8635 40.6125 41.5687 40.6125ZM43.5397 43.3733C43.245 43.3733 43.0065 43.8127 43.0065 43.5173C43.0065 43.3756 43.0628 43.2398 43.1629 43.1397C43.2631 43.0395 43.3989 42.9832 43.5405 42.9832C43.6821 42.9832 43.818 43.0395 43.9181 43.1397C44.0182 43.2398 44.0745 43.3756 44.0745 43.5173C44.0745 43.8127 43.8353 43.3733 43.5397 43.3733ZM44.0175 42.0427C44.0175 41.8324 44.1011 41.6307 44.2498 41.4819C44.3985 41.3332 44.6003 41.2496 44.8106 41.2496C45.021 41.2496 45.2227 41.3332 45.3714 41.4819C45.5202 41.6307 45.6038 41.8324 45.6038 42.0427C45.6038 42.4808 45.2483 41.7915 44.8102 41.7915C44.373 41.7915 44.0175 42.4808 44.0175 42.0427ZM45.2347 43.914C45.0165 43.914 44.841 44.1315 44.841 43.914C44.841 43.6957 45.0165 43.5202 45.2347 43.5202C45.453 43.5202 45.6285 43.6957 45.6285 43.914C45.6285 44.1315 45.453 43.914 45.2347 43.914Z" fill="#444444"/>
</svg>
