<svg width="56" height="57" viewBox="0 0 56 57" fill="none" xmlns="http://www.w3.org/2000/svg">
<g clip-path="url(#clip0_2018_7032)">
<circle cx="26.5" cy="8.5" r="6" fill="#EFEFEF" stroke="#444444"/>
<path d="M8.03027 15.2646C11.9219 15.3712 14.2771 16.0791 15.6738 16.8809C17.1723 17.7411 17.5669 18.7031 17.6387 19.2051L17.7598 20.0557L18.5859 19.8203C21.0595 19.1165 23.6187 18.758 26.1904 18.7539H26.2109L26.2305 18.7529C26.6435 18.7304 27.0601 18.7188 27.4805 18.7188C35.7159 18.7188 42.9233 23.1299 46.9316 29.8037L47.79 31.2324L48.29 29.6426C48.3557 29.434 48.4367 29.2386 48.5332 29.0557L48.6348 28.877L48.6416 28.8662C48.9583 28.3267 49.4627 27.9229 50.0586 27.7324C50.58 27.5658 51.1392 27.5723 51.6533 27.748L51.8701 27.834L51.875 27.8359C52.4198 28.0759 52.893 28.4527 53.249 28.9297C53.4197 29.1725 53.55 29.4412 53.6348 29.7256L55.0986 29.6006C55.1593 29.0892 55.1612 28.5726 55.1094 28.0605C55.2875 28.6998 55.3509 29.3655 55.2939 30.0264L55.2568 30.3457L55.2549 30.3564C55.1095 31.473 54.6425 32.4875 53.959 33.2979L53.8096 33.4756L53.7861 33.707L53.7832 33.7295C53.7407 34.0318 53.6785 34.3199 53.5977 34.5947C53.2429 35.5233 52.6217 36.3264 51.8105 36.9014C51.207 37.3229 50.5135 37.6206 49.752 37.7637C49.5934 37.7823 49.4315 37.792 49.2617 37.792C49.1186 37.792 48.723 37.7658 48.3379 37.9482L48.0234 38.0977L47.9346 38.4346C46.9605 42.1228 44.7045 45.3437 41.5713 47.5195L41.249 47.7432V55.75H38.2891C37.1283 55.75 36.1458 55.7499 35.3145 55.71C34.4785 55.6698 33.8452 55.5908 33.3721 55.4521C32.9071 55.3159 32.6569 55.1401 32.5107 54.9443C32.3673 54.7522 32.2555 54.4479 32.25 53.916L32.4209 52.5771L32.5527 51.5527L31.5381 51.7451C28.102 52.3969 24.5743 52.4063 21.1348 51.7725L20.249 51.6094V53.875C20.249 54.4345 20.1345 54.751 19.9893 54.9482C19.8459 55.1428 19.6019 55.3178 19.1455 55.4531C18.6797 55.5912 18.0543 55.6698 17.2266 55.71C16.4038 55.7499 15.4311 55.75 14.2793 55.75H11.2441L11.1963 48.0566L11.1943 47.6777L10.8877 47.4551L10.5225 47.1826C8.71756 45.798 7.19334 44.0788 6.03418 42.1182L5.81641 41.75H3.49902C2.98597 41.75 2.42912 41.3162 1.92188 40.0361C1.44028 38.8206 1.13846 37.1527 0.958984 35.4229C0.780826 33.7056 0.727844 31.9814 0.719727 30.6826C0.716094 30.1006 0.722454 29.606 0.729492 29.2383L5.44629 29.1631L5.87402 29.1562L6.08594 28.7852C7.16288 26.9004 8.58202 25.2333 10.2705 23.8691L10.6689 23.5459L10.5137 23.0576L8.03027 15.2646ZM48.249 36.7109L49.0049 36.7051L49.4492 36.7021L49.5244 36.7012L49.5967 36.6855C50.2698 36.5447 50.9067 36.2657 51.4658 35.8652L51.5117 35.832L51.5527 35.792L51.6963 35.6523L53.0156 34.3652H51.0986C50.475 34.3652 49.9022 34.1583 49.4521 33.8174L48.249 32.9062V36.7109ZM51.5244 29.0088C51.127 28.802 50.669 28.74 50.2305 28.8379C49.7724 28.9402 49.3685 29.2089 49.0957 29.5908L49.0674 29.6289L49.0449 29.6709C48.823 30.0839 48.7069 30.5458 48.7061 31.0146C48.7052 31.4834 48.8198 31.9456 49.04 32.3594V32.3584C49.2498 32.786 49.5873 33.1386 50.0068 33.3652C50.4366 33.5973 50.9294 33.6859 51.4131 33.6182L52.1582 33.5137L52.1562 33.5049C52.246 33.4926 52.3357 33.4788 52.4248 33.4619L52.9521 33.3623L53.0283 32.8311C53.106 32.2882 53.108 31.734 53.0361 31.1904C53.023 30.7228 52.8769 30.2681 52.6113 29.8818C52.3421 29.4903 51.9638 29.1876 51.5244 29.0088ZM12.2842 26.875C11.3891 26.875 10.5304 27.2313 9.89746 27.8643C9.26473 28.4971 8.90925 29.3551 8.90918 30.25C8.90918 31.1451 9.26453 32.0038 9.89746 32.6367C10.5304 33.2697 11.3891 33.625 12.2842 33.625C13.1791 33.6249 14.0371 33.2695 14.6699 32.6367C15.3029 32.0038 15.6592 31.1451 15.6592 30.25C15.6591 29.355 15.3028 28.4971 14.6699 27.8643C14.037 27.2314 13.1792 26.8751 12.2842 26.875ZM26.5459 20.8545C24.4251 20.8185 22.3077 21.0179 20.2324 21.4473L19.3428 21.6465C19.0609 21.7062 18.7939 21.8226 18.5586 21.9893C18.3146 22.1621 18.1097 22.3849 17.958 22.6426C17.8064 22.9003 17.7113 23.1872 17.6787 23.4844C17.6461 23.7817 17.6763 24.0827 17.7686 24.3672L17.7881 24.4248L17.8154 24.4785C18.0868 25.0064 18.5372 25.4202 19.0859 25.6465C19.6347 25.8728 20.246 25.897 20.8105 25.7139L20.8096 25.71C22.6519 25.277 24.5723 25.0469 26.5469 25.0469H26.8604C28.8115 25.0413 30.7564 25.2689 32.6533 25.7256L32.7402 25.7471H33.4248L33.4844 25.7373C33.8528 25.6774 34.2031 25.5333 34.5068 25.3164C34.8106 25.0996 35.06 24.8152 35.2363 24.4863L35.2686 24.4258L35.29 24.3604C35.3395 24.2054 35.3713 24.0455 35.3848 23.8838L35.3916 23.7207V23.7158C35.3916 23.2047 35.2097 22.7447 34.9482 22.3965C34.7028 22.0697 34.3384 21.7806 33.9023 21.6855H33.9033C31.9334 21.203 29.9008 20.93 27.8066 20.8662L26.9053 20.8516H26.8955L26.5459 20.8545Z" fill="#EFEFEF" stroke="#444444" stroke-width="1.5"/>
</g>
<defs>
<clipPath id="clip0_2018_7032">
<rect width="56" height="56" fill="white" transform="translate(0 0.5)"/>
</clipPath>
</defs>
</svg>
