<svg width="56" height="56" viewBox="0 0 56 56" fill="none" xmlns="http://www.w3.org/2000/svg">
<path d="M16.9961 25.0697H25.418V16.6426H16.9961V25.0697ZM21.6266 17.4835H24.5736V20.4331H21.6266V17.4835ZM21.6266 21.2775H24.5736V24.2288H21.6266V21.2775ZM17.8378 17.4835H20.784V20.4331H17.8378V17.4835ZM17.8378 21.2775H20.784V24.2288H17.8378V21.2775ZM31.4248 48.3955H39.8458V39.9657H31.4248V48.3955ZM36.0553 40.8092H39.0023V43.758H36.0553V40.8092ZM36.0553 44.6032H39.0023V47.552H36.0553V44.6032ZM32.2657 40.8092H35.2118V43.758H32.2657V40.8092ZM32.2657 44.6032H35.2118V47.552H32.2657V44.6032Z" fill="#444444"/>
<mask id="path-2-inside-1_2018_7022" fill="white">
<path d="M54.25 51.2304C54.25 50.8585 54.1021 50.5234 53.8641 50.2749C54.103 49.966 54.25 49.581 54.25 49.1601C54.25 48.672 54.0562 48.2039 53.7111 47.8587C53.366 47.5134 52.898 47.3194 52.4099 47.3191C52.2007 47.3191 52.0021 47.3611 51.8158 47.4259C51.7291 47.2365 51.6003 47.0694 51.4392 46.9375C51.278 46.8055 51.0888 46.7122 50.886 46.6647C50.6833 46.6171 50.4723 46.6166 50.2693 46.6632C50.0663 46.7097 49.8767 46.8021 49.7149 46.9333C49.7603 46.7315 49.7599 46.5221 49.7136 46.3206C49.6674 46.119 49.5764 45.9305 49.4475 45.7688C49.3185 45.6071 49.1549 45.4764 48.9688 45.3865C48.7826 45.2965 48.5785 45.2495 48.3717 45.2489C47.6928 45.2489 47.1301 45.7415 47.0146 46.3872C46.851 46.2471 46.6429 46.1696 46.4275 46.1685C45.92 46.1685 45.5079 46.5806 45.5079 47.0908V35.7525H49.3264L43.4333 29.19H34.7043V12.5256H40.0435L33.306 8.67213V3.7415H34.3018V1.75H27.3376V3.7415H28.3334V5.82662L21.2065 1.75L2.36863 12.5256H7.70788V29.19L1.75 35.7525H5.5685V45.6365C5.31241 45.3881 4.96975 45.2491 4.613 45.2489C3.934 45.2489 3.37137 45.7415 3.25587 46.3872C3.09223 46.2471 2.88418 46.1696 2.66875 46.1685C2.16212 46.1685 1.75 46.5798 1.75 47.0899V54.25H54.25V52.6094H52.871C53.6322 52.6094 54.25 51.9907 54.25 51.2304ZM3.36 48.0095C3.61462 48.0095 3.81937 48.2143 3.81937 48.4689C3.81937 48.7235 3.61462 48.3919 3.36 48.3919C3.10537 48.3919 2.90062 48.7235 2.90062 48.4689C2.90062 48.2143 3.10537 48.0095 3.36 48.0095ZM2.57337 49.8522C2.31963 49.8522 2.114 50.1069 2.114 49.8522C2.11917 49.7338 2.16987 49.6219 2.25554 49.5398C2.3412 49.4578 2.45522 49.4121 2.57381 49.4121C2.6924 49.4121 2.80642 49.4578 2.89209 49.5398C2.97775 49.6219 3.02846 49.7338 3.03363 49.8522C3.0345 50.1069 2.828 49.8522 2.57337 49.8522ZM4.15275 51.2304C3.64437 51.2304 3.23225 51.94 3.23225 51.4307C3.23225 51.1866 3.32923 50.9525 3.50186 50.7799C3.67449 50.6072 3.90862 50.5103 4.15275 50.5103C4.39688 50.5103 4.63101 50.6072 4.80364 50.7799C4.97627 50.9525 5.07325 51.1866 5.07325 51.4307C5.07325 51.9391 4.66112 51.2304 4.15275 51.2304ZM4.73725 47.3813C4.39337 47.3813 4.11425 47.894 4.11425 47.5492C4.11111 47.4654 4.12491 47.3818 4.15482 47.3034C4.18474 47.225 4.23016 47.1535 4.28836 47.0931C4.34656 47.0327 4.41635 46.9846 4.49355 46.9518C4.57076 46.9189 4.65379 46.902 4.73769 46.902C4.82158 46.902 4.90462 46.9189 4.98182 46.9518C5.05903 46.9846 5.12882 47.0327 5.18702 47.0931C5.24522 47.1535 5.29064 47.225 5.32055 47.3034C5.35047 47.3818 5.36427 47.4654 5.36112 47.5492C5.36112 47.894 5.082 47.3813 4.73725 47.3813ZM9.45788 12.5256H32.956V29.19H9.45788V12.5256ZM7.03763 50.6021C6.69288 50.6021 6.41462 51.1149 6.41462 50.7701C6.41462 50.6049 6.48026 50.4464 6.5971 50.3296C6.71393 50.2128 6.8724 50.1471 7.03763 50.1471C7.20286 50.1471 7.36132 50.2128 7.47815 50.3296C7.59499 50.4464 7.66062 50.6049 7.66062 50.7701C7.66062 51.1149 7.38238 50.6021 7.03763 50.6021ZM7.595 49.0499C7.595 48.9284 7.61892 48.8082 7.6654 48.6959C7.71188 48.5837 7.78001 48.4818 7.86589 48.3959C7.95177 48.31 8.05373 48.2419 8.16594 48.1954C8.27815 48.1489 8.39842 48.125 8.51988 48.125C8.64133 48.125 8.7616 48.1489 8.87381 48.1954C8.98602 48.2419 9.08798 48.31 9.17386 48.3959C9.25974 48.4818 9.32787 48.5837 9.37435 48.6959C9.42083 48.8082 9.44475 48.9284 9.44475 49.0499C9.44475 49.5609 9.03 48.7568 8.519 48.7568C8.00887 48.7568 7.595 49.5609 7.595 49.0499ZM9.01425 51.233C8.75962 51.233 8.55488 51.4867 8.55488 51.233C8.55488 50.9784 8.75962 50.7736 9.01425 50.7736C9.26888 50.7736 9.47362 50.9784 9.47362 51.233C9.47362 51.4867 9.26888 51.233 9.01425 51.233ZM22.1988 47.2631C22.052 47.2631 21.9112 47.2048 21.8074 47.101C21.7036 46.9972 21.6453 46.8565 21.6453 46.7097C21.6453 46.5629 21.7036 46.4221 21.8074 46.3183C21.9112 46.2146 22.052 46.1562 22.1988 46.1562C22.3455 46.1562 22.4863 46.2146 22.5901 46.3183C22.6939 46.4221 22.7522 46.5629 22.7522 46.7097C22.7522 46.8565 22.6939 46.9972 22.5901 47.101C22.4863 47.2048 22.3455 47.2631 22.1988 47.2631ZM23.4876 52.5V42.2835H24.2261V40.81H15.3816V42.2844H16.1184V52.5H9.6495C9.85578 52.4133 10.0378 52.2776 10.1798 52.1046C10.3217 51.9317 10.4193 51.7267 10.4642 51.5075C10.509 51.2883 10.4997 51.0614 10.437 50.8466C10.3743 50.6318 10.2602 50.4356 10.1045 50.2749C10.3434 49.9651 10.4904 49.581 10.4904 49.1601C10.4904 48.672 10.2965 48.2039 9.95147 47.8587C9.6064 47.5134 9.13836 47.3194 8.65025 47.3191C8.44112 47.3191 8.2425 47.3611 8.05612 47.4259C7.90506 47.1124 7.64135 46.8675 7.31763 46.7399V35.7525H43.7579V52.5H23.4876ZM47.1196 48.0095C47.3743 48.0095 47.579 48.2143 47.579 48.4689C47.579 48.7235 47.3743 48.3919 47.1196 48.3919C46.865 48.3919 46.6603 48.7235 46.6603 48.4689C46.6603 48.2143 46.865 48.0095 47.1196 48.0095ZM46.333 49.8522C46.0793 49.8522 45.8736 50.1069 45.8736 49.8522C45.8788 49.7338 45.9295 49.6219 46.0152 49.5398C46.1008 49.4578 46.2148 49.4121 46.3334 49.4121C46.452 49.4121 46.566 49.4578 46.6517 49.5398C46.7374 49.6219 46.7881 49.7338 46.7933 49.8522C46.7941 50.1069 46.5876 49.8522 46.333 49.8522ZM47.9115 51.2304C47.404 51.2304 46.9919 51.94 46.9919 51.4307C46.9919 51.1866 47.0889 50.9525 47.2615 50.7799C47.4341 50.6072 47.6682 50.5103 47.9124 50.5103C48.1565 50.5103 48.3906 50.6072 48.5633 50.7799C48.7359 50.9525 48.8329 51.1866 48.8329 51.4307C48.8329 51.9391 48.4207 51.2304 47.9115 51.2304ZM48.4969 47.3813C48.153 47.3813 47.8739 47.894 47.8739 47.5492C47.8707 47.4654 47.8845 47.3818 47.9144 47.3034C47.9444 47.225 47.9898 47.1535 48.048 47.0931C48.1062 47.0327 48.176 46.9846 48.2532 46.9518C48.3304 46.9189 48.4134 46.902 48.4973 46.902C48.5812 46.902 48.6642 46.9189 48.7414 46.9518C48.8186 46.9846 48.8884 47.0327 48.9466 47.0931C49.0048 47.1535 49.0503 47.225 49.0802 47.3034C49.1101 47.3818 49.1239 47.4654 49.1208 47.5492C49.1208 47.894 48.8407 47.3813 48.4969 47.3813ZM50.7964 50.6021C50.4525 50.6021 50.1742 51.1149 50.1742 50.7701C50.1742 50.6049 50.2399 50.4464 50.3567 50.3296C50.4736 50.2128 50.632 50.1471 50.7972 50.1471C50.9625 50.1471 51.1209 50.2128 51.2378 50.3296C51.3546 50.4464 51.4202 50.6049 51.4202 50.7701C51.4202 51.1149 51.1411 50.6021 50.7964 50.6021ZM51.3537 49.0499C51.3537 48.8045 51.4512 48.5691 51.6248 48.3956C51.7983 48.222 52.0337 48.1246 52.2791 48.1246C52.5245 48.1246 52.7598 48.222 52.9334 48.3956C53.1069 48.5691 53.2044 48.8045 53.2044 49.0499C53.2044 49.5609 52.7896 48.7568 52.2786 48.7568C51.7685 48.7568 51.3537 49.5609 51.3537 49.0499ZM52.7739 51.233C52.5192 51.233 52.3145 51.4867 52.3145 51.233C52.3145 50.9784 52.5192 50.7736 52.7739 50.7736C53.0285 50.7736 53.2332 50.9784 53.2332 51.233C53.2332 51.4867 53.0285 51.233 52.7739 51.233Z"/>
</mask>
<path d="M54.25 51.2304C54.25 50.8585 54.1021 50.5234 53.8641 50.2749C54.103 49.966 54.25 49.581 54.25 49.1601C54.25 48.672 54.0562 48.2039 53.7111 47.8587C53.366 47.5134 52.898 47.3194 52.4099 47.3191C52.2007 47.3191 52.0021 47.3611 51.8158 47.4259C51.7291 47.2365 51.6003 47.0694 51.4392 46.9375C51.278 46.8055 51.0888 46.7122 50.886 46.6647C50.6833 46.6171 50.4723 46.6166 50.2693 46.6632C50.0663 46.7097 49.8767 46.8021 49.7149 46.9333C49.7603 46.7315 49.7599 46.5221 49.7136 46.3206C49.6674 46.119 49.5764 45.9305 49.4475 45.7688C49.3185 45.6071 49.1549 45.4764 48.9688 45.3865C48.7826 45.2965 48.5785 45.2495 48.3717 45.2489C47.6928 45.2489 47.1301 45.7415 47.0146 46.3872C46.851 46.2471 46.6429 46.1696 46.4275 46.1685C45.92 46.1685 45.5079 46.5806 45.5079 47.0908V35.7525H49.3264L43.4333 29.19H34.7043V12.5256H40.0435L33.306 8.67213V3.7415H34.3018V1.75H27.3376V3.7415H28.3334V5.82662L21.2065 1.75L2.36863 12.5256H7.70788V29.19L1.75 35.7525H5.5685V45.6365C5.31241 45.3881 4.96975 45.2491 4.613 45.2489C3.934 45.2489 3.37137 45.7415 3.25587 46.3872C3.09223 46.2471 2.88418 46.1696 2.66875 46.1685C2.16212 46.1685 1.75 46.5798 1.75 47.0899V54.25H54.25V52.6094H52.871C53.6322 52.6094 54.25 51.9907 54.25 51.2304ZM3.36 48.0095C3.61462 48.0095 3.81937 48.2143 3.81937 48.4689C3.81937 48.7235 3.61462 48.3919 3.36 48.3919C3.10537 48.3919 2.90062 48.7235 2.90062 48.4689C2.90062 48.2143 3.10537 48.0095 3.36 48.0095ZM2.57337 49.8522C2.31963 49.8522 2.114 50.1069 2.114 49.8522C2.11917 49.7338 2.16987 49.6219 2.25554 49.5398C2.3412 49.4578 2.45522 49.4121 2.57381 49.4121C2.6924 49.4121 2.80642 49.4578 2.89209 49.5398C2.97775 49.6219 3.02846 49.7338 3.03363 49.8522C3.0345 50.1069 2.828 49.8522 2.57337 49.8522ZM4.15275 51.2304C3.64437 51.2304 3.23225 51.94 3.23225 51.4307C3.23225 51.1866 3.32923 50.9525 3.50186 50.7799C3.67449 50.6072 3.90862 50.5103 4.15275 50.5103C4.39688 50.5103 4.63101 50.6072 4.80364 50.7799C4.97627 50.9525 5.07325 51.1866 5.07325 51.4307C5.07325 51.9391 4.66112 51.2304 4.15275 51.2304ZM4.73725 47.3813C4.39337 47.3813 4.11425 47.894 4.11425 47.5492C4.11111 47.4654 4.12491 47.3818 4.15482 47.3034C4.18474 47.225 4.23016 47.1535 4.28836 47.0931C4.34656 47.0327 4.41635 46.9846 4.49355 46.9518C4.57076 46.9189 4.65379 46.902 4.73769 46.902C4.82158 46.902 4.90462 46.9189 4.98182 46.9518C5.05903 46.9846 5.12882 47.0327 5.18702 47.0931C5.24522 47.1535 5.29064 47.225 5.32055 47.3034C5.35047 47.3818 5.36427 47.4654 5.36112 47.5492C5.36112 47.894 5.082 47.3813 4.73725 47.3813ZM9.45788 12.5256H32.956V29.19H9.45788V12.5256ZM7.03763 50.6021C6.69288 50.6021 6.41462 51.1149 6.41462 50.7701C6.41462 50.6049 6.48026 50.4464 6.5971 50.3296C6.71393 50.2128 6.8724 50.1471 7.03763 50.1471C7.20286 50.1471 7.36132 50.2128 7.47815 50.3296C7.59499 50.4464 7.66062 50.6049 7.66062 50.7701C7.66062 51.1149 7.38238 50.6021 7.03763 50.6021ZM7.595 49.0499C7.595 48.9284 7.61892 48.8082 7.6654 48.6959C7.71188 48.5837 7.78001 48.4818 7.86589 48.3959C7.95177 48.31 8.05373 48.2419 8.16594 48.1954C8.27815 48.1489 8.39842 48.125 8.51988 48.125C8.64133 48.125 8.7616 48.1489 8.87381 48.1954C8.98602 48.2419 9.08798 48.31 9.17386 48.3959C9.25974 48.4818 9.32787 48.5837 9.37435 48.6959C9.42083 48.8082 9.44475 48.9284 9.44475 49.0499C9.44475 49.5609 9.03 48.7568 8.519 48.7568C8.00887 48.7568 7.595 49.5609 7.595 49.0499ZM9.01425 51.233C8.75962 51.233 8.55488 51.4867 8.55488 51.233C8.55488 50.9784 8.75962 50.7736 9.01425 50.7736C9.26888 50.7736 9.47362 50.9784 9.47362 51.233C9.47362 51.4867 9.26888 51.233 9.01425 51.233ZM22.1988 47.2631C22.052 47.2631 21.9112 47.2048 21.8074 47.101C21.7036 46.9972 21.6453 46.8565 21.6453 46.7097C21.6453 46.5629 21.7036 46.4221 21.8074 46.3183C21.9112 46.2146 22.052 46.1562 22.1988 46.1562C22.3455 46.1562 22.4863 46.2146 22.5901 46.3183C22.6939 46.4221 22.7522 46.5629 22.7522 46.7097C22.7522 46.8565 22.6939 46.9972 22.5901 47.101C22.4863 47.2048 22.3455 47.2631 22.1988 47.2631ZM23.4876 52.5V42.2835H24.2261V40.81H15.3816V42.2844H16.1184V52.5H9.6495C9.85578 52.4133 10.0378 52.2776 10.1798 52.1046C10.3217 51.9317 10.4193 51.7267 10.4642 51.5075C10.509 51.2883 10.4997 51.0614 10.437 50.8466C10.3743 50.6318 10.2602 50.4356 10.1045 50.2749C10.3434 49.9651 10.4904 49.581 10.4904 49.1601C10.4904 48.672 10.2965 48.2039 9.95147 47.8587C9.6064 47.5134 9.13836 47.3194 8.65025 47.3191C8.44112 47.3191 8.2425 47.3611 8.05612 47.4259C7.90506 47.1124 7.64135 46.8675 7.31763 46.7399V35.7525H43.7579V52.5H23.4876ZM47.1196 48.0095C47.3743 48.0095 47.579 48.2143 47.579 48.4689C47.579 48.7235 47.3743 48.3919 47.1196 48.3919C46.865 48.3919 46.6603 48.7235 46.6603 48.4689C46.6603 48.2143 46.865 48.0095 47.1196 48.0095ZM46.333 49.8522C46.0793 49.8522 45.8736 50.1069 45.8736 49.8522C45.8788 49.7338 45.9295 49.6219 46.0152 49.5398C46.1008 49.4578 46.2148 49.4121 46.3334 49.4121C46.452 49.4121 46.566 49.4578 46.6517 49.5398C46.7374 49.6219 46.7881 49.7338 46.7933 49.8522C46.7941 50.1069 46.5876 49.8522 46.333 49.8522ZM47.9115 51.2304C47.404 51.2304 46.9919 51.94 46.9919 51.4307C46.9919 51.1866 47.0889 50.9525 47.2615 50.7799C47.4341 50.6072 47.6682 50.5103 47.9124 50.5103C48.1565 50.5103 48.3906 50.6072 48.5633 50.7799C48.7359 50.9525 48.8329 51.1866 48.8329 51.4307C48.8329 51.9391 48.4207 51.2304 47.9115 51.2304ZM48.4969 47.3813C48.153 47.3813 47.8739 47.894 47.8739 47.5492C47.8707 47.4654 47.8845 47.3818 47.9144 47.3034C47.9444 47.225 47.9898 47.1535 48.048 47.0931C48.1062 47.0327 48.176 46.9846 48.2532 46.9518C48.3304 46.9189 48.4134 46.902 48.4973 46.902C48.5812 46.902 48.6642 46.9189 48.7414 46.9518C48.8186 46.9846 48.8884 47.0327 48.9466 47.0931C49.0048 47.1535 49.0503 47.225 49.0802 47.3034C49.1101 47.3818 49.1239 47.4654 49.1208 47.5492C49.1208 47.894 48.8407 47.3813 48.4969 47.3813ZM50.7964 50.6021C50.4525 50.6021 50.1742 51.1149 50.1742 50.7701C50.1742 50.6049 50.2399 50.4464 50.3567 50.3296C50.4736 50.2128 50.632 50.1471 50.7972 50.1471C50.9625 50.1471 51.1209 50.2128 51.2378 50.3296C51.3546 50.4464 51.4202 50.6049 51.4202 50.7701C51.4202 51.1149 51.1411 50.6021 50.7964 50.6021ZM51.3537 49.0499C51.3537 48.8045 51.4512 48.5691 51.6248 48.3956C51.7983 48.222 52.0337 48.1246 52.2791 48.1246C52.5245 48.1246 52.7598 48.222 52.9334 48.3956C53.1069 48.5691 53.2044 48.8045 53.2044 49.0499C53.2044 49.5609 52.7896 48.7568 52.2786 48.7568C51.7685 48.7568 51.3537 49.5609 51.3537 49.0499ZM52.7739 51.233C52.5192 51.233 52.3145 51.4867 52.3145 51.233C52.3145 50.9784 52.5192 50.7736 52.7739 50.7736C53.0285 50.7736 53.2332 50.9784 53.2332 51.233C53.2332 51.4867 53.0285 51.233 52.7739 51.233Z" fill="#EFEFEF" stroke="#444444" stroke-width="3" mask="url(#path-2-inside-1_2018_7022)"/>
</svg>
