<svg fill="none" height="24" viewBox="0 0 25 24" width="25" xmlns="http://www.w3.org/2000/svg">
    <path clip-rule="evenodd" d="M16.2601 5.6435C16.1222 5.42314 15.919 5.25125 15.6788 5.15178C15.4386 5.0523 15.1734 5.03018 14.9201 5.0885L13.1221 5.5015C12.9378 5.54385 12.7464 5.54385 12.5621 5.5015L10.7641 5.0885C10.5108 5.03018 10.2455 5.0523 10.0054 5.15178C9.76519 5.25125 9.56201 5.42314 9.42409 5.6435L8.44409 7.2075C8.34409 7.3675 8.20909 7.5025 8.04909 7.6035L6.48509 8.5835C6.26511 8.72129 6.09348 8.92415 5.99403 9.16391C5.89457 9.40368 5.87223 9.66846 5.93009 9.9215L6.34309 11.7215C6.38529 11.9054 6.38529 12.0966 6.34309 12.2805L5.93009 14.0795C5.872 14.3327 5.89424 14.5977 5.9937 14.8377C6.09317 15.0776 6.26492 15.2806 6.48509 15.4185L8.04909 16.3985C8.20909 16.4985 8.34409 16.6335 8.44509 16.7935L9.42509 18.3575C9.70709 18.8085 10.2451 19.0315 10.7641 18.9125L12.5621 18.4995C12.7464 18.4571 12.9378 18.4571 13.1221 18.4995L14.9211 18.9125C15.1743 18.9706 15.4393 18.9484 15.6793 18.8489C15.9192 18.7494 16.1222 18.5777 16.2601 18.3575L17.2401 16.7935C17.3401 16.6335 17.4751 16.4985 17.6351 16.3985L19.2001 15.4185C19.4203 15.2804 19.592 15.0772 19.6912 14.837C19.7905 14.5969 19.8125 14.3317 19.7541 14.0785L19.3421 12.2805C19.2997 12.0962 19.2997 11.9048 19.3421 11.7205L19.7551 9.9215C19.8133 9.66841 19.7912 9.40349 19.6919 9.16353C19.5926 8.92357 19.4211 8.72049 19.2011 8.5825L17.6361 7.6025C17.4763 7.50231 17.3413 7.36728 17.2411 7.2075L16.2601 5.6435ZM15.7571 9.7705C15.8189 9.65676 15.8343 9.52347 15.7998 9.39867C15.7654 9.27387 15.6839 9.16728 15.5725 9.10134C15.4611 9.0354 15.3285 9.01525 15.2025 9.04512C15.0765 9.07499 14.967 9.15255 14.8971 9.2615L12.2821 13.6875L10.7031 12.1755C10.6563 12.1274 10.6002 12.0892 10.5383 12.0633C10.4764 12.0373 10.4099 12.0241 10.3427 12.0244C10.2756 12.0246 10.2092 12.0385 10.1475 12.065C10.0858 12.0915 10.0301 12.1301 9.98368 12.1786C9.93725 12.2271 9.90108 12.2845 9.8773 12.3473C9.85352 12.4101 9.84264 12.477 9.84529 12.5441C9.84794 12.6112 9.86408 12.6771 9.89274 12.7378C9.92139 12.7985 9.96199 12.8528 10.0121 12.8975L12.0461 14.8465C12.1005 14.8986 12.166 14.9376 12.2377 14.9608C12.3093 14.984 12.3853 14.9907 12.4599 14.9804C12.5346 14.9701 12.6059 14.9431 12.6686 14.9014C12.7313 14.8597 12.7838 14.8043 12.8221 14.7395L15.7571 9.7705Z"
          fill="#444444"
          fill-rule="evenodd"/>
</svg>
