<svg width="25" height="24" viewBox="0 0 25 24" fill="none" xmlns="http://www.w3.org/2000/svg">
<g id="bitcoin-icons:verify-outline">
<g id="Group">
<path id="Vector" d="M14.8908 5.53908C15.0932 5.49256 15.3051 5.51022 15.4971 5.5896C15.689 5.66899 15.8514 5.80616 15.9618 5.98208L16.9558 7.56908C17.036 7.69691 17.144 7.80494 17.2718 7.88508L18.8588 8.87908C19.0351 8.98941 19.1726 9.15196 19.2522 9.3441C19.3318 9.53624 19.3495 9.74841 19.3028 9.95108L18.8828 11.7751C18.8489 11.9225 18.8489 12.0757 18.8828 12.2231L19.3028 14.0481C19.349 14.2505 19.3311 14.4622 19.2516 14.6539C19.172 14.8457 19.0347 15.0079 18.8588 15.1181L17.2718 16.1131C17.144 16.1932 17.036 16.3013 16.9558 16.4291L15.9618 18.0161C15.8516 18.1922 15.6892 18.3296 15.4972 18.4091C15.3053 18.4887 15.0934 18.5065 14.8908 18.4601L13.0658 18.0401C12.9187 18.0064 12.7659 18.0064 12.6188 18.0401L10.7938 18.4601C10.5913 18.5065 10.3794 18.4887 10.1874 18.4091C9.99548 18.3296 9.8331 18.1922 9.72283 18.0161L8.72883 16.4291C8.6484 16.3012 8.54001 16.1931 8.41183 16.1131L6.82583 15.1191C6.64973 15.0088 6.51235 14.8464 6.43278 14.6545C6.35321 14.4626 6.3354 14.2506 6.38183 14.0481L6.80083 12.2231C6.83471 12.0757 6.83471 11.9225 6.80083 11.7751L6.38083 9.95108C6.33427 9.74831 6.35212 9.53606 6.43188 9.34391C6.51165 9.15176 6.64936 8.98927 6.82583 8.87908L8.41183 7.88508C8.54001 7.80505 8.6484 7.69701 8.72883 7.56908L9.72283 5.98208C9.83318 5.80635 9.99546 5.66931 10.1872 5.58993C10.3789 5.51055 10.5906 5.49278 10.7928 5.53908L12.6188 5.95808C12.7659 5.99181 12.9187 5.99181 13.0658 5.95808L14.8908 5.53908Z" stroke="#444444"/>
<path id="Vector_2" d="M10.3574 12.5347L12.3924 14.4837L15.3274 9.51367" stroke="#444444" stroke-linecap="round" stroke-linejoin="round"/>
</g>
</g>
</svg>
