<svg width="56" height="57" viewBox="0 0 56 57" fill="none" xmlns="http://www.w3.org/2000/svg">
<path d="M30.2422 41.1024L20.3092 32.6382C15.5118 36.6632 10.8708 40.8831 6 44.7797L6.00117 47.3931C6.00117 48.0119 6.247 48.6054 6.68458 49.043C7.12217 49.4806 7.71566 49.7264 8.3345 49.7264H46.8345C47.4533 49.7264 48.0468 49.4806 48.4844 49.043C48.922 48.6054 49.1678 48.0119 49.1678 47.3931V25.2812C49.1678 25.2812 36.303 35.9912 30.2422 41.1012" fill="#EFEFEF"/>
<path d="M30.2422 41.1024L20.3092 32.6382C15.5118 36.6632 10.8708 40.8831 6 44.7797L6.00117 47.3931C6.00117 48.0119 6.247 48.6054 6.68458 49.043C7.12217 49.4806 7.71566 49.7264 8.3345 49.7264H46.8345C47.4533 49.7264 48.0468 49.4806 48.4844 49.043C48.922 48.6054 49.1678 48.0119 49.1678 47.3931V25.2812C49.1678 25.2812 36.303 35.9912 30.2422 41.1012" stroke="#444444" stroke-width="1.5" stroke-linecap="round" stroke-linejoin="round"/>
<path d="M49.1667 15L30.2398 30.82L20.3068 22.357L6 34.4985V39.2655L20.3068 27.1252L30.2398 35.587L49.169 19.767L49.1667 15Z" stroke="#444444" stroke-width="1.5" stroke-linecap="round" stroke-linejoin="round"/>
</svg>
