<svg width="228" height="425" viewBox="0 0 228 425" fill="none" xmlns="http://www.w3.org/2000/svg">
<g clip-path="url(#clip0_984_3540)">
<path d="M62.6249 368.006C62.6666 368.006 62.7135 368.016 62.7551 368.021C63.3749 368.12 63.6353 367.173 63.0207 367.074C62.8697 367.053 62.7239 367.032 62.5885 367.016L62.5572 366.485C62.5312 365.86 61.5468 365.844 61.578 366.485C61.5885 366.615 61.5885 366.74 61.5989 366.865C55.1353 365.86 48.6614 364.964 42.1666 364.162C42.2239 363.626 42.2551 363.084 42.2655 362.537C42.2655 361.896 41.2864 361.896 41.2864 362.537C41.276 363.042 41.2447 363.542 41.1978 364.048C40.9895 364.016 40.7968 363.985 40.5885 363.954C39.9635 363.886 39.9687 364.865 40.5885 364.933C40.7551 364.959 40.9114 364.985 41.078 365.006C40.2343 370.475 36.7447 375.271 32.5833 378.834C27.1926 383.485 20.4791 386.266 14.2343 389.548C11.526 390.964 7.96866 392.48 6.7395 395.521C6.38012 396.433 6.22908 397.48 6.43742 398.454C6.52596 398.891 6.69262 399.313 6.93742 399.709C7.64054 400.824 8.85929 401.433 10.1353 401.667C11.6718 401.949 13.2447 401.792 14.7916 401.678C16.8228 401.532 18.8437 401.381 20.8645 401.225C32.2916 400.334 44.1093 400.199 55.401 398.199C58.3332 397.678 60.2135 396.146 61.3905 394.068C64.2655 389.021 63.0312 380.688 62.901 375.475C62.8437 372.985 62.7447 370.495 62.6249 368.006Z" fill="#FFEFE6"/>
<path d="M61.3906 394.068C60.2135 396.146 58.3333 397.678 55.401 398.199C44.1094 400.199 32.2917 400.334 20.8646 401.225C18.8437 401.381 16.8229 401.532 14.7917 401.678C13.2448 401.792 11.6719 401.949 10.1354 401.667C8.85938 401.433 7.64063 400.824 6.9375 399.709C6.69271 399.313 6.52604 398.891 6.4375 398.454C24.1771 397.844 44.2969 396.443 61.3906 394.068Z" fill="#403E3D"/>
<path d="M46.4167 395.98C48.3282 392.97 50.2917 389.891 53.1042 387.631C55.7396 385.516 59.2813 384.225 62.6511 385.063C63.2605 385.22 63.5209 384.272 62.9115 384.121C59.3646 383.24 55.6615 384.459 52.8178 386.621C49.7396 388.959 47.6198 392.261 45.5678 395.485C45.2292 396.016 46.0782 396.511 46.4167 395.98Z" fill="#231915"/>
<path d="M24.2551 385.371C26.4843 387.86 30.2708 388.043 33.2187 386.881C35.0103 386.173 36.5885 385.079 38.0833 383.892C39.7812 382.537 41.4166 381.105 43.0728 379.709C45.0364 378.053 46.9999 376.397 48.9687 374.741C49.4478 374.329 48.7551 373.642 48.2708 374.048C45.1093 376.714 41.9478 379.386 38.7812 382.048C36.1666 384.251 33.1926 386.621 29.5937 386.595C27.8437 386.589 26.1301 386.001 24.9478 384.673C24.526 384.204 23.8333 384.902 24.2551 385.371Z" fill="#231915"/>
<path d="M179 395.521C177.776 392.48 174.224 390.964 171.516 389.548C165.271 386.266 158.562 383.485 153.156 378.834C149.005 375.271 145.516 370.475 144.661 365.006C144.828 364.985 144.995 364.959 145.161 364.933C145.781 364.865 145.792 363.886 145.161 363.954C144.958 363.985 144.75 364.016 144.552 364.048C144.505 363.542 144.464 363.042 144.464 362.537C144.464 361.896 143.484 361.896 143.484 362.537C143.484 363.084 143.526 363.626 143.583 364.162C137.089 364.964 130.615 365.86 124.151 366.865C124.151 366.74 124.161 366.615 124.161 366.485C124.203 365.844 123.224 365.86 123.182 366.485C123.172 366.662 123.172 366.839 123.161 367.016C123.016 367.032 122.88 367.053 122.729 367.074C122.115 367.173 122.38 368.12 122.995 368.021C123.036 368.016 123.073 368.006 123.125 368.006C123.005 370.495 122.906 372.985 122.849 375.475C122.729 380.511 121.562 388.475 124.083 393.563C125.245 395.902 127.172 397.636 130.354 398.199C141.641 400.199 153.458 400.334 164.875 401.225C166.906 401.381 168.927 401.532 170.958 401.678C172.505 401.792 174.078 401.949 175.62 401.667C176.891 401.433 178.099 400.824 178.812 399.709C179.057 399.324 179.219 398.902 179.302 398.459C179.521 397.49 179.375 396.433 179 395.521Z" fill="#FFEFE6"/>
<path d="M179.307 398.458C179.219 398.901 179.057 399.323 178.812 399.708C178.099 400.823 176.891 401.432 175.62 401.667C174.078 401.948 172.51 401.792 170.958 401.677C168.927 401.531 166.906 401.38 164.875 401.224C153.458 400.333 141.641 400.198 130.354 398.198C127.177 397.635 125.245 395.901 124.083 393.562C141.109 395.964 161.573 397.833 179.307 398.458Z" fill="#403E3D"/>
<path d="M140.177 395.485C138.13 392.261 136.005 388.959 132.927 386.621C130.083 384.459 126.385 383.24 122.839 384.121C122.229 384.272 122.484 385.22 123.099 385.063C126.469 384.225 130.01 385.516 132.646 387.631C135.453 389.891 137.417 392.97 139.333 395.98C139.672 396.506 140.516 396.016 140.177 395.485Z" fill="#231915"/>
<path d="M160.802 384.673C158.578 387.157 154.818 386.949 152.042 385.605C150.396 384.808 148.938 383.688 147.536 382.527C145.979 381.235 144.443 379.923 142.901 378.621C141.094 377.095 139.281 375.569 137.474 374.048C136.995 373.642 136.297 374.329 136.781 374.741C140.188 377.61 143.568 380.522 147.005 383.355C149.776 385.636 153.01 387.85 156.776 387.553C158.563 387.407 160.281 386.725 161.495 385.371C161.917 384.902 161.224 384.204 160.802 384.673Z" fill="#231915"/>
<path d="M99.4011 147.104C98.1355 145.917 96.6824 144.896 95.1615 143.985C94.6095 144.037 94.0209 144 93.3907 143.849C87.0417 142.287 80.7501 141.516 74.2084 141.844C72.3595 141.938 70.5209 142.12 68.6876 142.313C64.9376 145.094 60.9688 147.625 58.349 151.578C56.2657 154.724 55.1459 158.391 54.0365 161.959C52.8074 165.917 51.6459 169.896 50.547 173.896C46.1199 189.985 42.7345 206.349 40.1511 222.834C37.5938 239.183 35.8178 255.646 34.5834 272.141C33.3334 288.823 32.6303 305.537 32.2136 322.256C31.8022 338.985 31.5938 374.521 31.5886 375.558C34.2345 376.183 36.9011 376.693 39.6251 376.979C48.2188 377.881 57.1511 377.459 65.8699 376.084C68.1303 361.323 70.4324 346.568 72.8126 331.828C75.7605 313.578 78.8022 295.344 81.9272 277.125C85.0574 258.907 88.2813 240.703 91.5886 222.516C94.9011 204.328 98.3022 186.157 101.797 168.006C103.13 161.058 105.271 152.62 99.4011 147.104Z" fill="#4E5B8A"/>
<path d="M85.3333 147.104C86.5989 145.917 88.0468 144.896 89.5729 143.985C90.125 144.037 90.7135 144 91.3385 143.849C97.6927 142.287 103.979 141.516 110.526 141.844C112.375 141.938 114.208 142.12 116.047 142.313C119.792 145.094 123.76 147.625 126.38 151.578C128.464 154.724 129.589 158.391 130.698 161.959C131.927 165.917 133.089 169.896 134.187 173.896C138.615 189.985 142 206.349 144.578 222.834C147.141 239.183 148.911 255.646 150.151 272.141C151.401 288.823 152.104 305.537 152.516 322.256C152.927 338.985 153.141 374.521 153.146 375.558C150.5 376.183 147.828 376.693 145.109 376.979C136.516 377.881 127.583 377.459 118.865 376.084C116.604 361.323 114.297 346.568 111.917 331.828C108.969 313.578 105.932 295.344 102.802 277.125C99.677 258.907 96.4531 240.703 93.1406 222.516C89.8333 204.328 86.4323 186.157 82.9375 168.006C81.6041 161.058 79.4635 152.62 85.3333 147.104Z" fill="#4E5B8A"/>
<path d="M87.6512 184.234C88.7866 192.99 89.6251 201.781 90.7605 210.542C91.1043 213.167 91.4689 215.792 91.8647 218.411C91.9585 219.031 92.9012 218.766 92.8126 218.151C91.5001 209.49 90.5991 200.781 89.5939 192.083C89.2918 189.464 88.9741 186.849 88.6303 184.234C88.5522 183.615 87.573 183.609 87.6512 184.234Z" fill="#231915"/>
<path d="M122.812 105.079L104.005 101.923C104.734 99.0894 105.396 96.2821 106.016 93.5269C108.526 82.2821 115.422 67.8915 115.703 56.3707C115.901 48.1519 111.292 38.0998 101.401 34.7248C97.7759 33.4853 92.1145 33.6467 88.4009 34.178C84.2759 34.7665 60.5416 39.7717 52.5155 42.5113C45.7811 44.8082 38.8228 47.8394 34.0624 53.355C29.203 58.9905 27.802 66.4748 27.0832 73.678C26.2238 82.3655 26.3176 90.2925 26.3228 99.0217C26.328 103.22 26.3801 107.433 26.6405 111.626C26.8645 115.287 27.2968 118.97 28.328 122.496C29.3176 125.876 30.9009 129.069 33.2291 131.725C35.302 134.089 37.9061 135.949 40.7238 137.308C44.7916 139.272 49.2499 140.267 53.7551 140.673L52.5155 149.386C52.5155 149.386 70.3436 155.73 92.6561 155.267C114.969 154.808 129.448 149.386 129.448 149.386L122.812 105.079Z" fill="#6982B5"/>
<path d="M52.7136 43.4109C55.8022 46.7807 60.2865 48.7443 64.849 48.8224C69.3074 48.8953 73.6147 47.0307 76.7397 43.8797C78.4845 42.1245 79.823 39.9995 80.6459 37.6661C80.8595 37.0672 79.9115 36.812 79.7032 37.4057C78.3282 41.2963 75.3595 44.5203 71.6615 46.3328C67.8334 48.2078 63.3699 48.2807 59.4063 46.7859C57.1199 45.9213 55.0574 44.5203 53.4063 42.7182C52.9792 42.2495 52.2865 42.9474 52.7136 43.4109Z" fill="#231915"/>
<path d="M54.1563 141.797C62.724 141.802 71.2188 139.193 78.2969 134.359C78.8177 134.005 78.3229 133.156 77.8021 133.51C70.8594 138.255 62.5625 140.823 54.1563 140.818C53.526 140.818 53.5208 141.797 54.1563 141.797Z" fill="#231915"/>
<path d="M47.8387 76.6095C50.3647 84.1512 52.896 91.6928 55.422 99.2345C56.2501 101.698 57.0782 104.167 57.9064 106.636C58.1043 107.229 59.0522 106.974 58.8491 106.375L51.2657 83.7553C50.4376 81.2814 49.6095 78.8178 48.7814 76.3491C48.5835 75.7553 47.6355 76.0105 47.8387 76.6095Z" fill="#231915"/>
<path d="M45.4532 103.281C48.323 102.864 51.2605 103.114 54.0261 103.968C54.6355 104.156 54.8907 103.208 54.2917 103.026C51.3386 102.114 48.2449 101.896 45.1928 102.338C44.5678 102.427 44.8334 103.37 45.4532 103.281Z" fill="#231915"/>
<path d="M44.8541 110.36C46.7031 109.157 48.552 107.953 50.401 106.756C50.9322 106.412 50.4374 105.563 49.9114 105.907C48.0572 107.11 46.2083 108.313 44.3593 109.511C43.8333 109.86 44.3229 110.709 44.8541 110.36Z" fill="#231915"/>
<path d="M55.4895 106.671C63.9999 107.5 72.3958 109.416 80.427 112.354C82.7239 113.192 84.9895 114.119 87.2135 115.125C87.7864 115.385 88.2864 114.536 87.7083 114.276C79.7655 110.698 71.3853 108.119 62.7916 106.661C60.3697 106.25 57.9322 105.927 55.4895 105.692C54.8593 105.63 54.8645 106.609 55.4895 106.671Z" fill="#231915"/>
<path d="M59.2292 27.428L56.0781 41.4228C56.0781 41.4228 64.1406 48.0842 71.6667 41.0061L72.3958 35.3342C72.3958 35.3342 67.474 24.954 59.2292 27.428Z" fill="#A85C23"/>
<path d="M58.3542 31.3132C58.3542 31.3132 65.8438 28.4746 63.9636 20.6934L65.7657 9.80797L80 1.49996C80 1.49996 74.6355 -0.13474 66.6251 0.438176C58.6146 1.00588 54.0417 6.04755 53.6094 12.3392C53.1771 18.6309 57.6615 23.2246 57.6615 23.2246L58.3542 31.3132Z" fill="#231915"/>
<path d="M79.9995 1.49805C79.9995 1.49805 91.1405 4.6613 83.7551 15.6873C83.7551 15.6873 70.9374 8.70817 73.151 4.80713C75.3697 0.911295 79.9995 1.49805 79.9995 1.49805Z" fill="#231915"/>
<path d="M71.5626 38.7554C66.6772 36.1357 62.1303 30.4169 60.948 28.3232C58.9532 24.8075 55.0418 17.594 60.2813 9.87003C62.0313 7.29711 67.0313 2.94295 73.9741 4.60441C77.8386 5.53149 81.6511 8.32836 82.9532 11.1409C83.3699 12.0211 83.7032 13.1461 83.9584 14.4221C84.1928 15.5888 84.3699 16.8909 84.4897 18.2607C84.8959 23.0523 85.1563 29.6721 84.3647 33.844C83.3959 38.995 77.448 41.9273 71.5626 38.7554Z" fill="#A85C23"/>
<path d="M75.3384 17.7756C75.1145 16.5986 73.8905 15.8694 72.7499 15.8486C71.2707 15.8173 69.4739 16.5986 68.677 17.9527C67.5155 19.9267 68.6197 21.484 70.0364 20.7027C70.9582 20.1923 71.5416 19.7809 72.5364 19.6194C73.2186 19.51 73.9947 19.6506 74.4843 19.4215C75.1197 19.1298 75.4739 18.4736 75.3384 17.7756Z" fill="#231915"/>
<path d="M84.2343 15.0878C83.1197 14.4628 81.6614 14.343 80.5312 14.6659C79.4322 14.9784 78.4426 15.9993 78.5312 17.1972C78.578 17.9055 79.0884 18.4472 79.7812 18.567C80.3072 18.6607 81.0207 18.3222 81.7134 18.2545C82.7134 18.1555 83.4114 18.3065 84.4062 18.6503C85.0416 18.8743 85.4218 15.7805 84.2343 15.0878Z" fill="#231915"/>
<path d="M75.9995 26.5293C76.9995 27.5293 79.3797 27.653 79.9995 27.002C80.6818 26.2884 80.2912 24.9082 79.9995 24.002C79.5516 22.6009 78.9948 21.208 78.4583 19.8434C78.3594 19.5934 78.1302 19.4267 77.8542 19.4997C77.6198 19.5622 77.4167 19.8538 77.5104 20.1038C77.9323 21.1663 79.1349 22.9186 79.4995 24.002C79.7287 24.6895 79.8433 25.2884 79.4995 26.002C79.1766 26.6738 77.0007 26.5293 75.9995 25.5293C75.4058 25.3105 75.411 26.3105 75.9995 26.5293Z" fill="#231915"/>
<path d="M71.6041 28.7232C72.7551 30.4941 74.9166 31.5409 77.0155 31.2597C77.2811 31.2232 77.5103 31.0618 77.5103 30.7701C77.5103 30.5305 77.2811 30.2441 77.0155 30.2805C75.2551 30.5149 73.427 29.7284 72.453 28.2284C72.1093 27.7024 71.2603 28.1972 71.6041 28.7232Z" fill="#231915"/>
<path d="M76.6823 4.50609C75.3125 3.64151 73.8229 3.42797 72.224 3.24047C69.8542 2.96443 67.4271 3.29255 65.1875 4.11547C60.6094 5.79255 57.1406 9.6363 55.9323 14.3551C55.6927 15.303 55.5521 16.2613 55.4844 17.2301C56.3281 18.6884 57.224 20.0998 58.1771 21.4801C60.5729 21.7457 63.0677 20.9123 64.9688 19.3446C67.5521 17.2248 63.0833 16.6563 64 13.5C65.2292 14.4427 65.4427 9.47396 67 9C68.2292 8.63021 73.5417 9.17886 77.2708 9.58943C81 10 85.276 10.8229 85.5 10C85.0521 9.18229 77.724 5.15714 76.6823 4.50609Z" fill="#231915"/>
<path d="M56.8072 22.339C56.3645 25.0317 58.1874 27.5734 60.8801 28.0161C63.5728 28.464 66.1145 26.6411 66.5572 23.9484C67.0051 21.2609 65.1822 18.714 62.4895 18.2713C59.7968 17.8286 57.2499 19.6515 56.8072 22.339Z" fill="#A85C23"/>
<path d="M59.5937 20.2658C58.7656 20.8231 58.2343 21.7085 58.1666 22.7085C58.0937 23.6772 58.5468 24.6877 59.2968 25.297C59.5051 25.4637 59.7916 25.5002 59.9947 25.297C60.1666 25.1252 60.1978 24.771 59.9947 24.6043C59.4374 24.1512 59.1093 23.4897 59.1406 22.771C59.1718 22.1252 59.5416 21.4793 60.0885 21.1147C60.3072 20.9689 60.4062 20.6825 60.2656 20.4429C60.1353 20.2293 59.8176 20.1199 59.5937 20.2658Z" fill="#231915"/>
<path d="M65.4168 35.344C67.047 37.1409 69.0938 38.5106 71.3647 39.3752C71.6095 39.4638 71.9011 39.2711 71.9636 39.0315C72.0418 38.7554 71.8699 38.5211 71.6251 38.4273C69.5157 37.6252 67.6251 36.3231 66.1095 34.6513C65.6876 34.1877 64.9949 34.8804 65.4168 35.344Z" fill="#231915"/>
<path d="M72.8957 20.5149C71.2655 20.7962 71.7916 22.9212 72.2082 23.7441C72.4843 24.2753 72.9791 24.8795 73.7135 24.7441C74.7864 24.5409 74.6614 23.1868 74.5155 22.468C74.3541 21.6712 73.9635 20.3326 72.8957 20.5149Z" fill="#231915"/>
<path d="M81.3541 19.4426C79.7239 19.7238 80.2447 21.8488 80.6666 22.6718C80.9374 23.203 81.4322 23.8072 82.1718 23.6718C83.2447 23.4686 83.1197 22.1145 82.9739 21.3957C82.8124 20.604 82.4218 19.2603 81.3541 19.4426Z" fill="#231915"/>
<path d="M82.9271 156.141C82.7813 156.068 82.625 156.01 82.474 155.943C82.4948 155.766 82.5261 155.589 82.5469 155.411C82.6198 154.719 81.5313 154.724 81.4532 155.411C81.4532 155.453 81.4427 155.49 81.4375 155.526C79.25 154.745 76.9271 154.469 74.599 154.276C73.1302 154.151 71.6615 154.052 70.2032 153.844C69.2344 153.708 67.8542 153.594 66.9636 152.969C66.875 153.052 66.7865 153.141 66.6927 153.224C66.2552 153.594 64.8438 154.38 64.375 154.708C62.5834 159.635 58.4479 162.609 56.5157 167.76C54.4167 173.365 55.0261 177.776 59.1198 179.432C71.4271 184.411 79.3282 173.115 81.3177 163.328C81.7396 161.255 82.0625 159.161 82.3282 157.062C82.3438 157.068 82.3594 157.073 82.3802 157.083C83.0052 157.391 83.5625 156.453 82.9271 156.141Z" fill="#A85C23"/>
<path d="M118.536 79.1096C118.312 71.0992 116.724 62.7398 112.073 56.0575C111.505 55.245 110.896 54.4585 110.25 53.7033C110.052 53.469 109.62 53.5367 109.479 53.8075C108.51 55.6877 108.089 57.7658 108.188 59.8283C104.651 65.5575 102.016 71.7867 99.7812 78.1252C97.276 85.2138 95.224 92.4585 92.776 99.5679C90.2969 106.761 87.3698 113.813 83.25 120.24C80.9948 123.766 78.026 126.787 75.8229 130.344C69.2708 140.917 62.6875 154.839 62.5625 158.318C68.0573 162.115 74.349 165.25 80.8021 167.026C83.1875 160.255 86.8698 156.656 91.0781 150.86C93.5938 147.391 96.1875 143.969 98.599 140.422C101.073 136.781 103.375 133.021 105.474 129.146C109.641 121.453 113.031 113.302 115.318 104.849C117.578 96.4846 118.781 87.7763 118.536 79.1096Z" fill="#737373"/>
<mask id="mask0_984_3540" style="mask-type:luminance" maskUnits="userSpaceOnUse" x="0" y="166" width="129" height="238">
<path d="M0.0625 166.334H128.667V403.667H0.0625V166.334Z" fill="white"/>
</mask>
<g mask="url(#mask0_984_3540)">
<path d="M128.266 400.948C126.526 383.063 124.781 365.183 123.042 347.297C121.302 329.417 119.562 311.537 117.823 293.652C116.073 275.709 114.333 257.766 112.578 239.829C111.724 231.079 110.849 222.329 109.771 213.61C109.224 209.183 108.63 204.756 107.958 200.344C107.37 196.454 106.823 192.511 105.724 188.719C104.635 184.964 102.937 181.422 100.344 178.469C98.0989 175.907 95.1979 173.891 92.1458 172.402C85.3073 169.079 77.5156 167.652 69.9791 167.209C61.9843 166.74 53.9739 167.167 46.1666 169.006C39.4739 170.589 32.5156 173.355 27.9583 178.73C22.776 184.844 21.6875 192.917 20.5364 200.568C19.2031 209.402 18.1562 218.277 17.2239 227.162C15.3541 244.938 13.7187 262.74 11.9895 280.527C10.2447 298.407 8.50516 316.292 6.76557 334.178C5.02599 352.058 3.2812 369.943 1.54162 387.823C1.11453 392.198 0.692656 396.573 0.265574 400.948C0.135364 402.266 1.48432 403.396 2.7187 403.396C4.15099 403.396 5.04162 402.271 5.16662 400.948C6.86974 383.454 8.57287 365.948 10.2812 348.454C11.9895 330.876 13.7031 313.297 15.4114 295.724C17.1145 278.224 18.8177 260.724 20.5208 243.224C21.3697 234.553 22.2083 225.876 23.2291 217.219C24.1875 209.042 25.052 200.714 26.8593 192.672C27.6458 189.172 28.776 185.693 30.9479 182.792C32.8072 180.308 35.3541 178.448 38.0833 177.027C44.0104 173.938 51.1718 172.547 57.7968 172.12C65.677 171.61 73.7135 171.954 81.4062 173.818C87.4323 175.277 93.901 177.73 97.6823 182.928C99.8645 185.922 100.979 189.474 101.755 193.053C102.615 197.001 103.156 201.027 103.729 205.021C104.937 213.506 105.885 222.027 106.755 230.553C108.531 247.969 110.167 265.402 111.865 282.829C113.573 300.407 115.286 317.98 116.995 335.558C118.698 353.058 120.401 370.558 122.104 388.058C122.526 392.355 122.943 396.652 123.359 400.948C123.49 402.266 124.396 403.396 125.812 403.396C127.042 403.396 128.396 402.271 128.266 400.948Z" fill="#231915"/>
</g>
<path d="M84.1043 165.714C82.7136 163.51 79.9532 163.276 77.5939 163.391C73.1043 163.609 68.6303 164.078 64.1668 164.557C61.2501 164.87 56.2918 164.313 54.1772 166.74C52.8334 168.281 52.7449 170.516 53.7709 172.255C54.2657 173.094 54.9689 173.792 55.8439 174.224C56.948 174.771 58.1928 174.781 59.3959 174.677C62.2293 174.427 64.9636 173.604 67.7657 173.151C70.7084 172.677 73.6511 172.839 76.6095 173.083C78.6772 173.255 81.7084 173.953 83.3907 172.318C84.2345 171.5 84.4272 170.318 84.5678 169.203C84.7189 168.005 84.7814 166.776 84.1043 165.714Z" fill="#363E44"/>
<path d="M30.7447 265.052C30.7447 265.052 30.7447 265.052 30.7395 265.052C30.953 264.974 30.9791 264.963 30.9322 264.979C30.8697 265.005 30.8072 265.031 30.7499 265.052C30.7447 265.052 30.7447 265.052 30.7447 265.052Z" fill="#231915"/>
<path d="M107.344 271.86C107.422 271.959 107.511 272.068 107.344 271.86V271.86ZM116.427 280.417C114.526 270.324 106.75 261.995 96.8751 259.266C94.1668 258.521 91.3074 258.193 88.5001 258.313C88.3751 258.292 88.2553 258.271 88.1199 258.271C82.0574 258.271 75.9949 258.271 69.9324 258.271C63.3647 258.277 56.797 258.277 50.2293 258.277C46.9741 258.277 43.7136 258.277 40.4584 258.277C34.6199 258.193 28.698 259.949 23.8803 263.256C18.9949 266.61 15.3647 271.329 13.2449 276.85C12.0834 279.87 11.4845 283.12 11.4116 286.35C11.3855 287.631 12.5626 288.86 13.8647 288.803C15.2188 288.74 16.2866 287.725 16.3178 286.35C16.3334 285.693 16.3647 285.037 16.4272 284.386C16.4532 284.131 16.4741 283.881 16.5157 283.631C16.5261 283.563 16.5366 283.501 16.5418 283.475C16.573 283.277 16.6043 283.084 16.6407 282.891C16.8647 281.662 17.1772 280.449 17.573 279.266C17.6772 278.954 17.7866 278.646 17.9011 278.339C17.948 278.214 17.9949 278.089 18.047 277.969C18.047 277.969 18.0782 277.886 18.1095 277.803C18.1459 277.73 18.2501 277.469 18.2553 277.464C18.3074 277.344 18.3595 277.225 18.4168 277.105C18.5834 276.745 18.7553 276.396 18.9376 276.042C19.5105 274.938 20.1616 273.865 20.8855 272.85C20.9793 272.714 21.0782 272.584 21.1772 272.454C21.2032 272.412 21.2605 272.344 21.3022 272.287C21.4532 272.094 21.6095 271.902 21.7657 271.709C22.1928 271.209 22.6355 270.719 23.0938 270.251C23.5366 269.803 23.9949 269.365 24.4688 268.949C24.698 268.751 24.9272 268.558 25.1616 268.365C25.2345 268.308 25.3074 268.251 25.3803 268.193C25.3803 268.199 25.6563 267.98 25.698 267.954C26.7553 267.178 27.8647 266.49 29.0209 265.881C29.5886 265.584 30.1616 265.318 30.7449 265.053C30.7345 265.058 30.7241 265.063 30.7136 265.068C30.7241 265.063 30.7345 265.058 30.7501 265.053C30.797 265.032 30.8907 264.995 30.9324 264.98C31.0157 264.943 31.0991 264.912 31.1824 264.881C31.5261 264.745 31.8699 264.62 32.2188 264.501C33.6147 264.027 35.047 263.662 36.5053 263.423C36.6355 263.402 36.7709 263.386 36.9011 263.365C36.9324 263.36 36.9376 263.355 36.9584 263.355C36.9897 263.35 37.0053 263.35 37.047 263.344C37.4116 263.308 37.7761 263.266 38.1459 263.24C38.9168 263.183 39.6876 263.167 40.4584 263.178C46.5209 263.178 52.5834 263.178 58.6459 263.178C65.2136 263.178 71.7813 263.178 78.3491 263.173C81.4272 263.173 84.5053 263.173 87.5834 263.173C87.7553 263.209 87.9324 263.23 88.1199 263.219C89.2813 263.152 90.4376 263.162 91.5938 263.256C91.9011 263.282 92.2084 263.318 92.5105 263.35C92.5157 263.35 92.5157 263.35 92.5157 263.35C92.6355 263.37 92.7553 263.386 92.8699 263.407C93.4793 263.506 94.0782 263.626 94.6772 263.766C95.8074 264.032 96.9168 264.381 97.9949 264.798C98.1199 264.85 98.2449 264.896 98.3699 264.949C98.6459 265.074 98.922 265.193 99.1928 265.324C99.7449 265.589 100.292 265.876 100.823 266.178C101.292 266.454 101.761 266.74 102.214 267.042C102.438 267.193 102.662 267.344 102.886 267.506C102.995 267.584 103.104 267.667 103.214 267.745C103.261 267.777 103.276 267.792 103.302 267.808C103.323 267.824 103.333 267.834 103.359 267.855C104.214 268.548 105.026 269.277 105.787 270.074C106.146 270.443 106.49 270.829 106.823 271.225C106.984 271.417 107.146 271.615 107.307 271.813C107.417 271.959 107.521 272.105 107.63 272.251C108.271 273.141 108.854 274.074 109.375 275.037C109.682 275.605 109.958 276.188 110.229 276.771C110.234 276.792 110.25 276.818 110.261 276.844C110.302 276.954 110.349 277.063 110.391 277.167C110.5 277.438 110.599 277.709 110.698 277.985C111.13 279.199 111.458 280.449 111.698 281.719C111.938 282.98 113.526 283.813 114.714 283.428C116.063 282.99 116.682 281.766 116.427 280.417Z" fill="#231915"/>
<path d="M72.9272 166.984C71.7449 165.947 70.2136 165.343 68.6459 165.291C66.974 165.234 65.3543 165.843 64.0782 166.9C62.8855 167.624 61.8751 168.603 61.073 169.749C60.1615 171.051 57.5209 175.832 59.1668 177.426C59.7397 177.984 60.7501 177.978 61.5365 178.082C63.1303 178.291 69.8647 176.176 71.5053 175.306C72.5365 174.754 73.1459 171.859 73.672 170.78C74.3438 169.411 74.073 167.989 72.9272 166.984Z" fill="#A85C23"/>
<mask id="mask1_984_3540" style="mask-type:luminance" maskUnits="userSpaceOnUse" x="170" y="393" width="58" height="16">
<path d="M170 393.135H227.953V408.463H170V393.135Z" fill="white"/>
</mask>
<g mask="url(#mask1_984_3540)">
<path d="M227.776 397.276C227.323 395.886 226.052 394.714 224.287 394.282C222.109 393.75 219.797 393.625 217.589 393.495C213.464 393.25 209.328 393.516 205.255 394.235C200.682 394.407 196.109 394.62 191.537 394.886C185.453 395.245 179.167 395.433 173.484 398.313C169.896 400.136 168.396 404.11 172.641 406.433C178.443 409.615 184.948 408.089 190.99 407.599C196.219 407.172 201.469 407.146 206.698 406.62C212.787 406.011 220.547 405.787 225.922 401.886C227.787 400.532 228.26 398.776 227.776 397.276Z" fill="#231915"/>
</g>
<path d="M224.714 380.448C224.542 380.073 224.37 379.698 224.193 379.318C223.031 376.818 222.313 374.167 221.219 371.641C220.755 370.563 220.266 369.495 219.74 368.448C219.328 367.636 218.849 366.797 218.01 366.37C217.047 365.88 215.88 366.011 215 366.589C214.979 366.563 214.953 366.531 214.932 366.505C214.526 366.026 213.802 366.688 214.214 367.172C214.234 367.203 214.26 367.229 214.286 367.261C214.224 367.344 214.156 367.417 214.104 367.505C214.089 367.537 214.089 367.563 214.078 367.594C212.385 368.021 210.693 368.453 209.005 368.886C207.391 369.297 205.755 369.719 204.26 370.448C204.12 370.156 203.969 369.875 203.797 369.604C203.464 369.073 202.594 369.526 202.932 370.057C203.104 370.334 203.255 370.625 203.391 370.917C203.297 370.974 203.203 371.026 203.109 371.089C202.583 371.432 203.031 372.302 203.563 371.959C203.625 371.917 203.693 371.88 203.755 371.844C204.188 373.172 204.276 374.61 203.932 375.99C203.391 378.151 202.385 380.386 200.865 381.938C195.214 387.709 187.313 390.297 179.974 393.198C178.089 393.948 175.953 394.568 174.464 396.016C173.177 397.266 172.547 399.323 173.583 400.917C174.5 402.334 176.328 402.834 177.901 403.042C180.234 403.36 182.625 403.417 184.979 403.412C189.896 403.396 194.802 402.917 199.688 402.427C202.495 402.151 205.354 402.057 208.12 401.5C214.172 400.281 222.75 396.479 225.391 390.412C226.807 387.151 226.125 383.573 224.714 380.448Z" fill="#FFEFE6"/>
<path d="M221.068 343.62C220.297 340.755 219.255 337.979 218.245 335.198C216.979 331.724 215.708 328.245 214.437 324.776C209.359 310.932 204.203 297.115 198.984 283.328C193.76 269.542 188.463 255.781 183.094 242.047C180.417 235.203 177.739 228.359 175.016 221.531C172.979 216.432 170.708 211.021 166.432 207.365C162.703 204.182 157.901 203.005 153.104 203.896C148.302 204.781 143.891 207.5 140.547 211.005C134.672 217.156 133.026 225.276 133.281 233.453C136.469 242.099 139.786 250.698 143.187 259.255C144.213 260.328 145.292 261.344 146.396 262.328C150.542 272.219 154.687 282.109 158.828 291.995C168.864 315.932 179.583 339.318 192.776 361.713C195.286 365.969 197.745 370.984 200.255 375.24C201.151 376.76 202.5 377.391 204.245 376.901C205.75 376.479 207.224 375.818 208.682 375.25C211.656 374.088 214.609 372.865 217.531 371.573C218.729 371.052 220.505 370.578 221.088 369.266C221.37 368.635 221.281 367.943 221.109 367.292C220.875 366.406 220.312 364.958 220.047 364.083C219.875 363.531 219.708 362.984 219.536 362.432C220.406 361.333 221.104 360.083 221.578 358.713C223.234 353.88 222.359 348.427 221.068 343.62Z" fill="#403E3D"/>
<path d="M128.323 403.796C128.01 402.364 126.865 401.072 125.151 400.468C123.037 399.718 120.75 399.364 118.568 399.01C114.484 398.353 110.344 398.202 106.219 398.51C101.651 398.223 97.0782 397.973 92.5053 397.786C86.4167 397.53 80.1407 397.083 74.198 399.385C70.448 400.838 68.5574 404.635 72.547 407.374C78.0001 411.119 84.6251 410.26 90.6824 410.379C95.9324 410.478 101.156 410.978 106.412 410.984C112.531 410.984 120.271 411.536 126.016 408.192C128.005 407.036 128.656 405.338 128.323 403.796Z" fill="#231915"/>
<path d="M129.135 389.506C128.932 388.698 128.745 387.896 128.625 387.078C128.281 384.766 128.109 382.443 127.661 380.141C127.437 378.99 127.187 377.844 126.896 376.703C126.667 375.823 126.38 374.901 125.651 374.302C124.818 373.62 123.646 373.5 122.667 373.875C122.651 373.844 122.635 373.813 122.62 373.782C122.323 373.224 121.474 373.719 121.771 374.276C121.786 374.313 121.807 374.344 121.828 374.381C121.75 374.448 121.667 374.506 121.594 374.584C121.573 374.604 121.568 374.636 121.547 374.657C119.802 374.719 118.062 374.782 116.318 374.839C114.651 374.896 112.969 374.959 111.349 375.349C111.276 375.037 111.187 374.729 111.078 374.427C110.864 373.839 109.917 374.094 110.135 374.693C110.245 374.995 110.328 375.308 110.401 375.625C110.297 375.662 110.187 375.693 110.088 375.729C109.5 375.953 109.755 376.901 110.344 376.677C110.417 376.651 110.489 376.631 110.557 376.61C110.698 378 110.469 379.422 109.844 380.693C108.854 382.693 106.995 384.016 105.177 385.209C101.432 387.662 97.3801 389.61 93.2291 391.271C89.0416 392.943 84.7499 394.339 80.4687 395.74C78.5416 396.37 76.3697 396.865 74.7968 398.219C73.4374 399.386 72.6822 401.401 73.6197 403.058C74.4478 404.526 76.2395 405.131 77.7968 405.443C80.1093 405.896 82.4947 406.094 84.8384 406.235C89.7499 406.526 94.6718 406.339 99.5832 406.151C102.062 406.058 104.542 405.964 107.021 405.87C109.443 405.776 111.875 405.735 114.286 405.511C123.114 404.693 131.562 399.323 129.135 389.506Z" fill="#FFEFE6"/>
<path d="M185.25 116.317C181.604 112.791 179.406 112.573 176.344 112.354C173.953 110.698 171.719 110.265 168.667 110.468C164.037 110.776 159.698 113.041 156.146 115.927C154.037 117.64 152.156 119.635 150.552 121.833C150.406 121.541 149.958 121.39 149.703 121.739C139.109 136.182 129.948 151.645 122.318 167.849C114.641 184.14 108.516 201.156 104 218.593C99.5105 235.932 96.599 253.682 95.349 271.552C94.099 289.411 94.5053 307.385 96.6251 325.166C97.6824 334.067 99.1772 342.922 101.104 351.677C101.896 355.27 104.813 365.573 106.563 369.14C107.042 371.14 107.276 372.666 107.62 373.906C108.26 376.203 108.688 377.224 110.484 377.843C111.651 378.239 113.141 377.885 114.349 377.771C115.818 377.635 117.281 377.406 118.745 377.203C120.292 376.984 121.839 376.76 123.38 376.521C124.635 376.328 126.219 376.307 127.302 375.557C128.318 374.854 128.531 373.619 128.474 372.463C128.406 371.109 128.104 367.755 127.672 365.765C132.292 360.974 134.453 357.869 135.073 350.515C135.958 339.895 132.953 320.349 134.089 309.75C135.188 299.536 137.297 289.541 140.531 279.786C146.828 260.781 156.51 243.156 165.813 225.505C175.182 207.718 185.943 186.354 191.818 167.026C199.432 141.994 191.682 122.526 185.25 116.317Z" fill="#403E3D"/>
<path d="M147.156 263.527C152.495 250.438 159.208 238.021 166 225.646C168.005 221.995 170.005 218.344 171.969 214.678C172.266 214.126 171.422 213.626 171.12 214.183C164.401 226.73 157.229 239.042 151.177 251.933C149.427 255.667 147.771 259.443 146.208 263.266C145.974 263.85 146.922 264.105 147.156 263.527Z" fill="#231915"/>
<path d="M198.073 370.224C205.188 367.938 212.297 365.646 219.411 363.349C220.01 363.157 219.755 362.214 219.151 362.407C212.036 364.698 204.927 366.99 197.813 369.282C197.214 369.474 197.469 370.422 198.073 370.224Z" fill="#231915"/>
<path d="M107.005 369.901C110.255 369.823 113.495 369.614 116.713 369.125C120.333 368.573 123.885 367.661 127.38 366.562C127.979 366.375 127.724 365.427 127.12 365.619C123.687 366.698 120.198 367.599 116.635 368.151C113.448 368.645 110.229 368.843 107.005 368.922C106.375 368.932 106.375 369.916 107.005 369.901Z" fill="#231915"/>
<path d="M183.859 107.292C183.917 108.755 183.839 110.214 183.641 111.677C182.839 117.558 180.182 123.084 176.578 127.771C168.812 137.896 154.406 144.964 146.802 146.75C141.802 148.308 136.219 148.094 131.375 146.24C127.854 144.875 124.724 142.651 122.422 139.651C119.703 136.115 118.161 131.87 117.182 127.552C116.151 123.026 115.672 118.396 114.885 113.834C114.094 109.193 112.818 104.755 110.943 100.427C106.432 90.0002 100.422 80.5106 100.677 68.7554C100.87 59.0315 106.729 50.4846 114.24 43.9586C125.875 33.8388 150.542 43.3908 161.536 59.2815C166.125 65.9221 170.115 73.2398 173.797 80.6304C175.99 85.0315 178.083 89.4533 180.12 93.7867C181.505 96.7086 182.708 99.745 183.359 102.912C183.651 104.36 183.818 105.823 183.859 107.292Z" fill="#737373"/>
<path d="M183.359 102.912C182.708 99.7454 181.505 96.709 180.12 93.7871C178.083 89.4538 175.989 85.0319 173.797 80.6309C173.208 85.0684 172.552 89.5007 171.844 93.9329C168.87 91.8027 165.891 89.6777 162.906 87.5527C162.458 87.1257 161.859 87.1673 161.969 88.0788C162.281 93.3913 162.984 98.6725 164.036 103.891C159.693 100.949 155.651 98.3913 151.099 95.7819C150.885 95.4902 150.375 95.4486 150.255 95.8548C150.187 95.9642 150.156 96.0892 150.177 96.2194C149.333 102.532 148.021 107.85 146.901 114.089C144.625 119.917 143.25 123.428 140.271 128.938C140.26 128.938 139.583 130.141 139.239 130.865C138.974 131.438 138.427 131.808 138.995 132.048C142.927 133.693 146.745 135.574 150.469 137.641C151.099 137.907 151.484 137.584 151.599 137.152C152.677 132.975 153.745 128.803 154.818 124.626C159.437 126.235 160.448 126.449 165.026 127.527C165.646 127.662 165.833 127.673 165.911 127.303C166.703 122.183 167.5 117.079 168.292 111.959C171.458 113.303 174.708 114.443 178.021 115.36C178.719 115.673 179.042 115.183 179.042 114.636C179.198 111.714 179.474 108.813 179.849 105.923C181.193 106.381 182.526 106.834 183.859 107.292C183.818 105.824 183.651 104.36 183.359 102.912Z" fill="#DBDBDB"/>
<path d="M66.0365 149.729C67.4636 151.047 68.9531 152.302 70.5886 153.354C72.2969 154.458 74.1302 155.359 75.9479 156.266C76.5104 156.547 77.0104 155.698 76.4427 155.417C74.6615 154.531 72.8646 153.646 71.1823 152.573C69.5781 151.547 68.125 150.328 66.7292 149.036C66.2656 148.609 65.5677 149.302 66.0365 149.729Z" fill="#231915"/>
<path d="M105.25 401.536C104.849 399.359 104.135 397.151 103.141 395.109C102.214 393.203 100.932 391.38 99.0885 389.969C97.1094 388.453 94.8333 388.396 92.1667 388.818C89.5104 389.229 87 390.422 84.9792 391.865C83.776 392.724 82.276 393.677 81.6719 395.344C85.474 399.542 88.5729 403.698 90.0573 409.224C91.8802 409.776 93.9687 409.724 95.8698 409.531C97.3385 409.391 98.8073 409.182 100.245 408.896C101.49 408.651 102.698 408.255 103.604 407.484C105.458 405.901 105.625 403.589 105.25 401.536Z" fill="#231915"/>
<path d="M203.234 398.307C202.766 396.15 201.984 393.958 200.927 391.953C199.943 390.072 198.604 388.291 196.714 386.937C194.693 385.484 192.266 384.937 189.609 385.437C186.974 385.937 184.5 387.208 182.526 388.708C180.844 389.989 179.604 391.656 179.427 393.411C182.823 396.718 184.948 400.697 186.172 405.494C186.318 405.598 186.469 405.697 186.635 405.796C188.786 407.025 191.615 406.921 194.109 406.593C195.573 406.4 197.037 406.145 198.464 405.822C199.698 405.536 200.896 405.104 201.776 404.307C203.578 402.666 203.677 400.354 203.234 398.307Z" fill="#231915"/>
<mask id="mask2_984_3540" style="mask-type:luminance" maskUnits="userSpaceOnUse" x="17" y="188" width="129" height="237">
<path d="M17.2395 188.375H145.422V425H17.2395V188.375Z" fill="white"/>
</mask>
<g mask="url(#mask2_984_3540)">
<path d="M145.312 422.553C143.573 404.667 141.833 386.787 140.094 368.907C138.349 351.021 136.609 333.141 134.87 315.256C133.125 297.313 131.38 279.376 129.63 261.433C128.776 252.683 127.901 243.933 126.823 235.209C126.271 230.782 125.677 226.36 125.01 221.948C124.422 218.053 123.875 214.115 122.771 210.323C121.682 206.563 119.99 203.027 117.396 200.073C115.146 197.511 112.25 195.49 109.193 194.006C102.359 190.683 94.5676 189.256 87.026 188.813C79.0364 188.344 71.0208 188.766 63.2135 190.61C56.526 192.193 49.5624 194.959 45.0103 200.334C39.8228 206.448 38.7395 214.521 37.5833 222.178C36.2551 231.006 35.2031 239.881 34.2708 248.766C32.4062 266.537 30.7708 284.339 29.0364 302.131C27.2968 320.011 25.5572 337.896 23.8124 355.777C22.0728 373.662 20.3333 391.547 18.5937 409.428C18.1666 413.803 17.7395 418.178 17.3124 422.553C17.1874 423.876 18.5312 425.006 19.7656 425.006C21.1978 425.006 22.0885 423.876 22.2187 422.553C23.9218 405.053 25.6249 387.553 27.3281 370.053C29.0416 352.48 30.7499 334.902 32.4635 317.329C34.1666 299.829 35.8697 282.329 37.5728 264.829C38.4166 256.152 39.2603 247.48 40.276 238.823C41.2395 230.646 42.0989 222.313 43.9062 214.271C44.6926 210.777 45.8228 207.297 47.9999 204.391C49.8593 201.912 52.4062 200.047 55.1301 198.631C61.0624 195.542 68.2239 194.152 74.8437 193.725C82.7291 193.214 90.7603 193.558 98.453 195.417C104.479 196.881 110.948 199.334 114.734 204.532C116.911 207.527 118.026 211.079 118.807 214.657C119.661 218.605 120.203 222.631 120.776 226.626C121.99 235.11 122.932 243.631 123.802 252.157C125.583 269.573 127.213 287.006 128.911 304.433C130.625 322.011 132.333 339.584 134.047 357.162C135.75 374.662 137.453 392.157 139.156 409.657C139.573 413.959 139.99 418.256 140.411 422.553C140.542 423.87 141.448 425.006 142.859 425.006C144.088 425.006 145.443 423.881 145.312 422.553Z" fill="#231915"/>
</g>
<path d="M87.9167 187.772C86.3854 185.668 83.6094 185.605 81.2656 185.871C76.7969 186.381 72.3698 187.131 67.9427 187.892C65.0521 188.392 60.0625 188.157 58.1094 190.714C56.8698 192.339 56.9271 194.574 58.0625 196.246C58.6042 197.048 59.3542 197.704 60.2552 198.079C61.3906 198.553 62.6354 198.48 63.8281 198.303C66.6406 197.871 69.3177 196.876 72.0833 196.241C74.9896 195.579 77.9375 195.553 80.9063 195.61C82.9792 195.647 86.0521 196.152 87.625 194.412C88.4115 193.543 88.5313 192.345 88.599 191.225C88.6719 190.022 88.6563 188.793 87.9167 187.772Z" fill="#363E44"/>
<path d="M47.7917 286.657V286.662C48.0053 286.579 48.0261 286.569 47.9792 286.584C47.922 286.61 47.8595 286.631 47.797 286.657H47.7917Z" fill="#231915"/>
<path d="M124.396 293.464C124.469 293.563 124.557 293.672 124.396 293.464V293.464ZM133.479 302.021C131.578 291.927 123.797 283.599 113.922 280.87C111.214 280.12 108.359 279.797 105.547 279.911C105.427 279.896 105.302 279.875 105.172 279.875C99.1093 279.875 93.0468 279.875 86.9791 279.875C80.4114 279.88 73.8437 279.88 67.2812 279.88C64.0208 279.88 60.7656 279.88 57.5052 279.88C51.6666 279.792 45.7448 281.552 40.927 284.859C36.0416 288.214 32.4114 292.932 30.2916 298.453C29.1302 301.474 28.5312 304.719 28.4635 307.953C28.4322 309.234 29.6093 310.464 30.9114 310.406C32.2656 310.344 33.3333 309.328 33.3645 307.953C33.3802 307.297 33.4166 306.641 33.4791 305.984C33.5052 305.734 33.5208 305.484 33.5625 305.234C33.5781 305.167 33.5885 305.104 33.5885 305.073C33.6198 304.88 33.6562 304.688 33.6927 304.49C33.9114 303.266 34.2291 302.052 34.6197 300.87C34.7239 300.557 34.8385 300.25 34.9531 299.943C35 299.818 35.0468 299.693 35.0937 299.573C35.0937 299.568 35.125 299.49 35.1614 299.406C35.1927 299.328 35.302 299.073 35.302 299.068C35.3541 298.948 35.4114 298.828 35.4687 298.708C35.6302 298.349 35.802 297.995 35.9843 297.646C36.5625 296.536 37.2083 295.469 37.9322 294.453C38.0312 294.318 38.125 294.182 38.2239 294.052C38.25 294.016 38.3072 293.943 38.3489 293.891C38.5052 293.693 38.6614 293.505 38.8177 293.312C39.2395 292.812 39.6823 292.323 40.1406 291.854C40.5833 291.401 41.0468 290.969 41.5208 290.552C41.75 290.354 41.9791 290.161 42.2135 289.969C42.2864 289.911 42.3593 289.849 42.4323 289.792C42.427 289.802 42.7083 289.583 42.75 289.557C43.802 288.781 44.9166 288.089 46.0729 287.484C46.6354 287.188 47.2083 286.917 47.7916 286.661C47.7812 286.661 47.776 286.667 47.7604 286.672C47.776 286.667 47.7864 286.661 47.7968 286.651C47.8437 286.635 47.9375 286.599 47.9791 286.583C48.0625 286.552 48.1458 286.516 48.2291 286.484C48.5729 286.349 48.9218 286.224 49.2708 286.104C50.6614 285.625 52.0989 285.266 53.552 285.026C53.6875 285.005 53.8177 284.984 53.9479 284.964C53.9791 284.964 53.9843 284.958 54.0104 284.958C54.0364 284.953 54.052 284.953 54.0937 284.948C54.4635 284.911 54.8281 284.87 55.1979 284.844C55.9635 284.786 56.7343 284.766 57.5052 284.781C63.5677 284.781 69.6354 284.781 75.6979 284.781C82.2656 284.781 88.8333 284.781 95.401 284.776C98.4791 284.776 101.557 284.776 104.635 284.776C104.807 284.813 104.984 284.828 105.172 284.818C106.328 284.755 107.49 284.766 108.646 284.859C108.953 284.885 109.255 284.922 109.562 284.953C109.682 284.974 109.802 284.99 109.922 285.01C110.526 285.109 111.13 285.229 111.724 285.37C112.854 285.635 113.964 285.979 115.047 286.401C115.172 286.453 115.297 286.505 115.417 286.552C115.693 286.677 115.969 286.797 116.24 286.927C116.797 287.193 117.339 287.479 117.87 287.781C118.344 288.052 118.807 288.339 119.26 288.646C119.49 288.797 119.714 288.953 119.932 289.109C120.047 289.188 120.156 289.266 120.266 289.349C120.307 289.38 120.328 289.396 120.354 289.411C120.375 289.427 120.38 289.438 120.406 289.458C121.266 290.146 122.078 290.885 122.839 291.672C123.193 292.047 123.536 292.432 123.87 292.823C124.036 293.021 124.198 293.219 124.354 293.417C124.464 293.562 124.573 293.708 124.677 293.854C125.318 294.745 125.906 295.672 126.422 296.641C126.729 297.208 127.01 297.792 127.276 298.375C127.286 298.396 127.297 298.422 127.307 298.448C127.354 298.557 127.401 298.661 127.443 298.771C127.547 299.042 127.651 299.312 127.745 299.589C128.177 300.802 128.51 302.052 128.75 303.318C128.984 304.583 130.578 305.417 131.76 305.031C133.115 304.594 133.729 303.37 133.479 302.021Z" fill="#231915"/>
<path d="M89.4948 177.65C89.3438 177.577 89.1928 177.52 89.0417 177.452C89.0626 177.275 89.0886 177.098 89.1094 176.921C89.1876 176.229 88.099 176.234 88.0209 176.921C88.0157 176.963 88.0105 176.999 88.0053 177.036C85.8178 176.255 83.4896 175.979 81.1667 175.786C79.698 175.661 78.224 175.562 76.7709 175.354C75.8021 175.218 74.4167 175.104 73.5313 174.479C73.4376 174.562 73.3542 174.656 73.2605 174.734C72.823 175.104 71.4115 175.89 70.9428 176.223C69.1459 181.145 65.0157 184.124 63.0834 189.27C60.9792 194.874 61.5938 199.286 65.6876 200.942C77.9896 205.921 85.8959 194.624 87.8855 184.838C88.3073 182.765 88.6251 180.671 88.8959 178.572C88.9115 178.577 88.9271 178.583 88.9428 178.593C89.573 178.9 90.1251 177.963 89.4948 177.65Z" fill="#A85C23"/>
<path d="M147.948 54.4331C142.812 48.8238 137.109 43.9227 128.838 43.9592C118.365 44.0009 111.838 54.5217 113.156 64.1936C113.266 64.9748 113.203 65.7092 113.016 66.3654C113.135 69.5686 113.068 72.7665 112.745 75.954C111.016 92.8446 103.036 108.157 94.6718 122.641C86.0312 137.605 78.052 152.641 72.7291 169.168C71.828 171.959 71.0364 174.777 70.3176 177.621C75.9062 181.881 82.1145 185.329 88.5885 188.173C90.9583 184.11 93.1822 179.97 95.2499 175.751C108.292 174.282 118.865 157.454 126.453 148.548C138.292 134.641 148.849 118.438 151.302 99.9696C153.078 86.5946 152.693 72.8081 149.417 59.6884C148.979 57.9436 148.484 56.1831 147.948 54.4331Z" fill="#737373"/>
<path d="M123.979 40.4118C123.797 39.8024 122.479 39.8858 122.245 40.0628C119.089 42.4274 115.927 44.7868 112.771 47.1566C110.198 49.0889 110.224 48.0993 107.958 50.3858C107.266 50.9587 106.615 52.0785 105.62 53.6826C105.557 53.7764 106.214 57.1253 106.365 57.6358C107.391 61.1201 108.333 64.3285 110.037 67.5472C110.412 68.2556 110.854 68.5472 111.646 68.2503C112.505 67.9222 115.25 61.9795 115.948 60.5368C118.698 54.8337 124.125 40.9066 123.979 40.4118Z" fill="#DBDBDB"/>
<path d="M110.729 50.5992C111.349 51.9586 111.969 53.3232 112.589 54.6878C113.047 55.6878 113.448 56.9846 114.339 57.6982C115.938 58.9794 117.365 56.6305 118 55.4221C119.708 52.1461 121.094 48.6669 122.443 45.2346C123.037 43.719 123.651 42.193 124.104 40.6253C124.281 40.0211 123.333 39.7607 123.156 40.3648C122.313 43.2867 121.068 46.1253 119.891 48.9221C119.224 50.495 118.542 52.0628 117.807 53.6044C117.318 54.6305 116.724 56.3128 115.688 56.9169C114.589 57.5575 113.844 55.0888 113.531 54.4013C112.88 52.969 112.229 51.5367 111.578 50.1044C111.318 49.5315 110.469 50.0263 110.729 50.5992Z" fill="#231915"/>
<path d="M105.62 53.7345C105.792 54.7293 106.13 55.7136 106.651 56.5782C106.87 56.9428 107.208 57.3074 107.677 57.2866C108.146 57.2657 108.443 56.9064 108.641 56.5209C109.646 54.5574 110.583 52.5522 111.557 50.573C111.833 50.0105 110.984 49.5105 110.708 50.0782C109.906 51.7136 109.099 53.3543 108.297 54.9949C108.109 55.3803 107.938 55.7709 107.729 56.1459C107.703 56.198 107.677 56.2657 107.625 56.3022C107.651 56.2814 107.719 56.3751 107.641 56.2814C107.531 56.1564 107.458 56.0209 107.38 55.8803C106.974 55.1251 106.708 54.3178 106.568 53.4741C106.458 52.8543 105.51 53.1199 105.62 53.7345Z" fill="#231915"/>
<path d="M100.927 75.2088C101.51 78.4119 102.297 81.5681 103.38 84.641C104.76 88.5525 106.547 92.3129 108.453 95.99C108.745 96.5525 109.594 96.0577 109.302 95.4952C107.406 91.8442 105.63 88.1098 104.271 84.2244C103.214 81.1983 102.443 78.0942 101.87 74.9483C101.76 74.3285 100.812 74.589 100.927 75.2088Z" fill="#231915"/>
<path d="M129.797 145.287C136.714 137.49 141.979 128.334 145.62 118.589C149.292 108.756 151.328 98.2869 151.563 87.7921C151.693 81.9535 151.25 76.1046 150.193 70.3546C150.078 69.7348 149.136 69.9952 149.25 70.615C151.115 80.7608 151.011 91.2556 149.25 101.412C147.49 111.594 144.073 121.516 139.026 130.542C136.224 135.563 132.917 140.292 129.104 144.594C128.682 145.063 129.375 145.761 129.797 145.287Z" fill="#231915"/>
<path d="M74.5104 164.484C76.5625 157.911 79.0885 151.5 82.0781 145.297C84.8854 139.464 88.0729 133.828 91.3958 128.276C98.5052 116.391 106.323 104.823 110.958 91.6667C113.547 84.3281 115.042 76.5781 114.672 68.7813C114.641 68.151 113.661 68.1458 113.693 68.7813C114.365 82.9427 108.828 96.3958 102.078 108.557C98.75 114.557 95.0417 120.339 91.4948 126.208C88.1458 131.755 84.9063 137.37 82.026 143.177C78.6615 149.964 75.8229 156.995 73.5625 164.224C73.375 164.828 74.3229 165.083 74.5104 164.484Z" fill="#231915"/>
<path d="M73.6875 164.697C79.724 170.103 86.8229 174.015 94.6198 176.213C95.2292 176.385 95.4896 175.437 94.8802 175.265C87.25 173.114 80.2865 169.296 74.3802 164.004C73.9115 163.583 73.2188 164.275 73.6875 164.697Z" fill="#231915"/>
<path d="M22.8333 200.645C27.5416 203.968 32.2499 207.291 36.9635 210.614C38.0676 211.39 39.1666 212.166 40.2656 212.942C41.3176 213.682 43.0416 213.166 43.6249 212.062C44.2864 210.807 43.8645 209.504 42.7395 208.713C38.0312 205.39 33.3176 202.062 28.6093 198.744C27.5104 197.963 26.4062 197.187 25.3072 196.411C24.2551 195.671 22.5312 196.187 21.9531 197.291C21.2864 198.551 21.7083 199.853 22.8333 200.645Z" fill="#231915"/>
<path d="M19.7813 225.807C24.375 229.047 28.9636 232.286 33.5573 235.526C34.6459 236.292 35.7396 237.062 36.8281 237.828C37.875 238.573 39.599 238.052 40.1823 236.948C40.8438 235.693 40.4219 234.391 39.3021 233.594C34.7084 230.359 30.1146 227.12 25.5209 223.88C24.4323 223.109 23.3438 222.344 22.2552 221.573C21.2031 220.833 19.4844 221.349 18.9011 222.453C18.2344 223.708 18.6563 225.016 19.7813 225.807Z" fill="#231915"/>
<path d="M91.8335 119.917C92.2605 119.162 92.6147 118.24 92.6512 117.401C92.7293 115.583 91.1251 114.422 89.6199 113.766C86.2762 112.307 82.297 112.542 79.0366 114.115C75.3178 115.912 73.2293 119.417 71.7866 123.151C70.8751 125.521 70.047 129.604 72.9012 131.12C75.198 131.979 80.7241 133.422 83.5262 133.25C85.7032 133.109 85.6512 131.26 85.6512 131.26C90.9324 132.813 91.8126 128.099 91.8126 128.099C93.2762 127.912 93.9741 126.625 94.1407 125.208C94.297 123.854 93.4116 121.766 91.8335 119.917Z" fill="#A85C23"/>
<path d="M83.0156 115.698C85.901 116.698 88.6718 118.089 91 120.089C91.4739 120.495 92.1718 119.808 91.6927 119.396C89.2291 117.282 86.3281 115.808 83.276 114.75C82.677 114.542 82.4218 115.49 83.0156 115.698Z" fill="#231915"/>
<path d="M79.0574 120.334C83.6511 122.256 87.8021 125.095 91.4688 128.449C91.9324 128.871 92.6251 128.178 92.1615 127.756C88.3594 124.277 84.073 121.381 79.3178 119.392C78.7344 119.147 78.4792 120.095 79.0574 120.334Z" fill="#231915"/>
<path d="M75.8126 125.625C79.1095 127.302 82.1824 129.359 85.1564 131.552C85.6616 131.927 86.1511 131.083 85.6511 130.708C82.6772 128.51 79.6043 126.453 76.3074 124.781C75.7449 124.494 75.2449 125.343 75.8126 125.625Z" fill="#231915"/>
<path d="M174.219 72.2137C174.037 69.896 173.182 67.5574 172.302 65.4168C170.802 61.7762 162.474 54.896 160.438 60.2606L160.432 60.2554C160.432 60.2554 158.609 64.7658 158.12 67.1616C157.667 69.3699 159.432 71.7033 161.177 70.7658C161.177 70.7658 160.464 73.7345 161.609 75.0783C162.745 76.4116 164.688 75.6147 164.708 75.6043C164.708 75.6043 164.714 75.6043 164.714 75.6095C164.714 75.6356 164.693 77.2918 166.953 78.2397C169.234 79.1981 171.287 77.9533 171.287 77.9533L171.276 77.9377C171.385 77.8908 171.5 77.8647 171.609 77.8074C173.625 76.7658 174.385 74.3439 174.219 72.2137Z" fill="#A85C23"/>
<path d="M161.755 70.7861C164.812 68.1142 166.818 64.4476 168.177 60.6663C168.391 60.0726 167.443 59.8173 167.229 60.4059C165.927 64.0309 163.989 67.5309 161.062 70.0934C160.588 70.5101 161.281 71.2028 161.755 70.7861Z" fill="#231915"/>
<path d="M165.177 75.698C168.771 73.4324 171.432 69.8439 172.536 65.7449C172.698 65.1303 171.755 64.8751 171.589 65.4793C170.552 69.3387 168.063 72.7189 164.682 74.8491C164.146 75.1824 164.641 76.0314 165.177 75.698Z" fill="#231915"/>
<path d="M100.974 40.8848C102.99 39.5931 104.531 36.3066 106.833 34.8848C108.193 34.0462 111.344 27.916 111.724 27.5723C114.161 30.4473 119.432 36.7546 122.338 40.1764C120.927 43.4264 119.849 45.0358 114.844 48.3327C113.094 49.4889 110.099 50.3587 107.958 50.3848C106.583 48.5098 102.375 42.7337 100.974 40.8848Z" fill="#A85C23"/>
<path d="M102.026 49.6874C106.287 46.0155 110.859 37.7916 111.568 35.4582C112.87 31.1822 114.198 26.7707 113.12 22.2812C111.859 17.0051 107.125 13.1249 101.807 12.4426C93.4688 11.3801 85.5469 18.4062 85.7188 26.7655C85.7396 27.9739 85.8542 29.2968 86.0417 30.6822C86.6928 35.5207 89.1303 42.8801 90.4115 46.9947C91.9949 52.0728 96.8959 54.1197 102.026 49.6874Z" fill="#A85C23"/>
<path d="M115.13 30.3339C115.365 29.5943 115.443 28.7766 115.49 28.0162C115.599 26.3339 115.401 24.6203 114.932 23.0005C114.412 21.2037 113.568 19.5162 112.432 18.0318C111.505 16.8182 110.083 15.2818 108.729 15.4276C108.688 15.9068 107.635 19.4901 106.875 21.0005C106.052 22.6255 104.813 24.162 103.703 25.5995C102.662 26.9432 101.38 28.7037 101.667 30.5057C102.031 32.8235 103.787 34.787 106.021 35.4797C110.682 36.938 116.87 33.6776 116.87 33.6776L115.13 30.3339Z" fill="#54575A"/>
<path d="M87.5573 32.9068C88.0886 32.9693 88.7813 32.5943 89.4636 32.4901C90.4583 32.3339 91.1354 32.5422 92.1667 32.7401C93.7552 33.037 94.3125 31.2193 92.6042 29.7089C91.4271 28.6724 89.4792 28.4953 88.0886 28.9797C87.0156 29.3547 86.0833 30.4224 86.2344 31.6151C86.3281 32.313 86.8646 32.8234 87.5573 32.9068Z" fill="#54575A"/>
<path d="M87.6979 33.9375C87.6979 33.9375 83.9993 40 85.5003 41.8594C85.9992 43 90.4114 41.8594 90.4114 41.8594L87.6979 33.9375Z" fill="#A85C23"/>
<path d="M90.0625 44.9791C91.2239 44.7864 92.2812 43.9999 92.8229 42.9582C92.9375 42.7291 92.8854 42.4166 92.6458 42.2864C92.4218 42.1666 92.0989 42.2187 91.9739 42.4635C91.9166 42.578 91.8489 42.6874 91.7812 42.7968C91.7448 42.8489 91.7083 42.8957 91.6718 42.9426C91.6354 42.9947 91.7291 42.8749 91.6718 42.9478C91.6458 42.9739 91.6198 43.0051 91.5989 43.0312C91.5156 43.1249 91.4323 43.2082 91.3437 43.2968C91.2968 43.3385 91.25 43.3749 91.2031 43.4166C91.1875 43.427 91.0937 43.5103 91.1875 43.427C91.1666 43.4478 91.1406 43.4687 91.1145 43.4843C91.0156 43.5572 90.9114 43.6197 90.8073 43.6822C90.75 43.7187 90.6875 43.7499 90.625 43.776C90.5989 43.7916 90.4948 43.8645 90.4635 43.8541C90.5 43.8645 90.5364 43.828 90.4583 43.8541C90.4323 43.8697 90.401 43.8749 90.375 43.8853C90.3177 43.9062 90.2552 43.927 90.1979 43.9426C90.0677 43.9843 89.9375 44.0103 89.802 44.0364C89.552 44.0728 89.3854 44.401 89.4635 44.6353C89.552 44.9114 89.7916 45.0207 90.0625 44.9791Z" fill="#231915"/>
<path d="M105.807 46.5673C106.901 45.3746 107.833 44.0465 108.568 42.609C108.687 42.3746 108.63 42.0777 108.391 41.9371C108.172 41.8069 107.844 41.8798 107.724 42.1142C107.021 43.4788 106.151 44.7444 105.115 45.8746C104.937 46.0725 104.922 46.3746 105.115 46.5673C105.297 46.7496 105.63 46.7652 105.807 46.5673Z" fill="#231915"/>
<path d="M105.547 30.7765C106.667 33.0369 105.734 35.7712 103.474 36.8858C101.208 38.0056 98.4739 37.0785 97.3541 34.8129C96.2395 32.5525 97.1666 29.8181 99.4322 28.6983C101.693 27.5837 104.432 28.5108 105.547 30.7765Z" fill="#A85C23"/>
<path d="M102.292 30.6037C102.839 30.7703 103.339 31.2078 103.542 31.7287C103.787 32.3641 103.698 33.0307 103.313 33.5985C103.167 33.8172 103.271 34.1401 103.49 34.2651C103.734 34.411 104.011 34.312 104.162 34.0932C104.682 33.3224 104.813 32.2807 104.469 31.4162C104.125 30.5672 103.427 29.9214 102.552 29.6557C102.297 29.5776 102.016 29.7495 101.948 29.9995C101.875 30.2599 102.037 30.5255 102.292 30.6037Z" fill="#231915"/>
<path d="M88.6042 35.5412C89.349 36.1819 90.3229 36.4527 91.2865 36.2652C92.1667 36.0933 92.9479 35.4944 93.375 34.7183C93.6823 34.1662 92.8333 33.6714 92.5313 34.2235C91.8958 35.3694 90.3385 35.7392 89.2969 34.8485C89.0938 34.6819 88.8021 34.6506 88.6042 34.8485C88.4271 35.0256 88.401 35.3694 88.6042 35.5412Z" fill="#231915"/>
</g>
<defs>
<clipPath id="clip0_984_3540">
<rect width="228" height="425" fill="white"/>
</clipPath>
</defs>
</svg>
