<svg width="20" height="20" viewBox="0 0 20 20" fill="none" xmlns="http://www.w3.org/2000/svg">
<path d="M8.055 16.177C8.05369 16.4315 8.10251 16.6837 8.19867 16.9193C8.29484 17.1549 8.43647 17.3692 8.61547 17.5501C8.79447 17.731 9.00735 17.8748 9.24194 17.9734C9.47653 18.072 9.72824 18.1234 9.98271 18.1247C10.4966 18.1274 10.9905 17.9258 11.3558 17.5642C11.7211 17.2027 11.9278 16.7109 11.9304 16.197V16.177M15.5333 13.6158V8.94575C15.5326 7.70268 15.113 6.49612 14.3423 5.52082C13.5715 4.54552 12.4947 3.85839 11.2854 3.57034V3.15992C11.2793 2.8212 11.1405 2.49841 10.8988 2.26102C10.6571 2.02363 10.3319 1.89062 9.99312 1.89062C9.65435 1.89062 9.32912 2.02363 9.08743 2.26102C8.84574 2.49841 8.70692 2.8212 8.70083 3.15992V3.57492C7.49568 3.86625 6.42341 4.55418 5.65627 5.52822C4.88912 6.50227 4.47163 7.70589 4.47083 8.94575V13.6158L2.71875 15.3678V16.177H17.2854V15.3678L15.5333 13.6158Z" stroke="#444444" stroke-width="0.416667" stroke-linecap="round" stroke-linejoin="round"/>
</svg>
