<svg width="121" height="30" viewBox="0 0 121 30" fill="none" xmlns="http://www.w3.org/2000/svg">
<path d="M14.4849 13.6985C14.4849 14.3149 14.3137 14.7915 13.9713 15.1253C13.6289 15.4606 13.1352 15.6276 12.4931 15.6276H4.82261C5.05803 16.9145 5.57881 17.8734 6.38638 18.504C7.19253 19.1318 8.19843 19.4457 9.40551 19.4457C10.1703 19.4457 10.8509 19.323 11.4487 19.0747C12.0451 18.8279 12.563 18.4327 13.0011 17.8876C13.2365 17.6593 13.4191 17.5052 13.549 17.4253C13.6774 17.3454 13.8058 17.3055 13.9313 17.3055C14.1097 17.3055 14.2395 17.3911 14.3194 17.5623C14.3993 17.7307 14.4393 17.9376 14.4393 18.1844C14.4279 18.835 14.2524 19.45 13.9142 20.0278C13.5789 20.6071 13.1124 21.1179 12.5159 21.5631C11.9181 22.0082 11.2104 22.3607 10.3929 22.6189C9.57815 22.8772 8.67641 23.007 7.68763 23.007C6.58043 23.007 5.55884 22.8386 4.62285 22.5048C3.68687 22.1666 2.87216 21.6829 2.18016 21.0551C1.48673 20.4273 0.950253 19.6768 0.570723 18.8008C0.189765 17.9219 0 16.9502 0 15.8844C0 14.3206 0.311044 12.9509 0.935985 11.7752C1.5595 10.5966 2.45981 9.67778 3.6355 9.0186C4.81119 8.36084 6.22658 8.03125 7.88168 8.03125C9.3042 8.03125 10.507 8.27523 11.4886 8.76177C12.4731 9.24546 13.2194 9.91321 13.7259 10.765C14.231 11.614 14.4849 12.5913 14.4849 13.6985ZM4.67422 13.9668C4.67422 14.0167 4.67422 14.0695 4.67422 14.1266C4.67422 14.1808 4.67422 14.2322 4.67422 14.2807H8.48664C8.75203 14.2807 8.95036 14.2236 9.0802 14.1094C9.20861 13.9953 9.27424 13.8098 9.27424 13.5501C9.27424 12.2874 9.08305 11.3529 8.70352 10.7479C8.32256 10.1429 7.81034 9.84044 7.16827 9.84044C6.44488 9.84044 5.84705 10.1929 5.37621 10.8963C4.90821 11.6011 4.67422 12.6241 4.67422 13.9668Z" fill="#444444"/>
<path d="M15.5674 19.4842C15.5674 18.6167 15.8271 17.8633 16.3493 17.2241C16.8743 16.5849 17.6334 16.0912 18.6265 15.7402C19.6224 15.3906 20.818 15.2151 22.2106 15.2151C22.5987 15.2151 22.954 15.2323 23.2778 15.2665C23.6046 15.3008 23.9071 15.3521 24.1853 15.4206V11.0717C24.1853 10.5395 24.044 10.1215 23.763 9.81611C23.4805 9.50792 23.0924 9.35383 22.5987 9.35383C22.1721 9.35383 21.8339 9.44515 21.5828 9.62778C21.3317 9.81041 21.2061 10.0444 21.2061 10.3298V11.8022C21.2061 12.5142 20.9621 13.0664 20.4756 13.4573C19.9919 13.8454 19.3085 14.0395 18.4267 14.0395C17.6577 14.0395 17.0855 13.8725 16.7088 13.5372C16.3322 13.1991 16.1438 12.7325 16.1438 12.139C16.1438 11.6681 16.2993 11.1901 16.6118 10.7064C16.9228 10.2199 17.388 9.77616 18.0044 9.37666C18.6236 8.9743 19.3984 8.65184 20.3272 8.41214C21.2589 8.16958 22.3376 8.04688 23.5632 8.04688C25.5222 8.04688 26.979 8.42355 27.9349 9.17691C28.8895 9.92741 29.3675 10.9504 29.3675 12.2474V19.6497C29.3675 19.878 29.4188 20.0592 29.5215 20.1919C29.6243 20.326 29.7798 20.3916 29.9895 20.3916C30.1864 20.3916 30.3348 20.3459 30.4347 20.2546C30.5332 20.1605 30.6259 20.0634 30.7144 19.9636C30.7743 19.8922 30.8371 19.8309 30.9027 19.7809C30.9669 19.7324 31.0482 19.7067 31.1481 19.7067C31.2965 19.7067 31.4049 19.7624 31.4734 19.8722C31.5419 19.9835 31.5761 20.1219 31.5761 20.2889C31.5761 20.5742 31.4962 20.8767 31.3364 21.1963C31.1795 21.5131 30.9484 21.807 30.6402 22.0809C30.3348 22.352 29.9524 22.5718 29.493 22.743C29.0322 22.9171 28.5 23.0055 27.895 23.0055C27.0532 23.0055 26.3441 22.8471 25.7662 22.5318C25.1869 22.2122 24.8145 21.787 24.6476 21.2534C24.1025 21.817 23.4234 22.2507 22.6101 22.5546C21.7997 22.8543 20.9493 23.0055 20.059 23.0055C19.1686 23.0055 18.3839 22.8543 17.7076 22.5546C17.0299 22.2507 16.5034 21.8341 16.1267 21.3048C15.7529 20.7768 15.5674 20.169 15.5674 19.4842ZM20.8751 18.5824C20.8751 19.2758 21.042 19.8009 21.3773 20.1576C21.7155 20.5115 22.1535 20.6884 22.69 20.6884C22.9554 20.6884 23.2165 20.647 23.4719 20.5628C23.7301 20.4801 23.9684 20.3673 24.1853 20.2261V16.6648C23.9984 16.5963 23.8058 16.5449 23.6089 16.5107C23.4105 16.4764 23.1979 16.4593 22.9697 16.4593C22.3147 16.4593 21.8011 16.6462 21.4287 17.0186C21.0592 17.3882 20.8751 17.909 20.8751 18.5824Z" fill="#444444"/>
<path d="M38.4025 9.66352C37.7661 9.66352 37.2838 9.81048 36.9528 10.103C36.6218 10.3969 36.4563 10.7593 36.4563 11.1931C36.4563 11.4527 36.5091 11.6953 36.6161 11.9236C36.726 12.149 36.9542 12.3516 37.301 12.5343C37.6462 12.7169 38.1713 12.8795 38.8761 13.0194C40.1432 13.2562 41.1819 13.543 41.9923 13.8812C42.8027 14.2165 43.4334 14.5988 43.8871 15.0283C44.3437 15.4592 44.6633 15.9358 44.8459 16.4608C45.0314 16.9859 45.1256 17.5552 45.1256 18.1673C45.1256 19.6626 44.6005 20.844 43.5504 21.7115C42.5002 22.5761 40.9607 23.007 38.9332 23.007C38.2327 23.007 37.6634 22.9499 37.2268 22.8358C36.793 22.7216 36.442 22.6075 36.1766 22.4934C35.9098 22.3792 35.6658 22.3221 35.4461 22.3221C35.2207 22.3221 35.0366 22.3792 34.8925 22.4934C34.747 22.6075 34.6086 22.7231 34.4759 22.8415C34.3418 22.9585 34.162 23.0184 33.9337 23.0184C33.7168 23.0184 33.5542 22.9556 33.4486 22.8301C33.3458 22.7074 33.2445 22.4905 33.1461 22.1738L32.2558 19.3829C31.989 18.5126 32.1131 17.9775 32.6267 17.7792C32.9035 17.6736 33.1432 17.6693 33.3458 17.7678C33.5513 17.8677 33.7468 18.0588 33.9337 18.3442C34.6071 19.4143 35.3348 20.1876 36.1196 20.667C36.9072 21.1465 37.7361 21.3862 38.6079 21.3862C39.3684 21.3862 39.9377 21.2363 40.3144 20.9353C40.691 20.6357 40.8794 20.2419 40.8794 19.7539C40.8794 19.45 40.7995 19.1817 40.6397 18.9492C40.4827 18.7137 40.1831 18.5012 39.7379 18.31C39.2928 18.1159 38.6279 17.9304 37.7461 17.7507C36.3907 17.4853 35.3106 17.1214 34.5044 16.6606C33.6968 16.2011 33.1204 15.639 32.7751 14.9769C32.4284 14.3149 32.2558 13.5387 32.2558 12.6484C32.2558 11.7167 32.5012 10.9077 32.992 10.2228C33.4828 9.5351 34.162 8.99862 35.0295 8.61339C35.8998 8.2253 36.8957 8.03125 38.0144 8.03125C38.558 8.03125 39.0145 8.06977 39.3841 8.14539C39.7565 8.21816 40.0747 8.30234 40.3372 8.39651C40.5997 8.49211 40.8252 8.57772 41.0164 8.65334C41.2104 8.7261 41.4016 8.76177 41.5928 8.76177C41.8396 8.76177 42.0451 8.70185 42.2092 8.57914C42.3718 8.45358 42.5302 8.33231 42.6829 8.21388C42.8341 8.0926 43.0153 8.03125 43.2251 8.03125C43.4105 8.03125 43.5646 8.09831 43.6873 8.231C43.8129 8.36512 43.9056 8.59056 43.967 8.91016L44.5605 11.5926C44.6404 12.0306 44.6519 12.363 44.5948 12.5913C44.5406 12.8168 44.385 12.9837 44.1268 13.0936C43.8714 13.2006 43.6388 13.1949 43.4305 13.0764C43.2251 12.9594 43.011 12.7426 42.7913 12.4258C42.1407 11.4071 41.433 10.6908 40.6682 10.2799C39.9063 9.86898 39.1515 9.66352 38.4025 9.66352Z" fill="#444444"/>
<path d="M53.3147 24.427L53.3432 24.3814L47.1109 11.1007C46.9426 10.7283 46.7714 10.4729 46.5973 10.3359C46.4261 10.1961 46.1764 10.0662 45.8497 9.94781C45.4844 9.78801 45.3018 9.53546 45.3018 9.18875C45.3018 8.95333 45.3874 8.76927 45.5586 8.63515C45.7327 8.49817 45.9638 8.42969 46.2492 8.42969H53.5658C53.8512 8.42969 54.0766 8.49817 54.245 8.63515C54.4162 8.76927 54.5018 8.95333 54.5018 9.18875C54.5018 9.55401 54.2792 9.80227 53.8341 9.93069L53.3604 10.0334C52.9337 10.1447 52.6826 10.3288 52.607 10.587C52.5342 10.8424 52.6313 11.2762 52.8981 11.8883L55.8088 18.6856L58.4341 12.128C58.6809 11.5159 58.7665 11.0593 58.6909 10.7582C58.6181 10.4543 58.3627 10.2432 57.9261 10.1247L57.3782 9.97635C56.9245 9.83652 56.6991 9.57399 56.6991 9.18875C56.6991 8.95333 56.7847 8.76927 56.9559 8.63515C57.13 8.49817 57.3554 8.42969 57.6294 8.42969H61.8299C62.1181 8.42969 62.3492 8.49817 62.5205 8.63515C62.6945 8.76927 62.783 8.95333 62.783 9.18875C62.783 9.34855 62.7331 9.49123 62.6346 9.61679C62.5347 9.7395 62.3721 9.85364 62.1438 9.95922C61.877 10.0705 61.6473 10.1989 61.4532 10.3473C61.2592 10.4957 61.0851 10.6897 60.9338 10.9295C60.7812 11.1663 60.62 11.4816 60.4487 11.8769L55.5405 23.8963C55.064 25.0406 54.6231 25.9851 54.2164 26.7271C53.8127 27.469 53.4017 28.0483 52.9837 28.4678C52.5685 28.8901 52.1119 29.184 51.6139 29.3524C51.1146 29.5236 50.5381 29.6092 49.8847 29.6092C49.0129 29.6092 48.261 29.4494 47.6303 29.1298C46.9982 28.813 46.5117 28.3821 46.1693 27.8343C45.8268 27.2864 45.6556 26.67 45.6556 25.9851C45.6556 25.2546 45.8382 24.6753 46.2035 24.2501C46.5716 23.8235 47.0624 23.6109 47.676 23.6109C48.2881 23.6109 48.7518 23.7878 49.0685 24.1417C49.3839 24.4984 49.6564 24.9707 49.8847 25.5571L50.1358 26.1963C50.3641 26.8954 50.7094 27.2464 51.1745 27.2464C51.3343 27.2464 51.4841 27.2136 51.6254 27.1494C51.7695 27.0838 51.9221 26.9553 52.0819 26.7613C52.2417 26.5701 52.4201 26.289 52.6184 25.9166C52.8153 25.5471 53.0479 25.0506 53.3147 24.427Z" fill="#444444"/>
<path d="M87.576 2.70554C87.576 2.44015 87.6673 2.23041 87.8499 2.07775C88.0326 1.92222 88.3065 1.84375 88.6718 1.84375H93.112C93.4887 1.84375 93.7626 1.92222 93.9338 2.07775C94.1079 2.23041 94.1964 2.43445 94.1964 2.68842C94.1964 2.88675 94.1479 3.04655 94.0537 3.16783C93.9581 3.28625 93.7712 3.40753 93.4944 3.53309L93.0207 3.74426C92.674 3.9012 92.3872 4.12664 92.1589 4.42342C91.9335 4.72019 91.7366 5.17677 91.5653 5.79315L87.6787 19.6218C87.5788 20.007 87.5089 20.2981 87.4676 20.495C87.429 20.6933 87.4105 20.9216 87.4105 21.1798V21.7563C87.4105 22.0345 87.3306 22.2471 87.1708 22.3955C87.0138 22.5439 86.8126 22.618 86.5658 22.618H82.1427C81.9059 22.618 81.7061 22.5439 81.5435 22.3955C81.3794 22.2471 81.298 22.0345 81.298 21.7563V21.1798C81.298 21.0129 81.2881 20.8531 81.2695 20.7004C81.2495 20.5449 81.191 20.3038 81.0926 19.9756L78.2561 10.2105L75.2769 19.6218C75.1856 19.8772 75.1171 20.1226 75.0715 20.358C75.0287 20.5906 75.0087 20.8645 75.0087 21.1798V21.7563C75.0087 22.0345 74.9288 22.2471 74.769 22.3955C74.612 22.5439 74.4108 22.618 74.164 22.618H69.8893C69.641 22.618 69.4356 22.5439 69.2729 22.3955C69.1088 22.2471 69.0275 22.0345 69.0275 21.7563V21.1798C69.0275 20.9901 69.0104 20.8203 68.9761 20.6719C68.9419 20.5235 68.8791 20.2981 68.7878 19.9927L64.1878 4.82863C64.0879 4.50902 63.9723 4.27503 63.8396 4.12664C63.7055 3.97825 63.5215 3.85555 63.286 3.75567L62.7039 3.55021C62.487 3.47031 62.3329 3.35331 62.2416 3.19636C62.1532 3.03656 62.1104 2.86392 62.1104 2.677C62.1104 2.41875 62.1988 2.21472 62.3786 2.06633C62.5569 1.91794 62.8295 1.84375 63.1947 1.84375H70.7796C71.1563 1.84375 71.4317 1.92222 71.6072 2.07775C71.7855 2.23041 71.8754 2.43445 71.8754 2.68842C71.8754 3.08507 71.6671 3.35331 71.2533 3.49314L70.557 3.65294C70.3088 3.72143 70.1604 3.8741 70.1119 4.10952C70.0619 4.34209 70.0962 4.66883 70.2146 5.09116L73.8672 17.3332L77.2459 6.74055L76.6866 4.82863C76.5568 4.40344 76.444 4.12379 76.3499 3.98967C76.2543 3.85697 76.123 3.75424 75.9561 3.68148L75.3911 3.47602C75.1742 3.39612 75.0172 3.29339 74.9231 3.16783C74.8318 3.03941 74.7861 2.88532 74.7861 2.70554C74.7861 2.44015 74.8774 2.23041 75.06 2.07775C75.2427 1.92222 75.5166 1.84375 75.8819 1.84375H83.2157C83.5881 1.84375 83.8634 1.92222 84.0432 2.07775C84.2216 2.23041 84.3115 2.44015 84.3115 2.70554C84.3115 3.10219 84.0789 3.37757 83.6152 3.53309L82.976 3.68148C82.7391 3.75424 82.5936 3.88979 82.5365 4.08669C82.4823 4.28502 82.5208 4.62602 82.6507 5.10828L86.1492 17.3674L89.5222 5.55345C89.6591 5.07119 89.6734 4.67881 89.5678 4.37776C89.4651 4.07385 89.1869 3.83272 88.7346 3.65294L88.1524 3.49314C87.7672 3.33334 87.576 3.0708 87.576 2.70554Z" fill="#444444"/>
<path d="M98.288 6.2788C97.3292 6.2788 96.5701 6.05051 96.0108 5.59393C95.4515 5.1345 95.1718 4.51242 95.1718 3.72767C95.1718 2.95577 95.4515 2.34367 96.0108 1.88995C96.5701 1.43337 97.3292 1.20508 98.288 1.20508C99.2468 1.20508 100.007 1.43337 100.571 1.88995C101.137 2.34367 101.421 2.95577 101.421 3.72767C101.421 4.51242 101.137 5.1345 100.571 5.59393C100.007 6.05051 99.2468 6.2788 98.288 6.2788ZM101.239 9.21802V19.8449C101.239 20.2101 101.274 20.4712 101.347 20.6268C101.423 20.7794 101.547 20.8836 101.718 20.9407L102.146 21.0891C102.553 21.2574 102.757 21.5142 102.757 21.8595C102.757 22.366 102.429 22.6186 101.775 22.6186H95.4686C95.1333 22.6186 94.8865 22.553 94.7267 22.4188C94.5669 22.2861 94.487 22.0992 94.487 21.8595C94.487 21.5142 94.6839 21.2574 95.0805 21.0891L95.5428 20.9407C95.7097 20.8722 95.8282 20.7637 95.8967 20.6154C95.968 20.467 96.0051 20.2144 96.0051 19.8563V12.1401C96.0051 11.8548 95.9651 11.6522 95.8852 11.5294C95.8053 11.4039 95.6755 11.3226 95.4972 11.284L94.9493 11.2098C94.584 11.1 94.4014 10.8774 94.4014 10.5421C94.4014 10.3338 94.4584 10.1697 94.5726 10.0513C94.6867 9.93428 94.895 9.81443 95.2004 9.69172L98.2138 8.55028C98.6775 8.37193 99.0442 8.24637 99.3153 8.1736C99.5892 8.09798 99.8247 8.05946 100.023 8.05946C100.43 8.05946 100.734 8.16647 100.936 8.37906C101.137 8.59308 101.239 8.87274 101.239 9.21802Z" fill="#444444"/>
<path d="M110.334 1.53012V19.8446C110.334 20.2099 110.37 20.471 110.443 20.6265C110.518 20.7792 110.643 20.8833 110.814 20.9404L111.242 21.0888C111.648 21.2571 111.852 21.514 111.852 21.8593C111.852 22.3658 111.524 22.6183 110.871 22.6183H104.564C104.229 22.6183 103.982 22.5527 103.822 22.4186C103.663 22.2859 103.583 22.099 103.583 21.8593C103.583 21.514 103.78 21.2571 104.176 21.0888L104.639 20.9404C104.805 20.8719 104.924 20.7635 104.992 20.6151C105.064 20.4667 105.101 20.2141 105.101 19.856V4.45792C105.101 4.16971 105.061 3.96425 104.981 3.84154C104.901 3.71598 104.771 3.63466 104.593 3.59613L104.045 3.52194C103.68 3.42349 103.497 3.20091 103.497 2.85419C103.497 2.65729 103.554 2.49749 103.668 2.37479C103.782 2.24923 103.991 2.12795 104.296 2.00952L107.309 0.862372C107.773 0.688301 108.14 0.565596 108.411 0.497109C108.685 0.425769 108.92 0.388672 109.119 0.388672C109.525 0.388672 109.829 0.495682 110.032 0.708276C110.233 0.922297 110.334 1.19624 110.334 1.53012Z" fill="#444444"/>
<path d="M119.459 1.53012V19.8446C119.459 20.2099 119.495 20.471 119.568 20.6265C119.643 20.7792 119.768 20.8833 119.939 20.9404L120.367 21.0888C120.773 21.2571 120.977 21.514 120.977 21.8593C120.977 22.3658 120.649 22.6183 119.996 22.6183H113.689C113.354 22.6183 113.107 22.5527 112.947 22.4186C112.788 22.2859 112.708 22.099 112.708 21.8593C112.708 21.514 112.905 21.2571 113.301 21.0888L113.764 20.9404C113.93 20.8719 114.049 20.7635 114.117 20.6151C114.189 20.4667 114.226 20.2141 114.226 19.856V4.45792C114.226 4.16971 114.186 3.96425 114.106 3.84154C114.026 3.71598 113.896 3.63466 113.718 3.59613L113.17 3.52194C112.805 3.42349 112.622 3.20091 112.622 2.85419C112.622 2.65729 112.679 2.49749 112.793 2.37479C112.907 2.24923 113.116 2.12795 113.421 2.00952L116.434 0.862372C116.898 0.688301 117.265 0.565596 117.536 0.497109C117.81 0.425769 118.045 0.388672 118.244 0.388672C118.65 0.388672 118.954 0.495682 119.157 0.708276C119.358 0.922297 119.459 1.19624 119.459 1.53012Z" fill="#444444"/>
</svg>
