<svg width="30" height="30" viewBox="0 0 30 30" fill="none" xmlns="http://www.w3.org/2000/svg">
<g clip-path="url(#clip0_1876_6956)">
<mask id="mask0_1876_6956" style="mask-type:luminance" maskUnits="userSpaceOnUse" x="0" y="0" width="30" height="30">
<path d="M0 0H30V30H0V0Z" fill="white"/>
<path d="M16.5615 14.2538C16.5079 14.3075 16.4442 14.35 16.3741 14.3791C16.304 14.4081 16.2289 14.423 16.1531 14.423C16.0772 14.423 16.0021 14.4081 15.932 14.3791C15.8619 14.35 15.7983 14.3075 15.7446 14.2538C15.691 14.2002 15.6484 14.1365 15.6194 14.0664C15.5904 13.9964 15.5754 13.9212 15.5754 13.8454C15.5754 13.7695 15.5904 13.6944 15.6194 13.6243C15.6484 13.5542 15.691 13.4906 15.7446 13.4369L20.36 8.82153C20.4683 8.7132 20.6153 8.65234 20.7685 8.65234C20.9217 8.65234 21.0686 8.7132 21.1769 8.82153C21.2852 8.92986 21.3461 9.07679 21.3461 9.23C21.3461 9.3832 21.2852 9.53013 21.1769 9.63846L16.5615 14.2538ZM9.63846 21.1769C9.53013 21.2852 9.3832 21.3461 9.23 21.3461C9.07679 21.3461 8.92986 21.2852 8.82153 21.1769C8.7132 21.0686 8.65234 20.9217 8.65234 20.7685C8.65234 20.6153 8.7132 20.4683 8.82153 20.36L13.4369 15.7446C13.5452 15.6363 13.6922 15.5754 13.8454 15.5754C13.9986 15.5754 14.1455 15.6363 14.2538 15.7446C14.3622 15.8529 14.423 15.9999 14.423 16.1531C14.423 16.3063 14.3622 16.4532 14.2538 16.5615L9.63846 21.1769Z" fill="black"/>
<path d="M9.22927 21.3453C9.07626 21.3453 8.92951 21.2845 8.82132 21.1763C8.71313 21.0681 8.65234 20.9213 8.65234 20.7683C8.65234 20.6153 8.71313 20.4686 8.82132 20.3604C8.92951 20.2522 9.07626 20.1914 9.22927 20.1914H13.8447C13.9977 20.1914 14.1444 20.2522 14.2526 20.3604C14.3608 20.4686 14.4216 20.6153 14.4216 20.7683C14.4216 20.9213 14.3608 21.0681 14.2526 21.1763C14.1444 21.2845 13.9977 21.3453 13.8447 21.3453H9.22927Z" fill="black"/>
<path d="M9.80619 20.7677C9.80619 20.9207 9.74541 21.0675 9.63721 21.1757C9.52902 21.2839 9.38228 21.3447 9.22927 21.3447C9.07626 21.3447 8.92951 21.2839 8.82132 21.1757C8.71313 21.0675 8.65234 20.9207 8.65234 20.7677V16.1523C8.65234 15.9993 8.71313 15.8526 8.82132 15.7444C8.92951 15.6362 9.07626 15.5754 9.22927 15.5754C9.38228 15.5754 9.52902 15.6362 9.63721 15.7444C9.74541 15.8526 9.80619 15.9993 9.80619 16.1523V20.7677ZM21.3447 13.8447C21.3447 13.9977 21.2839 14.1444 21.1757 14.2526C21.0675 14.3608 20.9207 14.4216 20.7677 14.4216C20.6147 14.4216 20.468 14.3608 20.3598 14.2526C20.2516 14.1444 20.1908 13.9977 20.1908 13.8447V9.22927C20.1908 9.07626 20.2516 8.92951 20.3598 8.82132C20.468 8.71313 20.6147 8.65234 20.7677 8.65234C20.9207 8.65234 21.0675 8.71313 21.1757 8.82132C21.2839 8.92951 21.3447 9.07626 21.3447 9.22927V13.8447Z" fill="black"/>
<path d="M16.1511 9.80619C15.9981 9.80619 15.8514 9.74541 15.7432 9.63721C15.635 9.52902 15.5742 9.38228 15.5742 9.22927C15.5742 9.07626 15.635 8.92951 15.7432 8.82132C15.8514 8.71313 15.9981 8.65234 16.1511 8.65234H20.7665C20.9195 8.65234 21.0663 8.71313 21.1745 8.82132C21.2827 8.92951 21.3434 9.07626 21.3434 9.22927C21.3434 9.38228 21.2827 9.52902 21.1745 9.63721C21.0663 9.74541 20.9195 9.80619 20.7665 9.80619H16.1511Z" fill="black"/>
</mask>
<g mask="url(#mask0_1876_6956)">
<path d="M15 30C23.2843 30 30 23.2843 30 15C30 6.71573 23.2843 0 15 0C6.71573 0 0 6.71573 0 15C0 23.2843 6.71573 30 15 30Z" fill="#444444"/>
</g>
</g>
<defs>
<clipPath id="clip0_1876_6956">
<rect width="30" height="30" fill="white"/>
</clipPath>
</defs>
</svg>
