<svg width="424" height="444" viewBox="0 0 424 444" fill="none" xmlns="http://www.w3.org/2000/svg">
<path d="M217 324.641C311.441 324.641 388 318.901 388 311.82C388 304.74 311.441 299 217 299C122.559 299 46 304.74 46 311.82C46 318.901 122.559 324.641 217 324.641Z" fill="#6982B5" fill-opacity="0.71"/>
<path d="M200.133 91.1746C198.502 88.1863 195.682 85.8134 192.584 84.4544C189.245 82.9867 185.846 82.9142 182.284 83.4573C180.052 83.7971 177.82 84.2845 175.549 84.2455C173.024 84.1981 170.756 83.1955 168.307 82.7583C164.74 82.1233 161.783 83.63 158.684 85.1812C156.589 86.2312 154.527 87.0166 152.189 87.2978C150.132 87.5457 148.051 87.5346 145.997 87.7936C142.597 88.2225 139.838 89.5788 137.442 92.0101C135.137 94.3467 133.376 97.1568 131.061 99.4851C129.52 101.031 127.831 102.136 125.786 102.908C124.041 103.565 122.252 104.064 120.8 105.289C118.064 107.609 117.239 111.369 116.918 114.778C116.67 117.426 116.684 120.119 116.016 122.712C115.503 124.695 114.572 126.227 114.904 128.327C115.277 130.688 115.943 133.359 117.682 135.03C118.008 135.47 118.457 135.785 118.969 135.969C119.131 136.052 119.301 136.133 119.477 136.205C119.613 136.261 119.719 136.225 119.797 136.15C120.549 136.219 121.352 136.058 122.037 135.665C123.258 134.961 124.086 133.794 124.93 132.702C126.346 130.878 127.845 129.126 129.455 127.472C135.121 121.657 141.995 117.008 149.519 113.942C164.848 107.695 183.68 109.706 196.917 98.5437C198.151 97.4993 199.776 96.2266 200.523 94.7589C201.153 93.5251 200.76 92.3304 200.133 91.1746Z" fill="#DBDBDB"/>
<mask id="mask0_4660_3897" style="mask-type:luminance" maskUnits="userSpaceOnUse" x="86" y="202" width="252" height="112">
<path d="M86.1172 202.35H337.582V313.062H86.1172V202.35Z" fill="white"/>
</mask>
<g mask="url(#mask0_4660_3897)">
<path d="M335.885 292.749C334.573 285.661 332.499 278.718 329.693 272.073C327.068 265.84 323.961 259.181 319.157 254.293C314.45 249.509 302.638 243.304 296.446 241.078C291.082 239.154 274.008 232.256 261.463 225.34C261.243 225.223 261.031 225.101 260.811 224.981C260.37 224.733 259.938 224.491 259.515 224.251C259.286 224.118 259.058 223.987 258.841 223.864C254.736 221.464 251.314 219.108 249.271 216.999C243.796 211.36 244.514 216.685 237.932 212.376C234.694 210.254 231.376 208.235 227.998 206.333C226.415 205.439 224.81 204.561 223.191 203.72C222.004 203.105 220.706 202.331 219.315 202.498C217.994 202.659 216.96 203.573 215.988 204.394C214.441 205.673 212.903 206.962 211.356 208.24C208.177 210.875 204.981 213.496 201.77 216.1C198.928 218.411 196.077 220.709 193.218 222.993C188.442 226.811 183.641 230.593 178.814 234.347C173.603 238.394 168.356 242.404 163.087 246.376C162.281 246.983 161.481 247.584 160.676 248.175C160.163 248.565 159.642 248.943 159.13 249.333C156.836 249.172 154.529 249.122 152.213 249.186C150.226 249.244 148.234 249.392 146.264 249.626C138.885 250.511 131.673 252.661 125.247 256.285C122.823 257.658 120.507 259.231 118.336 261.03C111.64 266.578 107.075 274.034 102.971 281.584C98.1275 290.496 93.4014 299.475 88.6224 308.431C87.7947 309.974 86.9532 311.517 86.1172 313.063H337.563C337.694 306.256 337.131 299.438 335.885 292.749Z" fill="#2F2031"/>
</g>
<path d="M259.514 224.25C258.831 226.247 258.004 228.199 257.045 230.087C251.344 241.328 240.997 249.747 228.892 253.239C216.932 256.693 201.594 255.682 194.04 244.472C193.775 244.085 194.413 243.72 194.669 244.107C197.074 247.664 200.438 250.223 204.239 251.886C206.931 246.441 209.611 240.996 212.3 235.546C212.504 235.128 213.136 235.496 212.93 235.919C210.263 241.333 207.588 246.747 204.921 252.164C207.719 253.289 210.732 253.955 213.772 254.183C215.951 254.342 218.127 254.314 220.304 254.13C219.774 248.482 219.562 242.818 219.643 237.142C219.652 236.674 220.384 236.674 220.376 237.142C220.295 242.79 220.507 248.429 221.028 254.058C226.236 253.518 231.353 251.994 236.073 249.688C233.677 244.405 231.001 239.264 228.062 234.259C227.827 233.847 228.457 233.482 228.7 233.892C231.645 238.905 234.32 244.068 236.722 249.368C240.571 247.413 244.14 244.918 247.253 241.993C248.022 241.269 248.749 240.514 249.452 239.746C244.99 236.109 240.328 232.736 235.471 229.642C235.067 229.394 235.443 228.756 235.836 229.012C240.741 232.129 245.444 235.538 249.945 239.205C252.815 235.969 255.175 232.326 257.001 228.436C256.992 228.436 256.987 228.436 256.97 228.427C252.258 225.681 247.509 222.991 242.739 220.343C242.329 220.114 242.697 219.485 243.115 219.713C247.869 222.353 252.595 225.038 257.302 227.767C257.873 226.495 258.391 225.186 258.84 223.863C259.057 223.985 259.286 224.116 259.514 224.25Z" fill="#0C0C0C"/>
<path d="M247.468 215.198C247.173 216.184 246.83 217.151 246.404 218.095C245.239 220.671 243.656 223.113 242.051 225.433C238.682 230.315 233.728 233.841 228.313 236.183C223.799 238.136 218.758 239.52 213.803 239.394C212.895 239.372 211.928 239.3 210.961 239.147C209.891 238.985 208.821 238.729 207.823 238.347C206.338 235.779 204.972 233.153 203.816 230.446C203.61 229.97 203.42 229.494 203.231 229.02C202.152 226.274 201.433 223.503 201.052 220.707C200.987 220.247 200.937 219.794 200.893 219.331C200.38 218.44 199.89 217.54 199.419 216.624C198.231 214.335 197.153 211.993 196.194 209.6C195.556 207.999 194.899 206.264 194.333 204.465V204.456C194.327 204.443 194.319 204.42 194.311 204.406C194.311 204.392 194.305 204.384 194.305 204.37C192.7 199.299 191.783 193.715 193.756 189.061C193.425 188.067 193.388 187.05 194.063 186.025C197.331 181.051 201.609 176.492 205.831 172.323C206.146 172.014 206.46 171.708 206.775 171.407C210.272 168.034 213.993 164.918 217.891 162.035C217.891 162.094 217.899 162.152 217.908 162.211C217.908 162.328 217.913 162.445 217.927 162.562C217.966 163.096 218.025 163.623 218.089 164.135C218.111 164.311 218.142 164.478 218.164 164.647C218.178 164.751 218.192 164.845 218.206 164.94C218.237 165.143 218.267 165.341 218.304 165.539C218.331 165.736 218.368 165.926 218.398 166.118C218.983 169.594 220.611 175.409 224.479 176.501C224.495 176.565 224.509 176.631 224.532 176.698C225.228 179.096 226.276 181.488 227.251 183.794C231.323 193.475 237.581 202.365 243.943 210.653C245.114 212.168 246.295 213.683 247.468 215.198Z" fill="#795439"/>
<path d="M140.358 101.601C144.655 98.7321 149.014 96.1336 153.695 94.1758C146.088 96.7826 137.201 101.559 130.43 108.237C130.77 108.015 131.076 107.811 131.316 107.658C134.376 105.711 137.341 103.614 140.358 101.601Z" fill="#BD653C"/>
<path d="M220.837 154.807C218.094 150.849 216.005 146.424 214.483 141.865C212.739 136.643 212.128 131.304 211.758 125.831C211.245 118.226 210.835 110.492 206.973 103.71C203.699 97.9618 198.231 94.1463 191.92 92.3583C185.405 90.5146 178.098 90.4311 171.385 90.9157C164.095 91.4393 156.817 93.127 150.276 96.4467C143.806 99.7358 138.021 104.217 131.935 108.133C131.155 108.634 129.945 109.456 128.691 110.051C127.368 111.508 126.139 113.037 125.057 114.652C124.918 114.842 124.793 115.034 124.667 115.232C122.148 120.632 120.418 126.717 120.27 133.705C119.933 149.699 117.796 176.404 123.583 199.021C125.526 206.608 128.647 215.286 134.744 220.533C140.495 225.465 150.419 229.84 158.068 229.314C169.016 228.554 175.766 223.168 180.91 218.887C186.94 213.868 191.117 210.253 194.495 204.143V204.138C195.03 203.171 195.551 202.138 196.047 201.035C198.819 194.902 201.411 188.597 203.089 182.061C204.747 181.206 206.396 180.312 208.007 179.362C208.871 178.85 209.737 178.309 210.579 177.744C211.29 177.271 211.986 176.772 212.661 176.251C216.721 173.143 220.106 169.33 222.874 165.094C223.866 163.579 224.771 162 225.607 160.385C223.796 158.725 222.213 156.792 220.837 154.807Z" fill="#795439"/>
<path d="M224.532 176.698C224.51 176.632 224.496 176.565 224.479 176.501C220.612 175.409 218.984 169.594 218.399 166.118C218.368 165.926 218.332 165.737 218.304 165.539C218.268 165.341 218.237 165.143 218.207 164.94C218.193 164.845 218.179 164.751 218.165 164.648C218.134 164.478 218.112 164.311 218.09 164.135C218.026 163.623 217.967 163.096 217.928 162.562C217.914 162.445 217.908 162.328 217.908 162.211C217.864 161.501 217.856 160.79 217.908 160.103C215.598 162.099 213.263 164.06 210.886 165.965C209.635 161.509 207.238 156.958 202.894 155.165C200.776 154.301 197.912 154.045 195.925 155.421C193.974 156.766 194.481 159.342 194.796 161.353C195.39 165.026 195.875 168.619 195.727 172.351C195.66 173.947 195.543 175.607 195.278 177.23C193.308 178.564 191.344 179.918 189.424 181.344C188.15 182.288 186.684 183.363 185.862 184.761C184.742 186.655 185.717 188.251 186.735 189.888C188.209 192.253 189.571 194.676 190.845 197.14C192.071 199.519 193.213 201.933 194.306 204.37C194.306 204.384 194.311 204.393 194.311 204.406C194.32 204.42 194.328 204.443 194.334 204.457V204.465C195.434 206.907 196.474 209.381 197.494 211.854C198.143 213.441 198.781 215.029 199.419 216.624C199.968 217.986 200.512 219.345 201.052 220.707C201.955 222.938 202.855 225.172 203.794 227.388C204.073 228.054 204.365 228.711 204.658 229.377C204.357 229.722 204.073 230.073 203.817 230.446C204.973 233.153 206.338 235.78 207.824 238.347C208.821 238.729 209.891 238.985 210.961 239.147C211.672 238.091 212.252 236.944 212.728 236.008C213.737 234.003 214.59 231.925 215.476 229.861C216.119 228.36 216.866 226.876 217.284 225.302C220.207 218.365 222.136 210.99 223.668 203.638C225.014 197.14 226.416 190.481 227.252 183.795C226.277 181.489 225.229 179.096 224.532 176.698Z" fill="#795439"/>
<path d="M222.874 170.983C222.676 167.36 224.27 163.968 225.856 160.809C232.296 147.99 234.639 133.628 231.109 119.563C229.373 112.654 226.226 106.02 221.617 100.553C219.126 97.6008 216.211 95.1221 213.09 92.8635C212.544 92.468 211.97 91.989 211.371 91.496C207.417 89.7025 203.248 88.3072 199.099 87.2183C188.25 83.4557 175.797 84.8761 164.218 87.3269C152.665 88.8475 141.764 94.1502 132.398 101.213C132.37 101.235 132.351 101.263 132.328 101.291C130.419 102.736 128.636 104.349 127.053 106.148C125.557 107.852 122.152 111.515 123.439 114.077C123.615 114.425 123.896 114.631 124.247 114.734C123.74 115.511 123.272 116.316 122.818 117.115C121.034 120.265 119.669 123.621 119.886 127.3C119.908 127.718 120.468 127.793 120.605 127.398C121.951 123.518 123.879 120.354 126.627 117.299C129.062 114.587 131.788 112.45 134.669 110.275C135.614 109.624 136.531 108.955 137.411 108.306C143.662 103.706 150.402 99.8065 157.533 96.7179C158.004 96.5146 158.484 96.3225 158.957 96.1275C164.302 94.3563 169.909 93.3954 175.485 93.5319C180.503 93.6544 185.893 94.8436 189.794 98.1912C191.912 100.01 193.553 102.7 192.508 105.485C190.937 107.858 188.487 109.587 186.171 111.181C183.474 113.041 180.821 114.871 178.505 117.21C174.351 121.404 169.441 128.055 172.506 134.165C175.407 139.93 182.543 141.562 186.801 146.018C187.997 147.269 188.978 148.756 189.373 150.452C189.819 152.404 189.279 154.323 189.284 156.284C189.301 158.698 190.471 160.704 192.935 161.23C195.696 161.82 198.672 160.776 201.339 161.873C203.992 162.962 204.99 165.906 205.898 168.376C206.021 168.708 206.14 169.036 206.263 169.373C206.475 169.944 206.689 170.521 206.937 171.086C207.436 172.247 208.044 173.353 208.916 174.275C209.958 175.381 211.262 175.929 212.661 176.25C213.759 176.492 214.924 176.595 216.061 176.703C218.875 176.976 221.762 176.993 224.476 176.5C223.618 174.771 222.98 172.958 222.874 170.983Z" fill="#DBDBDB"/>
<path d="M186.248 180.169C184.153 178.223 183.375 174.861 183.086 172.204C182.787 169.489 183.111 166.815 183.93 164.259C183.969 164.136 183.944 164.033 183.885 163.952C187.363 160.401 194.193 157.931 199.045 160.351C204.838 163.239 204.481 171.703 201.461 176.546C198.797 180.818 190.841 184.428 186.248 180.169Z" fill="#795439"/>
<path d="M192.954 171.674C192.837 170.237 191.48 167.563 192.336 166.265C192.784 165.583 195.036 164.764 195.749 164.617C197.332 164.288 199.84 164.881 199.297 167.14C199.188 167.591 199.873 167.853 199.985 167.393C200.322 165.984 199.687 164.636 198.316 164.054C196.385 163.235 194.194 164.257 192.547 165.252C191.068 166.148 191.029 167.067 191.528 168.602C192.511 171.64 193.043 176.459 189.66 178.26C189.245 178.48 189.543 179.152 189.959 178.929C192.578 177.534 193.174 174.42 192.954 171.674Z" fill="#45332D"/>
<path d="M203.754 238.155V238.152C203.873 236.612 205.568 235.732 206.498 234.632C208.101 232.735 209.84 229.803 208.482 227.324C207.911 226.283 206.902 225.678 205.974 224.996C205.208 224.525 204.411 224.096 203.578 223.715C208.324 221.498 209.399 215.402 207.412 210.84C206.64 209.063 205.543 207.434 204.23 205.955C204.002 205.295 203.695 204.66 203.308 204.083C203.049 203.693 202.675 203.345 202.433 202.947C201.282 201.084 201.781 201.056 202.16 199.533C202.408 198.535 202.343 197.522 202.026 196.547C201.279 194.255 199.379 192.72 197.433 191.442C196.068 190.54 194.552 189.768 193.398 188.585C192.718 187.888 192.337 187.153 192.089 186.376C191.972 185.808 191.852 185.243 191.726 184.677C191.665 184.234 191.615 183.775 191.559 183.301C191.398 181.967 191.105 180.015 190.353 178.539C189.483 173.813 189.547 169.251 190.417 164.427C191.242 159.86 193.855 155.911 194.75 151.388C195.012 150.073 195.288 148.578 194.195 147.586C192.593 146.124 189.642 145.342 187.599 144.673C187.519 144.576 187.441 144.476 187.354 144.378C187.042 144.024 186.527 144.542 186.836 144.896C191.635 150.36 188.703 157.846 186.529 163.759C184.138 170.265 181.929 176.837 179.906 183.466C178.9 186.769 177.958 190.091 177.019 193.414C176.135 196.53 175.16 199.675 173.357 202.404C170.111 207.319 164.649 210.182 159.14 211.845C158.07 212.168 153.249 212.859 151.842 212.909C133.199 213.572 123.05 197.268 123.05 197.268C123.05 197.268 114.501 197.772 112.89 207.094C112.754 207.367 109.184 210.024 107.98 210.823C107.821 210.929 107.651 211.029 107.487 211.135C104.427 214.961 102.836 219.607 108.705 221.456C108.911 221.523 109.067 221.793 108.922 221.994C104.36 228.346 105.873 237.25 110.99 242.834C113.665 245.755 117.09 247.502 121.063 247.722C124.165 247.897 127.174 247.953 129.61 250.1C132.681 252.807 135.426 255.664 138.861 257.962C142.295 260.26 146.023 262.131 149.955 263.412C157.777 265.966 167.165 266.39 174.837 263.034C181.109 260.288 182.999 254.603 183.974 248.295C184.021 247.997 184.4 247.983 184.587 248.134C188.277 251.158 193.685 250.417 197.578 248.078C199.526 246.906 201.694 244.931 202.767 242.904C203.475 241.569 203.266 240.481 203.475 239.091C203.525 238.757 203.609 238.442 203.754 238.155Z" fill="#DBDBDB"/>
<path d="M141.34 147.588C139.625 144.64 134.647 143.254 129.928 144.756C127.996 145.372 126.726 146.338 126.383 147.668C126.109 148.722 125.88 150.251 127.483 150.803C128.578 151.314 130.162 151.209 131.571 151.112C133.57 150.976 135.196 151.183 137.178 151.287C138.23 151.342 139.249 151.366 140.166 150.961C141.945 150.176 141.992 148.714 141.34 147.588Z" fill="#3D2F3B"/>
<path d="M169.98 151.294C168.301 147.849 162.898 145.585 157.574 146.48C155.393 146.845 153.922 147.692 153.442 149.073C153.063 150.169 152.697 151.781 154.425 152.624C155.602 153.347 157.358 153.477 158.921 153.59C161.144 153.75 162.925 154.224 165.107 154.642C166.266 154.863 167.389 155.049 168.433 154.753C170.457 154.177 170.62 152.61 169.98 151.294Z" fill="#3D2F3B"/>
<path d="M159.357 132.553C154.801 130.116 150.34 133.611 145.717 133.689C141.069 133.767 137.491 129.244 132.695 130.695C132.246 130.832 132.544 131.5 132.993 131.364C137.53 129.991 141.241 134.505 145.736 134.436C150.248 134.366 154.656 130.863 159.084 133.23C159.499 133.453 159.767 132.77 159.357 132.553Z" fill="#45332D"/>
<path d="M158.898 135.573C154.342 133.136 149.881 136.631 145.258 136.709C140.61 136.787 137.032 132.264 132.236 133.715C131.787 133.851 132.085 134.52 132.534 134.383C137.071 133.01 140.782 137.525 145.277 137.455C149.789 137.386 154.197 133.882 158.625 136.249C159.04 136.472 159.308 135.79 158.898 135.573Z" fill="#45332D"/>
<mask id="mask1_4660_3897" style="mask-type:luminance" maskUnits="userSpaceOnUse" x="118" y="219" width="76" height="95">
<path d="M118.396 219.916H193.772V313.061H118.396V219.916Z" fill="white"/>
</mask>
<g mask="url(#mask1_4660_3897)">
<path d="M193.218 222.991C193.096 222.623 192.934 222.272 192.75 221.938C191.527 219.741 188.668 219.471 186.567 220.504C183.482 222.016 182.264 225.815 181.041 228.756C180.272 230.608 179.525 232.474 178.814 234.345C177.273 238.334 175.852 242.372 174.534 246.441C173.194 248.212 171.221 249.513 168.972 249.93C166.202 250.443 163.351 249.471 160.676 248.173C158.962 247.346 157.321 246.391 155.819 245.6C148.27 241.656 140.635 237.718 133.724 232.713C132.041 231.499 130.405 230.221 128.839 228.859C127.554 227.745 126.403 226.386 125.099 225.28C124.851 225.069 124.595 224.863 124.33 224.673C122.485 223.328 120.256 223.921 119.15 225.72C118.988 225.982 118.849 226.269 118.74 226.575C117.575 229.898 120.192 233.914 121.964 236.526C122.045 236.651 122.131 236.76 122.212 236.885C120.989 238.685 121.056 242.483 121.276 243.879C121.897 247.722 123.876 251.284 126.061 254.52C125.693 255.091 125.422 255.681 125.247 256.283C124.185 259.881 126.25 263.936 128.633 267.426C127.298 271.932 128.839 276.586 131.291 280.529C134.596 285.84 143.204 294.362 146.957 299.367C150.68 304.336 147.047 312.585 147.127 313.061H172.659C173.45 310.22 178.956 294.245 181.275 288.088C185.566 276.697 187.305 264.351 188.294 252.339C188.662 250.12 189.08 247.911 189.579 245.722C190.574 241.347 192.062 237.089 192.962 232.7C193.542 229.862 194.26 225.938 193.218 222.991Z" fill="#795439"/>
</g>
<path d="M139.022 254.559C136.82 253.638 135.168 252.128 133.97 250.078C133.083 248.569 132.309 247.04 131.23 245.65C128.812 242.539 125.785 239.874 122.993 237.108C122.656 236.777 122.138 237.295 122.475 237.626C125.657 240.779 129.316 243.834 131.746 247.636C132.735 249.181 133.426 250.905 134.633 252.312C135.778 253.651 137.208 254.587 138.827 255.261C139.259 255.445 139.451 254.738 139.022 254.559Z" fill="#45332D"/>
<path d="M136.188 262.946C134.883 262.492 133.632 261.879 132.568 260.991C131.723 260.289 131.325 259.423 130.72 258.548C129.703 257.083 127.998 255.939 126.666 254.769C126.315 254.46 125.793 254.975 126.147 255.284C127.07 256.095 128 256.891 128.912 257.713C129.776 258.495 130.26 259.417 130.932 260.345C132.125 261.988 134.12 263.002 135.993 263.651C136.438 263.807 136.631 263.099 136.188 262.946Z" fill="#45332D"/>
<path d="M137.336 274.338C136.489 273.725 135.63 273.124 134.795 272.497C133.711 271.684 133.298 270.818 132.585 269.734C131.835 268.593 130.615 267.974 129.416 267.406C128.993 267.206 128.619 267.835 129.046 268.038C129.865 268.428 130.746 268.824 131.409 269.459C132.064 270.088 132.295 270.94 132.808 271.656C133.805 273.04 135.611 273.987 136.965 274.967C137.347 275.246 137.715 274.611 137.336 274.338Z" fill="#45332D"/>
<path d="M188.931 223.311C186.331 222.802 184.745 226.492 184.36 228.472C184.358 228.497 184.36 228.519 184.36 228.545C184.316 228.698 184.369 228.865 184.569 228.893C186.729 229.191 188.85 229.65 190.94 230.271C191.096 230.316 191.285 230.216 191.321 230.054C191.823 227.779 191.996 223.91 188.931 223.311Z" fill="#DBDBDB"/>
<path d="M175.136 223.344C173.922 225.545 172.553 227.937 170.056 228.848C167.696 229.711 165.049 229.143 163.313 227.33C162.987 226.987 162.491 227.528 162.814 227.865C164.614 229.75 167.298 230.399 169.803 229.697C172.757 228.873 174.39 226.213 175.783 223.687C176.011 223.275 175.365 222.932 175.136 223.344Z" fill="#403E3D"/>
<path d="M154.84 243.342C152.416 240.387 149.813 237.582 147.046 234.945C140.768 228.957 133.662 223.883 125.996 219.822C125.578 219.602 125.235 220.248 125.653 220.468C126.233 220.778 126.807 221.092 127.381 221.413C127.378 221.415 127.375 221.415 127.373 221.418C123.711 226.264 124.636 233.221 129.808 236.613C131.062 237.435 132.28 237.733 133.676 238.178C134.816 238.54 134.718 238.941 135.161 240.019C135.434 240.682 135.746 241.331 136.092 241.96C137.533 244.562 139.603 246.804 142.033 248.516C144.46 250.224 147.275 251.418 150.217 251.875C152.352 252.206 155.607 252.546 157.036 250.505C158.725 248.096 156.312 245.133 154.84 243.342Z" fill="#DBDBDB"/>
<path d="M148.331 181.82C145.43 180.806 141.179 183.677 140.038 183.424C138.896 183.17 135.49 185.028 134.153 181.285C130.408 177.542 143.97 163.178 144.221 156.878C144.241 156.413 143.516 156.307 143.497 156.778C143.218 163.754 129.872 176.74 132.548 180.483C132.528 182.861 136.56 184.493 139.236 185.028C142.446 185.028 145.452 181.522 148.599 182.622C149.042 182.778 148.777 181.976 148.331 181.82Z" fill="#45332D"/>
<mask id="mask2_4660_3897" style="mask-type:luminance" maskUnits="userSpaceOnUse" x="260" y="251" width="29" height="63">
<path d="M260.27 251.986H288.777V313.062H260.27V251.986Z" fill="white"/>
</mask>
<g mask="url(#mask2_4660_3897)">
<path d="M288.599 252.725C284.7 257.635 281.139 262.801 277.951 268.199C269.78 282.043 264.096 297.283 261.187 313.06H260.426C260.521 312.511 260.621 311.962 260.73 311.414C264.968 289.849 274.412 269.421 288.086 252.213C288.378 251.84 288.891 252.36 288.599 252.725Z" fill="#0C0C0C"/>
</g>
<path d="M134.115 161.27C132.836 159.784 126.728 158.134 126.663 162.097C126.648 162.862 126.882 163.415 127.23 163.828C127.552 164.434 128.168 164.774 128.729 164.942C130.117 165.364 132.565 166.018 133.873 164.856C134.814 164.017 134.999 162.302 134.115 161.27Z" fill="#3D2F3B"/>
<path d="M160.629 163.456C159.055 161.914 152.048 161.199 152.353 166.06C152.411 166.992 152.724 167.621 153.155 168.049C153.573 168.719 154.298 169.001 154.941 169.092C156.538 169.308 159.345 169.585 160.7 167.883C161.675 166.659 161.72 164.524 160.629 163.456Z" fill="#3D2F3B"/>
<path d="M159.509 181.407C157.965 180.363 156.254 179.692 154.409 179.419C153.949 179.349 153.749 180.054 154.214 180.124C156.006 180.391 157.639 181.023 159.138 182.04C159.531 182.304 159.899 181.669 159.509 181.407Z" fill="#45332D"/>
<path d="M156.353 195.156C155.227 196.401 153.89 197.314 152.268 197.788C150.755 198.231 149.275 197.997 147.74 198.15C147.274 198.197 147.269 198.93 147.74 198.882C149.548 198.699 151.217 198.952 152.976 198.328C154.506 197.785 155.79 196.869 156.872 195.671C157.186 195.323 156.668 194.805 156.353 195.156Z" fill="#45332D"/>
<path d="M216.512 131.869C212.879 136.982 208.621 142.234 202.047 143.276C201.582 143.348 201.78 144.056 202.239 143.981C209 142.911 213.411 137.494 217.145 132.239C217.421 131.855 216.785 131.49 216.512 131.869Z" fill="#403E3D"/>
<path d="M229.343 140.897C227.59 142.972 225.773 144.999 223.853 146.924C221.917 148.862 219.724 150.764 216.817 150.667C216.343 150.653 216.346 151.382 216.817 151.399C219.294 151.483 221.318 150.235 223.118 148.639C225.57 146.464 227.749 143.916 229.861 141.415C230.162 141.056 229.647 140.538 229.343 140.897Z" fill="#444444"/>
<path d="M222.361 162.564C219.118 163.155 215.902 162.754 212.904 161.381C212.48 161.186 212.107 161.815 212.536 162.013C215.729 163.475 219.101 163.898 222.557 163.269C223.022 163.185 222.824 162.481 222.361 162.564Z" fill="#403E3D"/>
<path d="M160.105 188.973C159.673 186.887 157.238 186.079 155.401 185.834C152.317 185.422 148.897 185.394 145.793 185.6C143.781 185.737 141.853 186.179 140.153 187.137C139.052 187.522 138.049 188.109 137.311 189.087C136.115 190.672 136.355 192.298 138.297 192.955C140.944 193.852 143.667 192.557 146.119 191.683C148.178 190.947 150.029 190.627 152.188 191.195C153.568 191.554 154.9 192.145 156.352 192.164C158.149 192.189 160.557 191.159 160.105 188.973Z" fill="#DBDBDB"/>
<path d="M136.609 186.374C134.619 190.468 131.306 193.602 127.112 195.37C126.677 195.551 127.05 196.183 127.48 196.002C131.779 194.189 135.204 190.933 137.241 186.745C137.445 186.322 136.812 185.951 136.609 186.374Z" fill="#45332D"/>
<path d="M172.853 193.495C169.886 193.522 167.149 192.723 164.663 191.108C164.265 190.849 163.897 191.484 164.293 191.74C166.873 193.417 169.774 194.258 172.853 194.227C173.324 194.221 173.324 193.489 172.853 193.495Z" fill="#45332D"/>
<path d="M164.879 170.449C164.405 171.192 163.123 171.563 162.329 171.657C161.774 171.724 161.136 171.593 160.582 171.563C156.683 171.351 149.881 171.504 149.658 166.307C149.594 164.798 149.809 163.263 149.736 161.754C149.842 160.835 150.971 160.748 151.38 160.651C151.734 160.565 152.28 160.704 152.64 160.732C153.537 160.799 154.434 160.877 155.329 160.974C157.302 161.191 160.18 161.514 162.1 162.03C163.282 162.35 164.391 162.681 164.748 163.965C165.007 164.904 165.146 165.912 165.235 166.876C165.338 167.962 165.492 169.493 164.879 170.449ZM136.399 166.591C135.926 167.335 134.644 167.708 133.85 167.803C133.295 167.867 132.657 167.736 132.102 167.705C128.204 167.494 121.31 167.739 121.087 162.542C121.023 161.033 121.237 159.498 121.168 157.989C121.271 157.069 122.399 156.983 122.809 156.886C123.163 156.799 123.709 156.939 124.071 156.966C124.966 157.033 125.863 157.111 126.758 157.209C128.73 157.426 131.701 157.657 133.621 158.172C134.803 158.493 135.912 158.824 136.268 160.108C136.527 161.046 136.667 162.055 136.756 163.018C136.859 164.104 137.012 165.636 136.399 166.591ZM209.629 141.49C206.009 141.212 202.473 142.398 199.168 143.743C195.74 145.141 192.433 146.804 189.153 148.514C181.289 152.619 173.445 156.774 165.72 161.141C165.472 160.93 165.193 160.737 164.876 160.567C162.365 159.228 158.166 158.857 155.359 158.688C153.359 158.565 149.156 157.975 147.785 159.932C147.649 160.125 147.549 160.334 147.471 160.554C145.188 158.448 141.524 158.615 138.843 160.127C138.525 158.721 137.857 157.49 136.399 156.713C133.886 155.371 129.594 155.092 126.791 154.922C124.787 154.8 120.585 154.209 119.214 156.167C118.71 156.886 118.654 157.821 118.64 158.668C118.626 159.515 118.657 160.367 118.699 161.216C118.635 163.222 118.529 165.33 119.827 166.909C121.566 169.023 125.465 169.619 127.989 170.014C129.527 170.257 132.083 170.298 133.641 170.279C134.786 170.268 136.137 170.321 137.11 169.61C139.047 168.201 139.214 165.068 139.139 162.893C141.8 160.428 145.13 161.283 147.234 164.068C147.245 164.375 147.253 164.678 147.27 164.982C147.203 166.987 147.1 169.095 148.398 170.674C150.137 172.788 154.036 173.384 156.561 173.78C158.099 174.022 160.562 174.156 162.12 174.136C163.265 174.125 164.617 174.178 165.589 173.468C167.557 172.033 167.699 168.817 167.615 166.639C167.584 165.812 167.523 164.99 167.37 164.213C174.247 160.088 181.278 156.228 188.317 152.388C191.984 150.385 195.66 148.361 199.553 146.823C201.163 146.186 202.83 145.576 204.532 145.239C206.848 144.776 208.974 145.1 211.268 145.534C212.282 145.729 216.389 146.946 216.214 144.746C216.024 142.404 211.32 141.621 209.629 141.49Z" fill="#3D2F3B"/>
</svg>
