<svg width="7" height="14" viewBox="0 0 7 14" fill="none" xmlns="http://www.w3.org/2000/svg">
<path d="M6.57257 12.7038L1.3852 7.43316C1.27143 7.31816 1.20762 7.16292 1.20762 7.00116C1.20762 6.83939 1.27143 6.68415 1.3852 6.56916L6.57145 1.29741C6.68516 1.18169 6.74887 1.02595 6.74887 0.863718C6.74887 0.701486 6.68516 0.545743 6.57145 0.430031C6.5159 0.373051 6.44951 0.327767 6.37618 0.296848C6.30286 0.265929 6.22409 0.25 6.14451 0.25C6.06493 0.25 5.98616 0.265929 5.91284 0.296848C5.83952 0.327767 5.77312 0.373051 5.71757 0.430031L0.531323 5.69953C0.190531 6.04662 -0.000402451 6.51361 -0.000402451 7.00003C-0.000402451 7.48646 0.190531 7.95344 0.531323 8.30053L5.71757 13.57C5.77314 13.6272 5.8396 13.6726 5.91303 13.7036C5.98646 13.7347 6.06536 13.7506 6.14507 13.7506C6.22479 13.7506 6.30369 13.7347 6.37712 13.7036C6.45054 13.6726 6.51701 13.6272 6.57257 13.57C6.68628 13.4543 6.75 13.2986 6.75 13.1363C6.75 12.9741 6.68628 12.8184 6.57257 12.7027" fill="#444444"/>
</svg>
