<svg width="18" height="18" viewBox="0 0 18 18" fill="none" xmlns="http://www.w3.org/2000/svg">
<g clip-path="url(#clip0_6100_7714)">
<path d="M15.75 5.99919C16.1478 5.99919 16.5294 6.15723 16.8107 6.43853C17.092 6.71984 17.25 7.10137 17.25 7.49919V10.4992C17.25 10.897 17.092 11.2785 16.8107 11.5599C16.5294 11.8412 16.1478 11.9992 15.75 11.9992H14.9535C14.7707 13.4492 14.0649 14.7826 12.9688 15.7492C11.8727 16.7158 10.4615 17.2492 9 17.2492V15.7492C10.1935 15.7492 11.3381 15.2751 12.182 14.4312C13.0259 13.5873 13.5 12.4427 13.5 11.2492V6.74919C13.5 5.55572 13.0259 4.41113 12.182 3.56721C11.3381 2.7233 10.1935 2.24919 9 2.24919C7.80653 2.24919 6.66193 2.7233 5.81802 3.56721C4.97411 4.41113 4.5 5.55572 4.5 6.74919V11.9992H2.25C1.85218 11.9992 1.47064 11.8412 1.18934 11.5599C0.908035 11.2785 0.75 10.897 0.75 10.4992V7.49919C0.75 7.10137 0.908035 6.71984 1.18934 6.43853C1.47064 6.15723 1.85218 5.99919 2.25 5.99919H3.0465C3.22952 4.54936 3.93531 3.21615 5.03143 2.2497C6.12755 1.28325 7.53866 0.75 9 0.75C10.4613 0.75 11.8724 1.28325 12.9686 2.2497C14.0647 3.21615 14.7705 4.54936 14.9535 5.99919H15.75ZM5.82 11.8379L6.615 10.5659C7.32981 11.0137 8.15652 11.2506 9 11.2492C9.84348 11.2506 10.6702 11.0137 11.385 10.5659L12.18 11.8379C11.2269 12.4351 10.1247 12.7509 9 12.7492C7.87534 12.7509 6.77306 12.4351 5.82 11.8379Z" fill="#A6A6A6"/>
<path d="M15.75 5.99919C16.1478 5.99919 16.5294 6.15723 16.8107 6.43853C17.092 6.71984 17.25 7.10137 17.25 7.49919V10.4992C17.25 10.897 17.092 11.2785 16.8107 11.5599C16.5294 11.8412 16.1478 11.9992 15.75 11.9992H14.9535C14.7707 13.4492 14.0649 14.7826 12.9688 15.7492C11.8727 16.7158 10.4615 17.2492 9 17.2492V15.7492C10.1935 15.7492 11.3381 15.2751 12.182 14.4312C13.0259 13.5873 13.5 12.4427 13.5 11.2492V6.74919C13.5 5.55572 13.0259 4.41113 12.182 3.56721C11.3381 2.7233 10.1935 2.24919 9 2.24919C7.80653 2.24919 6.66193 2.7233 5.81802 3.56721C4.97411 4.41113 4.5 5.55572 4.5 6.74919V11.9992H2.25C1.85218 11.9992 1.47064 11.8412 1.18934 11.5599C0.908035 11.2785 0.75 10.897 0.75 10.4992V7.49919C0.75 7.10137 0.908035 6.71984 1.18934 6.43853C1.47064 6.15723 1.85218 5.99919 2.25 5.99919H3.0465C3.22952 4.54936 3.93531 3.21615 5.03143 2.2497C6.12755 1.28325 7.53866 0.75 9 0.75C10.4613 0.75 11.8724 1.28325 12.9686 2.2497C14.0647 3.21615 14.7705 4.54936 14.9535 5.99919H15.75ZM5.82 11.8379L6.615 10.5659C7.32981 11.0137 8.15652 11.2506 9 11.2492C9.84348 11.2506 10.6702 11.0137 11.385 10.5659L12.18 11.8379C11.2269 12.4351 10.1247 12.7509 9 12.7492C7.87534 12.7509 6.77306 12.4351 5.82 11.8379Z" fill="black" fill-opacity="0.2"/>
<path d="M15.75 5.99919C16.1478 5.99919 16.5294 6.15723 16.8107 6.43853C17.092 6.71984 17.25 7.10137 17.25 7.49919V10.4992C17.25 10.897 17.092 11.2785 16.8107 11.5599C16.5294 11.8412 16.1478 11.9992 15.75 11.9992H14.9535C14.7707 13.4492 14.0649 14.7826 12.9688 15.7492C11.8727 16.7158 10.4615 17.2492 9 17.2492V15.7492C10.1935 15.7492 11.3381 15.2751 12.182 14.4312C13.0259 13.5873 13.5 12.4427 13.5 11.2492V6.74919C13.5 5.55572 13.0259 4.41113 12.182 3.56721C11.3381 2.7233 10.1935 2.24919 9 2.24919C7.80653 2.24919 6.66193 2.7233 5.81802 3.56721C4.97411 4.41113 4.5 5.55572 4.5 6.74919V11.9992H2.25C1.85218 11.9992 1.47064 11.8412 1.18934 11.5599C0.908035 11.2785 0.75 10.897 0.75 10.4992V7.49919C0.75 7.10137 0.908035 6.71984 1.18934 6.43853C1.47064 6.15723 1.85218 5.99919 2.25 5.99919H3.0465C3.22952 4.54936 3.93531 3.21615 5.03143 2.2497C6.12755 1.28325 7.53866 0.75 9 0.75C10.4613 0.75 11.8724 1.28325 12.9686 2.2497C14.0647 3.21615 14.7705 4.54936 14.9535 5.99919H15.75ZM5.82 11.8379L6.615 10.5659C7.32981 11.0137 8.15652 11.2506 9 11.2492C9.84348 11.2506 10.6702 11.0137 11.385 10.5659L12.18 11.8379C11.2269 12.4351 10.1247 12.7509 9 12.7492C7.87534 12.7509 6.77306 12.4351 5.82 11.8379Z" fill="black" fill-opacity="0.2"/>
</g>
<defs>
<clipPath id="clip0_6100_7714">
<rect width="18" height="18" fill="white"/>
</clipPath>
</defs>
</svg>
