<svg width="429" height="293" viewBox="0 0 429 293" fill="none" xmlns="http://www.w3.org/2000/svg">
<path d="M247.143 292.501C347.572 292.501 428.986 287.748 428.986 281.884C428.986 276.021 347.572 271.268 247.143 271.268C146.713 271.268 65.2993 276.021 65.2993 281.884C65.2993 287.748 146.713 292.501 247.143 292.501Z" fill="#F5F5F5"/>
<path d="M256.07 43.3582C255.058 40.0171 253.717 36.7848 252.066 33.7094L254.553 25.5651L238.475 9.47543L230.331 11.9622C227.256 10.3108 224.023 8.96956 220.682 7.95848L216.678 0.498047H193.924L189.933 7.95848C186.591 8.96722 183.358 10.3085 180.284 11.9622L172.14 9.47543L156.05 25.5651L158.537 33.7094C156.895 36.7877 155.558 40.0194 154.546 43.3582L147.023 47.362V70.1163L154.546 74.1076C155.555 77.4473 156.892 80.6792 158.537 83.7565L156.05 91.9008L172.14 107.99L180.284 105.504C183.361 107.148 186.593 108.485 189.933 109.495L193.924 116.955H216.678L220.682 109.495C224.021 108.482 227.253 107.146 230.331 105.504L238.475 107.99L254.565 91.9008L252.078 83.7565C253.732 80.6821 255.073 77.4496 256.082 74.1076L263.605 70.1163V47.362L256.07 43.3582ZM205.301 91.0552C198.907 91.0552 192.657 89.1592 187.341 85.6069C182.024 82.0546 177.881 77.0056 175.434 71.0983C172.987 65.191 172.347 58.6908 173.594 52.4197C174.841 46.1486 177.92 40.3882 182.442 35.867C186.963 31.3458 192.723 28.2668 198.994 27.0194C205.265 25.772 211.766 26.4122 217.673 28.859C223.58 31.3059 228.629 35.4495 232.182 40.7659C235.734 46.0823 237.63 52.3327 237.63 58.7267C237.63 67.3008 234.224 75.5237 228.161 81.5864C222.098 87.6492 213.875 91.0552 205.301 91.0552Z" fill="#6982B5"/>
<path opacity="0.2" d="M256.07 43.3582C255.058 40.0171 253.717 36.7848 252.066 33.7094L254.553 25.5651L238.475 9.47543L230.331 11.9622C227.256 10.3108 224.023 8.96956 220.682 7.95848L216.678 0.498047H193.924L189.933 7.95848C186.591 8.96722 183.358 10.3085 180.284 11.9622L172.14 9.47543L156.05 25.5651L158.537 33.7094C156.895 36.7877 155.558 40.0194 154.546 43.3582L147.023 47.362V70.1163L154.546 74.1076C155.555 77.4473 156.892 80.6792 158.537 83.7565L156.05 91.9008L172.14 107.99L180.284 105.504C183.361 107.148 186.593 108.485 189.933 109.495L193.924 116.955H216.678L220.682 109.495C224.021 108.482 227.253 107.146 230.331 105.504L238.475 107.99L254.565 91.9008L252.078 83.7565C253.732 80.6821 255.073 77.4496 256.082 74.1076L263.605 70.1163V47.362L256.07 43.3582ZM205.301 91.0552C198.907 91.0552 192.657 89.1592 187.341 85.6069C182.024 82.0546 177.881 77.0056 175.434 71.0983C172.987 65.191 172.347 58.6908 173.594 52.4197C174.841 46.1486 177.92 40.3882 182.442 35.867C186.963 31.3458 192.723 28.2668 198.994 27.0194C205.265 25.772 211.766 26.4122 217.673 28.859C223.58 31.3059 228.629 35.4495 232.182 40.7659C235.734 46.0823 237.63 52.3327 237.63 58.7267C237.63 67.3008 234.224 75.5237 228.161 81.5864C222.098 87.6492 213.875 91.0552 205.301 91.0552Z" fill="white"/>
<path d="M205.3 48.0215C203.18 48.0215 201.108 48.6501 199.345 49.8278C197.583 51.0055 196.209 52.6795 195.398 54.638C194.587 56.5965 194.374 58.7515 194.788 60.8306C195.202 62.9098 196.222 64.8196 197.721 66.3185C199.22 67.8175 201.13 68.8383 203.209 69.2518C205.288 69.6654 207.443 69.4531 209.402 68.6419C211.36 67.8307 213.034 66.4569 214.212 64.6943C215.39 62.9317 216.018 60.8595 216.018 58.7396C216.018 55.897 214.889 53.1708 212.879 51.1608C210.869 49.1507 208.143 48.0215 205.3 48.0215Z" fill="#6982B5"/>
<path d="M417.997 79.4522C416.552 74.6755 414.64 70.0526 412.29 65.6504L415.846 54.0121L392.88 31.0465L381.229 34.615C376.843 32.2375 372.222 30.3207 367.44 28.8954L361.733 18.1523H329.218L323.498 28.8954C318.718 30.3252 314.097 32.2418 309.709 34.615L298.07 31.0465L275.08 54.037L278.636 65.6753C276.275 70.0725 274.363 74.6965 272.929 79.4771L262.173 85.1843V117.699L272.916 123.419C274.348 128.196 276.26 132.816 278.624 137.208L275.067 148.834L298.058 171.825L309.696 168.269C314.09 170.634 318.715 172.543 323.498 173.963L329.218 184.719H361.733L367.44 173.976C372.218 172.54 376.838 170.623 381.229 168.256L392.88 171.812L415.871 148.822L412.314 137.184C414.659 132.786 416.562 128.167 417.997 123.394L428.74 117.674V85.1594L417.997 79.4522ZM345.469 160.361C333.81 160.361 322.413 156.903 312.718 150.426C303.024 143.948 295.468 134.742 291.007 123.97C286.545 113.198 285.377 101.345 287.652 89.9102C289.927 78.4751 295.541 67.9712 303.785 59.7269C312.029 51.4826 322.533 45.8682 333.969 43.5936C345.404 41.319 357.257 42.4864 368.028 46.9482C378.8 51.41 388.007 58.9657 394.484 68.66C400.962 78.3542 404.419 89.7516 404.419 101.411C404.419 109.152 402.894 116.818 399.932 123.97C396.969 131.122 392.627 137.621 387.153 143.095C381.679 148.569 375.18 152.911 368.028 155.873C360.876 158.836 353.21 160.361 345.469 160.361Z" fill="#6982B5"/>
<path d="M345.473 50.7344C335.447 50.7368 325.648 53.712 317.313 59.2838C308.978 64.8556 302.482 72.7737 298.647 82.037C294.812 91.3003 293.81 101.493 295.768 111.325C297.725 121.158 302.554 130.19 309.644 137.278C316.734 144.367 325.767 149.193 335.6 151.148C345.434 153.103 355.626 152.099 364.888 148.262C374.15 144.424 382.067 137.927 387.637 129.591C393.206 121.254 396.179 111.454 396.179 101.428C396.163 87.9861 390.815 75.0997 381.309 65.596C371.803 56.0923 358.915 50.7475 345.473 50.7344ZM345.473 145.37C336.782 145.372 328.285 142.797 321.057 137.97C313.829 133.144 308.195 126.282 304.867 118.252C301.54 110.223 300.668 101.388 302.362 92.863C304.056 84.3383 308.24 76.5074 314.385 70.3608C320.53 64.2141 328.359 60.0278 336.884 58.3313C345.408 56.6348 354.244 57.5043 362.274 60.8298C370.304 64.1553 377.167 69.7874 381.996 77.0139C386.825 84.2404 389.403 92.7366 389.403 101.428C389.39 113.076 384.757 124.243 376.522 132.481C368.287 140.718 357.121 145.353 345.473 145.37Z" fill="#6982B5"/>
<path opacity="0.2" d="M345.473 50.7344C335.447 50.7368 325.648 53.712 317.313 59.2838C308.978 64.8556 302.482 72.7737 298.647 82.037C294.812 91.3003 293.81 101.493 295.768 111.325C297.725 121.158 302.554 130.19 309.644 137.278C316.734 144.367 325.767 149.193 335.6 151.148C345.434 153.103 355.626 152.099 364.888 148.262C374.15 144.424 382.067 137.927 387.637 129.591C393.206 121.254 396.179 111.454 396.179 101.428C396.163 87.9861 390.815 75.0997 381.309 65.596C371.803 56.0923 358.915 50.7475 345.473 50.7344ZM345.473 145.37C336.782 145.372 328.285 142.797 321.057 137.97C313.829 133.144 308.195 126.282 304.867 118.252C301.54 110.223 300.668 101.388 302.362 92.863C304.056 84.3383 308.24 76.5074 314.385 70.3608C320.53 64.2141 328.359 60.0278 336.884 58.3313C345.408 56.6348 354.244 57.5043 362.274 60.8298C370.304 64.1553 377.167 69.7874 381.996 77.0139C386.825 84.2404 389.403 92.7366 389.403 101.428C389.39 113.076 384.757 124.243 376.522 132.481C368.287 140.718 357.121 145.353 345.473 145.37Z" fill="black"/>
<path d="M229.001 187.919C228.671 187.919 228.355 187.788 228.122 187.555C227.889 187.322 227.758 187.005 227.758 186.676V184.189C227.758 183.859 227.889 183.543 228.122 183.309C228.355 183.076 228.671 182.945 229.001 182.945C229.331 182.945 229.647 183.076 229.88 183.309C230.114 183.543 230.245 183.859 230.245 184.189V186.676C230.245 187.005 230.114 187.322 229.88 187.555C229.647 187.788 229.331 187.919 229.001 187.919Z" fill="#6982B5"/>
<path d="M209.641 155.786C208.5 155.053 207.607 153.991 207.08 152.74C206.95 152.437 206.704 152.197 206.397 152.075C206.091 151.953 205.748 151.957 205.445 152.087C205.141 152.218 204.902 152.463 204.78 152.77C204.657 153.076 204.662 153.419 204.792 153.722C205.522 155.421 206.738 156.865 208.286 157.875C208.486 158.005 208.719 158.074 208.957 158.074C209.227 158.076 209.489 157.991 209.706 157.831C209.922 157.671 210.081 157.445 210.158 157.187C210.235 156.929 210.226 156.653 210.133 156.401C210.04 156.148 209.867 155.932 209.641 155.786Z" fill="#6982B5"/>
<path d="M205.301 140.257C205.631 140.257 205.947 140.126 206.18 139.893C206.413 139.659 206.544 139.343 206.544 139.013V134.251C206.544 133.921 206.413 133.605 206.18 133.372C205.947 133.139 205.631 133.008 205.301 133.008C204.971 133.008 204.655 133.139 204.422 133.372C204.189 133.605 204.058 133.921 204.058 134.251V139.013C204.058 139.343 204.189 139.659 204.422 139.893C204.655 140.126 204.971 140.257 205.301 140.257Z" fill="#6982B5"/>
<path d="M218.246 156.879H213.471C213.141 156.879 212.825 157.01 212.592 157.243C212.359 157.476 212.228 157.793 212.228 158.122C212.228 158.452 212.359 158.768 212.592 159.002C212.825 159.235 213.141 159.366 213.471 159.366H218.246C218.575 159.366 218.892 159.235 219.125 159.002C219.358 158.768 219.489 158.452 219.489 158.122C219.489 157.793 219.358 157.476 219.125 157.243C218.892 157.01 218.575 156.879 218.246 156.879Z" fill="#6982B5"/>
<path d="M206.544 148.551V143.788C206.544 143.459 206.413 143.142 206.18 142.909C205.947 142.676 205.631 142.545 205.301 142.545C204.971 142.545 204.655 142.676 204.422 142.909C204.189 143.142 204.058 143.459 204.058 143.788V148.551C204.058 148.88 204.189 149.197 204.422 149.43C204.655 149.663 204.971 149.794 205.301 149.794C205.631 149.794 205.947 149.663 206.18 149.43C206.413 149.197 206.544 148.88 206.544 148.551Z" fill="#6982B5"/>
<path d="M230.17 164.962C230.127 164.636 229.956 164.34 229.695 164.14C229.434 163.94 229.104 163.851 228.777 163.893C228.615 163.92 228.46 163.979 228.321 164.066C228.182 164.154 228.062 164.268 227.967 164.402C227.872 164.536 227.805 164.687 227.769 164.848C227.733 165.008 227.729 165.174 227.758 165.336C227.797 165.624 227.818 165.915 227.82 166.206V169.936C227.82 170.266 227.951 170.582 228.184 170.815C228.417 171.049 228.733 171.18 229.063 171.18C229.393 171.18 229.709 171.049 229.942 170.815C230.176 170.582 230.307 170.266 230.307 169.936V166.206C230.288 165.789 230.242 165.374 230.17 164.962Z" fill="#6982B5"/>
<path d="M229.001 173.406C228.671 173.406 228.355 173.537 228.122 173.77C227.889 174.004 227.758 174.32 227.758 174.65V179.424C227.758 179.754 227.889 180.07 228.122 180.304C228.355 180.537 228.671 180.668 229.001 180.668C229.331 180.668 229.647 180.537 229.88 180.304C230.114 180.07 230.245 179.754 230.245 179.424V174.65C230.245 174.32 230.114 174.004 229.88 173.77C229.647 173.537 229.331 173.406 229.001 173.406Z" fill="#6982B5"/>
<path d="M227.917 160.027C226.7 158.637 225.093 157.645 223.304 157.18C223.146 157.139 222.981 157.13 222.819 157.153C222.657 157.176 222.501 157.23 222.361 157.313C222.22 157.397 222.097 157.507 221.998 157.637C221.9 157.768 221.828 157.917 221.787 158.075C221.747 158.234 221.737 158.399 221.76 158.561C221.783 158.722 221.838 158.878 221.921 159.019C222.004 159.16 222.114 159.283 222.245 159.381C222.376 159.48 222.524 159.551 222.683 159.592C223.989 159.929 225.164 160.653 226.052 161.669C226.169 161.801 226.312 161.908 226.473 161.981C226.634 162.053 226.808 162.091 226.985 162.091C227.224 162.091 227.458 162.022 227.658 161.892C227.859 161.763 228.018 161.578 228.116 161.36C228.215 161.142 228.248 160.901 228.213 160.664C228.178 160.428 228.075 160.207 227.917 160.027Z" fill="#6982B5"/>
<path d="M205.301 130.669C204.971 130.669 204.655 130.538 204.422 130.305C204.189 130.072 204.058 129.755 204.058 129.426V126.939C204.058 126.609 204.189 126.293 204.422 126.059C204.655 125.826 204.971 125.695 205.301 125.695C205.631 125.695 205.947 125.826 206.18 126.059C206.413 126.293 206.544 126.609 206.544 126.939V129.426C206.544 129.755 206.413 130.072 206.18 130.305C205.947 130.538 205.631 130.669 205.301 130.669Z" fill="#6982B5"/>
<path d="M287.898 250.52H0V255.133H287.898V250.52Z" fill="#6982B5"/>
<path d="M287.898 255.133H350.367V250.52H287.898V255.133Z" fill="#6982B5"/>
<path opacity="0.2" d="M287.898 255.133H350.367V250.52H287.898V255.133Z" fill="black"/>
<path d="M329.502 260.069H20.8642L10.5439 255.133H339.822L329.502 260.069Z" fill="#6982B5"/>
<path opacity="0.6" d="M329.502 260.069H20.8642L10.5439 255.133H339.822L329.502 260.069Z" fill="white"/>
<path d="M188.884 194.666L175.891 247.598L175.53 250.52H265.155L265.528 247.598L278.509 194.666H188.884Z" fill="#6982B5"/>
<path opacity="0.3" d="M188.884 194.666L175.891 247.598L175.53 250.52H265.155L265.528 247.598L278.509 194.666H188.884Z" fill="black"/>
<path d="M275.762 194.666H186.125L173.144 247.598H262.769L275.762 194.666Z" fill="#6982B5"/>
<path d="M260.868 245.174L272.68 197.092H188.029L176.229 245.174H260.868Z" fill="white"/>
<path d="M239.419 247.596L239.046 250.518H140.357L140.718 247.596H239.419Z" fill="#6982B5"/>
<path opacity="0.6" d="M239.419 247.596L239.046 250.518H140.357L140.718 247.596H239.419Z" fill="white"/>
<path d="M52.9823 240.898C52.9198 239.004 52.1782 237.196 50.893 235.803C49.6079 234.411 47.8647 233.527 45.9819 233.313V231.883C45.9803 231.8 45.9622 231.719 45.9287 231.643C45.8952 231.568 45.8469 231.499 45.7867 231.443C45.7265 231.386 45.6555 231.342 45.578 231.313C45.5005 231.284 45.418 231.271 45.3353 231.274H31.9066C31.8233 231.271 31.7401 231.284 31.6619 231.313C31.5837 231.341 31.5119 231.385 31.4507 231.442C31.3895 231.499 31.3401 231.567 31.3052 231.642C31.2704 231.718 31.2508 231.8 31.2476 231.883V250.534H45.9819V248.495C47.8678 248.283 49.614 247.399 50.9 246.003C52.1859 244.607 52.9253 242.795 52.9823 240.898ZM45.9819 246.083V235.725C47.2246 235.908 48.3599 236.532 49.1808 237.483C50.0017 238.434 50.4533 239.648 50.4533 240.904C50.4533 242.16 50.0017 243.374 49.1808 244.325C48.3599 245.276 47.2246 245.9 45.9819 246.083Z" fill="#6982B5"/>
<path d="M304.295 250.516H316.779L313.086 223.174H304.295V250.516Z" fill="#444444"/>
<path d="M285.994 250.519H309.643L314.032 218.514H290.395L285.994 250.519Z" fill="#6982B5"/>
<path opacity="0.3" d="M285.994 250.519H309.643L314.032 218.514H290.395L285.994 250.519Z" fill="black"/>
<path d="M282.838 250.519H307.445L311.847 218.514H287.24L282.838 250.519Z" fill="#6982B5"/>
<path opacity="0.4" d="M305.267 247.994L308.972 221.037H289.413L285.708 247.994H305.267Z" fill="white"/>
</svg>
