<svg width="24" height="25" viewBox="0 0 24 25" fill="none" xmlns="http://www.w3.org/2000/svg">
<path d="M22.8375 14.4505C22.7784 14.4948 22.7112 14.5271 22.6396 14.5454C22.568 14.5638 22.4936 14.5678 22.4205 14.5574C22.3473 14.5469 22.277 14.5222 22.2134 14.4845C22.1498 14.4469 22.0943 14.3971 22.05 14.338C21.5806 13.707 20.9696 13.195 20.2661 12.8433C19.5627 12.4916 18.7865 12.3099 18 12.313C17.8508 12.313 17.7077 12.2538 17.6023 12.1483C17.4968 12.0428 17.4375 11.8997 17.4375 11.7505C17.4375 11.6013 17.4968 11.4583 17.6023 11.3528C17.7077 11.2473 17.8508 11.188 18 11.188C18.4559 11.1879 18.9026 11.06 19.2894 10.8187C19.6762 10.5775 19.9876 10.2326 20.1882 9.82326C20.3889 9.41391 20.4707 8.9565 20.4244 8.50299C20.3781 8.04947 20.2055 7.61803 19.9263 7.25766C19.6471 6.89729 19.2725 6.62244 18.8449 6.46433C18.4173 6.30622 17.954 6.27118 17.5075 6.3632C17.061 6.45521 16.6492 6.67059 16.319 6.98488C15.9888 7.29916 15.7533 7.69975 15.6394 8.14115C15.6021 8.28561 15.5089 8.40934 15.3804 8.48512C15.2519 8.56089 15.0985 8.58251 14.9541 8.54521C14.8096 8.50792 14.6859 8.41476 14.6101 8.28624C14.5343 8.15772 14.5127 8.00436 14.55 7.8599C14.6914 7.30999 14.9622 6.80184 15.3398 6.37781C15.7174 5.95378 16.1909 5.62615 16.7208 5.42222C17.2507 5.2183 17.8217 5.14399 18.3861 5.20549C18.9506 5.26699 19.4922 5.46252 19.9657 5.77578C20.4393 6.08903 20.8311 6.51095 21.1086 7.00635C21.386 7.50175 21.541 8.05629 21.5606 8.62374C21.5803 9.1912 21.464 9.75513 21.2215 10.2685C20.979 10.7819 20.6173 11.2299 20.1666 11.5752C21.2757 11.9892 22.2421 12.714 22.95 13.663C22.9943 13.7221 23.0266 13.7894 23.0449 13.8609C23.0632 13.9325 23.0673 14.0069 23.0568 14.0801C23.0464 14.1532 23.0217 14.2236 22.984 14.2871C22.9464 14.3507 22.8966 14.4062 22.8375 14.4505ZM17.7366 20.4693C17.7736 20.5332 17.7976 20.6038 17.8073 20.6771C17.8171 20.7503 17.8122 20.8248 17.7932 20.8962C17.7741 20.9676 17.7412 21.0345 17.6962 21.0932C17.6513 21.1518 17.5952 21.201 17.5312 21.238C17.446 21.288 17.3489 21.3142 17.25 21.314C17.1512 21.314 17.0541 21.2881 16.9685 21.2387C16.883 21.1893 16.8119 21.1183 16.7625 21.0327C16.2736 20.2043 15.577 19.5177 14.7417 19.0408C13.9063 18.5638 12.961 18.3129 11.9991 18.3129C11.0371 18.3129 10.0918 18.5638 9.25646 19.0408C8.4211 19.5177 7.72457 20.2043 7.23563 21.0327C7.20046 21.0999 7.15206 21.1593 7.09334 21.2074C7.03462 21.2554 6.96679 21.2911 6.89393 21.3122C6.82107 21.3333 6.74469 21.3395 6.66937 21.3304C6.59406 21.3212 6.52138 21.2969 6.4557 21.259C6.39002 21.221 6.3327 21.1701 6.28719 21.1095C6.24167 21.0488 6.2089 20.9795 6.19085 20.9058C6.1728 20.8321 6.16985 20.7555 6.18216 20.6807C6.19447 20.6058 6.2218 20.5342 6.2625 20.4702C7.02866 19.1538 8.22827 18.1444 9.65625 17.6146C8.87621 17.1081 8.2808 16.363 7.95884 15.4905C7.63687 14.618 7.60562 13.6647 7.86972 12.773C8.13383 11.8812 8.67915 11.0987 9.42434 10.5423C10.1695 9.98578 11.0746 9.68511 12.0047 9.68511C12.9347 9.68511 13.8399 9.98578 14.585 10.5423C15.3302 11.0987 15.8755 11.8812 16.1397 12.773C16.4038 13.6647 16.3725 14.618 16.0505 15.4905C15.7286 16.363 15.1332 17.1081 14.3531 17.6146C15.7771 18.1462 16.9728 19.1551 17.7366 20.4693ZM12 17.188C12.6304 17.188 13.2467 17.0011 13.7709 16.6508C14.2951 16.3006 14.7036 15.8028 14.9449 15.2203C15.1861 14.6379 15.2492 13.997 15.1263 13.3787C15.0033 12.7604 14.6997 12.1924 14.2539 11.7466C13.8081 11.3008 13.2402 10.9973 12.6219 10.8743C12.0035 10.7513 11.3626 10.8144 10.7802 11.0557C10.1978 11.2969 9.69994 11.7055 9.34969 12.2296C8.99944 12.7538 8.8125 13.3701 8.8125 14.0005C8.8125 14.8459 9.14832 15.6567 9.7461 16.2544C10.3439 16.8522 11.1546 17.188 12 17.188ZM6.5625 11.7505C6.5625 11.6013 6.50324 11.4583 6.39775 11.3528C6.29226 11.2473 6.14918 11.188 6 11.188C5.54418 11.1879 5.09753 11.0599 4.71078 10.8187C4.32402 10.5775 4.01266 10.2326 3.81204 9.82332C3.61143 9.41402 3.5296 8.95667 3.57585 8.5032C3.6221 8.04973 3.79458 7.61832 4.07369 7.25795C4.35281 6.89758 4.72738 6.62269 5.15488 6.46451C5.58237 6.30632 6.04565 6.27118 6.49212 6.36306C6.93858 6.45495 7.35034 6.67018 7.68062 6.98432C8.01091 7.29845 8.24649 7.69891 8.36063 8.14021C8.37909 8.21174 8.41147 8.27893 8.4559 8.33795C8.50034 8.39697 8.55596 8.44666 8.6196 8.48418C8.68323 8.5217 8.75364 8.54632 8.82679 8.55663C8.89994 8.56694 8.97441 8.56274 9.04594 8.54428C9.11747 8.52581 9.18466 8.49343 9.24368 8.449C9.30269 8.40456 9.35238 8.34894 9.3899 8.2853C9.42742 8.22167 9.45204 8.15126 9.46235 8.07811C9.47266 8.00496 9.46847 7.93049 9.45 7.85896C9.30861 7.30905 9.03782 6.80091 8.66021 6.37688C8.28261 5.95284 7.80911 5.62521 7.2792 5.42129C6.74929 5.21736 6.17831 5.14305 5.61386 5.20455C5.0494 5.26605 4.50782 5.46158 4.03426 5.77484C3.5607 6.0881 3.16887 6.51001 2.89144 7.00541C2.61401 7.50081 2.45901 8.05535 2.43936 8.62281C2.41971 9.19026 2.53598 9.75419 2.77848 10.2676C3.02098 10.781 3.38268 11.229 3.83344 11.5743C2.72414 11.9885 1.75775 12.7137 1.05 13.663C1.00568 13.7221 0.973431 13.7894 0.955099 13.8609C0.936766 13.9325 0.932707 14.0069 0.943153 14.0801C0.9536 14.1532 0.978348 14.2236 1.01598 14.2871C1.05362 14.3507 1.10341 14.4062 1.1625 14.4505C1.22159 14.4948 1.28884 14.5271 1.3604 14.5454C1.43196 14.5638 1.50642 14.5678 1.57955 14.5574C1.65268 14.5469 1.72303 14.5222 1.78659 14.4845C1.85015 14.4469 1.90568 14.3971 1.95 14.338C2.41941 13.707 3.03044 13.195 3.73388 12.8433C4.43733 12.4916 5.21353 12.3099 6 12.313C6.14918 12.313 6.29226 12.2538 6.39775 12.1483C6.50324 12.0428 6.5625 11.8997 6.5625 11.7505Z" fill="#444444"/>
</svg>
