<svg width="24" height="25" viewBox="0 0 24 25" fill="none" xmlns="http://www.w3.org/2000/svg">
<path fill-rule="evenodd" clip-rule="evenodd" d="M4.5 2H21L22.5 3.5V11.45C22.028 11.2189 21.5213 11.0669 21 11V3.5H13.5V19.82L11.82 21.5H4.5L3 20V3.5L4.5 2ZM4.5 20H12V3.5H4.5V20ZM20.0685 12.503C19.4391 12.5244 18.8252 12.7039 18.2835 13.025H18.2385C17.8044 13.287 17.4278 13.6339 17.131 14.045C16.8343 14.4561 16.6237 14.9228 16.5118 15.4173C16.3998 15.9118 16.3889 16.4238 16.4797 16.9225C16.5705 17.4213 16.7611 17.8967 17.04 18.32L13.5 21.845L14.565 22.91L18.09 19.37C18.5775 19.7 19.14 19.907 19.725 19.97C20.3024 20.0385 20.8878 19.9717 21.435 19.775C22.0033 19.5844 22.5177 19.2604 22.935 18.83C23.34 18.4062 23.6383 17.892 23.805 17.33C23.9686 16.7701 24.0044 16.1806 23.91 15.605C23.8058 15.0265 23.5686 14.4802 23.2172 14.0091C22.8658 13.5379 22.4097 13.1548 21.885 12.89C21.3215 12.6107 20.6969 12.4776 20.0685 12.503ZM20.4285 18.491C19.9114 18.5422 19.3926 18.4129 18.96 18.125C18.5872 17.8734 18.2955 17.5191 18.12 17.105C17.9544 16.6961 17.9127 16.2475 18 15.815C18.0847 15.377 18.2985 14.9744 18.614 14.659C18.9294 14.3435 19.332 14.1297 19.77 14.045C20.2025 13.9577 20.6511 13.9994 21.06 14.165C21.474 14.3405 21.828 14.6315 22.08 15.005C22.2952 15.3281 22.4231 15.7015 22.4513 16.0886C22.4795 16.4758 22.407 16.8637 22.2409 17.2146C22.0748 17.5655 21.8208 17.8675 21.5034 18.0912C21.1861 18.3148 20.8148 18.4526 20.4285 18.491Z" fill="#A6A6A6"/>
<path fill-rule="evenodd" clip-rule="evenodd" d="M4.5 2H21L22.5 3.5V11.45C22.028 11.2189 21.5213 11.0669 21 11V3.5H13.5V19.82L11.82 21.5H4.5L3 20V3.5L4.5 2ZM4.5 20H12V3.5H4.5V20ZM20.0685 12.503C19.4391 12.5244 18.8252 12.7039 18.2835 13.025H18.2385C17.8044 13.287 17.4278 13.6339 17.131 14.045C16.8343 14.4561 16.6237 14.9228 16.5118 15.4173C16.3998 15.9118 16.3889 16.4238 16.4797 16.9225C16.5705 17.4213 16.7611 17.8967 17.04 18.32L13.5 21.845L14.565 22.91L18.09 19.37C18.5775 19.7 19.14 19.907 19.725 19.97C20.3024 20.0385 20.8878 19.9717 21.435 19.775C22.0033 19.5844 22.5177 19.2604 22.935 18.83C23.34 18.4062 23.6383 17.892 23.805 17.33C23.9686 16.7701 24.0044 16.1806 23.91 15.605C23.8058 15.0265 23.5686 14.4802 23.2172 14.0091C22.8658 13.5379 22.4097 13.1548 21.885 12.89C21.3215 12.6107 20.6969 12.4776 20.0685 12.503ZM20.4285 18.491C19.9114 18.5422 19.3926 18.4129 18.96 18.125C18.5872 17.8734 18.2955 17.5191 18.12 17.105C17.9544 16.6961 17.9127 16.2475 18 15.815C18.0847 15.377 18.2985 14.9744 18.614 14.659C18.9294 14.3435 19.332 14.1297 19.77 14.045C20.2025 13.9577 20.6511 13.9994 21.06 14.165C21.474 14.3405 21.828 14.6315 22.08 15.005C22.2952 15.3281 22.4231 15.7015 22.4513 16.0886C22.4795 16.4758 22.407 16.8637 22.2409 17.2146C22.0748 17.5655 21.8208 17.8675 21.5034 18.0912C21.1861 18.3148 20.8148 18.4526 20.4285 18.491Z" fill="black" fill-opacity="0.2"/>
<path fill-rule="evenodd" clip-rule="evenodd" d="M4.5 2H21L22.5 3.5V11.45C22.028 11.2189 21.5213 11.0669 21 11V3.5H13.5V19.82L11.82 21.5H4.5L3 20V3.5L4.5 2ZM4.5 20H12V3.5H4.5V20ZM20.0685 12.503C19.4391 12.5244 18.8252 12.7039 18.2835 13.025H18.2385C17.8044 13.287 17.4278 13.6339 17.131 14.045C16.8343 14.4561 16.6237 14.9228 16.5118 15.4173C16.3998 15.9118 16.3889 16.4238 16.4797 16.9225C16.5705 17.4213 16.7611 17.8967 17.04 18.32L13.5 21.845L14.565 22.91L18.09 19.37C18.5775 19.7 19.14 19.907 19.725 19.97C20.3024 20.0385 20.8878 19.9717 21.435 19.775C22.0033 19.5844 22.5177 19.2604 22.935 18.83C23.34 18.4062 23.6383 17.892 23.805 17.33C23.9686 16.7701 24.0044 16.1806 23.91 15.605C23.8058 15.0265 23.5686 14.4802 23.2172 14.0091C22.8658 13.5379 22.4097 13.1548 21.885 12.89C21.3215 12.6107 20.6969 12.4776 20.0685 12.503ZM20.4285 18.491C19.9114 18.5422 19.3926 18.4129 18.96 18.125C18.5872 17.8734 18.2955 17.5191 18.12 17.105C17.9544 16.6961 17.9127 16.2475 18 15.815C18.0847 15.377 18.2985 14.9744 18.614 14.659C18.9294 14.3435 19.332 14.1297 19.77 14.045C20.2025 13.9577 20.6511 13.9994 21.06 14.165C21.474 14.3405 21.828 14.6315 22.08 15.005C22.2952 15.3281 22.4231 15.7015 22.4513 16.0886C22.4795 16.4758 22.407 16.8637 22.2409 17.2146C22.0748 17.5655 21.8208 17.8675 21.5034 18.0912C21.1861 18.3148 20.8148 18.4526 20.4285 18.491Z" fill="black" fill-opacity="0.2"/>
</svg>
