<svg width="24" height="25" viewBox="0 0 24 25" fill="none" xmlns="http://www.w3.org/2000/svg">
<path d="M18.179 8.54011L18.642 8.07611C19.0106 7.70733 19.5107 7.50009 20.0321 7.5C20.5536 7.49991 21.0537 7.70696 21.4225 8.07561C21.7913 8.44426 21.9985 8.94431 21.9986 9.46576C21.9987 9.9872 21.7916 10.4873 21.423 10.8561L20.96 11.3201M18.179 8.54011C18.179 8.54011 18.237 9.52411 19.106 10.3931C19.975 11.2621 20.96 11.3201 20.96 11.3201M18.179 8.54011L13.919 12.8001C13.629 13.0881 13.485 13.2331 13.361 13.3921C13.2143 13.5801 13.0897 13.7821 12.987 13.9981C12.9 14.1801 12.836 14.3731 12.707 14.7601L12.294 16.0001L12.16 16.4011M20.96 11.3201L16.7 15.5801C16.41 15.8701 16.266 16.0141 16.107 16.1381C15.919 16.2848 15.717 16.4094 15.501 16.5121C15.319 16.5991 15.126 16.6631 14.739 16.7921L13.499 17.2051L13.098 17.3391M12.16 16.4011L12.027 16.8031C11.996 16.8964 11.9916 16.9965 12.0143 17.0922C12.0369 17.1879 12.0857 17.2754 12.1552 17.3449C12.2248 17.4144 12.3122 17.4632 12.4079 17.4859C12.5036 17.5085 12.6037 17.5041 12.697 17.4731L13.098 17.3391M12.16 16.4011L13.098 17.3391" stroke="#A6A6A6" stroke-width="1.5"/>
<path d="M18.179 8.54011L18.642 8.07611C19.0106 7.70733 19.5107 7.50009 20.0321 7.5C20.5536 7.49991 21.0537 7.70696 21.4225 8.07561C21.7913 8.44426 21.9985 8.94431 21.9986 9.46576C21.9987 9.9872 21.7916 10.4873 21.423 10.8561L20.96 11.3201M18.179 8.54011C18.179 8.54011 18.237 9.52411 19.106 10.3931C19.975 11.2621 20.96 11.3201 20.96 11.3201M18.179 8.54011L13.919 12.8001C13.629 13.0881 13.485 13.2331 13.361 13.3921C13.2143 13.5801 13.0897 13.7821 12.987 13.9981C12.9 14.1801 12.836 14.3731 12.707 14.7601L12.294 16.0001L12.16 16.4011M20.96 11.3201L16.7 15.5801C16.41 15.8701 16.266 16.0141 16.107 16.1381C15.919 16.2848 15.717 16.4094 15.501 16.5121C15.319 16.5991 15.126 16.6631 14.739 16.7921L13.499 17.2051L13.098 17.3391M12.16 16.4011L12.027 16.8031C11.996 16.8964 11.9916 16.9965 12.0143 17.0922C12.0369 17.1879 12.0857 17.2754 12.1552 17.3449C12.2248 17.4144 12.3122 17.4632 12.4079 17.4859C12.5036 17.5085 12.6037 17.5041 12.697 17.4731L13.098 17.3391M12.16 16.4011L13.098 17.3391" stroke="black" stroke-opacity="0.2" stroke-width="1.5"/>
<path d="M18.179 8.54011L18.642 8.07611C19.0106 7.70733 19.5107 7.50009 20.0321 7.5C20.5536 7.49991 21.0537 7.70696 21.4225 8.07561C21.7913 8.44426 21.9985 8.94431 21.9986 9.46576C21.9987 9.9872 21.7916 10.4873 21.423 10.8561L20.96 11.3201M18.179 8.54011C18.179 8.54011 18.237 9.52411 19.106 10.3931C19.975 11.2621 20.96 11.3201 20.96 11.3201M18.179 8.54011L13.919 12.8001C13.629 13.0881 13.485 13.2331 13.361 13.3921C13.2143 13.5801 13.0897 13.7821 12.987 13.9981C12.9 14.1801 12.836 14.3731 12.707 14.7601L12.294 16.0001L12.16 16.4011M20.96 11.3201L16.7 15.5801C16.41 15.8701 16.266 16.0141 16.107 16.1381C15.919 16.2848 15.717 16.4094 15.501 16.5121C15.319 16.5991 15.126 16.6631 14.739 16.7921L13.499 17.2051L13.098 17.3391M12.16 16.4011L12.027 16.8031C11.996 16.8964 11.9916 16.9965 12.0143 17.0922C12.0369 17.1879 12.0857 17.2754 12.1552 17.3449C12.2248 17.4144 12.3122 17.4632 12.4079 17.4859C12.5036 17.5085 12.6037 17.5041 12.697 17.4731L13.098 17.3391M12.16 16.4011L13.098 17.3391" stroke="black" stroke-opacity="0.2" stroke-width="1.5"/>
<path d="M8 13.5H10.5M8 9.5H14.5M8 17.5H9.5M19.828 3.672C18.657 2.5 16.771 2.5 13 2.5H11C7.229 2.5 5.343 2.5 4.172 3.672C3.001 4.844 3 6.729 3 10.5V14.5C3 18.271 3 20.157 4.172 21.328C5.344 22.499 7.229 22.5 11 22.5H13C16.771 22.5 18.657 22.5 19.828 21.328C20.772 20.385 20.955 18.98 20.991 16.5" stroke="#A6A6A6" stroke-width="1.5" stroke-linecap="round"/>
<path d="M8 13.5H10.5M8 9.5H14.5M8 17.5H9.5M19.828 3.672C18.657 2.5 16.771 2.5 13 2.5H11C7.229 2.5 5.343 2.5 4.172 3.672C3.001 4.844 3 6.729 3 10.5V14.5C3 18.271 3 20.157 4.172 21.328C5.344 22.499 7.229 22.5 11 22.5H13C16.771 22.5 18.657 22.5 19.828 21.328C20.772 20.385 20.955 18.98 20.991 16.5" stroke="black" stroke-opacity="0.2" stroke-width="1.5" stroke-linecap="round"/>
<path d="M8 13.5H10.5M8 9.5H14.5M8 17.5H9.5M19.828 3.672C18.657 2.5 16.771 2.5 13 2.5H11C7.229 2.5 5.343 2.5 4.172 3.672C3.001 4.844 3 6.729 3 10.5V14.5C3 18.271 3 20.157 4.172 21.328C5.344 22.499 7.229 22.5 11 22.5H13C16.771 22.5 18.657 22.5 19.828 21.328C20.772 20.385 20.955 18.98 20.991 16.5" stroke="black" stroke-opacity="0.2" stroke-width="1.5" stroke-linecap="round"/>
</svg>
