<svg width="24" height="24" viewBox="0 0 24 24" fill="none" xmlns="http://www.w3.org/2000/svg">
<path d="M9 16.4991C9 16.4991 9.501 13.9991 10 13.9991C10.499 13.9991 11.07 16.4991 11.5 16.4991C11.93 16.4991 12.035 15.4991 12.5 15.4991C12.965 15.4991 13.064 16.4991 13.5 16.4991C13.936 16.4991 15 15.4991 15 15.4991M9 7.03906H15M9 9.24906H15M9 11.4991H15" stroke="#A6A6A6" stroke-linecap="round" stroke-linejoin="round"/>
<path d="M9 16.4991C9 16.4991 9.501 13.9991 10 13.9991C10.499 13.9991 11.07 16.4991 11.5 16.4991C11.93 16.4991 12.035 15.4991 12.5 15.4991C12.965 15.4991 13.064 16.4991 13.5 16.4991C13.936 16.4991 15 15.4991 15 15.4991M9 7.03906H15M9 9.24906H15M9 11.4991H15" stroke="black" stroke-opacity="0.2" stroke-linecap="round" stroke-linejoin="round"/>
<path d="M9 16.4991C9 16.4991 9.501 13.9991 10 13.9991C10.499 13.9991 11.07 16.4991 11.5 16.4991C11.93 16.4991 12.035 15.4991 12.5 15.4991C12.965 15.4991 13.064 16.4991 13.5 16.4991C13.936 16.4991 15 15.4991 15 15.4991M9 7.03906H15M9 9.24906H15M9 11.4991H15" stroke="black" stroke-opacity="0.2" stroke-linecap="round" stroke-linejoin="round"/>
<path d="M16 4.5H8C7.17157 4.5 6.5 5.17157 6.5 6V18C6.5 18.8284 7.17157 19.5 8 19.5H16C16.8284 19.5 17.5 18.8284 17.5 18V6C17.5 5.17157 16.8284 4.5 16 4.5Z" stroke="#A6A6A6"/>
<path d="M16 4.5H8C7.17157 4.5 6.5 5.17157 6.5 6V18C6.5 18.8284 7.17157 19.5 8 19.5H16C16.8284 19.5 17.5 18.8284 17.5 18V6C17.5 5.17157 16.8284 4.5 16 4.5Z" stroke="black" stroke-opacity="0.2"/>
<path d="M16 4.5H8C7.17157 4.5 6.5 5.17157 6.5 6V18C6.5 18.8284 7.17157 19.5 8 19.5H16C16.8284 19.5 17.5 18.8284 17.5 18V6C17.5 5.17157 16.8284 4.5 16 4.5Z" stroke="black" stroke-opacity="0.2"/>
</svg>
