<svg width="26" height="25" viewBox="0 0 26 25" fill="none" xmlns="http://www.w3.org/2000/svg">
<path d="M6.45312 19.7005C6.45312 19.7005 7.54622 15.7005 8.63494 15.7005C9.72367 15.7005 10.9695 19.7005 11.9077 19.7005C12.8459 19.7005 13.0749 18.1005 14.0895 18.1005C15.104 18.1005 15.32 19.7005 16.2713 19.7005C17.2226 19.7005 19.544 18.1005 19.544 18.1005M6.45312 4.56445H19.544M6.45312 8.10045H19.544M6.45312 11.7005H19.544" stroke="#444444" stroke-linecap="round" stroke-linejoin="round"/>
<path d="M21.7273 0.5H4.27273C2.46525 0.5 1 1.57452 1 2.9V22.1C1 23.4255 2.46525 24.5 4.27273 24.5H21.7273C23.5347 24.5 25 23.4255 25 22.1V2.9C25 1.57452 23.5347 0.5 21.7273 0.5Z" stroke="#444444"/>
</svg>
