<svg width="154" height="16" viewBox="0 0 154 16" fill="none" xmlns="http://www.w3.org/2000/svg">
<path d="M0 14.98H14V0.98H0V14.98ZM24.3264 4.242V5.278H20.0844V8.568H23.5284V9.604H20.0844V14H18.8104V4.242H24.3264ZM32.8651 9.87C32.8651 10.1127 32.8511 10.3693 32.8231 10.64H26.6911C26.7378 11.396 26.9944 11.9887 27.4611 12.418C27.9371 12.838 28.5111 13.048 29.1831 13.048C29.7338 13.048 30.1911 12.922 30.5551 12.67C30.9284 12.4087 31.1898 12.0633 31.3391 11.634H32.7111C32.5058 12.3713 32.0951 12.9733 31.4791 13.44C30.8631 13.8973 30.0978 14.126 29.1831 14.126C28.4551 14.126 27.8018 13.9627 27.2231 13.636C26.6538 13.3093 26.2058 12.8473 25.8791 12.25C25.5524 11.6433 25.3891 10.9433 25.3891 10.15C25.3891 9.35667 25.5478 8.66133 25.8651 8.064C26.1824 7.46667 26.6258 7.00933 27.1951 6.692C27.7738 6.36533 28.4364 6.202 29.1831 6.202C29.9111 6.202 30.5551 6.36067 31.1151 6.678C31.6751 6.99533 32.1044 7.434 32.4031 7.994C32.7111 8.54467 32.8651 9.17 32.8651 9.87ZM31.5491 9.604C31.5491 9.11867 31.4418 8.70333 31.2271 8.358C31.0124 8.00333 30.7184 7.73733 30.3451 7.56C29.9811 7.37333 29.5751 7.28 29.1271 7.28C28.4831 7.28 27.9324 7.48533 27.4751 7.896C27.0271 8.30667 26.7704 8.876 26.7051 9.604H31.5491ZM35.8208 7.756C36.0821 7.29867 36.4648 6.92533 36.9688 6.636C37.4728 6.34667 38.0468 6.202 38.6908 6.202C39.3814 6.202 40.0021 6.36533 40.5528 6.692C41.1034 7.01867 41.5374 7.48067 41.8548 8.078C42.1721 8.666 42.3308 9.352 42.3308 10.136C42.3308 10.9107 42.1721 11.6013 41.8548 12.208C41.5374 12.8147 41.0987 13.286 40.5387 13.622C39.9881 13.958 39.3721 14.126 38.6908 14.126C38.0281 14.126 37.4448 13.9813 36.9408 13.692C36.4461 13.4027 36.0728 13.034 35.8208 12.586V14H34.5468V3.64H35.8208V7.756ZM41.0288 10.136C41.0288 9.55733 40.9121 9.05333 40.6788 8.624C40.4454 8.19467 40.1281 7.868 39.7268 7.644C39.3348 7.42 38.9008 7.308 38.4248 7.308C37.9581 7.308 37.5241 7.42467 37.1228 7.658C36.7308 7.882 36.4134 8.21333 36.1708 8.652C35.9374 9.08133 35.8208 9.58067 35.8208 10.15C35.8208 10.7287 35.9374 11.2373 36.1708 11.676C36.4134 12.1053 36.7308 12.4367 37.1228 12.67C37.5241 12.894 37.9581 13.006 38.4248 13.006C38.9008 13.006 39.3348 12.894 39.7268 12.67C40.1281 12.4367 40.4454 12.1053 40.6788 11.676C40.9121 11.2373 41.0288 10.724 41.0288 10.136ZM53.9841 4.984H49.0701V8.176C49.2848 7.87733 49.6021 7.63467 50.0221 7.448C50.4421 7.252 50.8948 7.154 51.3801 7.154C52.1548 7.154 52.7848 7.31733 53.2701 7.644C53.7554 7.96133 54.1008 8.37667 54.3061 8.89C54.5208 9.394 54.6281 9.93067 54.6281 10.5C54.6281 11.172 54.5021 11.774 54.2501 12.306C53.9981 12.838 53.6108 13.258 53.0881 13.566C52.5748 13.874 51.9354 14.028 51.1701 14.028C50.1901 14.028 49.3968 13.776 48.7901 13.272C48.1834 12.768 47.8148 12.096 47.6841 11.256H48.9301C49.0514 11.788 49.3081 12.2033 49.7001 12.502C50.0921 12.8007 50.5868 12.95 51.1841 12.95C51.9214 12.95 52.4768 12.7307 52.8501 12.292C53.2234 11.844 53.4101 11.256 53.4101 10.528C53.4101 9.8 53.2234 9.24 52.8501 8.848C52.4768 8.44667 51.9261 8.246 51.1981 8.246C50.7034 8.246 50.2694 8.36733 49.8961 8.61C49.5321 8.84333 49.2661 9.16533 49.0981 9.576H47.8941V3.864H53.9841V4.984ZM57.8471 12.236L56.2791 16.002H55.4251L56.4471 12.236H57.8471ZM62.6749 12.978C63.8603 12.026 64.7889 11.2467 65.4609 10.64C66.1329 10.024 66.6976 9.38467 67.1549 8.722C67.6216 8.05 67.8549 7.392 67.8549 6.748C67.8549 6.14133 67.7056 5.66533 67.4069 5.32C67.1176 4.96533 66.6463 4.788 65.9929 4.788C65.3583 4.788 64.8636 4.98867 64.5089 5.39C64.1636 5.782 63.9769 6.30933 63.9489 6.972H62.7169C62.7543 5.92667 63.0716 5.11933 63.6689 4.55C64.2663 3.98067 65.0363 3.696 65.9789 3.696C66.9403 3.696 67.7009 3.962 68.2609 4.494C68.8303 5.026 69.1149 5.75867 69.1149 6.692C69.1149 7.46667 68.8816 8.22267 68.4149 8.96C67.9576 9.688 67.4349 10.332 66.8469 10.892C66.2589 11.4427 65.5076 12.0867 64.5929 12.824H69.4089V13.888H62.6749V12.978ZM70.8817 8.834C70.8817 7.22867 71.143 5.978 71.6657 5.082C72.1883 4.17667 73.103 3.724 74.4097 3.724C75.707 3.724 76.617 4.17667 77.1397 5.082C77.6623 5.978 77.9237 7.22867 77.9237 8.834C77.9237 10.4673 77.6623 11.7367 77.1397 12.642C76.617 13.5473 75.707 14 74.4097 14C73.103 14 72.1883 13.5473 71.6657 12.642C71.143 11.7367 70.8817 10.4673 70.8817 8.834ZM76.6637 8.834C76.6637 8.022 76.6077 7.336 76.4957 6.776C76.393 6.20667 76.1737 5.74933 75.8377 5.404C75.511 5.05867 75.035 4.886 74.4097 4.886C73.775 4.886 73.2897 5.05867 72.9537 5.404C72.627 5.74933 72.4077 6.20667 72.2957 6.776C72.193 7.336 72.1417 8.022 72.1417 8.834C72.1417 9.674 72.193 10.3787 72.2957 10.948C72.4077 11.5173 72.627 11.9747 72.9537 12.32C73.2897 12.6653 73.775 12.838 74.4097 12.838C75.035 12.838 75.511 12.6653 75.8377 12.32C76.1737 11.9747 76.393 11.5173 76.4957 10.948C76.6077 10.3787 76.6637 9.674 76.6637 8.834ZM79.5187 12.978C80.704 12.026 81.6327 11.2467 82.3047 10.64C82.9767 10.024 83.5414 9.38467 83.9987 8.722C84.4654 8.05 84.6987 7.392 84.6987 6.748C84.6987 6.14133 84.5494 5.66533 84.2507 5.32C83.9614 4.96533 83.49 4.788 82.8367 4.788C82.202 4.788 81.7074 4.98867 81.3527 5.39C81.0074 5.782 80.8207 6.30933 80.7927 6.972H79.5607C79.598 5.92667 79.9154 5.11933 80.5127 4.55C81.11 3.98067 81.88 3.696 82.8227 3.696C83.784 3.696 84.5447 3.962 85.1047 4.494C85.674 5.026 85.9587 5.75867 85.9587 6.692C85.9587 7.46667 85.7254 8.22267 85.2587 8.96C84.8014 9.688 84.2787 10.332 83.6907 10.892C83.1027 11.4427 82.3514 12.0867 81.4367 12.824H86.2527V13.888H79.5187V12.978ZM94.1794 4.984H89.2654V8.176C89.4801 7.87733 89.7974 7.63467 90.2174 7.448C90.6374 7.252 91.0901 7.154 91.5754 7.154C92.3501 7.154 92.9801 7.31733 93.4654 7.644C93.9508 7.96133 94.2961 8.37667 94.5014 8.89C94.7161 9.394 94.8234 9.93067 94.8234 10.5C94.8234 11.172 94.6974 11.774 94.4454 12.306C94.1934 12.838 93.8061 13.258 93.2834 13.566C92.7701 13.874 92.1308 14.028 91.3654 14.028C90.3854 14.028 89.5921 13.776 88.9854 13.272C88.3788 12.768 88.0101 12.096 87.8794 11.256H89.1254C89.2468 11.788 89.5034 12.2033 89.8954 12.502C90.2874 12.8007 90.7821 12.95 91.3794 12.95C92.1168 12.95 92.6721 12.7307 93.0454 12.292C93.4188 11.844 93.6054 11.256 93.6054 10.528C93.6054 9.8 93.4188 9.24 93.0454 8.848C92.6721 8.44667 92.1214 8.246 91.3934 8.246C90.8988 8.246 90.4648 8.36733 90.0914 8.61C89.7274 8.84333 89.4614 9.16533 89.2934 9.576H88.0894V3.864H94.1794V4.984ZM98.0424 12.236L96.4744 16.002H95.6204L96.6424 12.236H98.0424ZM102.87 12.978C104.056 12.026 104.984 11.2467 105.656 10.64C106.328 10.024 106.893 9.38467 107.35 8.722C107.817 8.05 108.05 7.392 108.05 6.748C108.05 6.14133 107.901 5.66533 107.602 5.32C107.313 4.96533 106.842 4.788 106.188 4.788C105.554 4.788 105.059 4.98867 104.704 5.39C104.359 5.782 104.172 6.30933 104.144 6.972H102.912C102.95 5.92667 103.267 5.11933 103.864 4.55C104.462 3.98067 105.232 3.696 106.174 3.696C107.136 3.696 107.896 3.962 108.456 4.494C109.026 5.026 109.31 5.75867 109.31 6.692C109.31 7.46667 109.077 8.22267 108.61 8.96C108.153 9.688 107.63 10.332 107.042 10.892C106.454 11.4427 105.703 12.0867 104.788 12.824H109.604V13.888H102.87V12.978ZM111.693 14.084C111.45 14.084 111.245 14 111.077 13.832C110.909 13.664 110.825 13.4587 110.825 13.216C110.825 12.9733 110.909 12.768 111.077 12.6C111.245 12.432 111.45 12.348 111.693 12.348C111.926 12.348 112.122 12.432 112.281 12.6C112.449 12.768 112.533 12.9733 112.533 13.216C112.533 13.4587 112.449 13.664 112.281 13.832C112.122 14 111.926 14.084 111.693 14.084ZM111.693 8.092C111.45 8.092 111.245 8.008 111.077 7.84C110.909 7.672 110.825 7.46667 110.825 7.224C110.825 6.98133 110.909 6.776 111.077 6.608C111.245 6.44 111.45 6.356 111.693 6.356C111.926 6.356 112.122 6.44 112.281 6.608C112.449 6.776 112.533 6.98133 112.533 7.224C112.533 7.46667 112.449 7.672 112.281 7.84C112.122 8.008 111.926 8.092 111.693 8.092ZM113.749 11.746V10.78L118.663 3.976H120.189V10.64H121.589V11.746H120.189V14H118.929V11.746H113.749ZM118.985 5.306L115.219 10.64H118.985V5.306ZM129.316 4.984H124.402V8.176C124.617 7.87733 124.934 7.63467 125.354 7.448C125.774 7.252 126.227 7.154 126.712 7.154C127.487 7.154 128.117 7.31733 128.602 7.644C129.087 7.96133 129.433 8.37667 129.638 8.89C129.853 9.394 129.96 9.93067 129.96 10.5C129.96 11.172 129.834 11.774 129.582 12.306C129.33 12.838 128.943 13.258 128.42 13.566C127.907 13.874 127.267 14.028 126.502 14.028C125.522 14.028 124.729 13.776 124.122 13.272C123.515 12.768 123.147 12.096 123.016 11.256H124.262C124.383 11.788 124.64 12.2033 125.032 12.502C125.424 12.8007 125.919 12.95 126.516 12.95C127.253 12.95 127.809 12.7307 128.182 12.292C128.555 11.844 128.742 11.256 128.742 10.528C128.742 9.8 128.555 9.24 128.182 8.848C127.809 8.44667 127.258 8.246 126.53 8.246C126.035 8.246 125.601 8.36733 125.228 8.61C124.864 8.84333 124.598 9.16533 124.43 9.576H123.226V3.864H129.316V4.984ZM142.12 7.098C142.12 7.91 141.84 8.58667 141.28 9.128C140.729 9.66 139.884 9.926 138.746 9.926H136.87V14H135.596V4.242H138.746C139.847 4.242 140.682 4.508 141.252 5.04C141.83 5.572 142.12 6.258 142.12 7.098ZM138.746 8.876C139.455 8.876 139.978 8.722 140.314 8.414C140.65 8.106 140.818 7.66733 140.818 7.098C140.818 5.894 140.127 5.292 138.746 5.292H136.87V8.876H138.746ZM153.601 4.312V14H152.327V6.776L149.107 14H148.211L144.977 6.762V14H143.703V4.312H145.075L148.659 12.32L152.243 4.312H153.601Z" fill="#444444"/>
</svg>
