<svg width="24" height="25" viewBox="0 0 24 25" fill="none" xmlns="http://www.w3.org/2000/svg">
<path d="M7.30814 19.4992C6.86081 19.4992 6.47981 19.3419 6.16514 19.0272C5.84981 18.7126 5.69214 18.3312 5.69214 17.8832V10.4462L3.00014 12.4512C2.88214 12.5279 2.76047 12.5602 2.63514 12.5482C2.50914 12.5362 2.40147 12.4712 2.31214 12.3532C2.22214 12.2352 2.18414 12.1136 2.19814 11.9882C2.21214 11.8622 2.27814 11.7542 2.39614 11.6642L11.0251 5.21322C11.1698 5.10522 11.3241 5.02755 11.4881 4.98022C11.6521 4.93288 11.8228 4.90888 12.0001 4.90822C12.1775 4.90755 12.3485 4.93155 12.5131 4.98022C12.6778 5.02888 12.8318 5.10622 12.9751 5.21222L16.3461 7.72222V6.44222C16.3461 6.17888 16.4375 5.95588 16.6201 5.77322C16.8028 5.59055 17.0255 5.49922 17.2881 5.49922C17.5508 5.49922 17.7738 5.59055 17.9571 5.77322C18.1405 5.95588 18.2318 6.17855 18.2311 6.44122V9.13722L21.6231 11.6652C21.7371 11.7546 21.8021 11.8622 21.8181 11.9882C21.8341 12.1142 21.7975 12.2359 21.7081 12.3532C21.6188 12.4706 21.5111 12.5355 21.3851 12.5482C21.2591 12.5609 21.1371 12.5285 21.0191 12.4512L18.3271 10.4452V17.8842C18.3271 18.3309 18.1698 18.7119 17.8551 19.0272C17.5405 19.3419 17.1595 19.4992 16.7121 19.4992H14.8461C14.3988 19.4992 14.0178 19.3419 13.7031 19.0272C13.3885 18.7126 13.2311 18.3312 13.2311 17.8832V14.8832C13.2311 14.7039 13.1735 14.5566 13.0581 14.4412C12.9428 14.3259 12.7955 14.2682 12.6161 14.2682H11.3851C11.2051 14.2682 11.0575 14.3259 10.9421 14.4412C10.8268 14.5566 10.7691 14.7039 10.7691 14.8832V17.8832C10.7691 18.3312 10.6118 18.7126 10.2971 19.0272C9.98247 19.3419 9.60147 19.4992 9.15414 19.4992H7.30814ZM7.30814 18.4992H9.15414C9.33347 18.4992 9.48081 18.4416 9.59614 18.3262C9.71147 18.2109 9.76914 18.0636 9.76914 17.8842V14.8842C9.76914 14.4369 9.92647 14.0556 10.2411 13.7402C10.5565 13.4256 10.9378 13.2682 11.3851 13.2682H12.6151C13.0631 13.2682 13.4445 13.4256 13.7591 13.7402C14.0738 14.0556 14.2311 14.4369 14.2311 14.8842V17.8842C14.2311 18.0636 14.2888 18.2109 14.4041 18.3262C14.5195 18.4416 14.6668 18.4992 14.8461 18.4992H16.7121C16.8915 18.4992 17.0388 18.4416 17.1541 18.3262C17.2695 18.2109 17.3271 18.0636 17.3271 17.8842V9.70922L12.3651 6.02422C12.2638 5.94755 12.1421 5.90922 12.0001 5.90922C11.8581 5.90922 11.7365 5.94755 11.6351 6.02422L6.69214 9.70922V17.8842C6.69214 18.0636 6.75014 18.2109 6.86614 18.3262C6.98147 18.4416 7.12881 18.4992 7.30814 18.4992ZM10.1921 10.5052H13.8081C13.8081 10.0359 13.6275 9.64955 13.2661 9.34622C12.9041 9.04288 12.4821 8.89122 12.0001 8.89122C11.5181 8.89122 11.0965 9.04288 10.7351 9.34622C10.3738 9.64955 10.1928 10.0359 10.1921 10.5052ZM9.59614 18.3262C9.71147 18.2109 9.76914 18.0636 9.76914 17.8842V14.8842C9.76914 14.4369 9.92647 14.0556 10.2411 13.7402C10.5565 13.4256 10.9378 13.2682 11.3851 13.2682H12.6151C13.0631 13.2682 13.4445 13.4256 13.7591 13.7402C13.4445 13.4249 13.0635 13.2676 12.6161 13.2682H11.3851C10.9378 13.2682 10.5565 13.4256 10.2411 13.7402C9.92647 14.0556 9.76914 14.4369 9.76914 14.8842V17.8842C9.76914 18.0636 9.71147 18.2109 9.59614 18.3262Z" fill="#A6A6A6"/>
<path d="M7.30814 19.4992C6.86081 19.4992 6.47981 19.3419 6.16514 19.0272C5.84981 18.7126 5.69214 18.3312 5.69214 17.8832V10.4462L3.00014 12.4512C2.88214 12.5279 2.76047 12.5602 2.63514 12.5482C2.50914 12.5362 2.40147 12.4712 2.31214 12.3532C2.22214 12.2352 2.18414 12.1136 2.19814 11.9882C2.21214 11.8622 2.27814 11.7542 2.39614 11.6642L11.0251 5.21322C11.1698 5.10522 11.3241 5.02755 11.4881 4.98022C11.6521 4.93288 11.8228 4.90888 12.0001 4.90822C12.1775 4.90755 12.3485 4.93155 12.5131 4.98022C12.6778 5.02888 12.8318 5.10622 12.9751 5.21222L16.3461 7.72222V6.44222C16.3461 6.17888 16.4375 5.95588 16.6201 5.77322C16.8028 5.59055 17.0255 5.49922 17.2881 5.49922C17.5508 5.49922 17.7738 5.59055 17.9571 5.77322C18.1405 5.95588 18.2318 6.17855 18.2311 6.44122V9.13722L21.6231 11.6652C21.7371 11.7546 21.8021 11.8622 21.8181 11.9882C21.8341 12.1142 21.7975 12.2359 21.7081 12.3532C21.6188 12.4706 21.5111 12.5355 21.3851 12.5482C21.2591 12.5609 21.1371 12.5285 21.0191 12.4512L18.3271 10.4452V17.8842C18.3271 18.3309 18.1698 18.7119 17.8551 19.0272C17.5405 19.3419 17.1595 19.4992 16.7121 19.4992H14.8461C14.3988 19.4992 14.0178 19.3419 13.7031 19.0272C13.3885 18.7126 13.2311 18.3312 13.2311 17.8832V14.8832C13.2311 14.7039 13.1735 14.5566 13.0581 14.4412C12.9428 14.3259 12.7955 14.2682 12.6161 14.2682H11.3851C11.2051 14.2682 11.0575 14.3259 10.9421 14.4412C10.8268 14.5566 10.7691 14.7039 10.7691 14.8832V17.8832C10.7691 18.3312 10.6118 18.7126 10.2971 19.0272C9.98247 19.3419 9.60147 19.4992 9.15414 19.4992H7.30814ZM7.30814 18.4992H9.15414C9.33347 18.4992 9.48081 18.4416 9.59614 18.3262C9.71147 18.2109 9.76914 18.0636 9.76914 17.8842V14.8842C9.76914 14.4369 9.92647 14.0556 10.2411 13.7402C10.5565 13.4256 10.9378 13.2682 11.3851 13.2682H12.6151C13.0631 13.2682 13.4445 13.4256 13.7591 13.7402C14.0738 14.0556 14.2311 14.4369 14.2311 14.8842V17.8842C14.2311 18.0636 14.2888 18.2109 14.4041 18.3262C14.5195 18.4416 14.6668 18.4992 14.8461 18.4992H16.7121C16.8915 18.4992 17.0388 18.4416 17.1541 18.3262C17.2695 18.2109 17.3271 18.0636 17.3271 17.8842V9.70922L12.3651 6.02422C12.2638 5.94755 12.1421 5.90922 12.0001 5.90922C11.8581 5.90922 11.7365 5.94755 11.6351 6.02422L6.69214 9.70922V17.8842C6.69214 18.0636 6.75014 18.2109 6.86614 18.3262C6.98147 18.4416 7.12881 18.4992 7.30814 18.4992ZM10.1921 10.5052H13.8081C13.8081 10.0359 13.6275 9.64955 13.2661 9.34622C12.9041 9.04288 12.4821 8.89122 12.0001 8.89122C11.5181 8.89122 11.0965 9.04288 10.7351 9.34622C10.3738 9.64955 10.1928 10.0359 10.1921 10.5052ZM9.59614 18.3262C9.71147 18.2109 9.76914 18.0636 9.76914 17.8842V14.8842C9.76914 14.4369 9.92647 14.0556 10.2411 13.7402C10.5565 13.4256 10.9378 13.2682 11.3851 13.2682H12.6151C13.0631 13.2682 13.4445 13.4256 13.7591 13.7402C13.4445 13.4249 13.0635 13.2676 12.6161 13.2682H11.3851C10.9378 13.2682 10.5565 13.4256 10.2411 13.7402C9.92647 14.0556 9.76914 14.4369 9.76914 14.8842V17.8842C9.76914 18.0636 9.71147 18.2109 9.59614 18.3262Z" fill="black" fill-opacity="0.2"/>
<path d="M7.30814 19.4992C6.86081 19.4992 6.47981 19.3419 6.16514 19.0272C5.84981 18.7126 5.69214 18.3312 5.69214 17.8832V10.4462L3.00014 12.4512C2.88214 12.5279 2.76047 12.5602 2.63514 12.5482C2.50914 12.5362 2.40147 12.4712 2.31214 12.3532C2.22214 12.2352 2.18414 12.1136 2.19814 11.9882C2.21214 11.8622 2.27814 11.7542 2.39614 11.6642L11.0251 5.21322C11.1698 5.10522 11.3241 5.02755 11.4881 4.98022C11.6521 4.93288 11.8228 4.90888 12.0001 4.90822C12.1775 4.90755 12.3485 4.93155 12.5131 4.98022C12.6778 5.02888 12.8318 5.10622 12.9751 5.21222L16.3461 7.72222V6.44222C16.3461 6.17888 16.4375 5.95588 16.6201 5.77322C16.8028 5.59055 17.0255 5.49922 17.2881 5.49922C17.5508 5.49922 17.7738 5.59055 17.9571 5.77322C18.1405 5.95588 18.2318 6.17855 18.2311 6.44122V9.13722L21.6231 11.6652C21.7371 11.7546 21.8021 11.8622 21.8181 11.9882C21.8341 12.1142 21.7975 12.2359 21.7081 12.3532C21.6188 12.4706 21.5111 12.5355 21.3851 12.5482C21.2591 12.5609 21.1371 12.5285 21.0191 12.4512L18.3271 10.4452V17.8842C18.3271 18.3309 18.1698 18.7119 17.8551 19.0272C17.5405 19.3419 17.1595 19.4992 16.7121 19.4992H14.8461C14.3988 19.4992 14.0178 19.3419 13.7031 19.0272C13.3885 18.7126 13.2311 18.3312 13.2311 17.8832V14.8832C13.2311 14.7039 13.1735 14.5566 13.0581 14.4412C12.9428 14.3259 12.7955 14.2682 12.6161 14.2682H11.3851C11.2051 14.2682 11.0575 14.3259 10.9421 14.4412C10.8268 14.5566 10.7691 14.7039 10.7691 14.8832V17.8832C10.7691 18.3312 10.6118 18.7126 10.2971 19.0272C9.98247 19.3419 9.60147 19.4992 9.15414 19.4992H7.30814ZM7.30814 18.4992H9.15414C9.33347 18.4992 9.48081 18.4416 9.59614 18.3262C9.71147 18.2109 9.76914 18.0636 9.76914 17.8842V14.8842C9.76914 14.4369 9.92647 14.0556 10.2411 13.7402C10.5565 13.4256 10.9378 13.2682 11.3851 13.2682H12.6151C13.0631 13.2682 13.4445 13.4256 13.7591 13.7402C14.0738 14.0556 14.2311 14.4369 14.2311 14.8842V17.8842C14.2311 18.0636 14.2888 18.2109 14.4041 18.3262C14.5195 18.4416 14.6668 18.4992 14.8461 18.4992H16.7121C16.8915 18.4992 17.0388 18.4416 17.1541 18.3262C17.2695 18.2109 17.3271 18.0636 17.3271 17.8842V9.70922L12.3651 6.02422C12.2638 5.94755 12.1421 5.90922 12.0001 5.90922C11.8581 5.90922 11.7365 5.94755 11.6351 6.02422L6.69214 9.70922V17.8842C6.69214 18.0636 6.75014 18.2109 6.86614 18.3262C6.98147 18.4416 7.12881 18.4992 7.30814 18.4992ZM10.1921 10.5052H13.8081C13.8081 10.0359 13.6275 9.64955 13.2661 9.34622C12.9041 9.04288 12.4821 8.89122 12.0001 8.89122C11.5181 8.89122 11.0965 9.04288 10.7351 9.34622C10.3738 9.64955 10.1928 10.0359 10.1921 10.5052ZM9.59614 18.3262C9.71147 18.2109 9.76914 18.0636 9.76914 17.8842V14.8842C9.76914 14.4369 9.92647 14.0556 10.2411 13.7402C10.5565 13.4256 10.9378 13.2682 11.3851 13.2682H12.6151C13.0631 13.2682 13.4445 13.4256 13.7591 13.7402C13.4445 13.4249 13.0635 13.2676 12.6161 13.2682H11.3851C10.9378 13.2682 10.5565 13.4256 10.2411 13.7402C9.92647 14.0556 9.76914 14.4369 9.76914 14.8842V17.8842C9.76914 18.0636 9.71147 18.2109 9.59614 18.3262Z" fill="black" fill-opacity="0.2"/>
</svg>
