<svg width="24" height="24" viewBox="0 0 24 24" fill="none" xmlns="http://www.w3.org/2000/svg">
<path d="M6 19.0002H9.692V13.9232C9.692 13.6946 9.76967 13.5029 9.925 13.3482C10.0797 13.1929 10.2713 13.1152 10.5 13.1152H13.5C13.7287 13.1152 13.9207 13.1929 14.076 13.3482C14.2307 13.5029 14.308 13.6946 14.308 13.9232V19.0002H18V10.3082C18 10.2056 17.9777 10.1122 17.933 10.0282C17.8883 9.94423 17.8273 9.8709 17.75 9.80823L12.366 5.75023C12.2633 5.6609 12.1413 5.61623 12 5.61623C11.8587 5.61623 11.737 5.6609 11.635 5.75023L6.25 9.80823C6.17333 9.87223 6.11233 9.94557 6.067 10.0282C6.02167 10.1109 5.99933 10.2042 6 10.3082V19.0002ZM5 19.0002V10.3082C5 10.0522 5.05733 9.8099 5.172 9.58123C5.28667 9.35257 5.44467 9.16423 5.646 9.01623L11.031 4.93823C11.313 4.7229 11.635 4.61523 11.997 4.61523C12.359 4.61523 12.683 4.7229 12.969 4.93823L18.354 9.01523C18.556 9.16323 18.714 9.3519 18.828 9.58123C18.9427 9.8099 19 10.0522 19 10.3082V19.0002C19 19.2682 18.9003 19.5019 18.701 19.7012C18.5017 19.9006 18.268 20.0002 18 20.0002H14.116C13.8867 20.0002 13.6947 19.9229 13.54 19.7682C13.3853 19.6129 13.308 19.4209 13.308 19.1922V14.1162H10.692V19.1922C10.692 19.4216 10.6147 19.6136 10.46 19.7682C10.3053 19.9229 10.1137 20.0002 9.885 20.0002H6C5.732 20.0002 5.49833 19.9006 5.299 19.7012C5.09967 19.5019 5 19.2682 5 19.0002Z" fill="#444444"/>
</svg>
