<svg width="321" height="335" viewBox="0 0 321 335" fill="none" xmlns="http://www.w3.org/2000/svg">
<path d="M47.8878 199.136C41.5094 182.887 37.5738 165.023 38.0368 146.966C38.5912 125.529 43.995 104.093 54.3882 86.9436C64.7814 69.7943 80.2859 57.1753 97.3561 53.624C114.426 50.0726 132.867 56.032 145.618 70.5374C157.833 84.4284 174.477 93.4032 190.974 91.3953C203.341 89.8876 215.026 83.3637 224.92 73.9173C236.915 62.4844 253.632 61.7699 265.688 73.0813C269.169 76.366 272.178 80.2838 274.601 84.6856C283.49 100.813 285.61 121.649 282.899 140.885C280.188 160.121 273.035 177.992 264.622 194.477C228.349 270.369 91.1847 309.591 47.8878 199.136Z" fill="#6982B5" fill-opacity="0.26"/>
<path opacity="0.9" d="M47.8878 199.136C41.5094 182.887 37.5738 165.023 38.0368 146.966C38.5912 125.529 43.995 104.093 54.3882 86.9436C64.7814 69.7943 80.2859 57.1753 97.3561 53.624C114.426 50.0726 132.867 56.032 145.618 70.5374C157.833 84.4284 174.477 93.4032 190.974 91.3953C203.341 89.8876 215.026 83.3637 224.92 73.9173C236.915 62.4844 253.632 61.7699 265.688 73.0813C269.169 76.366 272.178 80.2838 274.601 84.6856C283.49 100.813 285.61 121.649 282.899 140.885C280.188 160.121 273.035 177.992 264.622 194.477C228.349 270.369 91.1847 309.591 47.8878 199.136Z" fill="#6982B5" fill-opacity="0.26"/>
<path d="M160.014 334.084C248.387 334.084 320.028 329.978 320.028 324.912C320.028 319.847 248.387 315.74 160.014 315.74C71.6408 315.74 0 319.847 0 324.912C0 329.978 71.6408 334.084 160.014 334.084Z" fill="#DBDBDB"/>
<g clip-path="url(#clip0_4419_4897)">
<path d="M249.797 310.027C249.941 311.363 250.506 315.15 250.61 317.622C250.65 318.805 250.594 319.688 250.334 319.861C248.782 320.936 236.046 322.236 232.987 321.666C229.917 321.096 229.319 319.247 230.979 318.167C231.468 317.855 233.232 317.237 234.479 316.743C234.816 316.611 235.104 316.486 235.329 316.382C238.576 314.85 242.204 313.048 242.633 312.711C243.31 312.174 242.011 302.994 242.011 302.994L249.752 303.403C249.752 303.403 249.4 306.204 249.797 310.027Z" fill="#A87048"/>
<path d="M250.61 317.621C250.65 318.804 250.594 319.687 250.334 319.859C248.782 320.935 236.046 322.235 232.987 321.665C229.917 321.095 229.319 319.246 230.979 318.166C231.468 317.854 233.232 317.236 234.479 316.742C234.082 317.773 234.274 319.226 238.508 319.137C245.046 319.009 247.552 318.399 249.392 317.926C249.833 317.813 250.242 317.713 250.61 317.621Z" fill="#45332D"/>
<path d="M222.24 310.84C222.284 312.184 222.576 316.004 222.504 318.471C222.46 319.655 222.34 320.529 222.067 320.686C220.444 321.645 207.652 322.034 204.637 321.243C201.614 320.457 201.153 318.567 202.885 317.608C203.394 317.332 205.198 316.842 206.477 316.441C206.822 316.333 207.122 316.232 207.351 316.144C210.698 314.848 214.446 313.312 214.899 313.007C215.613 312.517 214.976 303.266 214.976 303.266L222.665 304.229C222.665 304.229 222.115 307.001 222.24 310.84Z" fill="#A87048"/>
<path d="M222.504 318.471C222.46 319.655 222.34 320.53 222.067 320.686C220.444 321.645 207.652 322.034 204.637 321.244C201.614 320.457 201.153 318.568 202.885 317.609C203.394 317.332 205.198 316.843 206.477 316.441C206.008 317.44 206.096 318.901 210.325 319.121C216.856 319.458 219.401 319.029 221.266 318.692C221.715 318.608 222.127 318.54 222.504 318.471Z" fill="#45332D"/>
<path d="M196.55 125.92C196.55 125.92 191.792 149.691 191.852 156.146C191.892 160.499 192.433 165.482 196.55 177.494C197.581 180.503 201.938 189.931 201.938 189.931C201.938 189.931 215.059 173.807 215.027 165.879C214.995 157.956 213.845 148.672 213.74 140.07C213.636 131.465 215.913 127.236 213.74 123.994C211.568 120.753 211.187 118.578 208.204 118.578C205.226 118.578 196.55 125.92 196.55 125.92Z" fill="#5C443C"/>
<path d="M262.289 125.72C262.289 125.72 267.777 147.994 267.192 156.106C266.117 170.943 250.916 190.85 250.916 190.85C250.916 190.85 245.768 158.201 245.315 152.756C244.866 147.316 246.45 132.026 245.315 129.142C244.185 126.257 243.98 120.147 243.98 120.147C243.98 120.147 247.805 116.295 250.066 117.427C252.331 118.562 262.289 125.72 262.289 125.72Z" fill="#5C443C"/>
<mask id="mask0_4419_4897" style="mask-type:luminance" maskUnits="userSpaceOnUse" x="188" y="108" width="85" height="205">
<path d="M188.426 108.207H272.243V312.345H188.426V108.207Z" fill="white"/>
</mask>
<g mask="url(#mask0_4419_4897)">
<path d="M205.227 118.711C205.227 118.711 201.267 132.331 200.89 141.619C200.513 150.903 205.865 167.753 205.227 171.537C204.586 175.32 193.409 237.566 190.683 250.978C187.953 264.39 187.272 297.381 191.854 300.478C196.44 303.571 209.886 310.323 220.645 311.944C231.401 313.569 239.888 307.988 254.143 306.861C268.399 305.73 272.255 294.524 272.243 276.615C272.223 238.152 258.553 188.732 257.535 176.351C256.516 163.97 256.857 128.636 256.857 125.327C256.857 122.017 221.591 107.277 219.876 108.284C218.164 109.291 205.227 118.711 205.227 118.711Z" fill="#5C443C"/>
</g>
<path d="M216.222 66.3711C216.222 66.3711 213.917 70.0461 213.749 76.8424C213.581 83.6387 215.894 92.7218 216.222 93.7409C216.551 94.7599 224.962 97.476 224.962 97.476L230.63 93.0869C230.63 93.0869 233.436 84.2204 230.975 80.2365C228.514 76.2526 219.606 69.1193 219.434 68.8666C219.265 68.6058 216.222 66.3711 216.222 66.3711Z" fill="#80B5D1"/>
<path d="M233.821 91.2173C231.444 92.8863 221.915 94.3507 220.331 94.1541C219.433 94.0378 217.978 91.9395 216.851 89.9094C216.018 88.3889 215.368 86.9085 215.276 86.3428C215.132 85.3959 214.887 81.1352 214.903 77.4522C214.903 77.1072 214.907 76.7662 214.915 76.4372C214.915 76.1323 214.923 75.8314 214.935 75.5385C214.963 74.708 215.019 73.9217 215.096 73.1875C215.44 69.7412 216.158 67.4543 216.158 67.4543C216.158 67.4543 220.351 64.008 227.96 64.4895C235.565 64.9709 239.822 73.348 240.311 76.8223C240.8 80.2887 236.198 89.5524 233.821 91.2173Z" fill="#A87048"/>
<path d="M243.98 104.508C243.98 104.508 226.99 113.37 226.874 112.592C226.754 111.81 221.803 103.914 221.803 103.914C221.803 103.914 222.829 103.441 224.384 101.892C225.302 100.977 225.503 99.4608 225.451 97.8119C225.399 96.6805 225.234 95.4809 225.078 94.3576C225.05 94.1249 225.01 93.9122 224.962 93.6996C224.425 91.3847 222.913 90.3456 222.913 90.3456C222.913 90.3456 226.954 86.6907 227.559 86.5823C228.169 86.47 236.511 82.9395 236.511 82.9395C236.511 82.9395 237.345 97.864 238.131 100.091C238.92 102.309 243.98 104.508 243.98 104.508Z" fill="#A87048"/>
<path d="M216.451 78.856C216.363 78.7156 216.243 78.6273 216.094 78.6474C215.67 78.6995 215.621 79.8149 215.886 80.0636C215.966 80.1398 216.082 80.1679 216.191 80.1679C216.68 80.1719 216.712 79.2772 216.451 78.856Z" fill="#45332D"/>
<path d="M225.776 78.8115C225.68 78.655 225.551 78.5627 225.391 78.5828C224.93 78.643 224.874 79.8506 225.167 80.1194C225.251 80.1996 225.375 80.2357 225.495 80.2357C226.024 80.2357 226.056 79.2648 225.776 78.8115Z" fill="#45332D"/>
<path d="M227.404 76.7927C226.398 76.1066 225.211 75.9301 224.049 76.2952C223.632 76.4276 223.953 77.0334 224.205 77.1698C224.558 77.3584 225.059 77.1658 225.432 77.1818C225.953 77.2059 226.454 77.3584 226.975 77.3824C227.268 77.3985 227.861 77.1056 227.404 76.7927Z" fill="#45332D"/>
<path d="M217.181 77.3033C216.877 77.4718 216.444 77.3314 216.087 77.3073C216.039 77.3033 215.999 77.3033 215.955 77.3033C215.606 77.3194 215.257 77.3956 214.904 77.4518C214.904 77.1067 214.908 76.7657 214.916 76.4367C215.229 76.3284 215.55 76.2642 215.886 76.2441C216.368 76.208 216.861 76.2722 217.35 76.4327C217.759 76.5651 217.434 77.1709 217.181 77.3033Z" fill="#45332D"/>
<path d="M219.236 80.0105C218.671 81.17 216.939 83.7738 218.868 84.6082C219.273 84.7848 219.629 84.187 219.22 84.0065C217.898 83.4327 219.433 81.194 219.838 80.3636C220.03 79.9624 219.429 79.6053 219.236 80.0105Z" fill="#45332D"/>
<path d="M229.132 94.9719C227.613 95.8585 226.174 97.1263 225.452 97.8124C225.4 96.681 225.235 95.4814 225.079 94.358C225.051 94.1253 225.011 93.9127 224.963 93.7001C224.963 93.7001 228.743 92.4885 229.745 92.1394C230.744 91.7904 231.313 93.7081 229.132 94.9719Z" fill="#CF7953"/>
<path d="M222.689 86.2619C221.623 87.0683 219.69 87.3571 218.596 86.5186C218.247 86.2538 217.91 86.8396 218.251 87.1044C219.534 88.0873 221.791 87.7904 223.034 86.8476C223.378 86.5908 223.042 85.9971 222.689 86.2619Z" fill="#45332D"/>
<path d="M215.097 73.1864C215.097 73.1864 217.57 69.5435 221.302 69.1182C225.035 68.693 230.467 70.7311 231.826 75.1442C233.181 79.5614 232.672 86.3577 231.826 89.0739C230.976 91.786 229.745 92.139 229.745 92.139L224.963 93.6997L221.804 103.914C221.804 103.914 228.663 103.288 232.663 101.403C236.66 99.5131 241.074 96.4559 241.667 96.0307C242.261 95.6054 241.583 92.4038 240.99 90.4821C240.393 88.5603 240.902 83.2164 241.074 79.3087C241.242 75.401 240.348 62.4102 229.192 61.6439C218.781 60.9338 216.764 65.038 215.722 67.4212C214.72 69.712 215.097 73.1864 215.097 73.1864Z" fill="#80B5D1"/>
<path d="M241.668 96.0311C241.668 96.0311 245.885 100.44 249.617 103.67C253.35 106.9 258.329 109.844 260.59 113.014C262.855 116.183 264.374 121.563 264.438 124.4C264.582 131.064 260.93 129.543 258.441 129.09C255.951 128.637 239.888 123.541 235.246 122.069C230.608 120.596 213.414 101.58 212.732 99.8826C212.055 98.1855 211.938 97.7723 213.742 95.8586C215.009 94.5145 216.224 93.7402 216.224 93.7402C216.224 93.7402 227.248 96.7131 227.573 96.7131C227.894 96.7131 240.349 96.1434 240.349 96.1434L241.668 96.0311Z" fill="#80B5D1"/>
<path d="M213.741 99.2926C213.741 99.2926 206.621 103.987 204.244 105.784C201.871 107.581 197.116 114.598 196.551 116.412C195.986 118.221 193.216 126.887 195.729 130.157C196.715 131.441 209.997 121.391 213.741 119.806C217.481 118.221 225.254 114.59 225.952 114.37C226.649 114.145 232.085 112.336 228.461 107.353C224.837 102.37 223.972 99.9506 221.803 99.2926C219.634 98.6386 213.741 99.2926 213.741 99.2926Z" fill="#80B5D1"/>
<path d="M163.402 124.345C163.402 124.345 162.271 125.849 159.533 127.695C156.799 129.536 157.789 131.526 161.025 130.968C164.26 130.407 170.353 129.107 171.347 128.32C172.337 127.538 172.229 123.117 170.999 122.76C169.768 122.407 163.402 124.345 163.402 124.345Z" fill="#45332D"/>
<path d="M196.551 105.154C196.551 105.154 197.978 108.371 197.906 111.669C197.834 114.967 200.034 115.304 201.442 112.335C202.845 109.366 205.294 103.633 205.222 102.369C205.154 101.106 201.478 98.6503 200.479 99.4527C199.481 100.255 196.551 105.154 196.551 105.154Z" fill="#45332D"/>
<path d="M153.857 84.6487C154.034 86.1051 159.69 109.651 160.368 116.668C161.049 123.689 163.35 125.503 167.856 125.049C172.362 124.596 172.426 124.143 172.507 116.444C172.587 108.745 174.8 94.5784 173.693 88.075C172.587 81.5756 171.232 78.3259 171.232 78.3259C171.232 78.3259 166.585 76.8896 163.928 78.3259C161.274 79.7621 153.857 84.6487 153.857 84.6487Z" fill="#FFBE73"/>
<path d="M178.781 59.639C180.132 59.4264 183.359 64.7062 184.465 68.4253C185.576 72.1404 187.813 84.4171 190.09 87.3057C192.371 90.1983 202.545 96.6135 202.301 99.7589C202.056 102.9 198.685 106.407 194.7 106.226C190.715 106.046 181.222 99.9354 178.384 96.1602C175.546 92.3809 174.03 92.8382 170.976 86.5394C167.917 80.2446 166.093 75.6108 164.958 72.6218C163.828 69.6329 160.549 65.6691 162.794 65.3521C165.038 65.0352 178.781 59.639 178.781 59.639Z" fill="#FFBE73"/>
<path d="M113.565 31.0527C113.565 31.0527 111.02 29.4439 110.001 28.9343C108.983 28.4248 104.569 26.3827 102.024 26.5552C99.4782 26.7237 99.1014 30.9684 100.521 32.4167C101.94 33.8571 105.952 35.2893 108.302 35.4699C110.651 35.6504 111.188 35.2974 111.613 35.4699C112.038 35.6384 113.565 32.9584 113.565 32.9584V31.0527Z" fill="#9C5F33"/>
<path d="M172.194 14.4026C172.194 14.4026 173.91 11.9232 174.459 10.9242C175.009 9.92924 177.221 5.5963 177.157 3.04467C177.089 0.493049 172.864 -0.052582 171.364 1.30748C169.869 2.66755 168.274 6.62337 168.001 8.96235C167.724 11.3054 168.053 11.855 167.865 12.2722C167.68 12.6895 170.298 14.3264 170.298 14.3264L172.194 14.4026Z" fill="#9C5F33"/>
<path d="M99.8392 91.787C99.8392 91.787 136.532 69.0912 141.455 65.9177C146.378 62.7522 152.996 57.9659 154.86 57.3C156.729 56.638 163.516 66.3149 164.197 69.2035C164.875 72.0881 163.516 74.2947 162.838 75.4863C162.161 76.6738 147.396 92.6375 132.8 100.79C118.204 108.938 108.021 112.505 107.512 112.505C107.003 112.505 104.237 115.562 102.056 112.505C99.8752 109.448 96.6521 104.521 97.8387 101.468C99.0254 98.4108 99.8392 91.787 99.8392 91.787Z" fill="#F2D3C2"/>
<path d="M126.798 7.32246C124.649 8.69456 122.653 12.2492 123.659 17.0435C124.665 21.8418 126.95 25.7254 129.616 28.7786C132.278 31.8317 135.301 32.5779 138.608 31.4786C141.919 30.3834 148.838 21.565 148.642 19.4226C148.45 17.2802 148.59 11.3585 143.158 7.87611C137.73 4.39371 131.368 4.40574 126.798 7.32246Z" fill="#9C5F33"/>
<path d="M137.24 29.018C137.841 29.0261 142.896 32.8294 143.85 33.0019C144.8 33.1785 153.504 29.8004 153.84 29.1304C154.181 28.4644 147.398 21.4354 146.793 20.625C146.187 19.8145 143.526 19.7183 141.168 21.64C138.815 23.5577 137.031 27.8786 137.031 27.8786L137.24 29.018Z" fill="#9C5F33"/>
<path d="M130.982 22.2658C130.982 22.2658 132.883 25.2386 134.41 26.5425C135.937 27.8545 142.215 27.0039 143.318 27.0039C144.424 27.0039 147.334 25.3991 147.743 24.8856C148.156 24.368 149.335 22.9638 149.287 22.6188C149.114 21.3149 148.156 20.4082 148.156 20.4082L130.982 22.2658Z" fill="#45332D"/>
<path d="M150.822 13.3156C150.91 14.1782 149.944 17.2273 149.519 18.9164C149.443 19.2173 149.383 19.474 149.347 19.6706C149.347 19.6786 149.347 19.6867 149.339 19.6987C149.098 21.0106 147.162 24.1159 143.285 24.8862C139.381 25.6645 132.955 24.9945 129.816 22.8682C125.562 19.9755 123.458 15.8111 123.458 15.8111C123.458 15.8111 123.109 14.2865 123.381 12.0478C123.41 11.8111 123.45 11.5664 123.49 11.3096C123.518 11.1612 123.546 11.0127 123.578 10.8563C124.584 6.01782 127.711 2.97673 129.471 1.70493C131.235 0.437142 140.086 -0.609986 147.23 3.58254C153.135 7.0489 150.718 12.3006 150.822 13.3156Z" fill="#FCE6DA"/>
<path d="M146.717 26.968C145.735 27.4013 140.524 29.8967 136.711 30.6108C132.903 31.325 128.229 31.5015 124.777 30.7914C121.325 30.0853 110.762 27.1966 109.952 30.7954C109.143 34.3901 106.809 36.1955 112.013 38.4503C117.216 40.701 134.799 47.0801 134.799 47.0801C134.799 47.0801 142.941 60.9535 143.903 66.5382C145.555 76.1188 149.973 87.7135 152.005 90.0805C154.038 92.4476 164.048 83.7055 170.57 80.4959C177.096 77.2863 186.662 73.7999 186.762 71.172C186.862 68.5482 177.261 51.6938 173.428 45.7922C169.596 39.8866 165.527 33.8926 162.28 30.667C159.029 27.4374 155.036 25.644 153.484 24.986C151.933 24.3361 146.717 26.968 146.717 26.968Z" fill="#8A5B51"/>
<path d="M131.184 59.2253C131.184 59.2253 134.808 55.7148 135.373 54.6998C135.938 53.6807 141.707 44.397 143.631 43.6026C145.555 42.8083 148.049 42.5876 150.081 44.056C157.293 49.2796 149.628 54.4711 148.494 56.1682C147.363 57.8653 142.16 60.0197 139.955 61.7168C137.746 63.4138 134.355 64.7057 134.355 64.7057L131.184 59.2253Z" fill="#9C5F33"/>
<path d="M107.841 321.365C103.864 322.163 87.2793 320.695 85.2388 319.323C84.8981 319.102 84.8019 317.954 84.846 316.418C84.858 315.844 84.8901 315.214 84.9382 314.564C85.1546 311.547 85.6317 307.961 85.764 306.524C86.205 301.549 85.7039 297.903 85.7039 297.903L95.77 297.229C95.77 297.229 94.5834 307.784 95.4734 308.478C95.6578 308.623 97.2894 309.533 99.402 310.705C103.683 313.072 109.961 316.51 110.386 316.775C112.567 318.147 111.825 320.566 107.841 321.365Z" fill="#E5936E"/>
<path d="M107.841 321.365C103.864 322.163 87.2793 320.695 85.2388 319.323C84.8981 319.102 84.8019 317.955 84.846 316.418C84.858 315.844 84.8901 315.215 84.9382 314.565C87.3755 315.122 90.326 315.756 91.208 315.82C92.7474 315.925 95.7861 312.591 97.4738 311.584C98.035 311.251 98.7125 310.95 99.402 310.705C103.683 313.072 109.961 316.51 110.386 316.775C112.567 318.147 111.825 320.567 107.841 321.365Z" fill="#45332D"/>
<path d="M75.6763 324.266C71.6194 324.322 55.584 319.84 53.8281 318.119C53.5355 317.842 53.6518 316.695 53.9725 315.19C54.0927 314.625 54.2411 314.019 54.4054 313.385C55.1671 310.46 56.2936 307.018 56.6865 305.63C58.0294 300.824 58.2058 297.145 58.2058 297.145L68.2239 298.328C68.2239 298.328 65.1251 308.49 65.8747 309.329C66.0311 309.505 67.4662 310.697 69.3303 312.242C73.1067 315.351 78.6509 319.88 79.0197 320.221C80.9119 321.971 79.7373 324.213 75.6763 324.266Z" fill="#E5936E"/>
<path d="M75.6763 324.264C71.6194 324.32 55.584 319.839 53.8281 318.118C53.5355 317.841 53.6518 316.694 53.9725 315.189C54.0927 314.623 54.2411 314.018 54.4054 313.384C56.7025 314.379 59.4846 315.546 60.3385 315.767C61.8338 316.152 65.4297 313.432 67.2738 312.746C67.8871 312.521 68.6087 312.353 69.3303 312.24C73.1067 315.35 78.6509 319.879 79.0197 320.22C80.9119 321.969 79.7373 324.212 75.6763 324.264Z" fill="#45332D"/>
<path d="M94.161 43.2658C94.161 43.2658 91.3468 40.4655 86.7326 39.8837C82.0383 39.2859 65.0648 43.988 67.4581 58.7682C68.2519 63.6548 61.4609 73.0508 59.4244 77.0147C57.3879 80.9745 39.9615 103.935 36.7985 110.523C32.6133 119.241 34.1166 124.208 36.9108 128.172C40.7793 133.652 43.814 134.751 44.1507 140.296C44.4915 145.844 45.8505 150.258 49.5827 151.73C54.0486 153.491 60.2182 153.656 64.9686 146.751C69.7231 139.842 86.6564 97.7286 86.7326 96.1438C86.8048 94.5631 88.252 72.5975 89.1139 67.7309C89.9758 62.8644 91.2185 56.5977 92.4612 54.8645C93.708 53.1273 94.161 43.2658 94.161 43.2658Z" fill="#FCE6DA"/>
<path d="M82.4235 75.5985C83.6663 76.8623 84.8529 77.7891 85.835 78.2063C89.7918 79.8994 100.66 79.8553 102.496 78.5153C104.328 77.1753 106.589 70.2466 106.44 67.8875C106.324 66.046 104.64 60.02 102.921 55.1133L102.917 55.1093C102.776 54.7121 102.636 54.327 102.5 53.9459C101.698 51.7433 100.916 49.8897 100.307 48.9228C100.159 48.6701 100.01 48.4855 99.878 48.3612C97.1359 45.8136 89.455 41.2961 82.3473 44.2128C75.2357 47.1255 73.7684 53.6008 74.1332 60.02C74.2575 62.2065 75.1956 64.8224 76.5385 67.382C78.9559 70.6718 82.4235 75.5985 82.4235 75.5985Z" fill="#9C5F33"/>
<path d="M101.673 57.456C101.545 57.3276 101.393 57.2634 101.24 57.3236C100.799 57.4921 101.036 58.6957 101.385 58.8922C101.493 58.9484 101.621 58.9524 101.737 58.9243C102.263 58.796 102.062 57.8331 101.673 57.456Z" fill="#45332D"/>
<path d="M91.2475 60.3974C91.1192 60.269 90.9669 60.2048 90.8145 60.265C90.3736 60.4335 90.6101 61.6371 90.9589 61.8337C91.0671 61.8898 91.1954 61.8938 91.3116 61.8657C91.8368 61.7374 91.6364 60.7745 91.2475 60.3974Z" fill="#45332D"/>
<path d="M86.8617 58.9158C87.8158 57.8406 90.1329 56.962 91.5681 57.0422C92.0852 57.0703 91.8888 57.8606 91.6402 58.0893C91.2915 58.4063 90.6621 58.3301 90.2372 58.4544C89.6519 58.635 88.1125 59.2929 87.5272 59.4695C87.1944 59.5698 86.4288 59.4093 86.8617 58.9158Z" fill="#45332D"/>
<path d="M102.495 53.9492C102.636 54.3304 102.776 54.7115 102.912 55.1087C102.215 55.209 101.377 55.3133 100.984 55.3975C100.551 55.4978 100.038 55.867 99.581 55.7546C99.2523 55.6784 98.699 55.0846 99.136 54.8118C99.9378 54.2942 101.285 53.9733 102.495 53.9492Z" fill="#45332D"/>
<path d="M99.2969 59.655C99.0283 59.314 98.4791 59.7152 98.7517 60.0602C99.3811 60.8626 100.03 61.649 100.644 62.4634C101.418 63.5025 101.197 64.3731 100.708 65.4523C100.528 65.8535 101.149 66.1223 101.329 65.7252C101.722 64.8545 102.095 63.9198 101.738 62.9729C101.281 61.7573 100.091 60.666 99.2969 59.655Z" fill="#45332D"/>
<path d="M80.8076 70.9355C80.8076 70.9355 80.6954 76.5202 79.3404 79.5011C77.9814 82.482 76.1694 85.8762 75.4919 86.4419C74.8144 87.0076 76.8509 89.9524 78.1498 91.0838C79.4527 92.2191 80.2464 94.2532 83.4134 93.5752C86.5804 92.8972 95.5201 90.4057 95.2916 89.0457C95.0671 87.6896 94.7344 88.5923 95.2956 87.1239C95.8568 85.6515 96.6065 79.4851 96.6065 79.4851C96.6065 79.4851 92.2288 73.423 91.1023 72.9696C89.9759 72.5203 88.5808 71.77 86.7327 71.5775C84.8846 71.3849 80.8076 70.9355 80.8076 70.9355Z" fill="#9C5F33"/>
<path d="M88.6576 71.2537C90.2051 73.1313 94.0335 74.1303 95.5849 74.383C97.1323 74.6398 96.8477 75.4863 99.8182 75.0611C102.789 74.6358 103.631 73.5124 105.607 72.4091C107.584 71.3018 105.607 63.8516 105.607 63.8516C105.607 63.8516 107.852 65.015 108.105 67.0812C108.361 69.1434 108.842 73.4482 108.726 75.0611C108.614 76.6739 103.811 81.5605 102.055 82.5554C100.3 83.5504 92.2538 83.9316 90.5741 81.8052C88.8944 79.6748 88.269 76.4091 86.7337 74.383C85.1943 72.353 83.2019 66.006 82.9453 65.015C82.6927 64.0201 88.6576 71.2537 88.6576 71.2537Z" fill="#45332D"/>
<path d="M94.1612 43.2656C94.7264 43.39 97.7731 44.3769 98.9758 44.2967C101.529 44.1282 102.832 45.8413 102.912 46.6718C103.065 48.2606 101.842 50.2786 100.944 50.1181C100.042 49.9576 94.7264 49.2716 94.1612 50.1221C93.5959 50.9767 93.5879 51.9957 91.1024 52.8984C88.6169 53.8051 87.4864 52.2966 85.4499 54.8643C83.4135 57.4279 83.7502 58.7519 83.2972 61.8813C82.8482 65.0146 81.1485 64.4529 81.2607 68.1881C81.377 71.9192 83.8945 70.0697 79.593 78.872C77.0434 84.0876 77.0755 72.826 76.9632 72.0316C76.851 71.2412 75.8608 68.7779 75.8608 68.7779C75.8608 68.7779 75.6804 66.0296 75.3597 65.0146C75.035 63.9956 76.1695 60.6817 76.9632 58.9405C77.757 57.2033 80.8077 51.3137 81.2607 50.748C81.7137 50.1823 83.2972 48.2605 84.7684 47.0168C86.2397 45.7691 87.9795 45.4843 89.114 44.5214C90.2525 43.5625 94.1612 43.2656 94.1612 43.2656Z" fill="#FCE6DA"/>
<path d="M91.6272 43.2661C91.6272 43.2661 86.3555 42.6562 85.6179 42.6562C84.8843 42.6562 78.3779 44.0163 77.6964 44.4697C77.0189 44.919 75.5397 45.5409 74.4974 46.6161C73.4551 47.6953 72.0961 49.1677 72.1562 51.4305C72.2123 53.6932 72.5491 52.4615 72.3807 56.0242C72.2123 59.5788 75.3593 65.0151 75.3593 65.0151C75.3593 65.0151 79.1116 55.619 79.4523 55.278C79.7931 54.941 86.2954 48.939 87.2014 48.261C88.1074 47.583 91.6031 46.1066 91.8917 45.7134C92.1804 45.3162 91.6272 43.2661 91.6272 43.2661Z" fill="#FCE6DA"/>
<path d="M91.9773 41.6726C91.9773 41.6726 82.5204 48.2322 76.5392 52.1358C71.0351 55.7306 68.3492 56.2962 66.7817 57.8649C65.4829 59.1688 66.5292 60.3283 70.6021 58.4186C74.6751 56.5129 79.4376 53.3876 83.6389 50.2381C88.3974 46.6795 94.1621 43.2653 94.1621 43.2653C94.1621 43.2653 95.3086 41.9815 93.8213 41.2393C93.2561 40.9584 91.9773 41.6726 91.9773 41.6726Z" fill="#45332D"/>
<path d="M69.1581 84.4483C69.1581 84.4483 83.2291 82.6068 91.9764 86.2617C100.724 89.9166 111.243 97.407 113.62 114.209C115.997 131.011 114.029 186.152 114.37 192.527C114.706 198.906 102.7 300.678 102.055 302.291C101.409 303.904 84.7845 304.662 73.0707 304.622C61.3569 304.582 38.9675 294.873 33.1908 292.089C27.418 289.3 18.2498 283.948 19.2721 276.779C20.2863 269.602 38.6107 210.028 44.7202 195.48C50.8297 180.937 57.6166 141.647 61.0121 130.554C64.4036 119.465 69.1581 84.4483 69.1581 84.4483Z" fill="#FCE6DA"/>
<path d="M77.3047 87.4129C77.3047 87.4129 94.8995 81.098 100.279 76.6487C105.659 72.1954 132.29 50.7554 134.326 50.298C136.363 49.8446 137.213 51.3491 140.436 55.7784C143.659 60.2036 144.85 65.8043 144.34 66.9959C143.831 68.1834 127.708 82.6226 120.58 88.5643C113.452 94.5061 102.043 102.402 100.279 103.718C98.5155 105.034 93.3841 104.5 90.2653 104.765C87.1464 105.034 84.7691 106.562 81.3777 100.957C77.9822 95.3526 77.3047 87.4129 77.3047 87.4129Z" fill="#FCE6DA"/>
<path d="M152.005 24.9747C152.005 24.9747 156.747 22.8684 158.447 21.396C160.143 19.9236 165.911 9.84948 167.158 8.94678C168.401 8.04007 172.927 11.6749 173.604 12.5736C174.286 13.4723 170.89 24.2485 168.289 28.417C165.683 32.5854 163.31 35.5463 163.31 35.5463C163.31 35.5463 163.763 36.2283 160.143 34.9806C156.523 33.7369 152.353 31.9114 152.005 30.1662C151.656 28.417 152.005 24.9747 152.005 24.9747Z" fill="#8A5B51"/>
<path d="M167.043 36.413C166.233 37.3919 169.276 41.9696 170.755 43.8432C173.694 47.5583 176.075 49.1551 176.528 46.6636C176.981 44.1722 175.441 38.3348 174.002 37.1633C170.531 34.3348 167.853 35.4341 167.043 36.413Z" fill="#9C5F33"/>
<path d="M81.9461 85.1215C80.4388 85.1978 79.2441 85.8678 77.9412 86.5819C76.1934 87.5367 74.4455 88.5036 72.6937 89.4625C72.3128 89.6751 72.6536 90.2609 73.0384 90.0483C74.3974 89.302 75.7604 88.5558 77.1194 87.8096C78.6388 86.9711 80.1662 85.8918 81.9461 85.7996C82.379 85.7795 82.383 85.1015 81.9461 85.1215Z" fill="#F2D3C2"/>
<path d="M103.702 100.268C99.7291 103.406 95.5358 106.246 91.1301 108.742C86.7284 111.229 81.8657 113.945 76.6702 113.969C71.5309 113.993 67.1653 111.072 65.9666 105.957C64.784 100.906 67.0089 95.9674 69.9795 91.9875C70.2401 91.6344 69.6508 91.2974 69.3902 91.6424C66.3595 95.7106 64.1547 100.738 65.2571 105.893C66.2433 110.523 69.759 113.781 74.4293 114.487C79.729 115.285 84.7761 112.93 89.3302 110.503C94.5697 107.71 99.5246 104.429 104.183 100.75C104.524 100.477 104.043 99.9994 103.702 100.268Z" fill="#F2D3C2"/>
<path d="M74.2458 82.9189C72.7946 82.8386 71.3434 82.8587 69.8962 83.0192C69.0183 83.1195 68.0161 83.1877 67.2544 83.6892C66.7733 84.0061 66.4005 84.4555 66.3965 85.0573C66.3925 86.0081 67.3867 86.5618 67.3386 87.5206C67.3185 87.9579 67.996 87.9579 68.0161 87.5206C68.0401 87.0994 67.9519 86.7985 67.7595 86.4214C67.5991 86.1004 67.1421 85.6511 67.1141 85.298C67.058 84.5999 67.8477 84.1225 68.3688 83.954C70.1608 83.3803 72.3857 83.4966 74.2458 83.5969C74.6828 83.621 74.6828 82.9389 74.2458 82.9189Z" fill="#F2D3C2"/>
<path d="M67.2103 88.1986C63.7506 90.2888 62.7484 95.6408 61.9186 99.2516C60.764 104.287 60.303 109.45 59.8861 114.585C58.9601 125.951 58.0541 137.317 57.1401 148.679C57.104 149.117 57.7855 149.113 57.8175 148.679L60.3511 117.217C60.756 112.198 61.1088 107.155 62.0108 102.192C62.4397 99.8374 62.9889 97.4984 63.7306 95.2196C64.4963 92.8726 65.3181 90.1364 67.555 88.7884C67.9278 88.5637 67.5871 87.9739 67.2103 88.1986Z" fill="#F2D3C2"/>
<path d="M75.4884 63.446C73.8207 69.8973 70.2609 75.5983 66.7932 81.2111C63.2895 86.884 59.6455 92.4687 56.238 98.2018C49.7477 109.11 44.0792 120.733 42.1509 133.399C42.0868 133.828 42.7402 134.013 42.8043 133.58C44.7927 120.533 50.7499 108.633 57.4847 97.4356C60.9243 91.7225 64.5723 86.1378 68.056 80.4528C71.3152 75.1369 74.5664 69.7207 76.1419 63.6265C76.2501 63.2013 75.5967 63.0247 75.4884 63.446Z" fill="#F2D3C2"/>
<path d="M45.4777 126.04C45.0407 129.731 44.6078 133.422 44.1708 137.113C44.1187 137.547 44.8002 137.547 44.8523 137.113C45.2853 133.422 45.7222 129.731 46.1552 126.04C46.2073 125.607 45.5258 125.611 45.4777 126.04Z" fill="#F2D3C2"/>
<path d="M112.622 129.643C111.6 140.343 106.052 149.903 101.249 159.295C96.1462 169.277 91.0429 179.263 85.9396 189.249C85.7392 189.634 86.3245 189.979 86.5249 189.59C91.8326 179.207 97.1403 168.82 102.448 158.437C107.118 149.306 112.306 140.042 113.3 129.643C113.344 129.206 112.663 129.21 112.622 129.643Z" fill="#F2D3C2"/>
<path d="M81.4007 197.399C80.639 199.056 79.8733 200.713 79.1117 202.369C78.9273 202.763 79.5125 203.108 79.6969 202.71C80.4586 201.054 81.2243 199.397 81.986 197.744C82.1704 197.346 81.5851 197.001 81.4007 197.399Z" fill="#F2D3C2"/>
<path d="M71.3951 214.437C58.5227 232.198 45.943 250.168 33.6559 268.338C33.4114 268.699 34.0007 269.04 34.2452 268.679C46.5283 250.509 59.108 232.543 71.9804 214.782C72.237 214.429 71.6477 214.088 71.3951 214.437Z" fill="#F2D3C2"/>
<path d="M176.087 78.9594C175.365 82.1891 174.639 85.4187 173.918 88.6484C173.822 89.0737 174.479 89.2542 174.571 88.8289C175.297 85.5993 176.018 82.3696 176.74 79.14C176.836 78.7147 176.183 78.5342 176.087 78.9594Z" fill="#F5AD5B"/>
<path d="M189.038 88.8208C188.705 90.2049 188.116 91.4566 187.274 92.5961C187.013 92.9491 187.603 93.2861 187.859 92.9411C188.733 91.7575 189.347 90.4336 189.691 89.0013C189.792 88.576 189.138 88.3955 189.038 88.8208Z" fill="#F5AD5B"/>
<path d="M190.001 90.0901C189.945 90.8725 189.736 91.6107 189.371 92.3048C189.171 92.6899 189.756 93.035 189.961 92.6458C190.377 91.8434 190.614 90.9928 190.678 90.0901C190.71 89.6528 190.033 89.6569 190.001 90.0901Z" fill="#F5AD5B"/>
<path d="M164.091 32.3889C161.858 29.2355 159.216 26.4471 156.174 24.056C155.837 23.7912 155.352 24.2686 155.696 24.5374C158.691 26.8925 161.305 29.6206 163.506 32.7339C163.758 33.087 164.344 32.7459 164.091 32.3889Z" fill="#7A4F46"/>
<path d="M150.407 56.4095C149.156 61.0072 148.005 65.629 146.951 70.2749C146.855 70.7002 147.508 70.8807 147.604 70.4554C148.659 65.8096 149.809 61.1878 151.06 56.59C151.176 56.1688 150.523 55.9842 150.407 56.4095Z" fill="#7A4F46"/>
<path d="M149.52 18.9173C149.444 19.2182 149.384 19.4749 149.348 19.6715C149.348 19.6796 149.348 19.6876 149.34 19.6996C148.731 19.8882 148.113 19.9764 147.468 20.0005C146.839 20.0125 146.137 19.8842 145.52 20.0406C144.942 20.1891 144.501 20.6103 143.992 20.8791C142.529 21.6695 140.557 21.1239 138.941 21.2884C137.47 21.4328 135.874 21.6214 134.644 20.6143C133.994 20.0848 133.694 19.2583 133.092 18.6926C132.142 17.806 130.96 17.9343 129.777 17.7217C128.474 17.485 127.728 16.8992 127.151 15.7197C126.574 14.5522 126.385 13.6656 125.163 12.9394C124.593 12.6064 123.952 12.3898 123.383 12.0488C123.411 11.812 123.451 11.5673 123.491 11.3105C124.417 11.9364 125.684 12.3577 126.309 12.9073C126.995 13.5091 127.271 14.2915 127.624 15.1099C128.534 17.2202 130.186 16.8752 132.03 17.3646C132.956 17.6054 133.505 18.1109 134.074 18.8491C134.956 19.9925 135.618 20.6906 137.117 20.7387C137.815 20.7508 138.516 20.6424 139.206 20.5823C139.927 20.514 140.621 20.502 141.346 20.5341C142.617 20.6023 143.455 20.3054 144.549 19.7117C145.576 19.158 146.594 19.3827 147.712 19.3064C148.346 19.2623 148.947 19.1299 149.52 18.9173Z" fill="#80B5D1"/>
<path d="M187.559 204.034C187.559 204.034 187.551 200.9 187.559 200.367C187.583 197.281 187.018 193.843 185.691 194.1C184.364 194.353 185.523 197.743 184.925 197.959C184.332 198.172 179.922 193.105 178.054 193.133C176.186 193.165 175.084 197.378 175.849 198.581C176.611 199.785 179.072 202.417 180.768 204.034C182.468 205.646 183.655 207.6 183.655 207.6L187.559 204.034Z" fill="#9C5F33"/>
<path d="M233.132 178.008C232.37 179.593 231.452 181.081 230.546 182.237C230.462 182.345 230.378 182.453 230.298 182.554C229.632 183.352 228.987 183.962 228.426 184.279C226.87 185.165 223.07 185.522 219.995 185.506C217.971 185.494 217.329 185.197 216.832 184.828C216.323 184.455 213.753 180.905 213.793 178.71C213.817 177.446 214.194 173.334 214.992 169.856V169.848C215.056 169.571 215.12 169.294 215.184 169.021C215.658 167.051 216.155 165.462 216.543 165.013C218.215 163.059 223.102 159.384 228.181 160.825C233.252 162.265 234.756 166.566 235.004 170.971C235.116 172.977 234.303 175.601 233.132 178.008Z" fill="#9C5F33"/>
<path d="M216.019 171.353C216.095 171.252 216.195 171.2 216.304 171.228C216.616 171.308 216.548 172.147 216.324 172.307C216.26 172.356 216.167 172.368 216.087 172.36C215.718 172.311 215.783 171.641 216.019 171.353Z" fill="#45332D"/>
<path d="M223.355 172.548C223.436 172.452 223.536 172.399 223.644 172.427C223.953 172.508 223.889 173.346 223.664 173.507C223.596 173.555 223.508 173.567 223.428 173.559C223.059 173.511 223.123 172.841 223.355 172.548Z" fill="#45332D"/>
<path d="M226.217 171.291C225.519 170.593 223.896 170.088 222.914 170.204C222.561 170.244 222.729 170.778 222.91 170.926C223.162 171.127 223.587 171.047 223.884 171.119C224.297 171.215 225.375 171.6 225.788 171.697C226.02 171.753 226.533 171.608 226.217 171.291Z" fill="#45332D"/>
<path d="M215.185 169.021C215.12 169.294 215.056 169.566 214.992 169.847C215.477 169.863 216.055 169.867 216.327 169.895C216.632 169.928 217.009 170.14 217.313 170.032C217.53 169.952 217.863 169.502 217.542 169.354C216.957 169.061 216.014 168.945 215.185 169.021Z" fill="#45332D"/>
<path d="M219.871 178.595C219.59 178.121 219.045 178.125 217.891 177.933C216.812 177.752 215.846 177.303 215.554 177.712C215.213 178.193 216.179 179.573 217.394 179.838C218.468 180.071 220.224 179.184 219.871 178.595Z" fill="white"/>
<path d="M217.765 172.454C217.966 172.117 218.487 172.434 218.287 172.771C217.854 173.502 216.326 174.621 217.072 175.548C217.316 175.849 216.883 176.278 216.635 175.969C215.561 174.641 217.136 173.518 217.765 172.454Z" fill="#45332D"/>
<path d="M233.245 192.134C233.337 192.84 225.752 195.685 223.175 195.339C220.613 194.99 218.26 194.453 217.322 193.727C216.38 193.005 220.176 190.337 220.401 188.704C220.433 188.479 220.437 188.214 220.429 187.941C220.385 187.187 220.2 186.28 219.996 185.506C219.739 184.495 219.463 183.705 219.463 183.705L230.254 182.272L230.547 182.236H230.551C230.551 182.236 230.467 182.581 230.403 183.187C230.403 183.191 230.403 183.191 230.403 183.199C230.33 183.913 230.294 184.985 230.491 186.3C230.856 188.744 233.153 191.42 233.245 192.134Z" fill="#9C5F33"/>
<path d="M230.547 182.237H230.551C230.551 182.237 230.467 182.582 230.403 183.187C230.403 183.191 230.403 183.191 230.403 183.199C230.394 183.207 230.394 183.212 230.394 183.212C230.394 183.212 230.358 182.943 230.298 182.554C230.282 182.465 230.274 182.377 230.254 182.273C230.218 182.008 230.174 181.707 230.13 181.422C229.994 180.572 231.188 178.85 231.673 178.008C232.162 177.165 232.062 174.838 231.565 174.867C231.064 174.891 230.707 175.38 230.707 175.38L230.563 171.777C230.563 171.777 232.082 172.371 232.21 172.548C232.295 172.672 232.804 175.918 233.133 178.008C232.371 179.593 231.453 181.081 230.547 182.237Z" fill="#45332D"/>
<path d="M219.994 185.505C220.199 186.284 220.383 187.186 220.423 187.941C220.551 187.848 220.7 187.728 220.86 187.575C221.297 187.158 223.141 186.601 223.534 185.943C223.923 185.277 223.61 184.546 223.205 184.755C222.804 184.956 219.994 185.505 219.994 185.505Z" fill="#45332D"/>
<path d="M216.539 165.014C216.539 165.014 220.8 163.413 226.016 166.631C231.231 169.852 231.769 173.848 231.993 175.637C232.222 177.423 231.929 180.227 231.929 180.227C231.929 180.227 234.19 176.263 235.661 174.334C237.132 172.4 238.54 169.082 238.552 168.175C238.568 167.268 236.435 162.952 232.823 159.83C230.221 157.588 223.907 156.833 222.264 157.66C220.62 158.486 216.539 165.014 216.539 165.014Z" fill="#FCE6DA"/>
<path d="M220.396 163.609C219.803 163.537 219.033 163.304 217.281 163.276C215.533 163.244 214.619 164.568 214.659 165.587C214.7 166.606 217.369 166.305 218.135 166.149C218.897 165.988 220.36 165.15 222.136 166.397C223.908 167.649 225.876 168.512 227.059 168.764C228.245 169.013 229.921 170.534 229.841 171.994C229.765 173.45 229.452 175.653 229.781 176.11C230.114 176.572 231.348 174.445 231.633 173.683C231.922 172.917 231.785 170.638 229.717 168.804C227.652 166.967 223.174 163.942 220.396 163.609Z" fill="#45332D"/>
<path d="M223.098 321.072C223.098 321.072 223.607 328.013 223.394 328.819C222.617 331.784 217.469 331.042 214.531 331.054C211.821 331.07 207.535 331.84 206.493 331.094C205.363 330.288 205.968 328.374 207.231 327.479C208.497 326.585 214.679 324.314 215.052 323.327C215.425 322.336 215.501 321.072 215.501 321.072H223.098Z" fill="#45332D"/>
<mask id="mask1_4419_4897" style="mask-type:luminance" maskUnits="userSpaceOnUse" x="230" y="319" width="19" height="13">
<path d="M230.895 319.182H248.393V331.615H230.895V319.182Z" fill="white"/>
</mask>
<g mask="url(#mask1_4419_4897)">
<path d="M246.973 319.334C246.973 319.334 248.389 326.15 248.288 326.977C247.908 330.018 242.704 329.958 239.798 330.359C237.112 330.732 232.967 332.06 231.832 331.462C230.605 330.808 230.954 328.83 232.089 327.775C233.227 326.724 239.056 323.659 239.297 322.628C239.533 321.601 239.441 320.333 239.441 320.333L246.973 319.334Z" fill="#45332D"/>
</g>
<path d="M210.655 194.492C210.655 194.492 207.705 195.732 204.662 199.912C201.619 204.093 199.046 209.144 197.687 209.353C196.324 209.557 190.254 201.012 188.454 200.418C186.65 199.824 180.176 207.563 180.16 208.695C180.144 209.826 191.974 221.429 196.232 224.325C200.489 227.218 209.192 217.982 212.319 213.044C215.446 208.109 214.552 199.491 214.552 199.491L210.655 194.492Z" fill="#FCE6DA"/>
<path d="M209.467 278.673C209.411 282.295 210.333 315.43 212.173 319.39C214.009 323.346 223.438 324.068 225.326 321.087C227.214 318.106 224.232 285.457 225.907 281.629C227.583 277.806 221.702 272.51 220.608 272.494C219.513 272.478 209.467 278.673 209.467 278.673Z" fill="#80B5D1"/>
<path d="M227.789 278.757C228.162 282.356 232.985 315.154 235.278 318.869C237.567 322.58 247.015 322.183 248.539 319.001C250.062 315.82 243.255 283.748 244.462 279.752C245.676 275.756 239.21 271.194 238.124 271.307C237.033 271.419 227.789 278.757 227.789 278.757Z" fill="#80B5D1"/>
<path d="M218.817 191.114C218.817 191.114 219.936 192.559 224.514 192.314C229.092 192.069 232.211 190.264 232.211 190.264C232.211 190.264 241.844 192.623 242.766 193.341C243.688 194.063 243.287 215.539 242.321 223.507C241.351 231.479 242.686 238.46 243.023 241.862C243.355 245.264 248.856 275.065 247.958 278.447C247.06 281.833 234.688 280.967 225.845 281.857C217.005 282.744 203.688 283.073 203.752 281.019C204.442 259.972 206.39 254.399 206.823 236.57C207.256 218.745 208.771 196.667 209.81 195.162C210.852 193.662 218.817 191.114 218.817 191.114Z" fill="#FCE6DA"/>
<path d="M254.848 245.2C254.848 245.2 254.848 246.697 255.088 248.891C255.321 251.018 256.13 253.116 257.413 253.437C258.696 253.758 257.305 249.373 257.838 249.16C258.375 248.944 259.606 253.758 261.314 254.825C263.022 255.896 266.57 255.656 267.299 254.825C268.474 253.489 267.488 249.24 264.333 245.923C262.942 244.462 260.833 242.637 260.833 242.637L254.848 245.2Z" fill="#9C5F33"/>
<path d="M242.766 193.342C242.766 193.342 247.32 195.223 249.116 203.853C250.912 212.483 254.067 218.613 255.606 221.466C257.149 224.318 263.367 240.286 262.349 242.42C261.331 244.559 256.316 246.974 253.942 246.938C251.565 246.902 250.816 245.49 248.863 239.801C246.911 234.112 245.263 232.587 243.507 228.936C241.748 225.289 240.593 221.731 240.593 221.731C240.593 221.731 238.637 208.68 237.999 205.839C237.362 203.003 237.165 200.848 238.889 199.175C240.609 197.502 242.766 193.342 242.766 193.342Z" fill="#FCE6DA"/>
<path d="M209.62 196.96C207.892 203.656 207.186 210.537 207.523 217.446C207.547 217.879 208.225 217.883 208.205 217.446C207.868 210.593 208.561 203.785 210.273 197.141C210.385 196.72 209.728 196.539 209.62 196.96Z" fill="#F2D3C2"/>
<path d="M216.725 229.052C215.081 221.064 213.899 212.996 213.185 204.871C213.149 204.438 212.467 204.434 212.508 204.871C213.225 213.056 214.412 221.184 216.071 229.232C216.16 229.661 216.813 229.477 216.725 229.052Z" fill="#F2D3C2"/>
<path d="M228.638 254.508C225.202 251.238 222.737 247.206 221.398 242.652C221.273 242.235 220.616 242.411 220.74 242.833C222.115 247.491 224.641 251.639 228.157 254.989C228.473 255.29 228.954 254.808 228.638 254.508Z" fill="#F2D3C2"/>
<path d="M239.446 270.187C237.73 267.996 236.01 265.801 234.299 263.611C234.026 263.27 233.549 263.751 233.818 264.092L238.969 270.668C239.238 271.013 239.715 270.528 239.446 270.187Z" fill="#F2D3C2"/>
<path d="M240.769 194.754C239.583 195.376 238.356 196.029 237.502 197.097C236.64 198.18 236.368 199.548 236.131 200.88C236.055 201.309 236.712 201.49 236.789 201.061C237.025 199.733 237.278 198.344 238.216 197.305C239.005 196.431 240.084 195.877 241.11 195.339C241.499 195.135 241.154 194.549 240.769 194.754Z" fill="#F2D3C2"/>
<path d="M239.739 219.656C238.127 215.082 236.548 210.48 236.163 205.614C236.131 205.18 235.453 205.176 235.485 205.614C235.874 210.544 237.45 215.202 239.085 219.836C239.23 220.245 239.887 220.069 239.739 219.656Z" fill="#F2D3C2"/>
<path d="M197.232 210.484V216.598C197.232 217.032 197.91 217.036 197.91 216.598V210.484C197.91 210.047 197.232 210.047 197.232 210.484Z" fill="#F2D3C2"/>
<path d="M207.936 192.053C207.615 190.869 208.365 189.658 209.567 189.417C210.822 189.164 212.321 188.952 213.155 189.172C214.767 189.598 216.731 192.418 217.32 193.726C217.906 195.03 217.645 199.106 215.825 199.616C214.005 200.125 210.838 196.258 209.619 195.644C208.934 195.299 208.332 193.533 207.936 192.053Z" fill="#A87048"/>
<path d="M238.143 188.406C237.221 188.205 235.694 188.47 234.455 189.265C233.216 190.059 231.797 192.599 231.288 194.067C230.779 195.539 231.741 197.975 233.493 197.521C235.245 197.068 240.132 193.862 241.282 193.341C242.433 192.823 242.77 191.592 242.77 190.849C242.77 189.513 239.434 188.683 238.143 188.406Z" fill="#A87048"/>
<path d="M241.699 99.3809C238.937 98.6748 236.255 97.4351 233.529 96.5806C230.618 95.6658 227.672 94.8715 224.701 94.1694C224.276 94.0651 224.096 94.723 224.525 94.8233C227.491 95.5254 230.434 96.3198 233.344 97.2345C236.074 98.0891 238.756 99.3328 241.518 100.035C241.943 100.143 242.124 99.4853 241.699 99.3809Z" fill="#6C9DBA"/>
<path d="M224.93 101.897C222.14 100.453 219.506 98.7679 217.041 96.8181C216.7 96.5533 216.215 97.0267 216.56 97.2995C219.073 99.2855 221.743 101.015 224.589 102.483C224.974 102.684 225.319 102.098 224.93 101.897Z" fill="#6C9DBA"/>
<path d="M253.581 112.388C246.276 110.724 239.181 108.304 232.386 105.147C231.993 104.962 231.648 105.548 232.045 105.733C238.896 108.914 246.036 111.365 253.4 113.042C253.825 113.139 254.01 112.485 253.581 112.388Z" fill="#6C9DBA"/>
<path d="M223.659 111.253C220.056 108.12 216.913 104.557 214.259 100.585C214.018 100.224 213.429 100.565 213.673 100.93C216.355 104.946 219.534 108.561 223.178 111.731C223.507 112.02 223.988 111.538 223.659 111.253Z" fill="#6C9DBA"/>
<path d="M235.024 74.4593C235.056 74.022 234.375 74.026 234.347 74.4593C234.006 79.3178 235.165 84.5133 232.659 88.9666C232.447 89.3478 233.032 89.6928 233.244 89.3117C235.822 84.726 234.675 79.4582 235.024 74.4593Z" fill="#6C9DBA"/>
<path d="M217.153 109.676C211.592 113.905 206.036 118.129 200.476 122.358C200.135 122.619 200.472 123.209 200.821 122.944C206.377 118.715 211.937 114.491 217.493 110.262C217.838 110.001 217.501 109.411 217.153 109.676Z" fill="#6C9DBA"/>
<path d="M251.689 143.236C251.677 142.799 251 142.799 251.012 143.236C251.132 147.533 251.244 151.946 249.753 156.046C248.262 160.159 245.656 163.942 243.491 167.717C241.342 171.465 239.194 175.212 237.041 178.959C235.942 180.877 234.816 182.786 233.738 184.72C233.176 185.731 232.623 186.81 233.369 187.858C233.621 188.211 234.211 187.874 233.954 187.516C232.936 186.08 235.906 182.305 236.636 181.029C237.686 179.204 238.733 177.378 239.779 175.553C241.872 171.902 243.964 168.251 246.061 164.6C247.869 161.447 249.901 158.301 250.875 154.763C251.902 151.015 251.797 147.084 251.689 143.236Z" fill="#4A342C"/>
<path d="M255.225 182.48C252.635 185.895 249.977 189.253 247.247 192.555C246.971 192.888 247.448 193.373 247.728 193.036C250.495 189.686 253.189 186.284 255.814 182.821C256.079 182.472 255.486 182.135 255.225 182.48Z" fill="#4A342C"/>
<path d="M213.989 183.026C211.82 176.495 209.912 169.883 208.268 163.195C208.236 163.079 208.164 163.011 208.076 162.979C208.092 153.952 208.573 144.937 209.519 135.958C209.563 135.524 208.886 135.524 208.842 135.958C207.884 145.033 207.403 154.148 207.395 163.279C207.395 163.468 207.523 163.568 207.667 163.596C209.299 170.204 211.187 176.744 213.336 183.207C213.472 183.62 214.129 183.444 213.989 183.026Z" fill="#4A342C"/>
<path d="M223.443 318.467C220.497 319.743 217.262 319.583 214.439 318.046C214.055 317.838 213.714 318.423 214.099 318.632C217.149 320.293 220.605 320.433 223.788 319.049C224.189 318.877 223.84 318.295 223.443 318.467Z" fill="#6C9DBA"/>
<path d="M245.76 317.412C243.206 319.201 240.087 318.731 237.205 318.202C236.776 318.126 236.596 318.78 237.025 318.86C240.079 319.422 243.403 319.891 246.101 318.001C246.457 317.753 246.121 317.163 245.76 317.412Z" fill="#6C9DBA"/>
<path d="M139.409 6.17086C139.377 6.12673 139.333 6.09463 139.293 6.07056C139.385 5.87798 139.638 5.74158 139.826 5.87798C139.982 5.99433 140.01 6.19493 139.95 6.35942C139.75 6.39954 139.545 6.3514 139.409 6.17086ZM140.548 5.72954C139.994 4.59816 138.379 5.31631 138.603 6.45972C138.716 7.03344 139.778 7.16583 140.235 6.99733C140.72 6.81278 140.744 6.13475 140.548 5.72954Z" fill="#F2D3C2"/>
<path d="M96.6744 69.7118C97.0833 69.0217 97.8771 69.0298 99.5568 68.7489C101.132 68.4841 102.535 67.8302 102.964 68.428C103.461 69.1301 102.054 71.1361 100.282 71.5212C98.7149 71.8622 96.1613 70.5704 96.6744 69.7118Z" fill="white"/>
</g>
<defs>
<clipPath id="clip0_4419_4897">
<rect width="254" height="332" fill="white" transform="translate(19)"/>
</clipPath>
</defs>
</svg>
