<svg width="18" height="18" viewBox="0 0 18 18" fill="none" xmlns="http://www.w3.org/2000/svg">
<g clip-path="url(#clip0_4671_10951)">
<path d="M5.25 3.75C5.25 2.75544 5.64509 1.80161 6.34835 1.09835C7.05161 0.395088 8.00544 0 9 0C9.99456 0 10.9484 0.395088 11.6517 1.09835C12.3549 1.80161 12.75 2.75544 12.75 3.75C12.75 4.14782 12.592 4.52936 12.3107 4.81066C12.0294 5.09196 11.6478 5.25 11.25 5.25H9.15L10.3725 3.41625C10.4829 3.25075 10.523 3.04818 10.4841 2.8531C10.4451 2.65801 10.3302 2.4864 10.1648 2.376C9.99926 2.2656 9.79668 2.22547 9.6016 2.26443C9.40651 2.30339 9.2349 2.41825 9.1245 2.58375L7.35 5.25H6.75C6.35218 5.25 5.97064 5.09196 5.68934 4.81066C5.40804 4.52936 5.25 4.14782 5.25 3.75ZM14.25 1.5H13.7445C14.078 2.20316 14.2507 2.97177 14.25 3.75C14.25 4.54565 13.9339 5.30871 13.3713 5.87132C12.8087 6.43393 12.0456 6.75 11.25 6.75H6.3495L6.3555 6.74025C5.64575 6.68087 4.98416 6.3572 4.50165 5.83331C4.01915 5.30942 3.7509 4.62348 3.75 3.91125C3.75366 3.07567 3.94513 2.2516 4.31025 1.5H3.75C2.75544 1.5 1.80161 1.89509 1.09835 2.59835C0.395088 3.30161 0 4.25544 0 5.25L0 14.25C0 14.7425 0.0969966 15.2301 0.285452 15.6851C0.473907 16.14 0.75013 16.5534 1.09835 16.9016C1.80161 17.6049 2.75544 18 3.75 18H14.25C14.7425 18 15.2301 17.903 15.6851 17.7145C16.14 17.5261 16.5534 17.2499 16.9016 16.9016C17.2499 16.5534 17.5261 16.14 17.7145 15.6851C17.903 15.2301 18 14.7425 18 14.25V5.25C18 4.75754 17.903 4.26991 17.7145 3.81494C17.5261 3.35997 17.2499 2.94657 16.9016 2.59835C16.5534 2.25013 16.14 1.97391 15.6851 1.78545C15.2301 1.597 14.7425 1.5 14.25 1.5Z" fill="#A6A6A6"/>
<path d="M5.25 3.75C5.25 2.75544 5.64509 1.80161 6.34835 1.09835C7.05161 0.395088 8.00544 0 9 0C9.99456 0 10.9484 0.395088 11.6517 1.09835C12.3549 1.80161 12.75 2.75544 12.75 3.75C12.75 4.14782 12.592 4.52936 12.3107 4.81066C12.0294 5.09196 11.6478 5.25 11.25 5.25H9.15L10.3725 3.41625C10.4829 3.25075 10.523 3.04818 10.4841 2.8531C10.4451 2.65801 10.3302 2.4864 10.1648 2.376C9.99926 2.2656 9.79668 2.22547 9.6016 2.26443C9.40651 2.30339 9.2349 2.41825 9.1245 2.58375L7.35 5.25H6.75C6.35218 5.25 5.97064 5.09196 5.68934 4.81066C5.40804 4.52936 5.25 4.14782 5.25 3.75ZM14.25 1.5H13.7445C14.078 2.20316 14.2507 2.97177 14.25 3.75C14.25 4.54565 13.9339 5.30871 13.3713 5.87132C12.8087 6.43393 12.0456 6.75 11.25 6.75H6.3495L6.3555 6.74025C5.64575 6.68087 4.98416 6.3572 4.50165 5.83331C4.01915 5.30942 3.7509 4.62348 3.75 3.91125C3.75366 3.07567 3.94513 2.2516 4.31025 1.5H3.75C2.75544 1.5 1.80161 1.89509 1.09835 2.59835C0.395088 3.30161 0 4.25544 0 5.25L0 14.25C0 14.7425 0.0969966 15.2301 0.285452 15.6851C0.473907 16.14 0.75013 16.5534 1.09835 16.9016C1.80161 17.6049 2.75544 18 3.75 18H14.25C14.7425 18 15.2301 17.903 15.6851 17.7145C16.14 17.5261 16.5534 17.2499 16.9016 16.9016C17.2499 16.5534 17.5261 16.14 17.7145 15.6851C17.903 15.2301 18 14.7425 18 14.25V5.25C18 4.75754 17.903 4.26991 17.7145 3.81494C17.5261 3.35997 17.2499 2.94657 16.9016 2.59835C16.5534 2.25013 16.14 1.97391 15.6851 1.78545C15.2301 1.597 14.7425 1.5 14.25 1.5Z" fill="black" fill-opacity="0.2"/>
<path d="M5.25 3.75C5.25 2.75544 5.64509 1.80161 6.34835 1.09835C7.05161 0.395088 8.00544 0 9 0C9.99456 0 10.9484 0.395088 11.6517 1.09835C12.3549 1.80161 12.75 2.75544 12.75 3.75C12.75 4.14782 12.592 4.52936 12.3107 4.81066C12.0294 5.09196 11.6478 5.25 11.25 5.25H9.15L10.3725 3.41625C10.4829 3.25075 10.523 3.04818 10.4841 2.8531C10.4451 2.65801 10.3302 2.4864 10.1648 2.376C9.99926 2.2656 9.79668 2.22547 9.6016 2.26443C9.40651 2.30339 9.2349 2.41825 9.1245 2.58375L7.35 5.25H6.75C6.35218 5.25 5.97064 5.09196 5.68934 4.81066C5.40804 4.52936 5.25 4.14782 5.25 3.75ZM14.25 1.5H13.7445C14.078 2.20316 14.2507 2.97177 14.25 3.75C14.25 4.54565 13.9339 5.30871 13.3713 5.87132C12.8087 6.43393 12.0456 6.75 11.25 6.75H6.3495L6.3555 6.74025C5.64575 6.68087 4.98416 6.3572 4.50165 5.83331C4.01915 5.30942 3.7509 4.62348 3.75 3.91125C3.75366 3.07567 3.94513 2.2516 4.31025 1.5H3.75C2.75544 1.5 1.80161 1.89509 1.09835 2.59835C0.395088 3.30161 0 4.25544 0 5.25L0 14.25C0 14.7425 0.0969966 15.2301 0.285452 15.6851C0.473907 16.14 0.75013 16.5534 1.09835 16.9016C1.80161 17.6049 2.75544 18 3.75 18H14.25C14.7425 18 15.2301 17.903 15.6851 17.7145C16.14 17.5261 16.5534 17.2499 16.9016 16.9016C17.2499 16.5534 17.5261 16.14 17.7145 15.6851C17.903 15.2301 18 14.7425 18 14.25V5.25C18 4.75754 17.903 4.26991 17.7145 3.81494C17.5261 3.35997 17.2499 2.94657 16.9016 2.59835C16.5534 2.25013 16.14 1.97391 15.6851 1.78545C15.2301 1.597 14.7425 1.5 14.25 1.5Z" fill="black" fill-opacity="0.2"/>
</g>
<defs>
<clipPath id="clip0_4671_10951">
<rect width="18" height="18" fill="white"/>
</clipPath>
</defs>
</svg>
