<svg width="18" height="18" viewBox="0 0 18 18" fill="none" xmlns="http://www.w3.org/2000/svg">
<path d="M5.02501 13.5H3.11252C2.04002 13.5 1.5 12.96 1.5 11.8875V3.11252C1.5 2.04002 2.04002 1.5 3.11252 1.5H6.33751C7.41001 1.5 7.94998 2.04002 7.94998 3.11252V4.5" stroke="#444444" stroke-width="1.5" stroke-miterlimit="10" stroke-linecap="round" stroke-linejoin="round"/>
<path d="M13.0259 6.31499V14.685C13.0259 15.8925 12.4259 16.5 11.2184 16.5H6.83842C5.63092 16.5 5.02344 15.8925 5.02344 14.685V6.31499C5.02344 5.10749 5.63092 4.5 6.83842 4.5H11.2184C12.4259 4.5 13.0259 5.10749 13.0259 6.31499Z" stroke="#444444" stroke-width="1.5" stroke-miterlimit="10" stroke-linecap="round" stroke-linejoin="round"/>
<path d="M10.0469 4.5V3.11252C10.0469 2.04002 10.5868 1.5 11.6593 1.5H14.8843C15.9568 1.5 16.4969 2.04002 16.4969 3.11252V11.8875C16.4969 12.96 15.9568 13.5 14.8843 13.5H13.0244" stroke="#444444" stroke-width="1.5" stroke-miterlimit="10" stroke-linecap="round" stroke-linejoin="round"/>
<path d="M7.5 8.25H10.5" stroke="#444444" stroke-width="1.5" stroke-miterlimit="10" stroke-linecap="round" stroke-linejoin="round"/>
<path d="M7.5 10.5H10.5" stroke="#444444" stroke-width="1.5" stroke-miterlimit="10" stroke-linecap="round" stroke-linejoin="round"/>
<path d="M9 16.5V14.25" stroke="#444444" stroke-width="1.5" stroke-miterlimit="10" stroke-linecap="round" stroke-linejoin="round"/>
</svg>
