<svg width="24" height="24" viewBox="0 0 24 24" fill="none" xmlns="http://www.w3.org/2000/svg">
<path d="M11.9976 22.854C12.4176 22.8443 12.8206 22.6864 13.1353 22.4083C13.4501 22.1301 13.6564 21.7496 13.7176 21.334H10.2109C10.2739 21.7609 10.4898 22.1503 10.8185 22.4299C11.1471 22.7095 11.5662 22.8602 11.9976 22.854Z" fill="#444444"/>
<path d="M21.6712 18.5536C21.0284 17.9805 20.4656 17.3235 19.9979 16.6003C19.4869 15.6022 19.1809 14.5118 19.0979 13.3936V10.1003C19.095 9.70024 19.0593 9.30113 18.9913 8.90693C18.4664 8.80249 17.962 8.61335 17.4979 8.34693C17.6748 8.91685 17.7647 9.51019 17.7646 10.1069V13.4003C17.8455 14.7644 18.2207 16.0949 18.8646 17.3003C19.325 18.0295 19.8711 18.7009 20.4913 19.3003H3.41792C4.03805 18.7009 4.58416 18.0295 5.04458 17.3003C5.68844 16.0949 6.06371 14.7644 6.14458 13.4003V10.1003C6.14107 9.32872 6.28979 8.56406 6.58221 7.85007C6.87463 7.13609 7.30502 6.48679 7.84873 5.93937C8.39244 5.39195 9.03878 4.95715 9.75076 4.65987C10.4627 4.36259 11.2264 4.20867 11.9979 4.20693C13.1272 4.20743 14.2311 4.5414 15.1713 5.16693C15.0676 4.78624 15.0095 4.39463 14.9979 4.00026V3.58026C14.3017 3.23806 13.554 3.01283 12.7846 2.91359V2.07359C12.7846 1.83755 12.6908 1.61118 12.5239 1.44427C12.357 1.27736 12.1306 1.18359 11.8946 1.18359C11.6585 1.18359 11.4322 1.27736 11.2653 1.44427C11.0984 1.61118 11.0046 1.83755 11.0046 2.07359V2.94693C9.28173 3.18996 7.70497 4.04809 6.5654 5.36288C5.42583 6.67768 4.8004 8.36035 4.80458 10.1003V13.3936C4.72162 14.5118 4.41561 15.6022 3.90458 16.6003C3.44517 17.3218 2.89138 17.9788 2.25792 18.5536C2.1868 18.6161 2.12981 18.693 2.09073 18.7792C2.05165 18.8654 2.03137 18.9589 2.03125 19.0536V19.9603C2.03125 20.1371 2.10149 20.3066 2.22651 20.4317C2.35154 20.5567 2.52111 20.6269 2.69792 20.6269H21.2313C21.4081 20.6269 21.5776 20.5567 21.7027 20.4317C21.8277 20.3066 21.8979 20.1371 21.8979 19.9603V19.0536C21.8978 18.9589 21.8775 18.8654 21.8384 18.7792C21.7994 18.693 21.7424 18.6161 21.6712 18.5536Z" fill="#444444"/>
<path d="M19.9974 7.33268C21.8383 7.33268 23.3307 5.8403 23.3307 3.99935C23.3307 2.1584 21.8383 0.666016 19.9974 0.666016C18.1564 0.666016 16.6641 2.1584 16.6641 3.99935C16.6641 5.8403 18.1564 7.33268 19.9974 7.33268Z" fill="#444444"/>
</svg>
