<svg width="171" height="138" viewBox="0 0 171 138" fill="none" xmlns="http://www.w3.org/2000/svg">
<path d="M171.001 29.2441H143.719V42.2072H154.811L158.96 46.3566L163.11 42.2072H171.001V29.2441Z" fill="#F5F5F5"/>
<path d="M150.261 35.0713C150.257 34.59 150.074 34.1274 149.747 33.7737C149.421 33.42 148.974 33.2005 148.495 33.158C148.015 33.1154 147.537 33.2529 147.153 33.5436C146.77 33.8343 146.508 34.2574 146.419 34.7305C146.341 35.1843 146.425 35.6513 146.656 36.0494C146.73 36.1753 146.823 36.2643 146.916 36.3976L148.027 37.8796C148.062 37.9196 148.105 37.9517 148.153 37.9737C148.201 37.9957 148.254 38.0071 148.307 38.0071C148.36 38.0071 148.412 37.9957 148.461 37.9737C148.509 37.9517 148.552 37.9196 148.587 37.8796L149.698 36.4162C149.799 36.2983 149.893 36.1746 149.98 36.0457C150.158 35.7517 150.256 35.4154 150.261 35.0713ZM148.327 35.916C148.159 35.9167 147.993 35.8674 147.853 35.7742C147.712 35.681 147.602 35.5482 147.537 35.3926C147.472 35.2369 147.455 35.0655 147.487 34.9C147.52 34.7344 147.601 34.5822 147.72 34.4627C147.839 34.3432 147.99 34.2616 148.156 34.2285C148.321 34.1953 148.493 34.2119 148.649 34.2763C148.805 34.3407 148.938 34.4499 149.032 34.5901C149.126 34.7303 149.176 34.8952 149.176 35.0639C149.176 35.2893 149.086 35.5054 148.927 35.6651C148.768 35.8248 148.553 35.915 148.327 35.916Z" fill="#E0E0E0"/>
<path d="M168.281 36.4537C168.281 36.5056 164.646 36.5501 160.16 36.5501C155.673 36.5501 152.039 36.5056 152.039 36.4537C152.039 36.4019 155.673 36.3574 160.16 36.3574C164.646 36.3574 168.281 36.4019 168.281 36.4537Z" fill="#E0E0E0"/>
<path d="M163.109 38.2016C163.109 38.2535 160.63 38.2979 157.574 38.2979C154.518 38.2979 152.039 38.2535 152.039 38.2016C152.039 38.1497 154.518 38.1016 157.574 38.1016C160.63 38.1016 163.109 38.146 163.109 38.2016Z" fill="#E0E0E0"/>
<path d="M153.04 32.4258L153.41 33.1779L154.24 33.3001L153.64 33.8855L153.781 34.7116L153.04 34.3189L152.295 34.7116L152.44 33.8855L151.836 33.3001L152.666 33.1779L153.04 32.4258Z" fill="#E0E0E0"/>
<path d="M156.552 32.4258L156.922 33.1779L157.752 33.3001L157.152 33.8855L157.293 34.7116L156.552 34.3189L155.807 34.7116L155.952 33.8855L155.352 33.3001L156.181 33.1779L156.552 32.4258Z" fill="#E0E0E0"/>
<path d="M160.06 32.4258L160.43 33.1779L161.26 33.3001L160.66 33.8855L160.801 34.7116L160.06 34.3189L159.315 34.7116L159.46 33.8855L158.859 33.3001L159.689 33.1779L160.06 32.4258Z" fill="#E0E0E0"/>
<path d="M163.568 32.4258L163.938 33.1779L164.768 33.3001L164.168 33.8855L164.308 34.7116L163.568 34.3189L162.827 34.7116L162.967 33.8855L162.367 33.3001L163.197 33.1779L163.568 32.4258Z" fill="#EBEBEB"/>
<path d="M167.083 32.4258L167.454 33.1779L168.284 33.3001L167.683 33.8855L167.824 34.7116L167.083 34.3189L166.342 34.7116L166.483 33.8855L165.883 33.3001L166.713 33.1779L167.083 32.4258Z" fill="#EBEBEB"/>
<path d="M51.8262 1.93164H9.40625V22.0894H26.6521L33.1058 28.5395L39.5559 22.0894H51.8262V1.93164Z" fill="#F5F5F5"/>
<path d="M19.5713 10.9983C19.5721 10.5356 19.4663 10.079 19.2619 9.66388C19.0575 9.24879 18.7602 8.88644 18.393 8.60499C18.0257 8.32354 17.5986 8.13059 17.1446 8.04114C16.6907 7.95168 16.2222 7.96814 15.7757 8.08923C15.3291 8.21031 14.9165 8.43277 14.57 8.73929C14.2234 9.04581 13.9522 9.42814 13.7775 9.85655C13.6027 10.285 13.5292 10.7479 13.5625 11.2094C13.5958 11.6708 13.7351 12.1184 13.9696 12.5172C14.0845 12.7136 14.229 12.8507 14.3771 13.0544L16.1221 15.3699C16.1725 15.4374 16.2379 15.4922 16.3131 15.5299C16.3884 15.5676 16.4714 15.5873 16.5556 15.5873C16.6397 15.5873 16.7228 15.5676 16.798 15.5299C16.8733 15.4922 16.9387 15.4374 16.989 15.3699L18.7155 13.1137C18.8709 12.9273 19.0168 12.7332 19.1526 12.5321C19.4293 12.0685 19.574 11.5381 19.5713 10.9983ZM16.563 12.3061C16.3014 12.3061 16.0457 12.2285 15.8282 12.0832C15.6107 11.9378 15.4411 11.7313 15.341 11.4896C15.2409 11.2479 15.2147 10.982 15.2658 10.7254C15.3168 10.4689 15.4428 10.2332 15.6277 10.0482C15.8127 9.86325 16.0484 9.73729 16.3049 9.68625C16.5615 9.63522 16.8274 9.66141 17.0691 9.76152C17.3108 9.86162 17.5174 10.0311 17.6627 10.2486C17.808 10.4662 17.8856 10.7219 17.8856 10.9835C17.8856 11.3342 17.7462 11.6706 17.4982 11.9187C17.2502 12.1667 16.9138 12.3061 16.563 12.3061Z" fill="#E0E0E0"/>
<path d="M47.5994 13.1471C47.5994 13.199 41.9458 13.2434 34.9734 13.2434C28.001 13.2434 22.3438 13.199 22.3438 13.1471C22.3438 13.0952 27.9973 13.0508 34.9734 13.0508C41.9495 13.0508 47.5994 13.1138 47.5994 13.1471Z" fill="#E0E0E0"/>
<path d="M39.5599 15.86C39.5599 15.9156 35.707 15.9563 30.9537 15.9563C26.2004 15.9563 22.3438 15.9156 22.3438 15.86C22.3438 15.8044 26.1967 15.7637 30.9537 15.7637C35.7107 15.7637 39.5599 15.8081 39.5599 15.86Z" fill="#E0E0E0"/>
<path d="M23.8907 6.88086L24.4649 8.05158L25.7542 8.23682L24.8206 9.1482L25.0428 10.4338L23.8907 9.82617L22.7348 10.4338L22.957 9.1482L22.0234 8.23682L23.3127 8.05158L23.8907 6.88086Z" fill="#E0E0E0"/>
<path d="M29.3516 6.88086L29.9258 8.05158L31.2188 8.23682L30.2852 9.1482L30.5038 10.4338L29.3516 9.82617L28.1957 10.4338L28.418 9.1482L27.4844 8.23682L28.7736 8.05158L29.3516 6.88086Z" fill="#E0E0E0"/>
<path d="M34.8047 6.88086L35.3827 8.05158L36.6719 8.23682L35.7383 9.1482L35.9569 10.4338L34.8047 9.82617L33.6525 10.4338L33.8711 9.1482L32.9375 8.23682L34.2268 8.05158L34.8047 6.88086Z" fill="#E0E0E0"/>
<path d="M40.2657 6.88086L40.8436 8.05158L42.1329 8.23682L41.1993 9.1482L41.4216 10.4338L40.2657 9.82617L39.1135 10.4338L39.332 9.1482L38.3984 8.23682L39.6914 8.05158L40.2657 6.88086Z" fill="#EBEBEB"/>
<path d="M45.7344 6.88086L46.3086 8.05158L47.5979 8.23682L46.668 9.1482L46.8866 10.4338L45.7344 9.82617L44.5785 10.4338L44.8008 9.1482L43.8672 8.23682L45.1565 8.05158L45.7344 6.88086Z" fill="#EBEBEB"/>
<path d="M149.552 51.2461C149.775 49.6234 147.489 48.2823 145.773 48.1526C144.955 48.0896 144.103 48.2119 143.324 47.9414C141.646 47.3561 140.972 45.185 139.331 44.4922C138.104 43.9736 136.693 44.4367 135.504 45.0332C134.314 45.6296 133.14 46.3854 131.799 46.4706C130.643 46.5447 129.391 46.1001 128.379 46.6818C127.638 47.1004 127.231 47.9711 126.527 48.4823C125.823 48.9936 124.964 49.0899 124.119 49.1344C123.274 49.1788 122.403 49.1899 121.637 49.5419C120.87 49.8938 120.232 50.7052 120.392 51.5314L149.552 51.2461Z" fill="#F5F5F5"/>
<path d="M33.1617 67.2724C33.3877 65.6534 31.1019 64.3086 29.3829 64.1826C28.5641 64.1159 27.712 64.2419 26.9377 63.9714C25.2557 63.3861 24.5814 61.2114 22.9439 60.5223C21.7139 60.0036 20.3024 60.463 19.1132 61.0632C17.9239 61.6633 16.7495 62.4154 15.4084 62.5006C14.2562 62.5747 13.0002 62.1301 11.9888 62.7081C11.2479 63.1304 10.8403 63.9974 10.1364 64.5086C9.43252 65.0199 8.5693 65.1162 7.72461 65.1644C6.87991 65.2125 6.00929 65.2162 5.24239 65.5682C4.4755 65.9202 3.84198 66.7315 4.00128 67.5614L33.1617 67.2724Z" fill="#F5F5F5"/>
<path d="M21.436 50.2068C21.599 49.0175 19.917 48.0357 18.6574 47.9357C18.0535 47.8876 17.4274 47.9802 16.8569 47.7801C15.6232 47.3504 15.1304 45.7536 13.9227 45.2423C13.0224 44.8718 11.985 45.2016 11.1107 45.6424C10.2364 46.0833 9.37316 46.6353 8.39509 46.6983C7.5467 46.7539 6.6242 46.439 5.87954 46.8539C5.32752 47.1614 5.03855 47.7986 4.52729 48.1765C3.99522 48.5028 3.38037 48.6687 2.75639 48.6544C2.13535 48.6391 1.51698 48.7409 0.933632 48.9545C0.366798 49.2139 -0.100007 49.8103 0.0185468 50.4179L21.436 50.2068Z" fill="#EBEBEB"/>
<path d="M159.847 6.9216C160.013 5.73236 158.331 4.75059 157.068 4.65056C156.468 4.6024 155.842 4.69502 155.271 4.49496C154.038 4.0652 153.541 2.46843 152.337 1.95717C151.433 1.58669 150.396 1.91642 149.521 2.35729C148.647 2.79816 147.784 3.35018 146.81 3.41316C145.961 3.46873 145.039 3.15382 144.294 3.56876C143.742 3.87626 143.449 4.51348 142.942 4.89137C142.412 5.21627 141.8 5.38215 141.178 5.36929C140.556 5.35429 139.937 5.45607 139.352 5.66938C138.789 5.92872 138.322 6.52519 138.44 7.1513L159.847 6.9216Z" fill="#EBEBEB"/>
<path d="M156.839 65.4688H126.008V163.183H156.839V65.4688Z" fill="#F5F5F5"/>
<path d="M156.845 65.4688H141.43V162.916H156.845V65.4688Z" fill="#EBEBEB"/>
<path d="M140.42 55.877H129.531V65.4687H140.42V55.877Z" fill="#F5F5F5"/>
<path d="M140.421 55.877H137.828V65.4687H140.421V55.877Z" fill="#EBEBEB"/>
<path d="M123.445 65.4696V64.9102H157.748V65.4696" fill="#E0E0E0"/>
<path d="M134.71 69.6523H132.102V75.154H134.71V69.6523Z" fill="#FAFAFA"/>
<path d="M141.427 77.3164C141.427 77.372 137.974 77.4202 133.717 77.4202C129.461 77.4202 126.008 77.372 126.008 77.3164C126.008 77.2609 129.461 77.209 133.717 77.209C137.974 77.209 141.427 77.2571 141.427 77.3164Z" fill="#E0E0E0"/>
<path d="M150.257 69.6523H147.648V75.154H150.257V69.6523Z" fill="#E0E0E0"/>
<path d="M156.978 77.3164C156.978 77.372 153.525 77.4202 149.268 77.4202C145.012 77.4202 141.562 77.372 141.562 77.3164C141.562 77.2609 145.012 77.209 149.268 77.209C153.525 77.209 156.978 77.2571 156.978 77.3164Z" fill="#E0E0E0"/>
<path d="M150.257 80.5781H147.648V86.0798H150.257V80.5781Z" fill="#E0E0E0"/>
<path d="M156.978 88.2422C156.978 88.2978 153.525 88.3459 149.268 88.3459C145.012 88.3459 141.562 88.2978 141.562 88.2422C141.562 88.1866 145.012 88.1348 149.268 88.1348C153.525 88.1348 156.978 88.1829 156.978 88.2422Z" fill="#E0E0E0"/>
<path d="M150.257 91.832H147.648V97.3336H150.257V91.832Z" fill="#E0E0E0"/>
<path d="M156.978 99.4981C156.978 99.5536 153.525 99.6018 149.268 99.6018C145.012 99.6018 141.562 99.5536 141.562 99.4981C141.562 99.4425 145.012 99.3906 149.268 99.3906C153.525 99.3906 156.978 99.4351 156.978 99.4981Z" fill="#E0E0E0"/>
<path d="M150.257 103.092H147.648V108.593H150.257V103.092Z" fill="#E0E0E0"/>
<path d="M156.978 110.752C156.978 110.811 153.525 110.856 149.268 110.856C145.012 110.856 141.562 110.811 141.562 110.752C141.562 110.693 145.012 110.648 149.268 110.648C153.525 110.648 156.978 110.693 156.978 110.752Z" fill="#E0E0E0"/>
<path d="M150.257 114.025H147.648V119.527H150.257V114.025Z" fill="#E0E0E0"/>
<path d="M156.978 121.686C156.978 121.745 153.525 121.789 149.268 121.789C145.012 121.789 141.562 121.745 141.562 121.686C141.562 121.626 145.012 121.582 149.268 121.582C153.525 121.582 156.978 121.626 156.978 121.686Z" fill="#E0E0E0"/>
<path d="M150.257 125.002H147.648V130.504H150.257V125.002Z" fill="#E0E0E0"/>
<path d="M150.257 136.123H147.648V141.625H150.257V136.123Z" fill="#E0E0E0"/>
<path d="M156.978 132.662C156.978 132.722 153.525 132.77 149.268 132.77C145.012 132.77 141.562 132.722 141.562 132.662C141.562 132.603 145.012 132.559 149.268 132.559C153.525 132.559 156.978 132.603 156.978 132.662Z" fill="#E0E0E0"/>
<path d="M134.71 80.7441H132.102V86.2458H134.71V80.7441Z" fill="#FAFAFA"/>
<path d="M141.427 88.4082C141.427 88.4638 137.974 88.5119 133.717 88.5119C129.461 88.5119 126.008 88.4638 126.008 88.4082C126.008 88.3526 129.461 88.3008 133.717 88.3008C137.974 88.3008 141.427 88.3489 141.427 88.4082Z" fill="#E0E0E0"/>
<path d="M134.71 91.8359H132.102V97.3376H134.71V91.8359Z" fill="#FAFAFA"/>
<path d="M141.427 99.5C141.427 99.5593 137.974 99.6037 133.717 99.6037C129.461 99.6037 126.008 99.5593 126.008 99.5C126.008 99.4407 129.461 99.3926 133.717 99.3926C137.974 99.3926 141.427 99.4333 141.427 99.5Z" fill="#E0E0E0"/>
<path d="M134.71 102.934H132.102V108.435H134.71V102.934Z" fill="#FAFAFA"/>
<path d="M141.427 110.594C141.427 110.653 137.974 110.698 133.717 110.698C129.461 110.698 126.008 110.653 126.008 110.594C126.008 110.535 129.461 110.49 133.717 110.49C137.974 110.49 141.427 110.55 141.427 110.594Z" fill="#E0E0E0"/>
<path d="M134.71 114.025H132.102V119.527H134.71V114.025Z" fill="#FAFAFA"/>
<path d="M141.427 121.686C141.427 121.745 137.974 121.789 133.717 121.789C129.461 121.789 126.008 121.745 126.008 121.686C126.008 121.626 129.461 121.582 133.717 121.582C137.974 121.582 141.427 121.626 141.427 121.686Z" fill="#E0E0E0"/>
<path d="M134.71 125.117H132.102V130.619H134.71V125.117Z" fill="#FAFAFA"/>
<path d="M141.427 132.778C141.427 132.837 137.974 132.885 133.717 132.885C129.461 132.885 126.008 132.837 126.008 132.778C126.008 132.718 129.461 132.674 133.717 132.674C137.974 132.674 141.427 132.718 141.427 132.778Z" fill="#E0E0E0"/>
<path d="M134.71 136.209H132.102V141.711H134.71V136.209Z" fill="#FAFAFA"/>
<path d="M60.5299 163.265H15.161L14.9609 91.5625H60.3336L60.5299 163.265Z" fill="#EBEBEB"/>
<path d="M60.3329 91.5586H37.6484V163.265H60.3329V91.5586Z" fill="#E0E0E0"/>
<path d="M36.1639 77.4434H20.1406V91.5586H36.1639V77.4434Z" fill="#EBEBEB"/>
<path d="M36.1634 77.4434H32.3438V91.5586H36.1634V77.4434Z" fill="#E0E0E0"/>
<path d="M61.6576 90.7363H11.1797V91.5588H61.6576V90.7363Z" fill="#E0E0E0"/>
<path d="M27.7559 97.7148H23.9141V105.814H27.7559V97.7148Z" fill="white"/>
<path d="M37.6454 108.993C37.6454 109.079 32.5661 109.149 26.3013 109.149C20.0365 109.149 14.9609 109.079 14.9609 108.993C14.9609 108.908 20.0365 108.838 26.3013 108.838C32.5661 108.838 37.6454 108.908 37.6454 108.993Z" fill="#E0E0E0"/>
<path d="M50.6387 97.7148H46.7969V105.814H50.6387V97.7148Z" fill="#F5F5F5"/>
<path d="M60.5282 108.993C60.5282 109.079 55.4489 109.149 49.1878 109.149C42.9267 109.149 37.8438 109.079 37.8438 108.993C37.8438 108.908 42.923 108.838 49.1878 108.838C55.4527 108.838 60.5282 108.908 60.5282 108.993Z" fill="#EBEBEB"/>
<path d="M50.6387 113.795H46.7969V121.894H50.6387V113.795Z" fill="#F5F5F5"/>
<path d="M60.5282 125.072C60.5282 125.157 55.4489 125.224 49.1878 125.224C42.9267 125.224 37.8438 125.157 37.8438 125.072C37.8438 124.986 42.923 124.916 49.1878 124.916C55.4527 124.916 60.5282 124.998 60.5282 125.072Z" fill="#EBEBEB"/>
<path d="M50.6387 130.359H46.7969V138.458H50.6387V130.359Z" fill="#F5F5F5"/>
<path d="M27.7559 114.039H23.9141V122.138H27.7559V114.039Z" fill="white"/>
<path d="M37.6454 125.316C37.6454 125.401 32.5661 125.471 26.3013 125.471C20.0365 125.471 14.9609 125.401 14.9609 125.316C14.9609 125.231 20.0365 125.16 26.3013 125.16C32.5661 125.16 37.6454 125.231 37.6454 125.316Z" fill="#E0E0E0"/>
<path d="M27.7559 130.361H23.9141V138.46H27.7559V130.361Z" fill="white"/>
<path d="M145.739 155.592C146.02 154.48 145.305 153.395 144.497 152.602C143.69 151.809 142.73 151.094 142.312 150.046C141.634 148.342 142.545 146.137 141.389 144.718C140.707 143.881 139.485 143.607 138.881 142.71C138.604 142.217 138.419 141.677 138.336 141.117C137.695 138.287 136.304 135.682 134.309 133.574C134.174 136.095 134.719 138.605 135.887 140.843C136.358 141.736 136.932 142.607 137.088 143.603C137.34 145.222 136.44 146.886 136.836 148.475C137.292 150.294 139.333 151.509 139.429 153.38C139.511 154.962 138.133 156.344 138.233 157.93C138.319 158.609 138.567 159.258 138.955 159.823C140.178 161.857 141.974 163.257 144.697 163.209L148.032 163.327L145.739 155.592Z" fill="#FF725E"/>
<g opacity="0.3">
<path d="M145.739 155.592C146.02 154.48 145.305 153.395 144.497 152.602C143.69 151.809 142.73 151.094 142.312 150.046C141.634 148.342 142.545 146.137 141.389 144.718C140.707 143.881 139.485 143.607 138.881 142.71C138.604 142.217 138.419 141.677 138.336 141.117C137.695 138.287 136.304 135.682 134.309 133.574C134.174 136.095 134.719 138.605 135.887 140.843C136.358 141.736 136.932 142.607 137.088 143.603C137.34 145.222 136.44 146.886 136.836 148.475C137.292 150.294 139.333 151.509 139.429 153.38C139.511 154.962 138.133 156.344 138.233 157.93C138.319 158.609 138.567 159.258 138.955 159.823C140.178 161.857 141.974 163.257 144.697 163.209L148.032 163.327L145.739 155.592Z" fill="black"/>
</g>
<path d="M148.623 163.329C148.929 163.376 149.24 163.368 149.542 163.307C149.911 163.252 150.273 163.162 150.624 163.037C151.108 162.865 151.56 162.615 151.961 162.296C152.204 162.098 152.394 161.844 152.513 161.555C152.612 161.234 152.662 160.901 152.662 160.565C152.668 160.205 152.694 159.845 152.739 159.487C152.806 159.107 152.944 158.742 153.147 158.413C153.54 157.724 154.195 157.068 154.407 156.131C154.618 155.194 154.47 154.212 154.314 153.208C154.158 152.204 154.01 151.118 154.392 150.077C154.773 149.036 155.481 148.091 155.848 146.917C156.215 145.743 156.04 144.45 156.118 143.19C156.14 142.55 156.287 141.921 156.552 141.338C156.822 140.745 157.196 140.189 157.489 139.567C158.082 138.311 158.186 136.888 158.349 135.491C158.426 134.787 158.504 134.08 158.586 133.361C158.637 132.639 158.761 131.924 158.956 131.227C159.183 130.524 159.45 129.835 159.756 129.164C159.909 128.815 160.033 128.454 160.127 128.085C160.184 127.706 160.22 127.324 160.234 126.941C160.271 126.17 160.242 125.398 160.145 124.633C160.056 123.862 159.916 123.099 159.834 122.328C159.834 122.284 159.834 122.236 159.834 122.195L159.816 122.043L159.679 122.11C158.973 122.471 158.359 122.989 157.885 123.625C157.419 124.246 157.045 124.931 156.774 125.659C156.218 127.089 156.033 128.593 155.737 130.023C155.526 131.439 155.062 132.806 154.366 134.058C153.995 134.65 153.558 135.195 153.169 135.773C152.757 136.338 152.475 136.987 152.343 137.674C152.147 139.085 152.925 140.322 152.762 141.571C152.685 142.184 152.478 142.774 152.154 143.301C151.85 143.835 151.495 144.331 151.158 144.827C150.813 145.312 150.513 145.827 150.261 146.365C150.026 146.893 149.888 147.459 149.853 148.036C149.772 149.147 149.931 150.229 149.853 151.233C149.761 152.192 149.48 153.124 149.027 153.975C148.627 154.797 148.175 155.538 147.801 156.257C147.615 156.602 147.447 156.957 147.297 157.32C147.161 157.66 147.063 158.014 147.004 158.376C146.904 159.005 146.895 159.645 146.979 160.276C147.065 161.158 147.395 161.998 147.931 162.703C148.013 162.808 148.103 162.906 148.201 162.996C148.268 163.066 148.341 163.129 148.42 163.185L148.612 163.318C148.375 163.127 148.157 162.913 147.964 162.677C147.449 161.97 147.137 161.136 147.06 160.265C146.985 159.642 147 159.01 147.104 158.391C147.167 158.038 147.265 157.693 147.397 157.361C147.542 157.016 147.716 156.668 147.908 156.312C148.279 155.601 148.738 154.86 149.15 154.034C149.615 153.171 149.905 152.224 150.002 151.248C150.091 150.218 149.935 149.147 150.002 148.051C150.037 147.492 150.174 146.945 150.405 146.435C150.652 145.907 150.947 145.402 151.287 144.928C151.624 144.431 151.987 143.938 152.299 143.394C152.636 142.846 152.852 142.232 152.932 141.593C153.095 140.259 152.325 139 152.525 137.703C152.653 137.045 152.927 136.424 153.325 135.884C153.695 135.317 154.147 134.773 154.525 134.165C155.236 132.894 155.711 131.504 155.926 130.064C156.211 128.623 156.411 127.137 156.959 125.733C157.221 125.026 157.583 124.359 158.034 123.755C158.486 123.144 159.075 122.647 159.753 122.302L159.597 122.217C159.597 122.258 159.597 122.306 159.597 122.35C159.682 123.132 159.823 123.895 159.912 124.659C160.004 125.412 160.034 126.171 160.001 126.93C159.986 127.302 159.951 127.673 159.897 128.041C159.803 128.398 159.679 128.746 159.527 129.082C159.217 129.761 158.948 130.457 158.723 131.168C158.522 131.875 158.398 132.602 158.352 133.335C158.271 134.054 158.192 134.765 158.115 135.469C157.956 136.87 157.852 138.27 157.282 139.485C157 140.089 156.626 140.645 156.348 141.256C156.076 141.861 155.924 142.513 155.9 143.175C155.829 144.461 155.996 145.72 155.648 146.88C155.299 148.04 154.573 148.958 154.207 150.036C153.84 151.115 153.977 152.259 154.136 153.245C154.295 154.23 154.458 155.227 154.244 156.116C154.029 157.005 153.417 157.657 153.014 158.369C152.807 158.709 152.667 159.087 152.602 159.48C152.558 159.843 152.534 160.208 152.532 160.573C152.532 160.901 152.483 161.226 152.388 161.54C152.276 161.813 152.099 162.055 151.873 162.244C151.48 162.561 151.038 162.811 150.565 162.985C150.219 163.115 149.862 163.213 149.498 163.277C149.274 163.316 149.047 163.337 148.82 163.34L148.623 163.329Z" fill="#263238"/>
<path d="M159.159 124.043C159.159 124.043 159.159 124.076 159.125 124.143L159.051 124.443C158.988 124.706 158.907 125.103 158.781 125.599C158.655 126.095 158.347 126.651 158.092 127.34C157.786 128.114 157.522 128.903 157.299 129.704C157.043 130.593 156.817 131.582 156.584 132.638C156.381 133.768 156.021 134.865 155.513 135.895C155.243 136.439 154.935 136.988 154.691 137.584C154.451 138.2 154.289 138.843 154.209 139.499C154.04 140.852 153.8 142.195 153.49 143.523C152.824 146.257 152.186 148.858 151.605 151.229C151.023 153.6 150.493 155.719 150.026 157.527C149.56 159.335 149.23 160.75 148.978 161.769C148.859 162.258 148.771 162.643 148.704 162.925C148.679 163.048 148.657 163.148 148.637 163.225C148.631 163.26 148.631 163.297 148.637 163.332C148.653 163.3 148.665 163.267 148.674 163.232C148.696 163.151 148.726 163.054 148.759 162.936C148.837 162.658 148.941 162.273 149.074 161.787L150.186 157.564L151.797 151.303L153.698 143.597C154.012 142.26 154.252 140.907 154.417 139.544C154.494 138.91 154.649 138.287 154.88 137.691C155.113 137.106 155.417 136.561 155.691 136.013C156.198 134.967 156.556 133.854 156.754 132.708C156.984 131.645 157.199 130.663 157.443 129.774C157.688 128.885 157.944 128.096 158.184 127.411C158.425 126.725 158.722 126.158 158.844 125.647C158.966 125.136 159.025 124.751 159.077 124.48C159.096 124.358 159.114 124.258 159.129 124.176C159.147 124.134 159.157 124.089 159.159 124.043Z" fill="#263238"/>
<path d="M147.428 163.113C149.774 162.15 150.948 158.449 150.392 155.978C149.837 153.507 148.577 151.136 148.699 148.605C148.795 146.66 149.714 144.782 149.54 142.841C149.31 140.225 147.128 137.902 147.54 135.305C147.769 133.849 148.799 132.597 148.947 131.13C149.129 129.329 147.966 127.71 147.347 126.01C146.398 123.417 146.732 120.545 146.684 117.774C146.636 115.003 146.032 111.961 143.831 110.279C143.138 112.524 142.305 114.006 142.038 117.144C141.942 118.256 142.923 120.597 142.742 123.072C142.634 124.554 142.49 126.036 142.371 127.518C142.253 129 142.131 130.419 142.445 131.826C142.686 132.904 143.186 133.923 143.316 135.02C143.572 137.084 142.538 139.129 142.683 141.203C142.809 142.959 143.772 144.597 143.757 146.36C143.738 148.835 141.801 151.125 142.275 153.559C142.505 154.763 143.312 155.826 143.409 157.049C143.479 158.001 143.112 158.942 143.164 159.894C143.249 161.424 145.917 162.999 147.447 163.128" fill="#FF725E"/>
<path d="M144.089 112.646C144.085 112.69 144.085 112.733 144.089 112.776C144.089 112.872 144.089 113.002 144.089 113.147C144.089 113.484 144.089 113.98 144.089 114.629C144.089 115.277 144.341 116.04 144.46 116.937C144.579 117.833 144.738 118.863 144.83 120.004C144.923 121.145 144.942 122.401 144.964 123.75C144.986 125.098 145.012 126.565 145.464 128.033C145.664 128.773 145.901 129.514 146.049 130.278C146.187 131.069 146.225 131.874 146.16 132.675C146.034 134.376 145.999 136.082 146.057 137.787C146.216 141.285 146.372 144.615 146.509 147.649C146.646 150.684 146.838 153.399 146.968 155.693L147.294 161.116C147.339 161.746 147.372 162.228 147.394 162.598C147.394 162.758 147.416 162.884 147.428 162.969C147.424 163.012 147.424 163.055 147.428 163.098C147.433 163.055 147.433 163.012 147.428 162.969C147.428 162.869 147.428 162.743 147.428 162.598C147.428 162.246 147.394 161.754 147.368 161.116C147.305 159.82 147.216 157.971 147.109 155.689C147.001 153.407 146.85 150.669 146.698 147.642C146.546 144.615 146.416 141.281 146.261 137.784C146.202 136.085 146.235 134.384 146.361 132.689C146.423 131.872 146.381 131.051 146.238 130.244C146.086 129.455 145.846 128.714 145.642 127.984C145.19 126.539 145.171 125.095 145.131 123.75C145.09 122.405 145.064 121.156 144.971 119.997C144.879 118.837 144.742 117.818 144.582 116.922C144.423 116.025 144.212 115.262 144.164 114.625C144.115 113.988 144.134 113.487 144.119 113.143C144.119 112.984 144.119 112.854 144.119 112.772C144.114 112.73 144.104 112.687 144.089 112.646Z" fill="#263238"/>
<path d="M124.18 163.113L70.3827 163.084C67.2755 163.082 64.2963 161.846 62.1002 159.647C59.904 157.449 58.6709 154.469 58.6719 151.362L58.6978 16.5069C58.6964 14.967 58.9985 13.4419 59.587 12.0188C60.1756 10.5958 61.0389 9.30275 62.1276 8.21368C63.2163 7.12461 64.5091 6.26088 65.932 5.67191C67.3548 5.08293 68.8799 4.78028 70.4198 4.78125L124.217 4.81089C127.324 4.81286 130.304 6.04883 132.5 8.24702C134.696 10.4452 135.929 13.4256 135.928 16.5329L135.902 151.388C135.903 152.927 135.6 154.452 135.011 155.874C134.422 157.297 133.559 158.59 132.47 159.679C131.382 160.767 130.089 161.631 128.667 162.221C127.244 162.81 125.72 163.113 124.18 163.113Z" fill="#455A64"/>
<path d="M124.551 8.81767L114.085 8.76951C113.744 8.77577 113.408 8.8492 113.095 8.98558C112.783 9.12196 112.5 9.31863 112.264 9.56432C112.027 9.81002 111.842 10.0999 111.717 10.4174C111.593 10.7349 111.533 11.0738 111.54 11.4147V13.3153C111.546 13.6568 111.486 13.9963 111.361 14.3143C111.236 14.6323 111.05 14.9225 110.813 15.1683C110.576 15.4141 110.292 15.6106 109.979 15.7466C109.666 15.8825 109.328 15.9552 108.987 15.9605L88.5698 15.8642C88.2282 15.856 87.8916 15.7805 87.5794 15.6418C87.2671 15.5032 86.9853 15.3042 86.7502 15.0564C86.5151 14.8085 86.3312 14.5166 86.2092 14.1975C86.0873 13.8783 86.0295 13.5383 86.0394 13.1967V11.2962C86.0493 10.9547 85.9915 10.6146 85.8696 10.2954C85.7476 9.9763 85.5637 9.68442 85.3286 9.43655C85.0935 9.18868 84.8117 8.98971 84.4994 8.85108C84.1872 8.71245 83.8506 8.63688 83.509 8.62873H79.8302L70.6682 8.58797C69.5863 8.5831 68.5141 8.79142 67.5128 9.20104C66.5115 9.61066 65.6007 10.2135 64.8324 10.9753C64.0642 11.737 63.4535 12.6426 63.0354 13.6404C62.6172 14.6382 62.3997 15.7085 62.3954 16.7904L61.836 148.889C61.832 151.071 62.6944 153.166 64.2337 154.713C65.7731 156.26 67.8635 157.132 70.0458 157.139L123.921 157.387C125.003 157.393 126.075 157.185 127.076 156.776C128.077 156.367 128.988 155.764 129.756 155.003C130.525 154.241 131.135 153.336 131.554 152.338C131.972 151.341 132.189 150.27 132.194 149.189L132.753 17.0868C132.758 16.0052 132.549 14.9334 132.139 13.9325C131.729 12.9317 131.126 12.0213 130.365 11.2534C129.603 10.4856 128.697 9.87525 127.7 9.45732C126.702 9.0394 125.632 8.82204 124.551 8.81767Z" fill="#F5F5F5"/>
<path d="M101.686 132.426C101.623 134.023 101.564 135.52 101.516 136.761H109.255L108.307 132.008L101.686 132.426Z" fill="#F5F5F5"/>
<path d="M70.2344 134.414L70.3011 136.759H100.743C100.795 135.444 100.855 133.981 100.91 132.477L70.2344 134.414Z" fill="#F5F5F5"/>
<path d="M108.703 131.985L109.655 136.761H123.922L123.752 131.033L108.703 131.985Z" fill="#F5F5F5"/>
<path d="M102.462 65.1875L105.159 49.5458L98.0938 49.0234V65.1875H102.462Z" fill="#EBEBEB"/>
<path d="M69.5974 125.736L61.9285 128.741L61.9062 134.172L69.8271 133.668L69.5974 125.736Z" fill="#F5F5F5"/>
<path d="M69.5657 124.512L69.147 109.945H69.1396V104.807L62.0301 105.559L61.9375 127.491L69.562 124.505L69.5657 124.512Z" fill="#EBEBEB"/>
<path d="M69.1449 93.3362L62.0909 92.4062L62.0391 104.395L69.1449 103.643V93.3362Z" fill="#F5F5F5"/>
<path d="M121.722 105.022L121.426 109.197L113.094 110.097L113.738 113.398L123.197 112.687L123.056 107.949L123.812 104.811L121.722 105.022Z" fill="#F5F5F5"/>
<path d="M106.705 113.931L113.348 113.427L111.903 106.014L106.102 106.599L106.705 113.931Z" fill="#F5F5F5"/>
<path d="M106.773 114.698L107.281 120.882L108.181 129.362L108.552 131.218L123.73 130.259L123.223 113.461L106.773 114.698Z" fill="#EBEBEB"/>
<path d="M80.6433 85.5071L81.2286 86.5074L69.5215 93.3354V109.529L81.877 108.655L105.684 106.25L104.813 95.636L82.0659 92.6722L82.2178 91.5237L104.717 94.4616L103.235 76.4971L80.9693 78.6384L80.8952 77.8715L103.176 75.7227L102.409 66.3496H80.9878L62.1786 69.7728L62.0859 91.2384L69.2103 92.1795L80.6433 85.5071ZM70.7218 107.984C70.7218 107.984 70.8107 94.6283 70.7218 94.1319L80.2728 89.06L81.5287 107.302L70.7218 107.984Z" fill="#F5F5F5"/>
<path d="M120.943 105.102L112.289 105.972L112.945 109.336L120.703 108.499L120.943 105.102Z" fill="#F5F5F5"/>
<path d="M101.797 129.564C101.771 130.265 101.745 130.965 101.719 131.65L108.158 131.243L107.828 129.583L101.797 129.564Z" fill="#F5F5F5"/>
<path d="M87.9284 65.1884L89.0621 60.0461H97.7091V48.9947L70.6715 46.9941V57.3676L62.2246 59.2793L62.1875 68.5931L80.8893 65.1884H87.9284Z" fill="#EBEBEB"/>
<path d="M105.984 34.4451L105.754 33.4966L116.079 29.4214L109.344 15.9322C109.221 15.9496 109.097 15.9595 108.973 15.9618L97.5625 15.9062L97.8737 34.7748L105.984 34.4451Z" fill="#F5F5F5"/>
<path d="M121.614 27.212V8.80287L114.101 8.76953C113.759 8.77386 113.421 8.84586 113.107 8.98139C112.793 9.11691 112.508 9.31327 112.27 9.55916C112.032 9.80505 111.845 10.0956 111.72 10.4141C111.595 10.7325 111.534 11.0726 111.541 11.4148V13.3153C111.541 13.7404 111.441 14.1595 111.247 14.5382C111.054 14.9168 110.774 15.2443 110.43 15.4937L117.15 28.9829L121.614 27.212Z" fill="#EBEBEB"/>
<path d="M82.7996 28.0028L81.929 8.62299H79.8395L71.6889 8.58594L68.1953 25.9059L82.7996 28.0028ZM80.9472 10.5902L81.2251 26.3727L70.37 24.787L72.7485 10.5902H80.9472Z" fill="#F5F5F5"/>
<path d="M83.1979 28.0606V28.2236C83.1979 29.7351 83.2498 32.4582 83.272 35.3701L97.4911 34.7885L97.1799 15.894L88.5736 15.8644C88.2321 15.8562 87.8955 15.7807 87.5832 15.642C87.2709 15.5034 86.9892 15.3044 86.754 15.0566C86.5189 14.8087 86.335 14.5168 86.2131 14.1977C86.0911 13.8785 86.0334 13.5384 86.0432 13.1969V11.2964C86.0531 10.9548 85.9954 10.6148 85.8734 10.2956C85.7514 9.97648 85.5676 9.68459 85.3324 9.43672C85.0973 9.18885 84.8155 8.98989 84.5033 8.85126C84.191 8.71262 83.8544 8.63706 83.5129 8.62891H82.3125L83.1831 28.0643L83.1979 28.0606Z" fill="#F5F5F5"/>
<path d="M67.0463 25.7425L70.4918 8.57812C68.3404 8.61682 66.2895 9.496 64.778 11.0275C63.2666 12.5591 62.4145 14.6214 62.4042 16.7731L62.3672 25.3275L62.4042 25.0756L67.0463 25.7425Z" fill="#F5F5F5"/>
<path d="M69.5143 46.9063L62.2825 46.3691L62.2344 58.0874L69.5143 56.4425V46.9063Z" fill="#F5F5F5"/>
<path d="M66.9682 26.1204L62.3669 25.4609L62.2891 44.4369L63.2782 44.511L66.9682 26.1204Z" fill="#F5F5F5"/>
<path d="M81.5755 124.291L81.6978 109.057L69.5312 109.916L69.961 124.843L81.5755 124.291Z" fill="#F5F5F5"/>
<path d="M83.8185 120.772L101.05 129.027C101.257 123.633 101.439 118.59 101.42 118.283L101.791 118.261L101.972 117.89C102.22 118.012 102.22 118.012 102.091 121.691C102.02 123.744 101.916 126.474 101.813 129.205H107.774L106.896 120.921L105.725 106.639L83.2109 108.913L83.8185 120.772Z" fill="#F5F5F5"/>
<path d="M126.054 95.4904L125.857 93.4824L105.203 95.6312L106.074 106.216L123.905 104.415L126.054 95.4904Z" fill="#F5F5F5"/>
<path d="M97.7123 61.2051H89.9952L89.1172 65.1877H97.7123V61.2051Z" fill="#F5F5F5"/>
<path d="M122.867 62.5503L103.543 61.2129L102.758 65.7772L103.569 75.6838L123.946 73.724L122.867 62.5503ZM104.255 65.7698L105.292 62.8875L122.075 63.9507L123.03 72.1902L104.807 74.3538L104.255 65.7698Z" fill="#F5F5F5"/>
<path d="M124.865 83.256L124.016 74.4941L103.625 76.454L104.392 85.779L124.865 83.256Z" fill="#F5F5F5"/>
<path d="M69.8526 134.441L61.9429 134.941L61.9096 134.426L61.8984 136.76H69.9193L69.8526 134.441Z" fill="#F5F5F5"/>
<path d="M132.614 22.8652L132.729 23.1579L132.755 17.0894C132.763 14.9058 131.905 12.808 130.367 11.2574C128.83 9.70672 126.74 8.83012 124.556 8.82031H121.992V27.0739L132.614 22.8652Z" fill="#EBEBEB"/>
<path d="M101.03 129.444L83.4394 121.015L82.8207 108.941L82.0797 109.015L81.9538 124.65L69.9688 125.22V125.569L70.2022 133.63L100.933 131.685C100.97 130.955 101 130.185 101.03 129.444ZM70.7245 126.213L87.5036 125.035L98.4216 130.1L70.7245 131.581V126.213Z" fill="#F5F5F5"/>
<path d="M127.606 43.1209L128.325 38.853C122.026 36.6004 121.582 30.0244 121.6 28.0312L117.484 29.6614L123.683 42.1058L127.606 43.1209Z" fill="#F5F5F5"/>
<path d="M105.107 94.477L113.68 93.5841L111.99 86.0078L104.484 86.934L105.107 94.477Z" fill="#F5F5F5"/>
<path d="M123.607 50.561L107.591 50.5573L106.261 50.4609L104.453 60.9492L123.462 62.2644L123.022 57.7038L124.892 50.9685L123.607 50.561Z" fill="#F5F5F5"/>
<path d="M122.505 47.7458L122.705 42.7406L116.407 30.1035L106.648 33.9676L109.983 47.7458H122.505ZM116.033 31.6373L121.797 42.6109L120.967 46.0304L111.094 45.66L108.627 35.2865L116.033 31.6373Z" fill="#F5F5F5"/>
<path d="M124.992 108.149L125.285 117.985L132.224 117.592L132.246 117.977L125.3 118.37L125.652 130.136L132.213 129.722L132.261 130.492L125.674 130.911L125.852 136.761H132.242L132.383 103.947L125.844 104.607L124.992 108.149Z" fill="#F5F5F5"/>
<path d="M82.8096 28.3951L68.1127 26.2871L64.4375 44.6036L82.8726 45.9707C82.9467 43.1439 82.8837 34.4969 82.8096 28.3951Z" fill="#EBEBEB"/>
<path d="M106.982 47.7485H109.208L106.059 34.8262L97.8828 35.1596L98.0792 47.0853L106.982 47.7485Z" fill="#F5F5F5"/>
<path d="M83.2578 45.9901L97.7065 47.0608L97.5139 35.1758L83.2912 35.7574C83.306 39.7883 83.3171 44.0636 83.2578 45.9901Z" fill="#F5F5F5"/>
<path d="M124.975 84.4082L112.375 85.9642L114.068 93.5442L125.742 92.3291L124.975 84.4082Z" fill="#F5F5F5"/>
<path d="M128.396 38.4805L129.204 33.6902L132.683 33.9606L132.727 23.6465L121.983 27.8959C121.779 35.1499 126.336 37.7025 128.396 38.4805Z" fill="#EBEBEB"/>
<path d="M124.266 56.9919L124.703 61.5154L132.564 62.06L132.601 52.7425L126.022 50.6641L124.266 56.9919Z" fill="#F5F5F5"/>
<path d="M128.001 95.6257L125.938 104.21L132.38 103.558L132.421 94.5587C130.443 94.0363 128.716 93.614 127.786 93.4473L128.001 95.6257Z" fill="#F5F5F5"/>
<path d="M123.656 47.8919L132.614 50.7186L132.637 45.6283L123.841 43.3535L123.656 47.8919Z" fill="#F5F5F5"/>
<path d="M127.675 92.2542C128.397 92.3653 129.765 92.6543 132.425 93.3656L132.506 73.6895L125.938 74.3193L127.675 92.2542Z" fill="#F5F5F5"/>
<path d="M125.872 73.5424L132.519 72.9014L132.56 63.2208L124.82 62.6836L125.872 73.5424Z" fill="#F5F5F5"/>
<path d="M129.133 38.7243C130.396 39.0948 131.567 39.4023 132.652 39.6208L132.675 34.7342L129.844 34.5156L129.133 38.7243Z" fill="#F5F5F5"/>
<path d="M128.359 43.3274L132.635 44.4388L132.653 40.0227C131.544 39.8054 130.35 39.5016 129.071 39.1113L128.359 43.3274Z" fill="#F5F5F5"/>
<path d="M132.264 130.492L132.215 129.721L125.654 130.136L125.302 118.37L132.249 117.977L132.23 117.606L125.288 117.999L124.995 108.167L125.847 104.621L132.386 103.962V103.573L125.943 104.225L128.007 95.6407L127.792 93.4511C128.722 93.629 130.448 94.0513 132.427 94.5626V93.3585C129.767 92.6583 128.4 92.3693 127.677 92.2471L125.94 74.301L132.508 73.6712V72.8932L125.862 73.5341L124.81 62.6754L132.549 63.2126V62.0493L124.687 61.5084L124.25 56.9848L126.006 50.657L132.601 52.7539V50.7311L123.643 47.9044L123.824 43.366L132.619 45.6407V44.4441L128.344 43.3326L129.055 39.1092C130.337 39.4994 131.531 39.8032 132.638 40.0205V39.6241C131.552 39.4055 130.382 39.1092 129.118 38.7276L129.83 34.5189L132.66 34.7375V33.9632L129.181 33.6927L128.374 38.4831C126.314 37.705 121.757 35.1487 121.975 27.8984L132.719 23.649V23.1563L132.604 22.8636L121.994 27.0612V8.80762H121.605V27.2168L117.133 28.9877L110.431 15.4948C110.112 15.7242 109.742 15.8741 109.353 15.9319L116.063 29.4137L105.737 33.489L105.967 34.4374L97.8757 34.7671L97.5645 15.8986H97.194L97.5052 34.7931L83.2862 35.3747C83.264 32.4628 83.2307 29.7397 83.2121 28.2282V28.0652L82.3415 8.62979H81.9525L82.8231 28.0096L68.1966 25.9053L71.6754 8.57422H70.6788H70.4936L67.0481 25.7385L62.406 25.0717L62.3689 25.3236V25.457L66.9703 26.1164L63.2655 44.5071L62.2726 44.433V46.3669L69.5044 46.9041V56.4587L62.2319 58.0888V59.2781L70.6751 57.3664V46.993L97.7201 48.9973V60.045H89.062L87.9283 65.1909H80.8892L62.1874 68.5919V69.7701L80.9967 66.3468H102.418L103.185 75.72L80.9078 77.8651L80.9818 78.632L103.248 76.4906L104.73 94.4551L82.2304 91.5172L82.0785 92.6657L104.826 95.6296L105.697 106.244L81.8895 108.648L69.534 109.523V93.3363L81.2412 86.5083L80.6558 85.5081L69.2228 92.1767L62.0985 91.2357V92.3953L69.1376 93.3252V103.632L62.0318 104.373V105.536L69.1413 104.795V109.934L69.56 124.501L61.9355 127.487V128.732L69.6044 125.731L69.8341 133.667L61.8984 134.171V134.426L61.9318 134.941L69.8415 134.441L69.9082 136.76H70.2787L70.212 134.415L100.888 132.477C100.832 133.982 100.773 135.441 100.721 136.76H101.54C101.588 135.519 101.647 134.022 101.71 132.426L108.331 132.007L109.279 136.76H109.672L108.72 131.985L123.769 131.033L123.939 136.76H125.873M101.721 131.666C101.747 130.981 101.773 130.281 101.799 129.58L107.831 129.599L108.16 131.259L101.721 131.666ZM108.549 131.233L108.179 129.38L107.278 120.9L106.771 114.717L123.22 113.479L123.728 130.277L108.549 131.233ZM112.284 105.973L120.938 105.103L120.697 108.5L112.939 109.337L112.284 105.973ZM111.913 106.014L113.358 113.424L106.726 113.931L106.123 106.599L111.913 106.014ZM123.205 112.683L113.747 113.394L113.102 110.093L121.435 109.193L121.731 105.018L123.817 104.81L123.076 107.944L123.205 112.683ZM112.002 86.0082L113.692 93.5845L105.119 94.4737L104.504 86.9344L112.002 86.0082ZM114.081 93.5438L112.387 85.9637L124.984 84.4114L125.751 92.3286L114.081 93.5438ZM122.757 61.3787L103.748 60.0635L105.556 49.5752L106.886 49.6752H122.902L124.187 50.0791L122.309 56.8292L122.757 61.3787ZM121.612 28.0355C121.594 30.0287 122.031 36.6047 128.337 38.8572L127.61 43.1215L123.687 42.1063L117.489 29.6619L121.612 28.0355ZM116.426 30.0917L122.724 42.7288L122.524 47.7339H110.002L106.667 33.9558L116.426 30.0917ZM106.06 34.8264L109.209 47.745H106.986L98.0943 47.0856L97.898 35.1598L106.06 34.8264ZM97.4978 35.1747L97.6905 47.0597L83.2418 45.989C83.3011 44.0625 83.2899 39.776 83.2418 35.7563L97.4978 35.1747ZM68.1188 26.2832L82.8157 28.3912C82.8898 34.493 82.9528 43.14 82.8787 45.9593L64.4436 44.6034L68.1188 26.2832ZM105.167 49.5456L102.47 65.1872H98.0943V49.0232L105.167 49.5456ZM89.9993 61.2009H97.7164V65.1872H89.1213L89.9993 61.2009ZM102.762 65.7726L103.548 61.2083L122.872 62.5457L123.954 73.7194L103.577 75.6792L102.762 65.7726ZM124.028 74.49L124.88 83.2555L104.407 85.7785L103.629 76.4646L124.028 74.49ZM105.211 95.6259L125.865 93.4771L126.062 95.4851L123.913 104.41L106.082 106.21L105.211 95.6259ZM106.893 120.922L107.775 129.202H101.814C101.918 126.472 102.021 123.742 102.092 121.689C102.221 118.01 102.221 118.01 101.973 117.888L101.792 118.258L101.421 118.281C101.44 118.603 101.258 123.645 101.051 129.025L83.816 120.774L83.2084 108.919L105.722 106.644L106.893 120.922ZM81.7006 109.067L81.5783 124.301L69.9638 124.853L69.534 109.926L81.7006 109.067ZM69.9823 125.594V125.246L81.9673 124.675L82.0933 109.041L82.8342 108.967L83.4529 121.041L101.032 129.443C101.003 130.184 100.973 130.947 100.947 131.692L70.2157 133.637L69.9823 125.594Z" fill="white"/>
<path d="M87.5056 125.041L70.7266 126.219V131.606L98.4199 130.105L87.5056 125.041Z" fill="#E0E0E0"/>
<path d="M122.07 63.95L105.287 62.8867L104.25 65.7691L104.817 74.3531L123.041 72.1895L122.07 63.95Z" fill="#E0E0E0"/>
<path d="M61.9001 118.525L61.8594 146.163V149.127C61.9152 151.265 62.8017 153.298 64.3308 154.794C65.8599 156.29 67.9115 157.132 70.0507 157.141L123.926 157.389C125.008 157.394 126.08 157.186 127.081 156.777C128.082 156.368 128.993 155.765 129.761 155.004C130.53 154.242 131.14 153.337 131.559 152.339C131.977 151.342 132.194 150.272 132.199 149.19L132.251 118.525H61.9001Z" fill="white"/>
<path d="M81.5504 27.3799L81.2725 11.5938H73.0738L70.6953 25.7905L81.5504 27.3799Z" fill="#E0E0E0"/>
<path d="M120.966 46.0375L121.799 42.6142L116.031 31.6406L108.625 35.2824L111.096 45.6633L120.966 46.0375Z" fill="#EBEBEB"/>
<path d="M70.7266 94.1324C70.8155 94.6289 70.7266 107.985 70.7266 107.985L81.5335 107.303L80.2775 89.0605L70.7266 94.1324Z" fill="#E0E0E0"/>
<path d="M106.703 104.977L106.133 96.7007L124.638 94.3223V95.7486L122.401 103.358L106.703 104.977Z" fill="#E0E0E0"/>
<path d="M123.958 126.06L123.725 120.663L107.464 121.452C107.04 121.471 106.618 121.382 106.238 121.192L83.1644 109.537C82.902 109.404 82.6792 109.204 82.5186 108.958C82.3579 108.711 82.2651 108.427 82.2494 108.133L79.1114 47.2298C79.1022 47.0852 79.1246 46.9404 79.1771 46.8054C79.2295 46.6704 79.3108 46.5484 79.4152 46.4481C79.5186 46.3476 79.6419 46.27 79.7772 46.2202C79.9125 46.1704 80.0568 46.1496 80.2006 46.1591L90.0887 46.9V36.082H91.2483V47.0445C91.2476 47.1843 91.2183 47.3225 91.1621 47.4505C91.1059 47.5785 91.0241 47.6936 90.9217 47.7888C90.8192 47.8839 90.6984 47.957 90.5666 48.0036C90.4348 48.0502 90.2949 48.0693 90.1554 48.0596L80.2747 47.3187L83.4053 108.077C83.4108 108.167 83.4397 108.254 83.4891 108.33C83.5385 108.405 83.6066 108.466 83.6868 108.507L106.76 120.162C106.961 120.263 107.184 120.31 107.409 120.299L123.81 119.503C123.945 119.496 124.079 119.517 124.206 119.562C124.333 119.608 124.45 119.678 124.55 119.769C124.65 119.86 124.731 119.97 124.788 120.092C124.845 120.214 124.878 120.346 124.884 120.481L125.121 126.012L123.958 126.06Z" fill="white"/>
<path d="M122.564 56.9658C122.573 55.5948 122.264 54.2404 121.663 53.0084C121.062 51.7763 120.183 50.7001 119.097 49.8637C118.011 49.0273 116.746 48.4535 115.401 48.1871C114.056 47.9207 112.667 47.9688 111.344 48.3279C110.021 48.6869 108.799 49.3471 107.773 50.2567C106.747 51.1664 105.946 52.301 105.431 53.5717C104.917 54.8425 104.703 56.2151 104.807 57.5821C104.911 58.9492 105.329 60.2738 106.03 61.4523L106.056 61.4857C106.396 62.0562 106.822 62.4674 107.252 63.0713L112.409 69.8993C112.558 70.0979 112.752 70.2591 112.974 70.3701C113.196 70.4811 113.441 70.5389 113.689 70.5389C113.938 70.5389 114.183 70.4811 114.405 70.3701C114.627 70.2591 114.82 70.0979 114.969 69.8993L120.037 63.1825C120.499 62.6377 120.929 62.0675 121.327 61.4745L121.345 61.4523C122.145 60.0925 122.566 58.5433 122.564 56.9658ZM113.673 60.8299C112.9 60.8299 112.144 60.6007 111.501 60.1712C110.858 59.7417 110.357 59.1313 110.062 58.4171C109.766 57.7029 109.688 56.917 109.839 56.1588C109.99 55.4006 110.362 54.7042 110.909 54.1576C111.455 53.611 112.152 53.2387 112.91 53.0879C113.668 52.9371 114.454 53.0145 115.168 53.3103C115.883 53.6061 116.493 54.1071 116.922 54.7499C117.352 55.3926 117.581 56.1483 117.581 56.9213C117.582 57.9563 117.172 58.9494 116.441 59.6823C115.711 60.4152 114.719 60.8279 113.684 60.8299H113.673Z" fill="#222357"/>
<path d="M74.7495 130.251C74.7497 129.632 74.6073 129.022 74.3333 128.467C74.0593 127.912 73.6611 127.428 73.1697 127.052C72.6783 126.676 72.1068 126.418 71.4996 126.298C70.8924 126.179 70.2659 126.201 69.6687 126.363C69.0714 126.525 68.5195 126.822 68.0558 127.232C67.5921 127.642 67.2291 128.153 66.9949 128.726C66.7607 129.298 66.6616 129.917 66.7054 130.535C66.7492 131.152 66.9346 131.751 67.2473 132.285C67.4029 132.548 67.5956 132.733 67.7919 133.026L70.1297 136.123C70.199 136.211 70.2874 136.282 70.3881 136.331C70.4889 136.38 70.5994 136.405 70.7113 136.405C70.8233 136.405 70.9338 136.38 71.0345 136.331C71.1352 136.282 71.2236 136.211 71.293 136.123L73.5899 133.074C73.7995 132.827 73.9949 132.569 74.1753 132.3C74.5485 131.681 74.7469 130.973 74.7495 130.251ZM70.7224 132.003C70.3711 132.004 70.0275 131.9 69.7351 131.706C69.4427 131.511 69.2147 131.234 69.0799 130.909C68.9451 130.585 68.9097 130.228 68.978 129.883C69.0464 129.539 69.2155 129.222 69.4639 128.974C69.7123 128.725 70.0288 128.556 70.3734 128.488C70.718 128.42 71.0751 128.455 71.3995 128.59C71.724 128.725 72.0011 128.953 72.1958 129.245C72.3905 129.537 72.4941 129.881 72.4933 130.232C72.4933 130.702 72.3067 131.152 71.9746 131.485C71.6425 131.817 71.1921 132.003 70.7224 132.003Z" fill="#222357"/>
<path d="M123.367 133.149C123.367 133.201 113.316 133.245 100.92 133.245C88.5236 133.245 78.4688 133.201 78.4688 133.149C78.4688 133.097 88.5199 133.053 100.92 133.053C113.32 133.053 123.367 133.075 123.367 133.149Z" fill="#263238"/>
<path d="M101.539 136.76C101.539 136.816 96.3786 136.857 90.0137 136.857C83.6489 136.857 78.4844 136.816 78.4844 136.76C78.4844 136.705 83.6452 136.664 90.0137 136.664C96.3823 136.664 101.539 136.709 101.539 136.76Z" fill="#263238"/>
<path d="M80.532 124.738L81.3026 126.305L83.029 126.557L81.7805 127.773L82.0769 129.495L80.532 128.684L78.9871 129.495L79.2798 127.773L78.0312 126.557L79.7577 126.305L80.532 124.738Z" fill="#222357"/>
<path d="M87.8445 124.738L88.6188 126.305L90.3452 126.557L89.093 127.773L89.3894 129.495L87.8445 128.684L86.2996 129.495L86.596 127.773L85.3438 126.557L87.0739 126.305L87.8445 124.738Z" fill="#222357"/>
<path d="M95.1611 124.738L95.9354 126.305L97.6618 126.557L96.4133 127.773L96.706 129.495L95.1611 128.684L93.6162 129.495L93.9126 127.773L92.6641 126.557L94.3905 126.305L95.1611 124.738Z" fill="#222357"/>
<path d="M102.477 124.738L103.248 126.305L104.974 126.557L103.726 127.773L104.022 129.495L102.477 128.684L100.932 129.495L101.225 127.773L99.9766 126.557L101.703 126.305L102.477 124.738Z" fill="#222357"/>
<path d="M109.79 124.738L110.564 126.305L112.291 126.557L111.042 127.773L111.335 129.495L109.79 128.684L108.245 129.495L108.541 127.773L107.289 126.557L109.019 126.305L109.79 124.738Z" fill="#E0E0E0"/>
<path d="M32.5759 30.155C32.8871 30.0847 33.2687 30.0698 33.4391 29.7846C33.6095 29.4993 33.3984 29.0807 33.1168 28.8547C32.8352 28.6287 32.487 28.4582 32.324 28.1359C32.2499 27.9398 32.227 27.728 32.2574 27.5206C32.2879 27.3132 32.3707 27.1169 32.4981 26.9504C32.7037 26.6269 32.9785 26.3529 33.3026 26.1483C33.6268 25.9437 33.9923 25.8135 34.3728 25.7671C34.7534 25.7207 35.1394 25.7592 35.5033 25.8799C35.8671 26.0006 36.1997 26.2004 36.477 26.4651L37.3699 26.3873C37.4941 27.4288 37.4866 28.4818 37.3477 29.5215C37.2004 30.5704 36.6617 31.5246 35.8398 32.1927C35.4904 32.4696 35.0593 32.6232 34.6135 32.6298C34.3915 32.6297 34.1739 32.568 33.9849 32.4515C33.7959 32.3351 33.6429 32.1686 33.5428 31.9704C33.4558 31.769 33.4487 31.542 33.523 31.3355C33.5973 31.1291 33.7475 30.9587 33.943 30.859C33.477 30.9966 32.9903 31.0506 32.5055 31.0183C32.4245 31.0174 32.3446 30.9987 32.2716 30.9635C32.1986 30.9282 32.1343 30.8774 32.0831 30.8145C31.9164 30.5255 32.2536 30.2254 32.5759 30.155Z" fill="#263238"/>
<path d="M37.7026 31.1027C37.1229 29.7356 36.6654 28.3198 36.3356 26.8719C36.0032 25.4192 36.0376 23.9066 36.4356 22.4706C36.5023 22.2557 37.0876 20.8034 37.3136 20.8145C37.4729 20.8145 37.1358 22.1594 37.2247 22.2964C38.033 23.6128 38.4207 25.1443 38.3362 26.6866C38.2891 28.1778 38.0753 29.6591 37.6989 31.1027" fill="#263238"/>
<path d="M43.0048 45.7615C40.7041 45.843 38.1552 41.5751 38.0218 39.2818L37.2253 25.4592C36.8919 21.7544 38.7739 18.4719 42.4861 18.2422H42.8307C44.5042 18.236 46.1188 18.8592 47.3542 19.9882C48.5895 21.1172 49.3552 22.6693 49.4993 24.3366C49.7697 27.5487 50.0254 31.1053 50.0106 32.828C49.9809 36.3995 46.4095 36.9663 46.4095 36.9663C46.4095 36.9663 46.4391 37.7962 46.4873 38.8409C46.5947 41.1935 46.4317 46.621 44.0792 46.6951L43.0048 45.7615Z" fill="#9C5F33"/>
<path d="M46.4032 36.9653C44.7544 36.9674 43.1396 36.4968 41.75 35.6094C41.75 35.6094 42.8948 38.2027 46.4551 37.8693L46.4032 36.9653Z" fill="#795439"/>
<path d="M48.3435 27.2866C48.3455 27.4193 48.2954 27.5476 48.204 27.6439C48.1126 27.7401 47.9871 27.7967 47.8544 27.8016C47.7896 27.8066 47.7244 27.7987 47.6627 27.7782C47.6009 27.7577 47.5439 27.7251 47.4949 27.6824C47.4459 27.6396 47.406 27.5875 47.3774 27.529C47.3488 27.4706 47.3321 27.4071 47.3283 27.3422C47.3264 27.2755 47.3376 27.2091 47.3613 27.1468C47.385 27.0844 47.4207 27.0274 47.4665 26.9789C47.5122 26.9304 47.5671 26.8913 47.6279 26.864C47.6888 26.8368 47.7544 26.8217 47.8211 26.8198C47.8863 26.8148 47.9519 26.823 48.0139 26.8439C48.0759 26.8649 48.133 26.8982 48.1818 26.9418C48.2306 26.9854 48.2701 27.0384 48.2979 27.0977C48.3256 27.1569 48.3412 27.2212 48.3435 27.2866Z" fill="#263238"/>
<path d="M48.7286 25.8206C48.6657 25.8873 48.2804 25.6021 47.7321 25.6058C47.1837 25.6095 46.7799 25.8836 46.7206 25.8169C46.6614 25.7502 46.7577 25.6687 46.9318 25.5391C47.1689 25.3745 47.4508 25.2866 47.7395 25.2871C48.0238 25.285 48.3014 25.3732 48.5323 25.5391C48.7027 25.6687 48.762 25.791 48.7286 25.8206Z" fill="#263238"/>
<path d="M43.3705 27.4751C43.3707 27.6082 43.3196 27.7364 43.2279 27.8329C43.1361 27.9295 43.0108 27.9871 42.8778 27.9937C42.8129 27.9988 42.7477 27.9908 42.686 27.9703C42.6243 27.9499 42.5672 27.9173 42.5182 27.8745C42.4693 27.8317 42.4293 27.7796 42.4007 27.7212C42.3721 27.6628 42.3554 27.5993 42.3517 27.5343C42.3487 27.4013 42.3984 27.2725 42.4901 27.176C42.5817 27.0796 42.7077 27.0232 42.8407 27.0194C42.9056 27.0138 42.9709 27.0212 43.0328 27.0413C43.0947 27.0613 43.1521 27.0934 43.2014 27.1359C43.2507 27.1783 43.2911 27.2302 43.3201 27.2884C43.3492 27.3467 43.3663 27.4101 43.3705 27.4751Z" fill="#263238"/>
<path d="M43.3775 26.0785C43.3145 26.1451 42.9255 25.8599 42.3772 25.8636C41.8289 25.8673 41.4288 26.1414 41.3695 26.0747C41.3102 26.0081 41.4028 25.9266 41.5769 25.7969C41.8135 25.6312 42.0958 25.5432 42.3846 25.545C42.67 25.5428 42.9489 25.6309 43.1811 25.7969C43.3367 25.908 43.3775 26.0303 43.3775 26.0785Z" fill="#263238"/>
<path d="M45.3433 30.2693C45.6311 30.1755 45.9301 30.1207 46.2324 30.1063C46.3732 30.1063 46.5066 30.0618 46.5288 29.9655C46.5405 29.821 46.5082 29.6764 46.4362 29.5506C46.3028 29.2134 46.162 28.8578 46.0176 28.4836C45.4359 26.9683 45.0136 25.7198 45.0765 25.6976C45.1395 25.6753 45.6582 26.8868 46.2398 28.4021C46.3769 28.7725 46.514 29.143 46.64 29.4765C46.7275 29.6451 46.7537 29.8389 46.7141 30.0248C46.6939 30.074 46.6627 30.118 46.6229 30.1533C46.5831 30.1887 46.5357 30.2144 46.4844 30.2285C46.4071 30.2503 46.3275 30.2628 46.2473 30.2656C45.9472 30.3029 45.6437 30.3041 45.3433 30.2693Z" fill="#263238"/>
<path d="M43.7443 30.6544C43.8333 30.6544 43.8333 31.2434 44.3445 31.6658C44.8558 32.0881 45.493 32.0363 45.4967 32.0992C45.5004 32.1622 45.3559 32.2178 45.0855 32.2252C44.7368 32.2316 44.397 32.1149 44.1259 31.8955C43.8669 31.6833 43.6997 31.3794 43.6591 31.0471C43.6221 30.7989 43.6888 30.6507 43.7443 30.6544Z" fill="#263238"/>
<path d="M43.3255 23.8332C43.27 23.9813 42.7217 23.911 42.0807 23.9925C41.4398 24.074 40.9137 24.2481 40.8285 24.1147C40.7914 24.0517 40.8804 23.911 41.0915 23.7665C41.3699 23.5856 41.6875 23.4739 42.0177 23.4404C42.3467 23.3984 42.681 23.4365 42.9921 23.5516C43.2292 23.6442 43.3478 23.7628 43.3255 23.8332Z" fill="#263238"/>
<path d="M48.4917 23.9956C48.3954 24.1178 48.0175 23.9956 47.5655 23.9956C47.1135 23.9956 46.7245 24.0808 46.6356 23.9511C46.5986 23.8881 46.6578 23.7621 46.8246 23.6436C47.0447 23.5006 47.3032 23.4283 47.5655 23.4361C47.832 23.4417 48.0904 23.5282 48.3065 23.6843C48.4806 23.8066 48.5547 23.9326 48.4917 23.9956Z" fill="#263238"/>
<path d="M37.526 28.1012C37.4668 28.0752 35.0697 27.3862 35.1587 29.8276C35.2476 32.2691 37.6779 31.68 37.6779 31.6059C37.6779 31.5318 37.526 28.1012 37.526 28.1012Z" fill="#9C5F33"/>
<path d="M36.9028 30.7107C36.9028 30.7107 36.8621 30.7403 36.7917 30.7774C36.6891 30.8167 36.5756 30.8167 36.4731 30.7774C36.3122 30.6819 36.1795 30.5456 36.0884 30.3823C35.9973 30.219 35.9511 30.0345 35.9544 29.8475C35.9395 29.639 35.9724 29.4299 36.0507 29.2362C36.0701 29.1589 36.1083 29.0877 36.162 29.0289C36.2157 28.9701 36.2831 28.9254 36.3582 28.899C36.4067 28.8846 36.4586 28.8875 36.5052 28.907C36.5519 28.9266 36.5902 28.9618 36.6138 29.0065C36.6509 29.0732 36.6361 29.1213 36.6472 29.125C36.6583 29.1287 36.6991 29.0843 36.6768 28.9843C36.6608 28.9232 36.6241 28.8695 36.5731 28.8324C36.539 28.8085 36.5004 28.7916 36.4597 28.7827C36.419 28.7738 36.377 28.773 36.336 28.7805C36.2371 28.8044 36.1458 28.853 36.0707 28.9216C35.9955 28.9903 35.939 29.0768 35.9062 29.1732C35.8116 29.3887 35.7697 29.6237 35.784 29.8586C35.7801 30.0762 35.8402 30.2901 35.9567 30.4738C36.0733 30.6576 36.2412 30.803 36.4397 30.8922C36.5035 30.9056 36.5694 30.9056 36.6331 30.8922C36.6969 30.8788 36.7572 30.8523 36.8102 30.8144C36.8991 30.77 36.9102 30.7144 36.9028 30.7107Z" fill="#795439"/>
<path d="M47.729 20.3632C48.0995 20.1261 46.8695 18.8998 45.8766 18.5108C44.3947 17.9106 42.1237 17.5994 40.7899 18.044C39.1821 18.5775 37.8632 19.4481 37.1111 20.9634C36.3918 22.5082 36.0952 24.2161 36.2516 25.913C36.253 26.4349 36.3951 26.9469 36.6628 27.3949C37.0333 27.921 37.6964 28.2285 37.7001 28.9769C37.6957 29.1132 37.7186 29.249 37.7676 29.3763C37.8166 29.5035 37.8907 29.6197 37.9854 29.7178C38.4522 30.1698 38.9783 29.7178 39.2117 29.2436C39.7044 28.2618 39.7156 27.1207 39.7119 26.0241C39.7541 25.2435 39.6677 24.4612 39.4562 23.7086C39.3191 23.3085 39.1117 22.9306 38.9968 22.5231C38.926 22.3224 38.8999 22.1087 38.9204 21.8968C38.9409 21.685 39.0074 21.4802 39.1154 21.2968C39.1714 21.2216 39.2347 21.1521 39.3043 21.0893C39.6311 20.7775 40.0349 20.5583 40.4744 20.4541C40.9138 20.35 41.3731 20.3646 41.8051 20.4966C43.2018 20.9226 45.5803 21.545 46.173 21.0523C46.5979 20.7435 46.9527 20.3483 47.2141 19.8927L47.729 20.3632Z" fill="#263238"/>
<path d="M40.9038 17.6989C41.561 17.4325 42.2646 17.2993 42.9737 17.307C43.6828 17.3146 44.3833 17.4629 45.0347 17.7434C45.3833 17.8851 45.6997 18.0956 45.9651 18.3623C46.2306 18.629 46.4395 18.9464 46.5796 19.2957C46.813 20.0107 46.5462 20.9147 45.8608 21.2259L45.8164 21.2592C44.7902 21.6556 44.1085 21.5445 43.0526 21.2333C42.1672 20.9703 41.3669 20.4664 40.4593 20.2071C39.5088 19.9294 38.4969 19.9436 37.5547 20.2478C38.4278 19.1188 39.5829 18.2396 40.9038 17.6989Z" fill="#263238"/>
<path d="M37.8359 19.8808C38.2014 19.7007 38.5998 19.5973 39.0067 19.577C39.4479 19.568 39.8867 19.6435 40.2996 19.7993C40.8063 19.9997 41.2958 20.2413 41.763 20.5217C42.2386 20.8038 42.7339 21.0515 43.2449 21.2626C43.6714 21.434 44.1265 21.5232 44.5861 21.5257C44.8965 21.5283 45.2045 21.4717 45.4938 21.359C45.6018 21.3224 45.7013 21.2645 45.7864 21.1886C45.4041 21.3316 44.998 21.4008 44.5898 21.3923C44.1486 21.3708 43.7147 21.2717 43.3079 21.0996C42.8071 20.8844 42.3207 20.6369 41.8519 20.3587C41.3816 20.0742 40.8854 19.8348 40.37 19.6436C39.9353 19.4901 39.4744 19.4246 39.0141 19.451C38.7043 19.4695 38.4017 19.5514 38.1249 19.6918C38.0155 19.7321 37.9167 19.7967 37.8359 19.8808Z" fill="#455A64"/>
<path d="M38.8359 19.0389C39.1844 18.9074 39.5527 18.836 39.9251 18.8278C40.3263 18.8355 40.7233 18.9107 41.0996 19.0501C41.5624 19.2278 42.0046 19.4551 42.4185 19.728C42.8668 20.0096 43.2891 20.2986 43.6966 20.5283C44.0475 20.7384 44.4202 20.9099 44.8081 21.0395C45.0757 21.1254 45.3535 21.1752 45.6342 21.1877C45.7372 21.1993 45.8415 21.1918 45.9417 21.1655C45.5724 21.1112 45.2082 21.0269 44.8525 20.9136C44.4733 20.7709 44.1085 20.5923 43.7633 20.3801C43.3706 20.143 42.9557 19.854 42.5 19.5687C42.0788 19.2884 41.6262 19.0584 41.1514 18.8833C40.754 18.7447 40.3348 18.6794 39.914 18.6907C39.6312 18.7014 39.3526 18.7629 39.0916 18.8722C38.9957 18.9095 38.9087 18.9662 38.8359 19.0389Z" fill="#455A64"/>
<path d="M44.5078 18.0136C44.5078 18.0136 44.6338 18.1877 44.8561 18.4322C45.1544 18.7412 45.4099 19.0889 45.6155 19.4659C45.8145 19.8404 45.9104 20.261 45.8934 20.6848C45.8749 21.0108 45.7897 21.2034 45.8156 21.2146C45.8415 21.2257 45.9675 21.0478 46.0268 20.6996C46.0858 20.2452 46.0002 19.7837 45.7823 19.3807C45.5692 18.9874 45.2883 18.635 44.9524 18.3396C44.7005 18.1136 44.5263 17.9951 44.5078 18.0136Z" fill="#455A64"/>
<path d="M46.2599 19.1062C46.3151 19.4741 46.3251 19.8474 46.2895 20.2177C46.1945 20.5827 46.0525 20.9339 45.8672 21.2624C45.8672 21.2624 45.9969 21.2068 46.1339 21.0327C46.3061 20.8018 46.4227 20.5343 46.4748 20.251C46.5277 19.9672 46.5112 19.6749 46.4266 19.3989C46.3599 19.2063 46.2784 19.0951 46.2599 19.1062Z" fill="#455A64"/>
<path d="M36.1851 26.002C36.1065 26.3471 36.1167 26.7066 36.2147 27.0467C36.2568 27.4029 36.4158 27.7351 36.6667 27.9914C36.7112 27.9618 36.5111 27.5543 36.4 27.006C36.3643 26.6646 36.2923 26.328 36.1851 26.002Z" fill="#FF725E"/>
<path d="M30.3516 78.3722C30.3516 78.8612 33.5043 144.844 33.5043 144.844L41.6919 144.921L44.352 88.8049C44.352 88.8049 47.7752 118.291 47.7752 118.943C47.7752 119.595 48.7459 145.247 48.7459 145.247H57.3855V84.0812L51.8283 75.123L30.3516 78.3722Z" fill="#263238"/>
<path d="M52.9787 145.242C52.9729 145.192 52.9729 145.143 52.9787 145.093C52.9787 144.986 52.9787 144.842 52.9787 144.656C52.9787 144.26 52.9787 143.697 52.9787 142.974C52.9565 141.511 52.912 139.395 52.838 136.784C52.6786 131.556 52.3823 124.343 52.0155 116.374C51.6487 108.405 51.2745 101.184 51.0226 95.9641C50.8966 93.3708 50.7929 91.2516 50.7225 89.7808C50.6929 89.0584 50.6706 88.4915 50.6521 88.0988C50.6521 87.9136 50.6521 87.7691 50.6521 87.6617C50.6472 87.6112 50.6472 87.5603 50.6521 87.5098C50.6636 87.5584 50.6698 87.608 50.6706 87.658C50.6706 87.7654 50.6706 87.9099 50.704 88.0951C50.7262 88.4915 50.7633 89.0547 50.8077 89.7771C50.8929 91.259 51.0152 93.3559 51.1782 95.9567C51.4709 101.177 51.8525 108.39 52.2267 116.363C52.6008 124.335 52.8713 131.552 52.9936 136.78C53.0528 139.395 53.0751 141.511 53.0751 142.971C53.0751 143.712 53.0751 144.26 53.0751 144.656C53.0751 144.842 53.0751 144.986 53.0751 145.093C53.049 145.146 53.0166 145.196 52.9787 145.242Z" fill="#455A64"/>
<path d="M37.8938 87.5156C37.9457 87.5156 37.942 100.356 37.8938 116.198C37.8457 132.04 37.7456 144.884 37.6938 144.884C37.6419 144.884 37.6456 132.044 37.6938 116.198C37.7419 100.353 37.842 87.5119 37.8938 87.5156Z" fill="#455A64"/>
<path d="M45.0063 85.6526C44.8904 85.7257 44.766 85.7842 44.6358 85.8268C44.3802 85.9231 44.006 86.0602 43.5466 86.2232L43.4614 86.2528V86.1602C43.4095 85.3488 43.3466 84.2633 43.291 83.0741C43.228 81.7848 43.1836 80.6178 43.1613 79.7731C43.1613 79.3508 43.1613 79.0062 43.1613 78.7728C43.1441 78.6499 43.1441 78.5252 43.1613 78.4023C43.1934 78.5234 43.2121 78.6477 43.2169 78.7728C43.2391 79.0062 43.2651 79.3471 43.2947 79.7694C43.3503 80.6141 43.417 81.7811 43.4762 83.0704C43.5355 84.2596 43.5763 85.3451 43.5985 86.1565L43.5059 86.0935C43.9727 85.9453 44.3506 85.8305 44.6173 85.7527C44.7425 85.7038 44.8731 85.6702 45.0063 85.6526Z" fill="#455A64"/>
<path d="M44.2807 78.6397C44.2807 78.6397 44.3103 78.5878 44.4067 78.5508C44.5487 78.5093 44.7012 78.5239 44.8327 78.5915C44.9374 78.6394 45.0246 78.7185 45.0823 78.8181C45.1401 78.9176 45.1655 79.0326 45.155 79.1472C45.1434 79.2878 45.0877 79.4211 44.9959 79.5282C44.9041 79.6353 44.7809 79.7107 44.6438 79.7437C44.5046 79.766 44.362 79.7453 44.2349 79.6844C44.1078 79.6235 44.0023 79.5253 43.9325 79.4029C43.888 79.3222 43.8612 79.233 43.8537 79.1412C43.8462 79.0494 43.8583 78.957 43.8891 78.8702C43.9199 78.7834 43.9687 78.7041 44.0324 78.6376C44.0961 78.571 44.1731 78.5187 44.2585 78.4841C44.3548 78.447 44.4104 78.4544 44.4141 78.4841C44.4178 78.5137 44.1955 78.5619 44.0621 78.8545C44.0229 78.9309 44.0043 79.0162 44.0082 79.102C44.0121 79.1878 44.0384 79.2711 44.0844 79.3436C44.139 79.4298 44.2173 79.4983 44.31 79.5411C44.4027 79.5838 44.5057 79.5988 44.6067 79.5844C44.704 79.5585 44.7912 79.5041 44.8573 79.4281C44.9233 79.3522 44.9651 79.2582 44.9772 79.1583C44.9868 79.0756 44.9719 78.9918 44.9344 78.9174C44.8969 78.8429 44.8383 78.7812 44.766 78.7397C44.6205 78.6516 44.4492 78.6163 44.2807 78.6397Z" fill="#455A64"/>
<path d="M48.6967 79.3323C48.6449 79.3323 48.5745 79.0433 48.5374 78.6803C48.5004 78.3172 48.5115 78.0134 48.5634 78.006C48.6152 77.9986 48.6856 78.295 48.7264 78.658C48.7671 79.0211 48.7523 79.3249 48.6967 79.3323Z" fill="#455A64"/>
<path d="M49.3659 79.266C49.3103 79.266 49.2695 78.9548 49.2658 78.5695C49.2621 78.1842 49.3066 77.873 49.3585 77.873C49.4103 77.873 49.4548 78.1842 49.4548 78.5695C49.4548 78.9548 49.4177 79.266 49.3659 79.266Z" fill="#455A64"/>
<path d="M37.7644 79.7282C37.5811 79.2211 37.5214 78.6775 37.5903 78.1426C37.7736 78.6498 37.8333 79.1934 37.7644 79.7282Z" fill="#455A64"/>
<path d="M38.5597 79.7984C38.3907 79.5588 38.3083 79.2687 38.3263 78.976C38.2831 78.686 38.342 78.39 38.4931 78.1387C38.5291 78.4138 38.5366 78.6919 38.5153 78.9685C38.5601 79.2427 38.575 79.521 38.5597 79.7984Z" fill="#455A64"/>
<path d="M28.4115 93.4355C28.4115 93.4355 28.1596 89.401 24.8512 89.8196C21.5428 90.2383 21.4539 93.2132 21.4539 93.2132L20.0312 92.9613C20.0312 92.9613 20.5573 88.7452 25.218 88.8638C29.8786 88.9823 29.786 93.7208 29.786 93.7208L28.4115 93.4355Z" fill="#455A64"/>
<g opacity="0.3">
<path d="M28.4115 93.4355C28.4115 93.4355 28.1596 89.401 24.8512 89.8196C21.5428 90.2383 21.4539 93.2132 21.4539 93.2132L20.0312 92.9613C20.0312 92.9613 20.5573 88.7452 25.218 88.8638C29.8786 88.9823 29.786 93.7208 29.786 93.7208L28.4115 93.4355Z" fill="black"/>
</g>
<path d="M12.8668 92.2656L12.1406 111.316L37.337 111.779L37.7667 92.9547L12.8668 92.2656Z" fill="#455A64"/>
<path d="M37.7717 92.9543C37.7717 92.9543 37.7717 92.9839 37.7272 93.0321L37.5753 93.2433C37.4271 93.4433 37.2271 93.7101 36.9788 94.0509C36.4528 94.7474 35.7044 95.7625 34.7263 96.9814C33.6051 98.4319 32.3307 99.7572 30.9252 100.934C30.0862 101.617 29.1668 102.194 28.1874 102.653C27.1186 103.157 25.9623 103.447 24.7826 103.509C23.6075 103.545 22.4384 103.327 21.3557 102.868C20.3516 102.444 19.4173 101.871 18.5845 101.168C17.1955 99.9608 16.0282 98.5201 15.1354 96.911C14.5247 95.8393 13.9683 94.7376 13.4682 93.61L13.0644 92.6912L12.9643 92.4504C12.9421 92.3949 12.9347 92.3652 12.9384 92.3652C12.955 92.3901 12.9699 92.4161 12.9829 92.443L13.1014 92.6764L13.5386 93.5804C13.9091 94.3621 14.4611 95.5032 15.2539 96.8406C16.1552 98.4224 17.3205 99.8383 18.6994 101.027C19.5215 101.715 20.4418 102.275 21.4298 102.691C22.4842 103.133 23.621 103.346 24.7641 103.313C25.9111 103.256 27.036 102.977 28.0762 102.49C29.0506 102.044 29.9663 101.479 30.8029 100.808C32.2026 99.6443 33.4766 98.3368 34.6041 96.9073C35.597 95.7032 36.3638 94.703 36.9047 94.0176L37.5309 93.2359L37.7013 93.0321C37.7221 93.0039 37.7457 92.9779 37.7717 92.9543Z" fill="#263238"/>
<path d="M33.8857 111.717C33.8301 111.717 34.597 107.604 35.5936 102.555C36.5902 97.505 37.446 93.4186 37.4941 93.4297C37.5423 93.4408 36.7828 97.542 35.7862 102.592C34.7896 107.641 33.9375 111.728 33.8857 111.717Z" fill="#263238"/>
<path d="M37.6602 93.0977C37.6666 93.1605 37.6666 93.2238 37.6602 93.2866C37.6602 93.4348 37.6602 93.6163 37.6602 93.8349C37.6416 94.3091 37.5972 94.9908 37.5379 95.8392C37.4157 97.5286 37.2008 99.8626 36.9377 102.434C36.6747 105.005 36.4524 107.309 36.282 109.025C36.2042 109.847 36.1412 110.507 36.0967 111.021L36.0412 111.566C36.039 111.63 36.0277 111.694 36.0078 111.755C35.9974 111.691 35.9974 111.626 36.0078 111.562C36.0078 111.414 36.0078 111.236 36.0078 111.018C36.0078 110.544 36.0708 109.858 36.1301 109.013C36.2523 107.32 36.4672 104.99 36.7303 102.415C36.9933 99.8404 37.2156 97.5397 37.386 95.8281C37.4638 95.0056 37.5268 94.3462 37.5713 93.8275C37.5972 93.6126 37.6157 93.4311 37.6305 93.2866C37.631 93.2225 37.6409 93.1588 37.6602 93.0977Z" fill="#263238"/>
<path d="M24.4551 102.798L23.7031 102.811L23.7271 104.211L24.479 104.198L24.4551 102.798Z" fill="#263238"/>
<path d="M37.7654 92.9546C37.6817 92.9635 37.5973 92.9635 37.5135 92.9546H36.7726L34.1088 92.9175L25.3321 92.7138L16.5555 92.4507L13.8954 92.347L13.1545 92.3099C13.071 92.3103 12.9878 92.3016 12.9062 92.284C12.99 92.2751 13.0744 92.2751 13.1582 92.284H13.8991L16.5592 92.3248L25.3396 92.5285L34.1162 92.7916L36.7763 92.8953L37.5172 92.9324C37.6005 92.9307 37.6838 92.9382 37.7654 92.9546Z" fill="#263238"/>
<path d="M23.9582 82.3672C23.9582 82.3672 22.3059 86.9426 22.254 87.6688C22.2021 88.3949 21.4686 89.5545 22.3021 89.8249C22.3021 89.8249 22.1614 90.3881 23.0431 90.5918C23.0431 90.5918 23.0431 91.5514 24.2064 91.4477C24.2064 91.4477 25.0029 92.2294 25.6587 91.8181C25.6587 91.8181 26.6738 92.322 27.0887 91.581C27.41 90.9631 27.6897 90.3245 27.926 89.6694L28.5855 90.188C28.8216 89.6581 28.8902 89.0686 28.7818 88.4986C28.5892 87.6095 27.4629 86.4832 27.7149 85.3718C27.7799 84.9706 27.8931 84.5788 28.052 84.2048L23.9582 82.3672Z" fill="#9C5F33"/>
<g opacity="0.3">
<path d="M32.6581 99.224C31.7231 101.425 30.2428 103.352 28.3568 104.822C27.0268 105.896 25.3708 106.752 23.6703 106.574C22.1884 106.419 20.8843 105.5 19.8025 104.466C17.6105 102.379 16.0102 99.7481 15.1641 96.8418C15.1641 96.8418 19.2393 103.57 24.0889 103.477C28.4606 103.373 32.6581 99.224 32.6581 99.224Z" fill="black"/>
</g>
<path d="M49.7969 39.416C49.7969 39.416 56.4322 40.7868 57.2509 41.7908C57.9067 42.591 61.3892 50.7082 61.3892 50.7082L64.1974 55.6875C64.7882 56.1666 65.2218 56.8119 65.4422 57.5399C65.7922 59.1724 65.9612 60.8385 65.9461 62.508C65.9461 62.508 65.4459 65.7831 63.3972 65.9201C62.4322 65.9592 61.469 65.8064 60.5634 65.4706C59.6578 65.1348 58.8279 64.6227 58.1216 63.964C56.9249 62.8933 53.9981 55.6356 54.1019 55.2651L49.7969 39.416Z" fill="#FF725E"/>
<path d="M37.636 37.9354L37.925 37.602L40.9481 41.0252L43.3748 43.6815L46.4164 37.25L47.2981 37.8983C47.2981 37.8983 50.5732 62.6871 50.5176 62.9761C50.462 63.2651 51.7847 76.795 51.7847 76.795C51.7847 76.795 44.8159 78.1806 42.7968 77.536C40.7777 76.8913 36.2875 77.9065 36.3171 77.699C36.3468 77.4915 34.3906 69.2076 34.3906 69.2076L34.9649 46.4898L37.636 37.9354Z" fill="#FAFAFA"/>
<path d="M50.6112 73.7638C50.4402 73.7402 50.2716 73.7018 50.1073 73.6489C49.7887 73.5637 49.3293 73.4266 48.7662 73.234C47.3029 72.7369 45.8788 72.1314 44.5057 71.4223C43.1329 70.7124 41.8142 69.9025 40.56 68.9994C40.0784 68.6511 39.6968 68.3585 39.4486 68.1473C39.3143 68.0446 39.1903 67.9292 39.0781 67.8027C39.2288 67.8862 39.3725 67.9816 39.5079 68.088C39.7746 68.2807 40.1673 68.5585 40.6527 68.8919C41.9255 69.7554 43.2479 70.5434 44.6131 71.2519C45.9806 71.9549 47.3898 72.5735 48.8329 73.1043C49.3849 73.3081 49.8369 73.4748 50.1481 73.5748C50.3078 73.6238 50.4628 73.687 50.6112 73.7638Z" fill="#263238"/>
<path d="M43.376 43.6797C43.3857 43.7733 43.3857 43.8677 43.376 43.9613C43.376 44.1613 43.376 44.4318 43.376 44.7652C43.376 45.4876 43.376 46.4953 43.3538 47.729C43.3538 50.2335 43.3353 53.6938 43.3834 57.5134C43.4316 61.3331 43.5242 64.797 43.5983 67.2978C43.6353 68.5352 43.665 69.5429 43.6872 70.2616C43.6872 70.595 43.6872 70.8655 43.6872 71.0656C43.6977 71.1591 43.6977 71.2536 43.6872 71.3471C43.6696 71.2555 43.6597 71.1625 43.6576 71.0693C43.6576 70.8655 43.6242 70.5987 43.6057 70.2616C43.5612 69.5651 43.5131 68.55 43.4575 67.2978C43.3501 64.7933 43.2352 61.333 43.1834 57.5097C43.1315 53.6863 43.1611 50.2261 43.213 47.7216C43.2389 46.4694 43.2649 45.4543 43.2945 44.7578C43.2945 44.4206 43.3204 44.1539 43.3278 43.9501C43.3356 43.8587 43.3518 43.7682 43.376 43.6797Z" fill="#263238"/>
<path d="M44.9162 76.6535C44.7963 75.7943 44.7381 74.9277 44.7421 74.0602C44.6797 73.1968 44.6797 72.3301 44.7421 71.4668C44.862 72.326 44.9202 73.1927 44.9162 74.0602C44.9785 74.9235 44.9785 75.7902 44.9162 76.6535Z" fill="#263238"/>
<path d="M37.467 38.2422L35.2256 40.6948C35.2256 40.6948 32.3988 41.3839 29.2053 42.4471C28.5636 42.7129 27.9905 43.1206 27.5291 43.6398C27.0678 44.1589 26.7301 44.7759 26.5415 45.4443C26.3007 46.2557 30.3723 65.9133 30.3723 65.9133L29.6684 71.5743L27.4974 87.9013C27.4974 87.9013 31.2614 89.2424 33.677 89.3388C35.0366 89.3943 35.2626 84.0705 35.8369 80.3806C36.3889 76.8165 37.8189 65.4058 37.8189 62.2271C37.8189 59.0483 37.1558 43.729 37.1558 43.3993C37.1558 43.0695 37.467 38.2422 37.467 38.2422Z" fill="#FF725E"/>
<path d="M37.3778 66.9759C37.3398 66.8811 37.31 66.7832 37.2889 66.6832C37.2333 66.4721 37.1629 66.1942 37.0703 65.8422C36.885 65.1013 36.622 64.0306 36.3034 62.7339C35.6699 60.0887 34.8215 56.4654 33.8434 52.4642C33.5767 51.3268 33.3136 50.2228 33.0654 49.1632V49.1336V49.1077L34.9178 44.5285L34.9882 44.636H33.1691H33.0469L33.1099 44.5322C33.8508 43.2689 34.4621 42.2427 34.8956 41.5128L35.3883 40.6978C35.4416 40.5998 35.5036 40.5068 35.5735 40.4199C35.5291 40.523 35.4784 40.6232 35.4217 40.72L34.9586 41.5536C34.5436 42.2945 33.9546 43.3282 33.2321 44.6026L33.1691 44.4989H34.9882H35.1067L35.0623 44.61C34.5251 45.9808 33.9138 47.5294 33.258 49.2003V49.1447C33.51 50.2006 33.7693 51.3046 34.0398 52.442L36.4442 62.7228C36.7406 64.0269 36.9814 65.0902 37.1518 65.8459C37.2296 66.2164 37.2926 66.4869 37.337 66.6981C37.3569 66.7896 37.3705 66.8825 37.3778 66.9759Z" fill="#263238"/>
<path d="M47.2891 37.7969L48.7265 39.1047L56.9697 41.4387L57.0808 54.6055L55.8508 67.8057L58.3738 87.5116C55.5137 89.0861 51.2458 88.749 51.2458 88.749L49.2859 77.2344C48.9784 75.0857 47.9078 60.6036 47.9078 60.6036L47.2891 37.7969Z" fill="#FF725E"/>
<path d="M50.2529 64.5422C50.2534 64.4439 50.2634 64.3459 50.2826 64.2495C50.3159 64.0458 50.3567 63.7679 50.4085 63.4234C50.5234 62.6824 50.6827 61.6562 50.879 60.3891C51.2495 57.8254 51.7645 54.2762 52.2054 50.3454C52.424 48.3782 52.6092 46.5035 52.7648 44.7882C52.8389 43.9361 52.9056 43.1248 52.9723 42.3616C53.0019 41.9911 53.0612 41.5984 52.8537 41.3539C52.7332 41.2518 52.5886 41.1822 52.4336 41.1517C52.2787 41.1212 52.1185 41.1309 51.9683 41.1798C51.6639 41.2536 51.3516 41.2897 51.0384 41.2872C50.7546 41.2641 50.481 41.1712 50.2418 41.0167C49.8726 40.762 49.5556 40.4388 49.3082 40.0646C49.1007 39.7645 48.9377 39.5237 48.8636 39.357C48.809 39.2756 48.7631 39.1887 48.7266 39.0977C48.7878 39.1739 48.8435 39.2544 48.8933 39.3385C49.0007 39.4941 49.1526 39.7312 49.3675 40.0202C49.6185 40.3768 49.9338 40.6833 50.2974 40.9241C50.5212 41.0632 50.7755 41.1459 51.0384 41.1649C51.3422 41.1631 51.6446 41.1232 51.9386 41.0464C52.1081 41.0126 52.2812 41.0014 52.4536 41.013C52.6471 41.0255 52.8279 41.1133 52.9574 41.2576C53.0826 41.4126 53.1495 41.6066 53.1464 41.8059C53.1501 41.9963 53.1427 42.1868 53.1242 42.3764C53.0612 43.1359 52.9982 43.9509 52.9315 44.803C52.787 46.5147 52.6055 48.393 52.3869 50.3602C51.946 54.2947 51.4237 57.8439 51.005 60.4039C50.7901 61.6821 50.6086 62.7157 50.4752 63.4308C50.4085 63.7716 50.353 64.0458 50.3122 64.2495C50.302 64.3488 50.2821 64.4468 50.2529 64.5422Z" fill="#263238"/>
<path d="M55.8328 50.6595C55.389 50.7648 54.9322 50.8048 54.4768 50.778C54.0224 50.8176 53.5646 50.7926 53.1172 50.704C53.563 50.6036 54.0205 50.565 54.4768 50.5891C54.9299 50.5492 55.3863 50.5729 55.8328 50.6595Z" fill="#263238"/>
<g opacity="0.3">
<path d="M57.3077 57.5705C57.8618 56.8335 58.6627 56.3206 59.5639 56.1256C59.7825 56.0812 60.0714 56.0886 60.1567 56.2923C60.1779 56.3771 60.175 56.4662 60.1481 56.5494C60.1213 56.6325 60.0716 56.7065 60.0048 56.7628L59.7269 57.1C58.8622 57.92 58.3161 59.02 58.1857 60.2046C58.0168 59.6589 58.0228 59.0741 58.2028 58.532C58.3828 57.9899 58.7279 57.5177 59.1897 57.1815C58.308 57.3593 57.6374 58.0521 57.0261 58.7116C56.9727 58.5131 56.9705 58.3043 57.0198 58.1047C57.069 57.9052 57.1681 57.7214 57.3077 57.5705Z" fill="black"/>
</g>
<path d="M56.6807 59.0207C56.6807 59.0207 56.7844 58.8577 56.9733 58.6169C57.2166 58.2991 57.5034 58.0172 57.8254 57.7796C58.1487 57.5436 58.5027 57.3529 58.8776 57.2128C59.1666 57.109 59.3518 57.0683 59.3518 57.0535C59.3518 57.0386 59.3 57.0535 59.2147 57.0535C59.0896 57.0759 58.9659 57.1055 58.8443 57.1424C58.0636 57.3966 57.3855 57.8955 56.9104 58.565C56.8401 58.6662 56.7758 58.7713 56.7177 58.8799C56.7103 58.9725 56.6733 59.017 56.6807 59.0207Z" fill="#263238"/>
<path d="M58.2979 60.982C58.2979 60.982 58.2979 60.7227 58.2979 60.3077C58.3124 60.0663 58.3434 59.8262 58.3906 59.589C58.4541 59.2981 58.5382 59.0121 58.6425 58.7332C58.7557 58.458 58.8894 58.1918 59.0426 57.9367C59.1702 57.73 59.3113 57.532 59.465 57.3439C59.728 57.0253 59.9243 56.8586 59.9169 56.8438C59.8646 56.8764 59.8161 56.915 59.7725 56.9586C59.728 56.9957 59.6724 57.0438 59.6131 57.1031C59.5539 57.1624 59.4872 57.2253 59.4205 57.3068C59.2573 57.4914 59.1086 57.6884 58.9759 57.8959C58.818 58.1534 58.6817 58.4236 58.5684 58.7036C58.459 58.9858 58.3747 59.2771 58.3165 59.5742C58.2712 59.8188 58.2452 60.0665 58.2387 60.3151C58.2329 60.4089 58.2329 60.5029 58.2387 60.5967C58.2341 60.6683 58.2341 60.74 58.2387 60.8116C58.2514 60.8706 58.2713 60.9278 58.2979 60.982Z" fill="#263238"/>
<path d="M56.9625 46.7812C56.9729 46.8488 56.9729 46.9175 56.9625 46.985C56.9625 47.1443 56.9625 47.337 56.9625 47.5741C56.9403 48.115 56.9106 48.8485 56.8736 49.7414C56.7773 51.5938 56.6476 54.1056 56.5031 56.8842C56.3586 59.6628 56.1845 62.171 56.0733 64.0234C56.0104 64.9125 55.9622 65.6461 55.9214 66.1833C55.9214 66.4204 55.8844 66.6167 55.8733 66.7723C55.8714 66.8414 55.8601 66.91 55.8399 66.9761C55.8346 66.907 55.8346 66.8377 55.8399 66.7686C55.8399 66.613 55.8399 66.3982 55.8399 66.1796C55.8622 65.6387 55.8955 64.9051 55.9326 64.0123C56.0289 62.1599 56.1585 59.648 56.303 56.8694C56.4475 54.0908 56.6179 51.5864 56.7291 49.734C56.7921 48.8411 56.8439 48.1113 56.881 47.5704C56.9032 47.3333 56.918 47.1406 56.9329 46.985C56.935 46.9162 56.945 46.8478 56.9625 46.7812Z" fill="#263238"/>
<path d="M28.7001 42.9395C28.7001 42.9395 26.8254 43.6323 26.3142 46.4887C25.8029 49.345 22.6094 84.2998 22.6094 84.2998L28.011 84.611L30.6673 65.5869L28.7001 42.9395Z" fill="#FF725E"/>
<path d="M30.6674 65.9863C30.723 65.9863 30.1302 70.4321 29.3448 75.9115C28.5594 81.3909 27.8628 85.8144 27.8295 85.8033C27.7962 85.7922 28.3704 81.3575 29.1521 75.8818C29.9338 70.4062 30.6155 65.9789 30.6674 65.9863Z" fill="#263238"/>
<path d="M29.1937 49.334C29.2492 49.334 29.6197 53.0388 30.0235 57.6513C30.4273 62.2637 30.7163 65.9833 30.6608 65.9908C30.6052 65.9982 30.2384 62.286 29.8309 57.6698C29.4233 53.0536 29.1418 49.3377 29.1937 49.334Z" fill="#263238"/>
<path d="M43.379 43.8634C43.2355 43.7677 43.1015 43.6585 42.9788 43.5374L41.9378 42.5964L42.0526 42.5667C41.7192 43.5189 41.2561 44.7896 40.7411 46.1863L40.6819 46.3493L40.5744 46.216L40.5003 46.1196C39.6277 45.0336 38.8819 43.8516 38.2774 42.5964C38.044 42.1147 37.8773 41.7146 37.7736 41.4368C37.7103 41.2942 37.6631 41.1451 37.6328 40.9922C37.7158 41.1237 37.7864 41.2626 37.844 41.4071C37.9699 41.6776 38.1515 42.0629 38.3997 42.5186C39.0375 43.7458 39.7944 44.9073 40.6596 45.9863L40.7337 46.0789L40.567 46.1048C41.0857 44.7081 41.5636 43.4448 41.9267 42.5037L41.9674 42.4037L42.0415 42.4778L43.0381 43.4633C43.1665 43.5834 43.2808 43.7176 43.379 43.8634Z" fill="#263238"/>
<path d="M47.3523 40.0859C47.3702 40.2311 47.3702 40.3779 47.3523 40.5231C47.3226 40.8417 47.2856 41.2381 47.2411 41.7049C47.1374 42.7052 46.9781 44.0834 46.7965 45.6061V45.7246L46.7632 45.9729L46.6187 45.7654C45.7518 44.5206 44.9812 43.3906 44.4366 42.5793H44.5403L43.729 43.3906C43.6342 43.4953 43.5286 43.5896 43.4141 43.6722C43.4875 43.5516 43.5758 43.4408 43.6771 43.3425L44.444 42.4866L44.4996 42.4274L44.5477 42.4941C45.122 43.2869 45.9111 44.402 46.7706 45.6505L46.5965 45.6913V45.5765C46.7817 44.0538 46.967 42.6793 47.0966 41.6827C47.167 41.2159 47.2226 40.8232 47.2708 40.5046C47.2825 40.3625 47.3098 40.2221 47.3523 40.0859Z" fill="#263238"/>
<path d="M26.9837 81.6511C26.9837 81.6511 27.0541 81.6289 27.1764 81.6511C27.3512 81.7029 27.4996 81.8196 27.5913 81.9772C27.6547 82.0844 27.6974 82.2025 27.7173 82.3254C27.7401 82.4745 27.7168 82.627 27.6506 82.7626C27.5762 82.9166 27.46 83.0466 27.3152 83.1376C27.1704 83.2287 27.0029 83.2772 26.8318 83.2775C26.6614 83.2517 26.5033 83.1731 26.3797 83.0528C26.2561 82.9326 26.1733 82.7767 26.1427 82.607C26.1145 82.4747 26.1201 82.3375 26.1589 82.208C26.1978 82.0785 26.2687 81.9609 26.365 81.866C26.4886 81.7354 26.6535 81.6516 26.8318 81.6289C26.9578 81.6289 27.0245 81.6289 27.0208 81.6548C26.8073 81.6925 26.612 81.7992 26.4651 81.9586C26.3918 82.0426 26.3397 82.143 26.3133 82.2513C26.2869 82.3596 26.2868 82.4727 26.3132 82.581C26.3418 82.7103 26.4082 82.8282 26.5038 82.9199C26.5994 83.0115 26.72 83.0728 26.8504 83.096C26.9836 83.0926 27.1135 83.0533 27.2263 82.9822C27.3391 82.9111 27.4307 82.8109 27.4913 82.6922C27.542 82.5936 27.5684 82.4844 27.5684 82.3736C27.5684 82.2627 27.542 82.1535 27.4913 82.055C27.2838 81.6882 26.9689 81.6808 26.9837 81.6511Z" fill="#263238"/>
<path d="M56.5738 74.7637C56.5738 74.7637 51.6279 75.1341 51.8427 75.0563L53.2654 77.7386L57.8742 77.4126L56.5738 74.7637Z" fill="#FF725E"/>
<path d="M56.5784 74.7637C56.6186 74.8169 56.6533 74.874 56.6822 74.9341L56.9563 75.4491C57.2082 75.9381 57.5454 76.5901 57.9492 77.3793L57.9974 77.4793H57.8862L53.2774 77.8275H53.2145L53.1848 77.772L53.133 77.6756C52.6513 76.7569 52.1882 75.8862 51.7659 75.0823L51.8733 75.1267C51.8733 75.1267 51.9104 75.1267 51.8993 75.0304C51.8881 74.9341 51.84 74.9823 51.8474 74.9786H52.0623H52.3142L52.8069 74.9526L53.7183 74.9045L55.2225 74.8229L56.2005 74.7785C56.3177 74.7697 56.4353 74.7697 56.5525 74.7785C56.4389 74.8104 56.3221 74.8291 56.2042 74.8341L55.2299 74.9267L53.7294 75.0489L52.8143 75.1156L52.3216 75.149H52.0697H51.9363H51.7844C51.7844 75.149 51.7844 75.1675 51.7288 75.0897C51.6733 75.0119 51.7659 74.9934 51.7548 74.9934H51.7807L51.8511 74.9711L51.8881 75.0378L53.2663 77.6312L53.3182 77.7312L53.2256 77.6793L57.838 77.3718L57.7751 77.483L56.8674 75.5528L56.6192 75.0082C56.5958 74.9286 56.5821 74.8465 56.5784 74.7637Z" fill="#263238"/>
<path d="M33.8844 75.3972L29.4016 74.7637L28.4531 77.7386L33.0323 78.4018L33.8844 75.3972Z" fill="#FF725E"/>
<path d="M33.8861 75.3977C33.8807 75.4658 33.867 75.5329 33.8454 75.5977L33.6972 76.1979C33.5638 76.7203 33.3675 77.4872 33.1081 78.4208V78.4838H33.0377L28.5068 77.8465H28.4549H28.3438L28.3771 77.7354C28.7179 76.6758 29.044 75.6718 29.3366 74.7716L29.3589 74.7012H29.4293C30.7741 74.8975 31.9041 75.0717 32.6895 75.205L33.5972 75.3569C33.7002 75.368 33.802 75.3891 33.9009 75.4199C33.9009 75.4199 33.7713 75.4199 33.5305 75.3903L32.5969 75.2828C31.804 75.1865 30.6926 75.0531 29.3885 74.8753L29.4848 74.816C29.1959 75.72 28.8772 76.7277 28.5438 77.7799L28.466 77.6539H28.5179L33.0451 78.3171L32.9599 78.3726C33.223 77.4798 33.4527 76.7425 33.6157 76.2201C33.6898 75.9793 33.7528 75.7793 33.8083 75.6125C33.8285 75.539 33.8545 75.4671 33.8861 75.3977Z" fill="#263238"/>
<path d="M65.0724 45.3431C65.1561 45.3874 65.2299 45.4483 65.2892 45.5223C65.3485 45.5962 65.3919 45.6815 65.4169 45.7729C65.4494 45.915 65.4324 46.064 65.3688 46.1952L63.3274 50.741L61.9974 53.4158L58.0703 52.4674L60.6081 46.1322C60.6081 46.1322 60.8156 45.2579 61.6158 45.2579H64.7352C64.8532 45.2561 64.9694 45.2855 65.0724 45.3431Z" fill="#455A64"/>
<path d="M64.1879 46.4874H64.6992C64.7366 46.4866 64.7731 46.4759 64.805 46.4564C64.8369 46.4369 64.863 46.4092 64.8807 46.3763C64.8975 46.3451 64.9058 46.3101 64.9049 46.2747C64.904 46.2393 64.8938 46.2048 64.8755 46.1745C64.8572 46.1442 64.8313 46.1192 64.8004 46.102C64.7695 46.0847 64.7346 46.0758 64.6992 46.0762H64.1879C64.149 46.0762 64.1108 46.0873 64.078 46.1083C64.0451 46.1293 64.019 46.1593 64.0027 46.1947C63.9886 46.226 63.9825 46.2603 63.9849 46.2946C63.9873 46.3288 63.9982 46.3619 64.0165 46.3909C64.0349 46.4199 64.0602 46.4439 64.0901 46.4608C64.12 46.4776 64.1536 46.4868 64.1879 46.4874Z" fill="white"/>
<path d="M64.8604 58.0135C65.0012 57.7172 64.49 57.2726 64.49 57.2726C64.49 57.2726 63.8675 54.268 64.1195 53.7567C64.3714 53.2455 64.2454 52.6157 64.2899 51.5561C64.3344 50.4965 64.7196 50.1186 64.7196 50.1186C64.7196 50.1186 64.753 49.4406 64.8382 48.8923C64.8819 48.5473 64.7918 48.1986 64.5863 47.918L63.3415 50.7558L63.1377 50.5002C62.5928 49.6829 61.9081 48.968 61.1149 48.3885C60.7148 48.1736 60.411 48.5737 60.2961 48.8849C60.1813 49.1961 60.6407 49.737 60.9259 49.9334C61.2112 50.1297 61.6669 51.3894 61.8336 51.8488C62.0003 52.3082 61.8336 52.4082 61.5446 52.5897C61.2557 52.7713 60.1553 51.8488 59.6218 51.6302C59.1462 51.364 58.7149 51.0253 58.3437 50.6262C58.2429 50.5492 58.1228 50.5016 57.9966 50.4885C57.8704 50.4754 57.7431 50.4974 57.6287 50.5521C57.21 50.741 57.399 51.5561 57.399 51.5561C56.7358 52.0599 57.0804 53.038 57.0804 53.038C57.0804 53.038 56.4172 53.0899 56.3727 53.3122C56.3283 53.5344 56.5543 54.7274 56.9248 55.0164C57.2952 55.3053 58.8809 56.4168 58.8809 56.4168C59.2349 56.9546 59.7295 57.3851 60.3109 57.6616L60.6221 59.2213C61.3019 59.4203 62.0245 59.4203 62.7042 59.2213C63.5098 58.9983 64.2495 58.584 64.8604 58.0135Z" fill="#9C5F33"/>
<path d="M57.4021 51.4648C57.4021 51.4648 57.4021 51.4648 57.4021 51.5056C57.3972 51.5437 57.3972 51.5823 57.4021 51.6204C57.4258 51.7621 57.4816 51.8964 57.5651 52.0132C57.6877 52.1837 57.8365 52.3337 58.006 52.4577C58.195 52.5985 58.4098 52.7356 58.6432 52.8764C59.0401 53.1103 59.4537 53.3146 59.8806 53.4877C60.0437 53.5506 60.1807 53.5988 60.2733 53.6284L60.4215 53.6692C60.4215 53.6692 60.2215 53.5803 59.9029 53.4358C59.4832 53.2503 59.0749 53.04 58.6803 52.806C58.274 52.6013 57.9106 52.3209 57.6096 51.9798C57.4954 51.8299 57.4238 51.652 57.4021 51.4648Z" fill="#795439"/>
<path d="M57.1016 53.0433C57.1776 53.1673 57.2698 53.2807 57.3757 53.3804C57.62 53.6338 57.8922 53.8588 58.1871 54.051C58.4826 54.2431 58.7997 54.3998 59.1318 54.5178C59.2669 54.5746 59.4089 54.6132 59.5541 54.6326C59.5541 54.6326 59.3985 54.5697 59.154 54.4659C58.8319 54.3351 58.523 54.1738 58.2315 53.9843C57.9409 53.7959 57.6681 53.5814 57.4165 53.3434C57.2201 53.1581 57.109 53.0359 57.1016 53.0433Z" fill="#795439"/>
<path d="M63.5195 53.0574C63.6164 52.9807 63.6822 52.8714 63.7047 52.7499C63.7558 52.4624 63.7482 52.1675 63.6825 51.883C63.6391 51.5977 63.5772 51.3156 63.4973 51.0383C63.4712 50.9211 63.4301 50.8078 63.375 50.7012C63.3881 50.8203 63.4116 50.9381 63.4454 51.0531C63.4935 51.268 63.5565 51.5644 63.6084 51.8941C63.6695 52.1714 63.6833 52.457 63.6492 52.7388C63.621 52.8505 63.5773 52.9578 63.5195 53.0574Z" fill="#795439"/>
<path d="M61.9533 54.384C61.9533 54.384 62.0015 54.384 62.0793 54.384C62.1791 54.3507 62.2634 54.2823 62.3164 54.1914C62.3685 54.1006 62.3868 53.9943 62.3683 53.8913C62.3683 53.8135 62.3201 53.7727 62.309 53.7802C62.3239 53.9068 62.3034 54.035 62.2497 54.1506C62.1386 54.3322 61.9459 54.3618 61.9533 54.384Z" fill="#795439"/>
<path d="M60.6328 55.5684C60.6328 55.5684 60.6921 55.598 60.7921 55.5684C60.9227 55.5497 61.043 55.487 61.133 55.3905C61.2229 55.2944 61.2766 55.17 61.2849 55.0386C61.2849 54.9385 61.2849 54.8793 61.2589 54.883C61.233 54.8867 61.2589 54.9423 61.233 55.0312C61.208 55.1452 61.1545 55.251 61.0774 55.3387C60.9948 55.4215 60.893 55.4826 60.781 55.5165C60.7299 55.5285 60.6802 55.5459 60.6328 55.5684Z" fill="#795439"/>
<path d="M59.4922 56.2727C59.4922 56.2727 59.5404 56.2949 59.6182 56.2727C59.7184 56.2407 59.8064 56.1786 59.8701 56.0948C59.9344 56.0108 59.9696 55.908 59.9701 55.8022C59.9701 55.7207 59.9442 55.6762 59.9368 55.6799C59.9226 55.8117 59.8782 55.9385 59.8071 56.0504C59.7208 56.148 59.613 56.2241 59.4922 56.2727Z" fill="#795439"/>
<path d="M60.3203 57.7326C60.4028 57.7877 60.4943 57.8278 60.5908 57.8512C60.8174 57.926 61.0489 57.9855 61.2836 58.029C61.5175 58.0702 61.7539 58.0961 61.9912 58.1068C62.0894 58.1221 62.1894 58.1221 62.2876 58.1068C62.2876 58.0846 61.8393 58.066 61.2984 57.966C60.7575 57.866 60.3277 57.7104 60.3203 57.7326Z" fill="#795439"/>
<path d="M59.0938 51.3499L59.1345 51.2573L59.2382 50.9831L59.6087 49.968C59.9236 49.1011 60.3497 47.9155 60.8165 46.6114C60.9057 46.2903 61.0968 46.0069 61.3611 45.8038C61.6408 45.669 61.9523 45.6138 62.2614 45.6445L63.8655 45.663H64.9473H65.2289C65.2633 45.6684 65.2983 45.6684 65.3326 45.663H65.2289H64.9362L63.8544 45.6334L62.2502 45.6C62.0948 45.5891 61.9388 45.5891 61.7834 45.6C61.6169 45.6158 61.4561 45.669 61.3129 45.7556C61.0313 45.9638 60.8267 46.2596 60.7313 46.5966C60.2645 47.9118 59.8458 49.1011 59.5457 49.9643L59.1975 50.9868C59.1567 51.1017 59.1271 51.1943 59.1049 51.2647C59.0973 51.2924 59.0936 51.3211 59.0938 51.3499Z" fill="#263238"/>
</svg>
