<svg width="20" height="20" viewBox="0 0 20 20" fill="none" xmlns="http://www.w3.org/2000/svg">
<path d="M6.50407 16.6667H13.4907V14.1667C13.4907 13.1856 13.1538 12.3475 12.4799 11.6525C11.806 10.9564 10.9785 10.6083 9.9974 10.6083C9.01629 10.6083 8.18879 10.9567 7.5149 11.6533C6.84101 12.35 6.50407 13.1878 6.50407 14.1667V16.6667ZM9.9974 9.39167C10.9785 9.39167 11.806 9.04306 12.4799 8.34583C13.1538 7.64861 13.4907 6.81111 13.4907 5.83333V3.33333H6.50407V5.83333C6.50407 6.81444 6.84101 7.6525 7.5149 8.3475C8.18879 9.04361 9.01629 9.39167 9.9974 9.39167ZM4.58073 17.5C4.4624 17.5 4.36351 17.46 4.28407 17.38C4.20462 17.3 4.16462 17.2008 4.16407 17.0825C4.16351 16.9642 4.20351 16.8653 4.28407 16.7858C4.36462 16.7064 4.46351 16.6667 4.58073 16.6667H5.67073V14.1667C5.67073 13.1378 5.98601 12.2253 6.61657 11.4292C7.24712 10.6331 8.05546 10.1567 9.04157 10C8.05601 9.83333 7.24768 9.35444 6.61657 8.56333C5.98546 7.77222 5.67018 6.86222 5.67073 5.83333V3.33333H4.58073C4.4624 3.33333 4.36351 3.29333 4.28407 3.21333C4.20462 3.13333 4.16462 3.03417 4.16407 2.91583C4.16351 2.7975 4.20351 2.69861 4.28407 2.61917C4.36462 2.53972 4.46351 2.5 4.58073 2.5H15.4141C15.5324 2.5 15.6313 2.54 15.7107 2.62C15.7902 2.7 15.8302 2.79917 15.8307 2.9175C15.8313 3.03583 15.7913 3.13472 15.7107 3.21417C15.6302 3.29361 15.5313 3.33333 15.4141 3.33333H14.3241V5.83333C14.3241 6.86222 14.0088 7.77222 13.3782 8.56333C12.7477 9.35444 11.9393 9.83333 10.9532 10C11.9388 10.1556 12.7471 10.6319 13.3782 11.4292C14.0088 12.2253 14.3241 13.1378 14.3241 14.1667V16.6667H15.4141C15.5324 16.6667 15.6313 16.7067 15.7107 16.7867C15.7902 16.8667 15.8302 16.9658 15.8307 17.0842C15.8313 17.2025 15.7913 17.3014 15.7107 17.3808C15.6302 17.4603 15.5313 17.5 15.4141 17.5H4.58073Z" fill="#444444"/>
</svg>
