<svg width="1116" height="493" viewBox="0 0 1116 493" fill="none" xmlns="http://www.w3.org/2000/svg">
<mask id="mask0_1011_6169" style="mask-type:luminance" maskUnits="userSpaceOnUse" x="0" y="0" width="1116" height="491">
<path d="M0.408691 0.947266H1115.59V490.946H0.408691V0.947266Z" fill="white"/>
</mask>
<g mask="url(#mask0_1011_6169)">
<path d="M1114.37 261.901C1111.99 279.603 1109.78 297.723 1107.78 315.673C1109.21 315.796 1110.52 316.855 1109.94 318.469C1109.58 319.445 1109.25 320.417 1108.89 321.393C1108.04 323.736 1107.22 326.078 1106.37 328.42C1097.17 413.76 1092.24 491.263 1092.24 491.263H852.846C852.846 491.263 845.223 433.017 835.796 361.895C833.657 360.529 831.518 359.182 829.38 357.811C825.477 421.883 817.39 491.263 817.39 491.263H587.528L598.088 410.029C597.556 409.965 597.088 409.676 596.728 409.259C577.899 427.338 555.502 442.922 534.534 442.592L540.861 491.263H298.61C295.713 462.431 290.386 405.303 288.4 356.551C285.571 358.329 282.762 360.094 279.978 361.895C270.551 433.017 262.933 491.263 262.933 491.263H23.5301C23.5301 491.263 15.7541 368.551 1.39935 261.901C-3.05539 228.797 16.0891 193.021 63.9973 182.533C82.0282 178.596 103.952 175.653 126.95 174.223L137.624 128.66C137.624 128.66 120.509 80.7782 139.92 43.1547C141.216 40.6658 142.685 38.1997 144.311 35.7932C146.139 33.1026 148.12 30.6319 150.195 28.3309C150.574 27.9 150.929 27.4829 151.308 27.0703C157.212 20.8089 163.81 16.0602 170.561 12.4757C171.946 11.7285 173.301 11.0684 174.686 10.4221C178.584 8.62072 182.728 7.14934 186.986 5.98965C192.421 4.51368 198.083 3.58318 203.987 3.27148L203.543 2.9827C307.057 -10.5944 331.922 83.886 301.395 91.8434C293.904 93.7915 288.203 93.3606 283.832 91.6371C283.053 96.2621 282.186 100.883 281.338 105.508C283.59 104.302 286.419 107.185 284.3 109.133C283.186 110.169 281.762 110.916 280.269 111.494C279.155 117.962 278.219 124.429 277.771 130.961C276.169 155.214 262.908 191.031 212.388 172.499C212.679 172.957 212.793 173.535 212.615 174.158C212.413 174.8 211.812 175.382 211.097 175.671L210.516 178.861C217.696 179.984 224.535 181.227 230.863 182.615C277.194 192.75 296.56 226.537 293.771 258.687C295.89 257.674 298.004 256.68 300.148 255.703C313.808 229.585 334.174 221.687 334.174 221.687C338.476 219.698 342.956 217.915 347.499 216.279C348.593 192.567 359.893 37.2692 469.305 37.2234C474.853 37.1408 480.427 37.4755 485.887 38.3235C486.02 38.3464 486.153 38.3464 486.286 38.3647L486.266 38.3876C493.175 39.4831 499.901 41.3717 506.101 44.2732C510.531 46.345 514.7 48.9394 518.489 52.0885C519.692 53.1015 520.805 54.1603 521.875 55.2375C522.19 55.5492 522.476 55.8609 522.766 56.1726C523.545 57.0023 524.284 57.8502 524.994 58.7212C525.24 59.0329 525.487 59.3216 525.733 59.6333C526.62 60.7747 527.448 61.9344 528.207 63.1353C528.34 63.3645 528.473 63.5937 528.606 63.8183C529.207 64.813 529.789 65.8306 530.321 66.8482C530.523 67.2607 530.745 67.6778 530.947 68.0904C531.415 69.0209 531.839 69.9789 532.238 70.9323C532.395 71.2806 532.573 71.6336 532.706 72.0095C533.194 73.2517 533.662 74.5168 534.066 75.8002C534.224 76.2586 534.357 76.7353 534.49 77.1891C534.756 78.0829 535.002 78.9722 535.224 79.866C535.382 80.4252 535.515 80.9845 535.648 81.5437C535.85 82.4329 536.027 83.3268 536.205 84.216C536.362 84.9861 536.495 85.7699 536.628 86.54C536.786 87.5117 536.939 88.4881 537.072 89.4598C537.161 90.207 537.254 90.9725 537.343 91.7196C537.407 92.343 537.476 92.9435 537.54 93.5669C537.609 94.3965 537.698 95.2033 537.767 96.0329C537.786 96.3859 537.811 96.7388 537.831 97.0918C538.476 106.085 538.324 115.184 538.368 123.746C538.388 126.419 538.457 128.99 538.59 131.456C538.792 135.169 551.87 132.41 552.516 138.006C553.319 144.932 540.728 150.548 540.728 150.548C543 166.178 545.006 178.325 537.185 191.072C530.479 201.996 513.251 213.295 480.87 206.103C481.072 207.592 479.845 209.293 477.84 208.692C477.662 208.651 477.509 208.587 477.327 208.527L475.302 217.897C490.341 223.764 504.849 231.368 517.085 241.297C531.927 253.32 542.424 268.827 552.673 284.329C554.231 282.051 555.793 279.791 557.355 277.531C565.377 265.861 572.887 253.59 581.619 242.273L586.458 236.323C591.204 230.704 596.329 225.377 602.188 220.633C614.424 210.723 628.931 203.096 643.971 197.228L641.945 187.859C641.768 187.901 641.61 187.983 641.433 188.024C639.427 188.625 638.2 186.947 638.402 185.434C605.997 192.626 588.794 181.332 582.087 170.404C574.267 157.657 576.273 145.51 578.544 129.884C578.544 129.884 565.954 124.264 566.757 117.343C567.403 111.746 580.486 114.501 580.683 110.793C580.816 108.304 580.885 105.732 580.91 103.078C580.954 94.9145 580.816 86.2695 581.353 77.6887C581.398 77.0653 581.442 76.442 581.486 75.8232C581.531 75.0943 581.6 74.3518 581.664 73.6229C581.777 72.4633 581.91 71.3219 582.043 70.1851C582.112 69.5617 582.201 68.9613 582.289 68.3379C582.423 67.467 582.556 66.5961 582.689 65.7481C582.802 65.1888 582.891 64.6067 583.004 64.0475C583.201 62.9932 583.428 61.9344 583.669 60.8755C583.758 60.463 583.847 60.0275 583.96 59.6104C584.251 58.4507 584.561 57.3094 584.916 56.1726C585.054 55.7142 585.187 55.2788 585.34 54.825C585.675 53.8074 586.035 52.8127 586.409 51.8409C586.547 51.5063 586.656 51.1763 586.789 50.8463C587.301 49.5995 587.858 48.3756 588.464 47.1563C588.641 46.8217 588.819 46.4688 588.996 46.1388C589.509 45.1853 590.046 44.2319 590.622 43.2968C590.824 42.9668 591.026 42.6551 591.224 42.3251C591.982 41.1425 592.805 39.9828 593.678 38.8643C593.83 38.6581 594.032 38.4472 594.19 38.2409C594.969 37.2875 595.772 36.3754 596.62 35.4632C596.886 35.1744 597.176 34.8627 597.462 34.5739C598.512 33.4922 599.606 32.4562 600.808 31.4616C600.828 31.4432 600.828 31.4432 600.828 31.4432C602.725 29.8664 604.706 28.4363 606.781 27.1299C608.85 25.8236 610.989 24.6639 613.221 23.6279C630.513 15.5422 651.841 15.0884 670.133 18.5904C701.823 24.6455 718.267 47.0738 726.379 72.8575C728.005 78.0188 729.32 83.3268 730.326 88.6531C730.592 90.042 730.838 91.4308 731.06 92.8197C731.73 96.8397 732.243 100.841 732.617 104.82C732.617 104.82 732.642 105.113 732.686 105.567C732.997 108.78 734.337 122.128 735.83 137.305C737.791 157.015 740.019 179.755 740.797 187.548C756.374 190.16 771.463 194.657 785.167 201.001C785.167 201.001 809.368 210.37 822.717 242.521C826.704 215.866 846.602 191.031 885.177 182.574C891.509 181.185 898.349 179.943 905.524 178.82L904.943 175.63C904.233 175.341 903.632 174.759 903.43 174.117C903.228 173.475 903.361 172.916 903.652 172.44C853.132 190.967 839.876 155.15 838.25 130.897C837.782 123.769 836.712 116.696 835.461 109.651C835.416 109.628 835.372 109.61 835.328 109.569C834.46 108.927 834.46 107.68 834.948 106.809C832.967 95.9275 830.784 85.0686 829.912 74.0997C829.892 73.8934 829.892 73.7055 829.867 73.5221C829.759 72.092 829.69 70.6389 829.621 69.2088C829.601 68.8558 829.577 68.5029 829.577 68.1545C829.532 66.8252 829.513 65.5005 829.532 64.1712C829.532 63.777 829.532 63.3645 829.532 62.9703C829.557 61.2697 829.626 59.5921 829.759 57.8915C831.72 32.085 851.264 14.8821 875.42 7.29143C876.82 6.83764 878.268 6.4251 879.717 6.04924C888.41 3.77111 897.59 2.71226 906.682 2.9002C909.713 2.95979 912.724 3.14772 915.71 3.50067C920.657 4.05989 925.536 5.05456 930.217 6.40218C934.002 7.50229 937.658 8.82699 941.157 10.4451C952.166 15.5239 963.13 23.4629 971.532 35.7932C971.552 35.7932 971.552 35.8161 971.552 35.8161C972.823 37.7001 973.981 39.6527 975.051 41.6008C975.228 41.8896 975.41 42.2013 975.563 42.513C976.544 44.3786 977.436 46.2854 978.259 48.2106C978.416 48.5865 978.574 48.9578 978.727 49.352C979.51 51.2817 980.22 53.2298 980.846 55.1779C980.934 55.4896 981.023 55.7967 981.112 56.1084C981.713 58.0382 982.225 59.9634 982.674 61.9115C982.694 62.0811 982.738 62.2461 982.782 62.4111C983.231 64.4004 983.586 66.4127 983.901 68.4204C983.965 68.8146 984.009 69.2088 984.078 69.603C984.344 71.5328 984.566 73.4396 984.724 75.3464C984.744 75.7819 984.788 76.1944 984.813 76.6299C984.946 78.5367 985.059 80.4436 985.103 82.3092C985.103 82.6209 985.103 82.9096 985.103 83.203C985.123 84.9632 985.123 86.705 985.079 88.4239C985.059 88.7173 985.059 89.006 985.059 89.2765C984.99 91.0779 984.901 92.838 984.768 94.5799C984.744 94.997 984.699 95.4095 984.68 95.8037C984.522 97.4631 984.364 99.0995 984.187 100.695C984.142 101.07 984.098 101.442 984.054 101.818C983.852 103.431 983.655 104.985 983.408 106.502C983.383 106.686 983.339 106.874 983.319 107.061C983.098 108.492 982.851 109.88 982.605 111.205C1002.31 113.795 1017.48 129.508 1017.48 148.558C1017.48 159.128 1012.8 168.667 1005.29 175.524C1022.2 177.142 1038.14 179.549 1051.78 182.533C1099.67 193.021 1118.83 228.797 1114.37 261.901Z" fill="#926348"/>
</g>
<mask id="mask1_1011_6169" style="mask-type:luminance" maskUnits="userSpaceOnUse" x="0" y="173" width="831" height="318">
<path d="M0.408691 173.443H830.488V490.946H0.408691V173.443Z" fill="white"/>
</mask>
<g mask="url(#mask1_1011_6169)">
<path d="M829.444 357.752C829.202 361.671 828.956 365.608 828.69 369.564C828.69 369.711 828.665 369.834 828.665 369.981C828.399 373.941 828.108 377.897 827.818 381.839C827.818 381.88 827.818 381.899 827.818 381.922C827.66 383.888 827.527 385.859 827.374 387.826C827.374 387.849 827.374 387.89 827.374 387.913C827.059 391.827 826.748 395.723 826.438 399.583C826.438 399.707 826.413 399.849 826.413 399.973C825.945 405.716 825.457 411.377 824.964 416.868C824.964 416.992 824.945 417.097 824.945 417.221C824.61 420.888 824.299 424.496 823.964 427.998C823.964 428.103 823.939 428.186 823.939 428.291C823.787 429.992 823.629 431.669 823.471 433.329C823.451 433.37 823.451 433.429 823.451 433.471C823.116 436.954 822.781 440.332 822.471 443.61V443.628C822.136 446.883 821.845 449.99 821.535 452.997C821.51 453.144 821.51 453.268 821.49 453.415C821.357 454.739 821.224 456.046 821.086 457.311C821.066 457.476 821.066 457.622 821.042 457.765C820.756 460.565 820.485 463.238 820.219 465.745C820.219 465.827 820.199 465.892 820.199 465.974C819.529 472.277 818.947 477.626 818.504 481.747C818.479 481.935 818.46 482.123 818.435 482.311C818.371 482.888 818.327 483.447 818.258 483.965C818.238 484.194 818.213 484.424 818.194 484.63C818.056 485.812 817.922 486.848 817.834 487.719C817.814 487.949 817.789 488.132 817.77 488.343C817.725 488.65 817.681 488.962 817.656 489.232C817.656 489.296 817.632 489.379 817.632 489.438C817.612 489.603 817.612 489.727 817.587 489.874C817.568 490.121 817.543 490.35 817.523 490.515C817.479 490.91 817.454 491.162 817.454 491.162H587.592L598.157 409.924C598.645 410.006 599.182 409.924 599.739 409.553C611.792 401.302 623.067 391.91 633.79 382.188C654.068 363.784 673.143 342.909 684.753 318.68C686.044 315.962 681.742 313.601 680.427 316.337C668.955 340.255 650.254 360.759 630.247 378.892C619.839 388.325 608.895 397.506 597.196 405.528C597.132 405.592 597.107 405.656 597.043 405.698L529.651 317.515C536.249 307.922 542.867 298.342 549.465 288.748C550.51 287.212 551.579 285.677 552.629 284.146C554.186 281.863 555.748 279.603 557.305 277.343C559.134 274.689 560.917 272.017 562.701 269.322C568.782 260.159 574.824 250.831 581.575 242.085C583.137 240.073 584.763 238.084 586.409 236.135C587.858 234.417 589.376 232.739 590.913 231.08C592.027 229.897 593.14 228.696 594.298 227.555C594.969 226.913 595.659 226.271 596.329 225.629C598.201 223.865 600.118 222.123 602.144 220.464C603.883 219.056 605.687 217.709 607.515 216.384C608.141 215.926 608.806 215.49 609.451 215.036C610.634 214.207 611.837 213.395 613.064 212.612C613.887 212.094 614.714 211.553 615.557 211.035C616.582 210.393 617.656 209.77 618.701 209.146C619.682 208.569 620.638 208.01 621.643 207.45C622.377 207.033 623.136 206.639 623.895 206.245C628.463 203.82 633.164 201.56 637.934 199.53C638.131 199.447 638.333 199.365 638.535 199.282C640.319 198.512 642.123 197.788 643.926 197.082C647.691 195.592 651.505 194.203 655.339 192.938C681.876 184.169 712.142 182.593 740.728 187.406C748.485 188.712 756.083 190.49 763.485 192.709C763.662 192.75 763.84 192.814 764.017 192.874C767.161 193.827 770.256 194.909 773.311 196.028C774.07 196.316 774.824 196.587 775.563 196.876C778.791 198.122 782.004 199.447 785.098 200.877C785.098 200.877 785.187 200.918 785.3 200.96C785.345 200.983 785.364 200.983 785.409 201.001C785.744 201.148 786.414 201.436 787.306 201.895C787.35 201.936 787.414 201.954 787.483 201.996C788.42 202.472 789.602 203.114 790.982 203.967C791.026 204.008 791.096 204.049 791.16 204.09C792.589 204.961 794.19 206.038 795.93 207.322C795.974 207.363 796.038 207.409 796.087 207.45C797.847 208.752 799.739 210.311 801.7 212.094C801.745 212.135 801.813 212.194 801.858 212.236C803.819 214.042 805.844 216.114 807.875 218.433C807.939 218.497 807.983 218.557 808.052 218.621C810.058 220.963 812.083 223.576 814.044 226.477C814.113 226.583 814.182 226.684 814.246 226.789C816.188 229.691 818.056 232.881 819.82 236.388C819.908 236.553 819.972 236.695 820.061 236.864C820.953 238.643 821.801 240.49 822.604 242.438C824.945 248.117 826.95 254.521 828.443 261.694C808.9 251.766 788.533 243.456 766.225 239.142C725.955 231.368 715.73 237.689 718.824 245.757C720.362 249.859 730.612 253.962 737.836 256.409C736.451 256.327 735.071 256.263 733.687 256.162C731.952 256.038 731.193 257.34 731.326 258.605C721.88 259.187 710.738 261.282 708.954 267.956C707.949 271.646 710.491 274.754 712.517 276.555C712.073 277.637 712.428 279.003 713.586 279.585C705.519 288.807 714.414 295.046 717.375 296.746C714.838 297.411 715.015 301.348 718.001 301.266C718.514 301.243 719.026 301.243 719.539 301.225C720.431 303.462 721.589 305.928 722.367 306.592C726.226 309.828 732.662 310.924 737.501 312.107C753.477 316.026 764.106 319.858 778.638 327.714C780.24 328.585 781.846 329.479 783.497 330.304C798.625 338.807 814.246 348.135 829.444 357.752ZM293.594 246.376C293.416 244.492 293.17 242.585 292.835 240.719C292.815 240.55 292.771 240.407 292.746 240.242C292.411 238.436 292.012 236.653 291.544 234.87C291.48 234.623 291.411 234.375 291.342 234.146C290.874 232.468 290.317 230.791 289.716 229.131C289.583 228.797 289.449 228.467 289.316 228.137C288.715 226.583 288.045 225.024 287.331 223.512C287.133 223.076 286.907 222.664 286.685 222.247C285.975 220.839 285.216 219.428 284.389 218.039C284.078 217.544 283.743 217.044 283.433 216.549C282.629 215.284 281.782 214.019 280.87 212.777C280.446 212.194 279.978 211.635 279.535 211.076C278.643 209.958 277.751 208.816 276.77 207.739C276.213 207.116 275.588 206.515 274.986 205.892C274.03 204.897 273.094 203.925 272.069 202.972C271.355 202.307 270.576 201.684 269.817 201.042C268.812 200.194 267.836 199.323 266.762 198.512C265.875 197.829 264.914 197.21 263.978 196.564C262.933 195.84 261.928 195.115 260.839 194.432C259.745 193.745 258.587 193.144 257.448 192.503C256.404 191.921 255.379 191.302 254.26 190.743C252.949 190.078 251.545 189.496 250.16 188.895C249.115 188.441 248.135 187.942 247.041 187.506C245.395 186.846 243.655 186.283 241.916 185.705C241.004 185.393 240.132 185.04 239.176 184.752C236.456 183.922 233.603 183.175 230.666 182.533C227.522 181.85 224.225 181.185 220.859 180.562C220.771 180.544 220.682 180.544 220.613 180.521C217.292 179.92 213.862 179.32 210.338 178.779L207.263 195.633L203.366 227.408L125.817 179.091L126.95 174.223C124.634 174.365 122.318 174.53 120.022 174.718C119.11 174.782 118.193 174.864 117.301 174.924C115.143 175.089 113.024 175.277 110.885 175.483C109.836 175.589 108.791 175.694 107.741 175.795C105.716 176.001 103.686 176.212 101.705 176.437C98.9601 176.748 96.2449 177.083 93.5691 177.431C92.1893 177.619 90.8735 177.807 89.5135 178.013C87.7542 178.261 85.995 178.513 84.2555 178.779C83.0285 178.967 81.8261 179.173 80.6237 179.361C78.7068 179.673 76.8342 180.003 74.9863 180.337C74.0254 180.502 73.0447 180.686 72.0887 180.874C69.3242 181.415 66.5844 181.951 63.9776 182.51C16.0645 193.002 -3.08006 228.778 1.37961 261.882C15.7294 368.528 23.5055 491.244 23.5055 491.244H262.908C262.908 491.244 262.997 490.515 263.174 489.168C263.243 488.714 263.307 488.196 263.376 487.573C263.421 487.284 263.465 486.972 263.49 486.642C263.643 485.478 263.825 484.153 264.022 482.576C264.155 481.563 264.313 480.445 264.47 479.262C264.712 477.456 264.983 475.407 265.249 473.248C265.338 472.588 265.426 471.901 265.515 471.218C265.673 470.076 265.826 468.876 265.983 467.652C266.274 465.415 266.584 463.05 266.92 460.542C266.989 459.965 267.077 459.405 267.141 458.8C267.23 458.14 267.319 457.499 267.412 456.811C270.33 434.635 274.41 403.58 278.998 369.005C279.086 368.322 279.175 367.639 279.264 366.933C279.49 365.255 279.712 363.578 279.934 361.895C271.286 367.451 262.82 373.07 254.708 378.667C250.249 381.752 245.705 384.759 241.113 387.661C241.694 388.655 241.65 390.067 240.403 390.915C239.555 391.497 238.708 392.056 237.86 392.616L245.104 407.623L237.86 392.639C219.613 405.01 200.246 416.144 179.52 424.537C148.903 436.913 112.955 444.128 81.0918 431.38C51.318 419.458 33.4695 393.509 22.3474 365.938V365.897C19.1641 357.958 16.4883 349.913 14.2806 341.997C13.7928 340.255 15.3302 339.155 16.7987 339.137C17.804 339.114 18.7846 339.591 19.1197 340.773C25.3337 363.055 34.3811 385.63 50.3177 403.603C100.877 460.606 183.778 423.542 235.81 388.302L199.463 312.831C182.531 318.803 166.441 326.637 150.283 334.182C139.541 339.178 129.158 344.61 118.883 350.372C116.124 351.926 113.606 347.883 116.365 346.352C121.224 343.634 126.127 341.003 131.05 338.454C131.03 338.413 131.006 338.39 130.986 338.349C126.418 326.307 121.515 314.343 116.409 302.467C112.29 292.869 108.008 283.334 103.262 273.988C102.483 272.453 101.705 270.899 100.902 269.322C98.0731 263.789 94.9735 258.211 90.9179 253.485C88.9123 251.166 92.4554 247.847 94.461 250.189C98.8073 255.25 102.06 261.094 105.135 266.879L125.817 254.956L211.299 304.374C239.018 289.825 265.362 272.265 293.618 258.587C293.796 256.597 293.884 254.585 293.884 252.596C293.884 252.573 293.884 252.532 293.884 252.513C293.884 250.542 293.796 248.594 293.618 246.623C293.618 246.541 293.594 246.458 293.594 246.376ZM198.285 308.252C199.689 307.752 200.69 308.481 201.094 309.475C204.479 307.835 207.865 306.18 211.23 304.397L211.299 304.415L211.255 304.397C211.255 304.397 211.275 304.397 211.275 304.374L211.166 304.333L125.817 254.998L105.135 266.897C105.268 267.145 105.401 267.374 105.514 267.621C117.193 289.72 126.64 312.996 135.465 336.213C139.964 333.934 144.488 331.652 149.101 329.52C164.993 322.14 180.791 314.531 197.393 308.623L193.471 300.5L197.393 308.605C197.704 308.499 197.994 308.375 198.285 308.252Z" fill="#6982B5"/>
</g>
<path d="M549.396 288.83L529.586 317.598C536.18 308.004 542.803 298.424 549.396 288.83ZM529.586 317.598L519.534 332.211C519.691 332.316 519.824 332.357 519.982 332.504C523.234 335.758 526.221 339.302 529.005 342.909C533.509 348.753 537.899 355.368 538.9 362.624C539.077 363.884 537.609 364.943 536.406 364.943C534.933 364.943 534.066 363.866 533.908 362.624C533.041 356.28 528.448 350.083 524.481 344.981C522.007 341.791 519.336 338.678 516.459 335.8C515.66 334.988 515.636 334.058 516.015 333.292L485.064 321.187C494.712 326.096 500.906 329.268 500.906 329.268L500.862 329.309C500.685 329.227 494.535 326.078 485.039 321.228C467.102 312.083 437.081 296.934 411.989 284.682C411.969 284.663 411.945 284.64 411.9 284.64C408.85 282.775 405.819 280.891 402.878 279.044C402.7 279.273 402.454 279.461 402.163 279.585C410.23 288.807 401.36 295.027 398.373 296.746C400.916 297.411 400.714 301.348 397.753 301.266C397.24 301.243 396.728 301.243 396.215 301.224C395.323 303.461 394.165 305.927 393.382 306.592C389.528 309.828 383.087 310.924 378.253 312.106C362.272 316.025 351.643 319.857 337.116 327.714C335.509 328.585 333.908 329.456 332.326 330.368C331.301 330.95 330.251 331.551 329.226 332.128C349.416 342.827 373.596 359.864 373.596 359.864L451.949 308.27C451.949 308.27 434.14 298.158 415.823 287.047C434.14 298.135 451.949 308.27 451.949 308.27L373.596 359.887L375.868 361.171L375.824 361.212C375.824 361.212 482.033 438.279 531.794 442.487C532.706 442.574 533.642 442.551 534.553 442.551C542.399 442.674 550.446 440.561 558.424 436.931C558.444 436.913 558.488 436.913 558.513 436.89C559.779 436.312 561.05 435.689 562.322 435.047C562.455 434.983 562.588 434.9 562.701 434.841C563.948 434.199 565.175 433.512 566.402 432.81C566.466 432.769 566.51 432.746 566.579 432.705C570.231 430.592 573.818 428.185 577.386 425.595C577.721 425.348 578.032 425.119 578.367 424.89C579.234 424.248 580.082 423.583 580.954 422.923C581.53 422.465 582.112 422.029 582.669 421.575C583.423 420.97 584.162 420.37 584.916 419.751C585.611 419.192 586.276 418.628 586.946 418.051C587.616 417.491 588.262 416.932 588.927 416.35C589.73 415.644 590.514 414.938 591.312 414.237C591.849 413.76 592.381 413.283 592.918 412.807C594.21 411.624 595.481 410.423 596.752 409.218C595.905 408.306 595.747 406.775 596.974 405.78L529.586 317.598ZM740.684 187.488C712.098 182.656 681.831 184.252 655.27 192.979C651.461 194.244 647.647 195.651 643.862 197.127L643.502 195.509L641.832 187.754C650.456 185.145 658.857 181.391 665.633 175.694C668.018 173.681 664.475 170.386 662.09 172.398C655.852 177.66 647.962 181.061 640.004 183.445C638.934 183.757 638.422 184.522 638.313 185.329C616.05 190.284 600.961 186.493 591.514 180.085C590.666 179.526 589.863 178.925 589.109 178.302C589.021 178.242 588.952 178.178 588.883 178.119C588.193 177.559 587.547 176.995 586.946 176.418C586.788 176.271 586.655 176.106 586.502 175.96C585.99 175.465 585.497 174.965 585.054 174.447C584.783 174.135 584.561 173.846 584.314 173.535C584.004 173.141 583.694 172.769 583.403 172.398C582.89 171.71 582.422 171.009 581.998 170.322C574.178 157.574 576.184 145.427 578.455 129.797C578.455 129.797 565.865 124.181 566.668 117.26C567.314 111.663 580.392 114.418 580.594 110.71C580.727 108.221 580.796 105.649 580.816 102.995C580.816 101.318 580.816 99.6171 580.816 97.9166C580.84 92.0539 580.86 86.0217 581.151 79.9895L633.208 85.3342L640.851 59.0326L643.971 88.4878C643.971 88.4878 647.317 91.3251 652.772 95.5972C659.193 88.3411 670.96 78.3073 686.158 80.237C704.962 82.6206 713.724 107.414 698.236 125.983L698.211 126.006C711.871 133.262 725.511 138.359 735.717 137.241C735.741 137.511 735.761 137.759 735.785 138.006C736.052 140.66 736.318 143.378 736.584 146.11C736.875 149.035 737.165 151.977 737.456 154.879C737.52 155.585 737.589 156.291 737.653 156.997C737.835 158.674 737.988 160.311 738.146 161.929C738.235 162.735 738.323 163.524 738.392 164.312C738.658 167.008 738.905 169.597 739.146 172.045C739.215 172.646 739.26 173.246 739.329 173.828C739.93 179.815 740.398 184.627 740.684 187.488ZM606.736 131.791C605.465 131.497 603.972 132.139 603.661 133.404C603.572 133.839 603.434 134.257 603.282 134.651C603.257 134.71 603.237 134.752 603.213 134.816C603.124 134.981 603.035 135.169 602.922 135.334C602.725 135.687 602.498 135.998 602.257 136.306C602.232 136.328 602.212 136.328 602.168 136.393C602.03 136.535 601.897 136.681 601.764 136.805C601.498 137.076 601.187 137.323 600.897 137.552C600.872 137.571 600.872 137.552 600.828 137.594C600.675 137.694 600.517 137.781 600.359 137.882C600.049 138.07 599.714 138.235 599.379 138.4C599.201 138.483 599.049 138.565 598.866 138.629C598.847 138.629 598.847 138.629 598.847 138.629C598.201 138.836 597.575 139.065 596.905 139.212C596.595 139.271 596.26 139.335 595.924 139.395C595.949 139.395 595.969 139.395 595.993 139.395C595.836 139.395 595.683 139.418 595.525 139.436C594.968 139.477 594.412 139.5 593.855 139.477C593.786 139.477 593.697 139.459 593.633 139.459C593.475 139.436 593.318 139.418 593.185 139.377C591.938 139.024 590.4 139.771 590.11 140.99C589.799 142.237 590.514 143.502 591.849 143.855C593.963 144.414 596.417 144.121 598.487 143.626C601.232 142.961 603.972 141.614 605.8 139.56C607.091 138.13 608.027 136.475 608.471 134.651C608.761 133.468 608.071 132.079 606.736 131.791ZM595.905 139.395C595.279 139.395 595.658 139.436 595.905 139.395V139.395ZM615.783 100.094C614.892 99.2642 613.108 99.1221 612.24 100.094C611.881 100.488 611.501 100.882 611.082 101.254C610.678 101.629 610.368 101.836 610.146 101.982C609.742 102.23 609.298 102.477 608.85 102.684C608.83 102.707 608.471 102.853 608.426 102.872C608.249 102.936 608.047 102.995 607.869 103.06C607.401 103.183 606.958 103.307 606.49 103.39C606.445 103.39 606.135 103.431 606.066 103.454C605.888 103.472 605.711 103.472 605.529 103.495C604.642 103.555 603.75 103.513 602.858 103.431C602.769 103.412 602.656 103.412 602.592 103.39C602.365 103.348 602.168 103.307 601.941 103.266C601.517 103.183 601.099 103.078 600.695 102.977C600.295 102.872 599.891 102.748 599.517 102.624C599.359 102.583 599.182 102.519 599.024 102.459C598.955 102.436 598.911 102.418 598.847 102.395C598.245 102.147 597.664 101.859 597.107 101.524C596.974 101.464 596.861 101.382 596.728 101.299C596.575 101.153 596.373 101.006 596.215 100.864C593.963 98.705 590.42 102.001 592.672 104.16C595.235 106.603 599.246 107.744 602.789 108.115C607.672 108.615 612.575 106.956 615.714 103.39C616.582 102.418 616.739 101.047 615.783 100.094ZM665.697 119.621C666.767 120.533 668.171 120.473 669.24 119.621C673.498 116.265 677.731 112.905 681.989 109.527C682.614 109.051 683.216 108.574 683.817 108.097C684.817 107.309 684.753 105.608 683.817 104.801C682.747 103.889 681.343 103.949 680.274 104.801C676.016 108.18 671.783 111.535 667.526 114.895C666.905 115.372 666.298 115.848 665.697 116.325C664.697 117.113 664.761 118.814 665.697 119.621ZM682.299 138.13C683.349 137.612 684.349 137.076 685.31 136.535C684.349 137.076 683.349 137.612 682.324 138.112L646.779 109.321L682.299 138.13ZM203.385 2.91825L203.745 3.14744C200.892 3.35371 198.083 3.70666 195.298 4.18337C195.274 4.18337 195.254 4.18336 195.229 4.20628C192.421 4.683 189.661 5.26055 186.966 6.0077C185.093 6.50733 183.24 7.1078 181.417 7.74953C180.949 7.91454 180.5 8.07956 180.032 8.24457C178.229 8.90922 176.425 9.63345 174.685 10.4448C174.685 10.4448 174.685 10.4448 174.661 10.4448C173.281 11.0865 171.921 11.7511 170.541 12.4983C168.979 13.3234 167.442 14.2172 165.904 15.1706C165.48 15.4411 165.057 15.7298 164.633 16.0003C163.499 16.7474 162.386 17.5129 161.267 18.3197C160.824 18.6543 160.38 18.9843 159.956 19.3143C158.818 20.1853 157.704 21.0974 156.591 22.0738C156.231 22.3855 155.901 22.6742 155.541 22.9859C154.092 24.2694 152.688 25.6399 151.333 27.0884C150.953 27.5055 150.593 27.918 150.214 28.3535C149.189 29.4949 148.208 30.6545 147.228 31.8784C146.227 33.1435 145.247 34.4499 144.31 35.8159C142.684 38.2223 141.216 40.6884 139.92 43.1728C139.299 44.3966 138.698 45.6205 138.161 46.8627C137.983 47.2798 137.825 47.6924 137.648 48.0866C137.293 48.9162 136.934 49.7459 136.623 50.5939C136.421 51.0935 136.268 51.5886 136.086 52.0882C135.82 52.8537 135.529 53.6237 135.288 54.3892C135.105 54.9255 134.953 55.4664 134.795 56.0073C134.573 56.7315 134.351 57.4558 134.149 58.2029C133.992 58.7621 133.859 59.3214 133.726 59.8622C133.548 60.5865 133.371 61.3107 133.193 62.0166C133.055 62.5758 132.947 63.135 132.834 63.6943C132.681 64.4002 132.543 65.1244 132.41 65.8303C132.301 66.3895 132.213 66.9716 132.119 67.5309C132.011 68.2367 131.897 68.961 131.789 69.6669C131.7 70.2261 131.631 70.7853 131.562 71.3445C131.474 72.0504 131.385 72.7747 131.321 73.4806C131.252 74.0398 131.207 74.5761 131.163 75.1399C131.094 75.8412 131.05 76.57 131.005 77.2713C130.961 77.8122 130.941 78.3714 130.897 78.9123C130.853 79.6136 130.828 80.3195 130.808 81.0254C130.784 81.5617 130.764 82.0797 130.764 82.6206C130.739 83.3448 130.739 84.0507 130.739 84.7566C130.739 85.2517 130.739 85.7696 130.739 86.2692C130.739 86.9935 130.764 87.7177 130.784 88.4236C130.808 88.9003 130.808 89.377 130.828 89.8354C130.853 90.6009 130.897 91.3481 130.941 92.0952C130.961 92.5077 130.986 92.9019 131.005 93.3145C131.05 94.1854 131.119 95.038 131.207 95.8676C131.232 96.1335 131.252 96.4268 131.276 96.6973C131.474 98.9525 131.72 101.13 131.986 103.225C132.011 103.454 132.055 103.683 132.075 103.908C132.188 104.696 132.301 105.507 132.41 106.273C132.454 106.584 132.523 106.892 132.567 107.203C132.681 107.868 132.789 108.533 132.903 109.193C132.967 109.527 133.011 109.839 133.08 110.169C133.193 110.769 133.302 111.37 133.415 111.952C133.479 112.282 133.548 112.594 133.612 112.924C133.726 113.488 133.839 114.024 133.947 114.542C134.016 114.854 134.08 115.165 134.149 115.454C134.263 115.972 134.371 116.472 134.484 116.967C134.548 117.26 134.617 117.526 134.686 117.796C134.795 118.273 134.908 118.731 135.017 119.185C135.086 119.456 135.15 119.703 135.219 119.974C135.332 120.409 135.44 120.822 135.529 121.216C135.598 121.445 135.642 121.674 135.711 121.88C135.82 122.293 135.933 122.669 136.022 123.04C136.066 123.228 136.13 123.416 136.18 123.581C136.288 123.952 136.377 124.328 136.49 124.658C136.534 124.782 136.554 124.929 136.598 125.052C136.712 125.424 136.8 125.758 136.914 126.065C136.934 126.13 136.958 126.212 136.978 126.295C137.091 126.648 137.18 126.978 137.269 127.248V127.271C137.559 128.16 137.737 128.637 137.737 128.637C137.737 128.637 147.923 123.705 159.774 114.336C137.313 93.9791 148.302 63.9234 169.516 62.7637C178.83 62.2458 186.517 66.0778 192.421 70.8862C192.421 70.8862 192.421 70.8862 192.421 70.8678C192.421 70.8678 222.15 71.1383 231.153 47.2798C231.153 47.2798 253.057 78.784 269.57 68.3193L286.083 57.85L286.108 57.8729L269.595 68.3376C269.595 68.3376 270.241 86.2051 283.698 91.536C284.236 91.7422 284.812 91.9485 285.394 92.1135C285.975 92.2785 286.576 92.4482 287.222 92.5719C287.242 92.5719 287.286 92.5719 287.311 92.5902C287.912 92.714 288.538 92.7965 289.183 92.8836C289.272 92.8836 289.36 92.9019 289.449 92.9019C290.05 92.9661 290.652 93.0074 291.277 93.0257C291.43 93.0257 291.613 93.0257 291.765 93.0257C292.347 93.0257 292.923 93.0257 293.529 93.0074C293.796 92.9844 294.086 92.9661 294.372 92.9432C294.885 92.9019 295.397 92.8607 295.934 92.7965C296.378 92.7369 296.846 92.6544 297.294 92.5902C297.693 92.5307 298.097 92.4665 298.497 92.4023C299.389 92.2373 300.3 92.031 301.237 91.7835C331.769 83.8215 306.899 -10.6588 203.385 2.91825Z" fill="#5A3D2C"/>
<mask id="mask2_1011_6169" style="mask-type:luminance" maskUnits="userSpaceOnUse" x="288" y="174" width="828" height="317">
<path d="M288.035 174.615H1115.59V490.945H288.035V174.615Z" fill="white"/>
</mask>
<g mask="url(#mask2_1011_6169)">
<path d="M1114.37 261.941C1113.19 270.586 1112.08 279.332 1111.01 288.123C1110.96 288.495 1110.92 288.889 1110.88 289.265C1109.81 298.07 1108.76 306.903 1107.78 315.69C1107.78 315.713 1107.78 315.713 1107.78 315.713C1106.71 315.608 1105.57 316.043 1105.13 317.267C1102.65 324.147 1100.2 331.009 1097.73 337.894C1097.39 338.806 1097.08 339.695 1096.75 340.607L992.81 303.96C992.835 303.878 992.879 303.836 992.899 303.754C995.777 292.084 999.719 280.537 1004.2 269.321C1008.01 259.828 1012.35 250.482 1017.81 241.713C1022.63 233.998 1028.44 226.165 1036.62 221.251C1039.32 219.637 1036.83 215.595 1034.11 217.231C1020.67 225.317 1012.47 239.824 1006.05 252.989C999.7 266.048 994.708 279.685 990.608 293.491C989.736 296.475 988.868 299.482 988.109 302.507C987.774 303.836 988.602 304.79 989.671 305.184L977.771 334.245C977.702 334.245 977.638 334.222 977.549 334.204C976.253 333.975 975.272 334.639 974.785 335.51C950.983 324.793 927.606 316.52 904.499 304.396C878.85 290.919 854.383 274.876 828.488 261.716C827.014 254.543 825.009 248.139 822.648 242.455C823.047 239.724 823.673 237.047 824.408 234.374C824.61 233.609 824.812 232.839 825.053 232.073C825.368 231.056 825.723 230.061 826.103 229.066C826.413 228.26 826.729 227.448 827.059 226.641C827.463 225.688 827.862 224.735 828.31 223.804C828.71 222.952 829.153 222.104 829.601 221.251C830.045 220.38 830.493 219.509 830.981 218.661C831.829 217.231 832.721 215.842 833.677 214.453C834.214 213.688 834.795 212.941 835.372 212.175C836.131 211.18 836.89 210.181 837.713 209.209C838.294 208.526 838.895 207.885 839.496 207.22C840.3 206.326 841.142 205.437 842.034 204.566C842.66 203.943 843.306 203.324 843.976 202.719C844.976 201.811 846.026 200.917 847.095 200.047C847.716 199.551 848.298 199.034 848.943 198.557C850.658 197.25 852.442 195.985 854.339 194.78C854.625 194.574 854.96 194.409 855.27 194.221C856.946 193.208 858.661 192.231 860.445 191.301C861.154 190.925 861.913 190.572 862.647 190.224C864.121 189.518 865.634 188.812 867.196 188.17C868.019 187.817 868.866 187.487 869.714 187.152C871.34 186.511 873.035 185.933 874.77 185.369C875.573 185.122 876.352 184.851 877.155 184.604C879.717 183.838 882.349 183.132 885.089 182.532C888.232 181.849 891.51 181.184 894.895 180.561C894.959 180.543 895.053 180.543 895.141 180.52C898.482 179.901 901.892 179.319 905.411 178.778L908.486 195.632C908.486 195.632 914.439 206.037 927.877 210.993C927.852 211.405 927.808 211.822 927.808 212.235C927.808 222.869 932.534 232.467 940.132 239.329C919.677 241.277 903.721 257.362 903.721 276.907C903.721 297.781 921.904 314.695 944.345 314.695C966.782 314.695 984.965 297.781 984.965 276.907C984.965 266.273 980.245 256.679 972.646 249.817C993.101 247.869 1009.06 231.784 1009.06 212.235C1009.06 200.335 1003.15 189.747 993.924 182.821C998.162 180.996 1002.02 178.53 1005.31 175.523C1009.35 175.918 1013.33 176.353 1017.24 176.83C1017.64 176.871 1018.02 176.935 1018.42 176.976C1021.83 177.389 1025.19 177.866 1028.49 178.342C1029.18 178.448 1029.87 178.553 1030.56 178.654C1033.57 179.113 1036.47 179.589 1039.34 180.107C1040.12 180.249 1040.93 180.378 1041.68 180.52C1045.16 181.143 1048.54 181.826 1051.78 182.532C1099.67 193.02 1118.83 228.796 1114.37 261.941ZM1098.46 343.55C1076.47 420.681 1025.41 458.016 939.999 424.742C911.319 413.572 885.867 395.81 861.065 378.708C852.954 373.111 844.464 367.491 835.82 361.936C836.042 363.636 836.264 365.295 836.486 366.973C836.574 367.656 836.663 368.362 836.757 369.045C841.344 403.643 845.425 434.694 848.342 456.851C848.431 457.539 848.519 458.181 848.608 458.841C848.677 459.423 848.766 460.005 848.835 460.583C849.076 462.489 849.323 464.314 849.544 466.078C850.214 471.199 850.791 475.654 851.284 479.321C851.441 480.504 851.575 481.622 851.727 482.64C851.929 484.216 852.107 485.541 852.264 486.701C852.309 487.035 852.353 487.342 852.378 487.636C852.466 488.255 852.531 488.773 852.575 489.231C852.752 490.556 852.846 491.303 852.846 491.303H1092.24C1092.24 491.303 1092.27 491.055 1092.29 490.702C1092.29 490.537 1092.31 490.331 1092.33 490.079C1092.33 489.978 1092.36 489.873 1092.36 489.749C1092.38 489.378 1092.4 488.961 1092.45 488.466C1092.45 488.337 1092.47 488.236 1092.47 488.09C1092.49 487.778 1092.51 487.407 1092.53 487.054C1093.69 469.869 1098.44 402.131 1106.4 328.46C1104.77 332.998 1103.14 337.518 1101.51 342.06C1101 343.385 1099.65 343.779 1098.46 343.55ZM547.681 276.971C547.144 276.206 546.632 275.417 546.1 274.647C544.942 272.969 543.759 271.292 542.576 269.632C542.133 268.991 541.684 268.367 541.216 267.726C539.59 265.507 537.944 263.312 536.249 261.153C535.939 260.763 535.623 260.387 535.313 260.016C533.908 258.274 532.459 256.555 530.966 254.854C530.39 254.19 529.789 253.548 529.207 252.906C527.872 251.435 526.487 250.005 525.083 248.616C524.481 248.011 523.88 247.41 523.279 246.81C521.254 244.885 519.179 243.019 516.996 241.236C515.257 239.824 513.453 238.477 511.625 237.152C510.979 236.694 510.334 236.24 509.688 235.804C508.481 234.975 507.278 234.168 506.051 233.357C505.228 232.82 504.405 232.302 503.558 231.784C502.508 231.138 501.439 230.519 500.394 229.878C499.433 229.314 498.453 228.736 497.472 228.195C496.718 227.783 495.935 227.366 495.156 226.953C490.613 224.528 485.956 222.287 481.186 220.256C480.984 220.174 480.782 220.091 480.584 219.986C478.801 219.243 476.997 218.496 475.188 217.79C471.404 216.319 467.59 214.912 463.781 213.665C455.068 210.786 445.932 208.733 436.594 207.362L436.55 219.22H347.233C347.233 219.22 347.258 218.12 347.346 216.172C347.346 216.172 347.346 216.172 347.322 216.172C345.07 216.983 342.842 217.831 340.635 218.725C338.388 219.637 336.18 220.591 333.997 221.586C333.997 221.586 333.908 221.627 333.82 221.668C333.795 221.668 333.751 221.686 333.731 221.709C333.593 221.769 333.415 221.851 333.174 221.957C333.125 221.98 333.105 221.98 333.061 221.998C332.77 222.122 332.435 222.287 332.036 222.498C332.011 222.498 332.011 222.516 331.991 222.516C331.612 222.704 331.168 222.933 330.7 223.181C330.631 223.222 330.587 223.24 330.518 223.282C329.493 223.845 328.246 224.547 326.886 225.441C326.842 225.459 326.797 225.5 326.778 225.523C326.107 225.958 325.393 226.435 324.634 226.953C324.614 226.972 324.57 226.994 324.545 227.013C323.008 228.095 321.337 229.378 319.578 230.849C319.509 230.891 319.465 230.955 319.401 230.996C316.769 233.233 313.96 235.928 311.176 239.141C311.112 239.224 311.043 239.288 310.974 239.371C309.126 241.502 307.278 243.89 305.47 246.498C305.381 246.622 305.317 246.75 305.228 246.874C304.381 248.116 303.533 249.423 302.71 250.789C302.666 250.876 302.622 250.935 302.577 251.018C301.685 252.489 300.813 254.025 299.99 255.643C315.68 248.469 331.991 242.584 349.529 239.183C389.819 231.39 400.049 237.711 396.95 245.774C395.412 249.877 385.162 253.984 377.943 256.427C379.323 256.344 380.703 256.285 382.087 256.179C383.822 256.055 384.581 257.362 384.448 258.627C393.894 259.186 405.061 261.299 406.82 267.973C407.825 271.686 405.283 274.775 403.257 276.577C403.592 277.384 403.479 278.36 402.898 279.043C405.839 280.89 408.87 282.774 411.925 284.64C437.037 296.892 467.077 312.064 485.039 321.204L515.991 333.31C516.592 332.086 518.198 331.362 519.534 332.233L549.396 288.848C550.446 287.312 551.515 285.781 552.56 284.246C552.092 283.54 551.648 282.857 551.18 282.174C550.022 280.432 548.864 278.69 547.681 276.971ZM531.77 442.591C482.009 438.319 375.8 361.253 375.8 361.253L375.888 361.188L373.597 359.887C373.597 359.887 349.416 342.844 329.227 332.15C315.744 339.801 301.927 348.047 288.4 356.568C289.627 387.018 292.17 420.745 294.619 448.789C294.619 448.83 294.619 448.853 294.619 448.894C295.087 454.367 295.555 459.611 296.023 464.566C296.048 464.873 296.092 465.166 296.112 465.478C296.314 467.674 296.516 469.81 296.713 471.882C296.738 472.111 296.757 472.317 296.782 472.546C296.979 474.76 297.206 476.919 297.403 478.991C297.428 479.321 297.472 479.614 297.492 479.944C297.649 481.604 297.807 483.222 297.96 484.776C298.009 485.271 298.053 485.747 298.098 486.247C298.275 488.007 298.428 489.726 298.61 491.326H540.861L534.534 442.655C533.618 442.633 532.681 442.655 531.77 442.591Z" fill="#32302F"/>
</g>
<path d="M829.665 57.8732C829.557 59.5691 829.468 61.2697 829.443 62.9474C829.468 61.2697 829.532 59.5921 829.665 57.9144C829.665 57.8915 829.665 57.8915 829.665 57.8732ZM932.489 103.39C936.455 99.7412 940.398 96.0925 944.365 92.4255C944.946 91.8846 945.523 91.3666 946.079 90.8487C947.016 90.0007 947.085 88.4055 946.079 87.553C945.079 86.705 943.542 86.6408 942.536 87.553C938.569 91.2016 934.627 94.8503 930.66 98.5219C930.079 99.0398 929.522 99.5761 928.945 100.094C928.009 100.947 927.94 102.542 928.945 103.39C929.946 104.242 931.483 104.302 932.489 103.39ZM903.917 174.965C904.188 175.217 904.499 175.424 904.834 175.566C905.322 175.795 905.859 175.9 906.391 175.694C914.951 172.439 923.264 168.126 929.655 161.824C931.887 159.646 928.344 156.351 926.112 158.528C920.342 164.189 912.521 168.355 905.055 171.193C904.41 171.445 903.853 171.857 903.538 172.398C903.385 172.623 903.296 172.893 903.252 173.164C903.208 173.453 903.227 173.741 903.316 174.053C903.405 174.365 903.607 174.676 903.873 174.924C903.897 174.947 903.897 174.947 903.917 174.965ZM869.777 128.454C869.777 127.106 868.619 126.235 867.284 126.13C867.17 126.13 867.082 126.111 866.973 126.111C866.929 126.111 866.904 126.111 866.88 126.089C866.614 126.047 866.367 126.006 866.101 125.942C865.855 125.882 865.633 125.818 865.391 125.736C865.323 125.717 865.234 125.694 865.165 125.653C865.145 125.635 865.145 125.653 865.101 125.635C864.741 125.465 864.411 125.241 864.076 125.053C864.652 125.364 864.164 125.112 864.007 124.97C863.874 124.846 863.741 124.7 863.608 124.576C863.583 124.535 863.539 124.493 863.519 124.452C863.43 124.305 863.317 124.14 863.228 123.994C863.204 123.934 863.159 123.87 863.139 123.829C863.095 123.682 863.026 123.517 862.962 123.375C862.849 123.022 862.78 122.669 862.716 122.316C862.716 122.293 862.716 122.316 862.716 122.275C862.691 122.069 862.671 121.839 862.671 121.633C862.647 121.239 862.671 120.863 862.691 120.473C862.716 120.286 862.716 120.079 862.735 119.891C862.735 119.827 862.78 119.58 862.78 119.456C862.804 119.35 862.824 119.227 862.824 119.185C862.868 118.998 862.893 118.791 862.937 118.608C863.026 118.191 863.115 117.797 863.228 117.384C863.583 116.036 864.051 114.707 864.608 113.401C864.677 113.277 864.721 113.135 864.785 113.011C864.874 112.842 864.943 112.658 865.032 112.489C865.12 112.305 865.209 112.117 865.298 111.952C865.899 110.834 865.613 109.422 864.411 108.757C863.292 108.157 861.577 108.469 860.976 109.587C859.863 111.664 858.995 113.9 858.394 116.137C857.413 119.827 857.034 124.223 859.685 127.413C861.533 129.655 864.362 130.526 867.304 130.773C868.644 130.897 869.777 129.632 869.777 128.454ZM881.88 136.329V136.306C881.811 136.494 881.791 136.517 881.88 136.329ZM887.049 136.599C886.492 138.401 885.536 140.037 884.176 141.407C882.235 143.356 879.475 144.639 876.686 145.18C874.592 145.592 872.098 145.822 870.024 145.157C868.708 144.744 867.974 143.585 868.284 142.297C868.575 141.137 870.112 140.289 871.359 140.683C871.561 140.743 871.739 140.784 871.941 140.825C872.01 140.825 872.054 140.848 872.118 140.848C872.655 140.89 873.168 140.908 873.7 140.89C873.971 140.867 874.257 140.848 874.547 140.825H874.528C874.572 140.807 874.616 140.807 874.636 140.807C874.661 140.807 874.705 140.784 874.725 140.784C874.725 140.784 874.725 140.784 874.749 140.784C874.794 140.784 874.813 140.784 874.813 140.784C874.858 140.784 874.814 140.766 874.749 140.766C874.858 140.766 874.951 140.743 874.996 140.743C875.705 140.619 876.395 140.454 877.065 140.248C877.223 140.184 877.376 140.142 877.534 140.078C877.578 140.06 877.578 140.078 877.603 140.06C877.957 139.895 878.312 139.748 878.647 139.56C878.938 139.395 879.229 139.23 879.52 139.042C879.584 139.001 879.584 139.001 879.608 138.983C879.761 138.859 879.919 138.735 880.076 138.607C880.362 138.359 880.653 138.071 880.919 137.782C881.057 137.612 881.165 137.47 881.279 137.305C881.432 137.076 881.924 136.475 881.9 136.205C881.88 136.246 881.88 136.246 881.855 136.287C881.88 136.182 881.924 136.099 881.969 135.999C882.057 135.788 882.126 135.563 882.19 135.352C882.57 134.11 883.93 133.446 885.265 133.739C886.606 134.028 887.384 135.458 887.049 136.599ZM874.572 140.825C874.547 140.825 874.503 140.848 874.503 140.848C874.503 140.825 874.547 140.825 874.572 140.825ZM874.661 140.825C874.725 140.825 874.769 140.807 874.794 140.807C874.769 140.807 874.749 140.825 874.636 140.825H874.661ZM896.787 99.1819C895.584 98.5219 894.091 98.9528 893.357 100.012C893.312 100.076 893.268 100.135 893.224 100.2C893.022 100.387 892.844 100.594 892.642 100.777C892.421 100.988 892.199 101.171 891.952 101.359C891.883 101.423 891.819 101.465 891.731 101.524C891.75 101.506 891.44 101.731 891.396 101.753C890.77 102.166 890.149 102.542 889.479 102.872C889.124 103.06 888.764 103.206 888.385 103.371C888.276 103.413 888.276 103.431 888.232 103.431C888.188 103.431 888.188 103.454 888.074 103.472C887.872 103.537 887.675 103.596 887.473 103.66C887.074 103.784 886.67 103.889 886.246 103.99C886.049 104.032 885.822 104.073 885.625 104.119C885.645 104.119 884.955 104.219 885.177 104.201C884.6 104.284 883.437 104.302 882.614 104.242C882.368 104.219 882.19 104.201 881.658 104.073C881.21 103.972 880.742 103.848 880.298 103.702C879.653 103.472 878.647 102.954 877.957 102.418C876.908 101.63 875.439 101.465 874.414 102.418C873.547 103.225 873.345 104.925 874.414 105.714C878.47 108.757 883.531 109.692 888.542 108.221C891.972 107.204 895.629 105.237 897.634 102.354C898.413 101.318 897.9 99.8053 896.787 99.1819ZM857.522 102.977C856.319 102.313 854.826 102.748 854.092 103.807C854.048 103.867 854.003 103.931 853.959 103.99C853.757 104.178 853.58 104.385 853.378 104.572C853.156 104.779 852.934 104.967 852.688 105.155C852.619 105.214 852.555 105.255 852.466 105.32C852.466 105.32 852.175 105.526 852.131 105.549C851.505 105.961 850.884 106.333 850.214 106.667C849.859 106.851 849.499 106.997 849.12 107.162C849.011 107.204 849.011 107.226 848.967 107.226C848.923 107.226 848.923 107.245 848.809 107.268C848.607 107.327 848.41 107.391 848.208 107.456C847.809 107.579 847.405 107.68 846.981 107.786C846.784 107.827 846.557 107.868 846.36 107.909C846.38 107.909 845.69 108.015 845.912 107.992C845.335 108.074 844.172 108.097 843.349 108.033C843.103 108.015 842.926 107.992 842.393 107.868C841.945 107.763 841.477 107.639 841.033 107.497C840.388 107.268 839.383 106.75 838.693 106.209C837.643 105.42 836.175 105.255 835.15 106.209C834.992 106.356 834.883 106.562 834.77 106.75C834.657 106.938 834.593 107.144 834.524 107.373C834.504 107.433 834.504 107.497 834.479 107.556C834.46 107.721 834.435 107.909 834.435 108.074C834.435 108.221 834.479 108.368 834.504 108.51C834.524 108.615 834.548 108.739 834.593 108.844C834.706 109.092 834.883 109.34 835.105 109.505C835.15 109.546 835.194 109.569 835.238 109.587C839.383 112.576 844.374 113.506 849.322 112.035C852.752 111.017 856.408 109.051 858.414 106.168C859.148 105.113 858.66 103.596 857.522 102.977ZM514.566 158.509C513.92 158.652 514.3 158.528 514.566 158.509V158.509ZM523.392 161.429C523.367 161.388 523.347 161.37 523.303 161.328C523.525 161.599 523.544 161.617 523.392 161.429ZM517.799 158.592C518.134 158.652 518.464 158.716 518.799 158.798C519.134 158.881 519.469 158.986 519.804 159.087C519.982 159.151 520.203 159.275 520.381 159.298C520.361 159.298 520.361 159.298 520.361 159.298C520.716 159.463 521.051 159.628 521.386 159.816C521.539 159.898 521.697 159.981 521.854 160.082C521.943 160.123 522.032 160.187 522.12 160.251C522.165 160.27 522.145 160.251 522.165 160.27C522.386 160.458 522.791 160.811 522.835 160.852C522.968 160.976 523.101 161.099 523.234 161.246C523.259 161.264 523.278 161.306 523.303 161.328C523.569 161.452 523.816 162.03 523.968 162.282C524.082 162.465 524.195 162.676 524.303 162.882C524.303 162.901 524.303 162.882 524.303 162.901C524.328 162.965 524.372 163.047 524.392 163.13C524.841 164.248 526.107 165.16 527.467 164.748C528.536 164.436 529.473 163.377 529.32 162.3C529.295 162.135 529.276 161.97 529.207 161.824C528.049 158.963 523.436 157.673 520.381 156.344C517.907 155.29 517.755 154.835 515.035 155C513.675 155.083 512.909 154.005 511.687 154.5C510.77 154.853 509.752 156.002 509.885 156.933C509.885 156.997 509.909 157.056 509.929 157.121C509.973 157.286 510.018 157.451 510.111 157.597C510.156 157.657 510.156 157.762 510.2 157.822C510.934 158.862 512.048 159.087 513.206 158.757C513.117 158.798 513.186 158.775 513.295 158.734C513.408 158.693 513.516 158.693 513.63 158.652C512.649 159.046 513.428 158.734 513.699 158.674C513.896 158.61 514.123 158.569 514.344 158.528C514.453 158.509 514.566 158.509 514.655 158.487C514.61 158.509 514.61 158.509 514.566 158.509C514.832 158.487 515.103 158.468 515.369 158.468C516.034 158.445 516.685 158.468 517.35 158.528C517.483 158.528 517.685 158.569 517.799 158.592ZM520.336 159.298C519.937 159.234 520.09 159.192 520.336 159.298V159.298ZM538.032 103.225C537.963 101.153 537.855 99.0811 537.722 97.0276V97.0047C537.697 96.6563 537.672 96.3217 537.653 95.9687C537.653 95.8679 537.628 95.7854 537.628 95.68C537.564 94.9557 537.495 94.2269 537.431 93.4843C537.362 92.8609 537.298 92.2605 537.229 91.66C537.14 90.9129 537.052 90.1474 536.963 89.4002C536.83 88.4239 536.672 87.4521 536.514 86.4758C536.381 85.7103 536.248 84.9219 536.091 84.1564C535.913 83.2626 535.736 82.3733 535.534 81.4795C535.401 80.9203 535.268 80.361 535.11 79.8018C534.888 78.9126 534.642 78.0188 534.376 77.1295C534.243 76.6711 534.11 76.1944 533.952 75.7406C533.553 74.4526 533.085 73.1875 532.592 71.9453C532.459 71.574 532.281 71.221 532.124 70.8681C531.725 69.9147 531.301 68.9613 530.833 68.0262C530.631 67.6136 530.409 67.2011 530.212 66.784C529.675 65.771 529.093 64.7534 528.492 63.7587C528.384 63.5708 528.27 63.3828 528.157 63.1995C528.137 63.1582 528.113 63.117 528.093 63.0757C527.334 61.8702 526.511 60.7105 525.619 59.5691C525.373 59.262 525.126 58.9687 524.885 58.657C524.17 57.7861 523.436 56.9381 522.658 56.1084C522.544 55.9846 522.431 55.8792 522.322 55.7555C522.145 55.5492 521.943 55.3613 521.766 55.155C520.696 54.0778 519.578 53.019 518.375 52.006C514.586 48.8523 510.422 46.2625 505.987 44.1906C504.094 43.2968 502.133 42.5542 500.147 41.8484C499.433 41.6008 498.698 41.3487 497.964 41.1241C496.717 40.7299 495.446 40.354 494.155 40.024C493.263 39.7948 492.371 39.5244 491.455 39.341C489.72 38.9468 487.956 38.6122 486.177 38.3234H486.152L456.492 76.7353L486.133 38.3051L486.152 38.2822C486.019 38.2639 485.886 38.2639 485.753 38.2409C483.723 37.9292 481.653 37.7459 479.603 37.5763C478.066 37.4525 476.548 37.37 475.055 37.2875C473.094 37.205 471.132 37.1225 469.196 37.1408C467.678 37.1408 466.185 37.1821 464.716 37.2463C464.45 37.2692 464.159 37.2692 463.893 37.2692C462.509 37.3288 461.129 37.4342 459.769 37.558C459.434 37.5763 459.123 37.6175 458.813 37.6405C457.472 37.7642 456.157 37.9292 454.846 38.0943C454.531 38.1355 454.24 38.1768 453.929 38.2226C452.594 38.406 451.278 38.6122 449.987 38.8643C449.785 38.9056 449.583 38.9468 449.361 38.9881C441.92 40.4182 434.987 42.6551 428.591 45.5795C427.388 46.1158 426.21 46.698 425.047 47.2984C424.895 47.3809 424.737 47.4635 424.579 47.5276C423.466 48.1098 422.377 48.6873 421.307 49.3107C421.105 49.4161 420.928 49.517 420.726 49.6407C419.656 50.2641 418.612 50.8875 417.562 51.5476C417.404 51.653 417.252 51.7584 417.094 51.8593C416.025 52.5422 414.955 53.2481 413.93 53.9724C413.886 53.9953 413.842 54.0366 413.797 54.0549C408.18 57.9969 403.035 62.5165 398.329 67.4899C398.265 67.5724 398.176 67.632 398.107 67.7191C397.26 68.6083 396.412 69.5434 395.614 70.4556C395.476 70.6206 395.323 70.7627 395.19 70.9323C394.387 71.8399 393.608 72.752 392.849 73.6871C392.716 73.8521 392.558 74.04 392.425 74.2051C391.666 75.1402 390.908 76.0936 390.154 77.0653C390.04 77.212 389.927 77.3541 389.819 77.5008C385.694 82.9096 381.973 88.676 378.608 94.644C378.563 94.7265 378.519 94.7907 378.475 94.8732C377.874 95.9275 377.292 97.0047 376.735 98.0864C376.602 98.311 376.494 98.5631 376.356 98.7877C375.824 99.8053 375.286 100.841 374.774 101.877C374.641 102.166 374.488 102.459 374.35 102.748C373.838 103.766 373.35 104.779 372.882 105.815C372.749 106.108 372.616 106.415 372.458 106.708C371.97 107.744 371.502 108.78 371.034 109.839C370.92 110.087 370.807 110.334 370.718 110.563C370.23 111.664 369.738 112.782 369.27 113.9C369.27 113.923 369.25 113.942 369.25 113.965C367.643 117.778 366.15 121.633 364.77 125.488C364.746 125.571 364.726 125.635 364.682 125.717C364.302 126.772 363.948 127.83 363.568 128.889C363.455 129.219 363.346 129.549 363.233 129.902C362.898 130.879 362.587 131.832 362.272 132.804C362.139 133.239 361.986 133.675 361.853 134.11C361.562 135.022 361.272 135.934 361.006 136.847C360.873 137.323 360.715 137.8 360.582 138.258C360.316 139.148 360.045 140.037 359.798 140.931C359.665 141.407 359.532 141.884 359.399 142.338C359.153 143.232 358.887 144.144 358.64 145.033C358.532 145.469 358.419 145.886 358.31 146.321C358.064 147.252 357.817 148.187 357.571 149.117C357.527 149.324 357.463 149.553 357.418 149.759C356.861 151.918 356.349 154.031 355.856 156.144C355.812 156.373 355.743 156.603 355.698 156.809C355.501 157.657 355.324 158.487 355.142 159.316C355.033 159.816 354.92 160.311 354.811 160.811C354.654 161.576 354.476 162.341 354.319 163.089C354.205 163.648 354.097 164.207 353.984 164.748C353.831 165.454 353.693 166.178 353.56 166.884C353.451 167.462 353.338 168.044 353.225 168.626C353.092 169.309 352.959 169.992 352.85 170.656C352.737 171.234 352.623 171.816 352.535 172.398C352.426 173.058 352.293 173.723 352.18 174.365C352.067 174.965 351.978 175.547 351.869 176.129C351.756 176.73 351.667 177.349 351.554 177.949C351.446 178.595 351.357 179.214 351.244 179.838C351.155 180.397 351.066 180.956 350.978 181.497C350.8 182.615 350.642 183.716 350.485 184.793C350.421 185.205 350.376 185.599 350.307 186.017C350.219 186.718 350.105 187.424 350.017 188.107C349.953 188.583 349.884 189.06 349.839 189.537C349.751 190.142 349.682 190.761 349.593 191.343C349.529 191.82 349.484 192.273 349.415 192.75C349.351 193.309 349.282 193.85 349.213 194.391C349.169 194.868 349.105 195.322 349.061 195.798C348.992 196.339 348.947 196.857 348.883 197.393C348.839 197.811 348.795 198.223 348.75 198.617C348.681 199.177 348.637 199.717 348.592 200.254C348.548 200.63 348.523 201.001 348.479 201.354C348.435 201.895 348.371 202.413 348.326 202.949C348.302 203.284 348.257 203.614 348.233 203.925C348.188 204.503 348.144 205.062 348.08 205.603C348.055 205.974 348.011 206.368 347.991 206.744C347.947 207.322 347.903 207.904 347.858 208.463C347.834 208.839 347.814 209.169 347.789 209.522C347.77 209.834 347.745 210.164 347.72 210.453C347.701 210.828 347.676 211.158 347.656 211.511C347.632 211.782 347.612 212.029 347.612 212.3C347.587 212.653 347.568 212.983 347.543 213.294C347.523 213.501 347.523 213.689 347.499 213.895C347.479 214.225 347.454 214.537 347.454 214.848C347.454 214.972 347.434 215.096 347.434 215.22C347.41 215.573 347.39 215.907 347.39 216.214C347.301 218.185 347.277 219.263 347.277 219.263H436.569V219.221L436.613 207.363L436.771 158.775C401.65 141.531 409.54 103.867 432.961 100.905C435.815 100.552 438.53 100.612 441.137 100.988L441.117 101.006C453.062 102.771 462.174 111.329 467.234 117.343C486.33 109.61 493.554 89.2123 493.554 89.2123C493.554 89.2123 509.397 106.521 538.032 103.225ZM479.066 204.109C471.113 201.725 463.223 198.329 456.985 193.062C454.6 191.054 451.056 194.35 453.441 196.358C460.212 202.06 468.614 205.809 477.238 208.422C477.42 208.486 477.573 208.546 477.75 208.587C478.085 208.692 478.421 208.711 478.711 208.692C478.775 208.692 478.844 208.692 478.908 208.669C479.179 208.628 479.446 208.546 479.667 208.422C479.712 208.404 479.736 208.362 479.781 208.339C479.958 208.234 480.091 208.092 480.224 207.927C480.293 207.84 480.357 207.78 480.402 207.698C480.495 207.551 480.559 207.409 480.628 207.262C480.692 207.097 480.737 206.909 480.761 206.721C480.781 206.639 480.781 206.556 480.781 206.474C480.781 206.309 480.806 206.162 480.781 205.997C480.648 205.209 480.135 204.443 479.066 204.109ZM516.261 128.784C518.508 128.536 520.938 127.995 523.057 127.024C524.328 126.442 525.506 125.717 526.467 124.782C528.448 122.875 525.93 120.098 523.771 120.95C523.456 121.051 523.17 121.239 522.879 121.509C522.722 121.652 522.544 121.775 522.386 121.922C522.278 121.986 522.165 122.069 522.032 122.151C521.475 122.504 520.874 122.77 520.272 123.04C520.184 123.063 519.849 123.187 519.913 123.164C519.804 123.187 519.716 123.228 519.602 123.27C519.203 123.393 518.824 123.517 518.42 123.623C517.996 123.723 517.597 123.829 517.173 123.911C516.951 123.975 516.749 123.994 516.527 124.035C516.503 124.058 516.35 124.058 516.237 124.076C515.369 124.159 514.497 124.205 513.61 124.14C513.408 124.14 513.231 124.118 513.048 124.099C512.984 124.099 512.738 124.058 512.649 124.035C512.181 123.953 511.713 123.852 511.269 123.705C510.53 123.476 510.018 123.228 509.106 122.687C508.549 122.357 507.569 121.486 506.923 120.739C506.253 119.997 505.075 119.91 504.158 120.263C503.848 120.386 503.557 120.533 503.336 120.762C502.311 121.716 502.463 123.082 503.336 124.058C506.475 127.624 511.378 129.279 516.261 128.784ZM735.761 137.259C735.603 135.747 735.47 134.257 735.317 132.785C735.228 131.832 735.135 130.879 735.026 129.944C734.711 126.877 734.425 123.953 734.179 121.28C733.4 113.442 732.819 107.515 732.617 105.508C732.617 105.42 732.597 105.379 732.597 105.32C732.553 104.967 732.553 104.76 732.553 104.76C732.375 102.771 732.129 100.759 731.882 98.7465C731.616 96.7571 731.326 94.7678 731.015 92.7555C730.793 91.3666 730.547 89.9778 730.281 88.5889C729.788 85.9578 729.211 83.3451 728.561 80.7552C728.541 80.6727 728.517 80.5902 728.497 80.5261C727.851 77.9362 727.137 75.3648 726.334 72.8162C724.865 68.1316 723.101 63.5708 721.051 59.1979C720.962 59.0099 720.898 58.8449 720.81 58.657C720.228 57.4377 719.602 56.2322 718.957 55.0541C718.646 54.472 718.336 53.8899 718.001 53.3123C717.375 52.2122 716.774 51.135 716.108 50.0579C715.217 48.6277 714.3 47.2388 713.319 45.8912C712.743 45.0799 712.142 44.3373 711.516 43.5489C710.846 42.6963 710.18 41.8667 709.485 41.0416C708.884 40.3357 708.283 39.6298 707.638 38.9468C706.657 37.888 705.632 36.8521 704.563 35.8574C703.981 35.3165 703.405 34.7573 702.803 34.2393C701.532 33.1209 700.197 32.0208 698.836 31.0078C698.255 30.5723 697.654 30.1552 697.053 29.7197C695.781 28.8305 694.466 27.9825 693.13 27.1941C692.618 26.8824 692.13 26.5707 691.593 26.259C689.745 25.2231 687.803 24.2513 685.798 23.3804C685.31 23.1696 684.797 22.9862 684.304 22.7799C682.634 22.0924 680.919 21.4736 679.135 20.8914C678.49 20.6852 677.864 20.4789 677.218 20.291C674.927 19.6263 672.561 19.0029 670.088 18.5262C651.796 15.0242 630.468 15.4826 613.176 23.5638C610.944 24.5997 608.805 25.764 606.736 27.0703C604.661 28.3767 602.68 29.8068 600.783 31.3791C600.783 31.3791 600.783 31.3791 600.763 31.402C599.561 32.3966 598.467 33.4326 597.417 34.5098C597.131 34.7985 596.841 35.1102 596.575 35.4036C595.727 36.3112 594.924 37.2233 594.145 38.1584C593.988 38.3647 593.785 38.571 593.633 38.7818C592.76 39.9002 591.938 41.0599 591.179 42.2426C591.159 42.2609 591.159 42.3021 591.134 42.3251C590.932 42.6138 590.78 42.9255 590.577 43.2143C589.996 44.1494 589.464 45.1028 588.971 46.0562C588.907 46.18 588.838 46.3038 588.774 46.4275C588.661 46.6384 588.552 46.8446 588.439 47.0738C587.838 48.2931 587.281 49.517 586.768 50.7592C586.635 51.0938 586.522 51.4238 586.389 51.7584C586.009 52.7302 585.655 53.7249 585.32 54.7425C585.32 54.7608 585.295 54.802 585.295 54.825C585.162 55.2375 585.029 55.673 584.896 56.0901C584.541 57.2268 584.226 58.3682 583.935 59.5279C583.826 59.945 583.738 60.3805 583.649 60.793C583.403 61.8519 583.181 62.9061 582.979 63.965C582.865 64.5242 582.777 65.1063 582.668 65.6655C582.535 66.5135 582.397 67.3844 582.264 68.2554C582.176 68.8788 582.087 69.4792 582.023 70.1026C581.885 71.2394 581.752 72.3807 581.643 73.5404C581.599 74.0171 581.555 74.4938 581.53 74.9935C581.51 75.241 581.486 75.5114 581.466 75.759C581.417 76.3823 581.372 77.0057 581.328 77.6245C581.284 78.4359 581.264 79.2197 581.22 80.031L633.277 85.3757L640.876 59.0512L643.995 88.5064C643.995 88.5064 647.336 91.3483 652.796 95.6158C659.192 88.3414 670.96 78.3075 686.177 80.2602C704.986 82.6438 713.768 107.433 698.255 126.024C711.895 133.28 725.555 138.382 735.761 137.259ZM662.11 172.417C655.851 177.66 647.982 181.08 640.028 183.463C638.959 183.775 638.446 184.545 638.333 185.352C638.313 185.517 638.313 185.664 638.333 185.829C638.333 185.911 638.358 185.994 638.358 186.076C638.377 186.264 638.422 186.452 638.491 186.617C638.555 186.759 638.624 186.929 638.712 187.053C638.757 187.135 638.826 187.218 638.89 187.277C639.023 187.424 639.156 187.57 639.338 187.694C639.383 187.713 639.402 187.754 639.447 187.777C639.668 187.9 639.915 187.983 640.205 188.024C640.274 188.047 640.338 188.047 640.407 188.047C640.693 188.066 641.009 188.047 641.363 187.942C641.541 187.9 641.699 187.818 641.876 187.777C650.5 185.146 658.902 181.392 665.677 175.712C668.038 173.7 664.495 170.404 662.11 172.417ZM595.904 139.395C595.279 139.418 595.658 139.436 595.904 139.395V139.395ZM605.799 139.56C607.091 138.13 608.027 136.475 608.47 134.651C608.761 133.468 608.071 132.08 606.736 131.791C605.464 131.52 603.971 132.139 603.661 133.404C603.547 133.821 603.434 134.234 603.281 134.651C603.257 134.711 603.237 134.752 603.212 134.816C603.124 134.981 603.035 135.169 602.922 135.334C602.725 135.664 602.498 135.999 602.256 136.306C602.232 136.329 602.232 136.329 602.168 136.393C602.03 136.535 601.897 136.659 601.764 136.805C601.498 137.076 601.207 137.305 600.896 137.553C600.872 137.571 600.872 137.571 600.827 137.594C600.675 137.695 600.517 137.8 600.359 137.883C600.049 138.071 599.714 138.258 599.378 138.401C599.226 138.483 599.048 138.547 598.866 138.63C598.866 138.63 598.866 138.63 598.846 138.63C598.201 138.836 597.575 139.065 596.905 139.212C596.575 139.294 596.24 139.354 595.924 139.395C595.949 139.395 595.949 139.395 595.993 139.395C595.835 139.395 595.683 139.436 595.525 139.436C594.968 139.478 594.411 139.501 593.854 139.478C593.785 139.478 593.697 139.478 593.633 139.459C593.475 139.436 593.342 139.418 593.184 139.377C591.938 139.042 590.4 139.789 590.109 140.99C589.799 142.237 590.513 143.502 591.849 143.855C593.963 144.414 596.417 144.121 598.487 143.626C601.231 142.961 603.971 141.595 605.799 139.56ZM615.65 103.39C616.517 102.418 616.675 101.048 615.65 100.094C614.822 99.2645 613.038 99.1224 612.171 100.094C611.816 100.511 611.437 100.905 611.013 101.254C610.614 101.607 610.299 101.836 610.077 101.983C609.653 102.253 609.229 102.478 608.786 102.684C608.761 102.684 608.426 102.831 608.362 102.872C608.185 102.936 607.982 102.996 607.805 103.06C607.357 103.206 606.889 103.307 606.42 103.39C606.401 103.39 606.066 103.454 605.997 103.454C605.819 103.472 605.642 103.495 605.464 103.495C604.572 103.555 603.68 103.514 602.789 103.431C602.7 103.413 602.591 103.413 602.523 103.39C602.301 103.349 602.099 103.33 601.877 103.266C601.453 103.184 601.054 103.078 600.63 102.977C600.226 102.872 599.847 102.748 599.448 102.624C599.29 102.56 599.112 102.501 598.955 102.459C598.91 102.436 598.846 102.418 598.777 102.395C598.176 102.125 597.6 101.859 597.043 101.524C596.905 101.442 596.796 101.359 596.663 101.3C596.506 101.153 596.304 101.006 596.151 100.864C593.899 98.7052 590.356 102.001 592.608 104.16C595.17 106.603 599.181 107.744 602.725 108.116C607.603 108.615 612.506 106.956 615.65 103.39ZM680.362 316.438C668.91 340.361 650.189 360.859 630.177 378.997C619.794 388.431 608.85 397.612 597.131 405.633C597.062 405.675 597.043 405.739 596.974 405.798C595.747 406.793 595.904 408.329 596.708 409.282C596.885 409.488 597.087 409.653 597.309 409.8C597.531 409.924 597.777 410.006 598.043 410.048C598.58 410.112 599.112 410.029 599.669 409.653C611.728 401.407 623.022 392.015 633.72 382.293C653.998 363.907 673.074 343.033 684.684 318.78C685.98 316.067 681.678 313.702 680.362 316.438ZM669.24 119.621C673.498 116.266 677.731 112.906 681.988 109.527C682.59 109.069 683.191 108.574 683.817 108.097C684.817 107.309 684.753 105.608 683.817 104.802C682.747 103.889 681.343 103.949 680.273 104.802C676.016 108.157 671.783 111.517 667.525 114.895C666.924 115.372 666.323 115.848 665.697 116.325C664.697 117.114 664.761 118.814 665.697 119.621C666.766 120.533 668.171 120.473 669.24 119.621ZM519.957 332.504C519.824 332.358 519.671 332.316 519.514 332.211C518.198 331.344 516.572 332.069 515.99 333.293C515.616 334.058 515.635 335.012 516.439 335.8C519.336 338.678 521.987 341.791 524.461 344.981C528.428 350.101 533.016 356.28 533.888 362.624C534.065 363.866 534.913 364.943 536.381 364.943C537.608 364.943 539.057 363.866 538.88 362.624C537.875 355.368 533.484 348.754 528.985 342.909C526.201 339.302 523.214 335.759 519.957 332.504ZM795.372 262.336C776.765 257.445 757.044 257.592 737.855 256.428C736.475 256.345 735.09 256.286 733.711 256.18C731.951 256.056 731.193 257.363 731.35 258.628C731.459 259.705 732.242 260.741 733.711 260.846C753.767 262.295 774.538 261.717 794.037 266.837C797.132 267.644 798.467 263.166 795.372 262.336ZM790.336 282.01C778.46 278.732 765.756 277.76 753.456 276.848C740.575 275.913 727.674 275.436 714.748 275.212C713.59 275.189 712.851 275.789 712.541 276.555C712.097 277.637 712.452 279.003 713.59 279.585C713.921 279.75 714.28 279.874 714.748 279.874C727.295 280.103 739.841 280.556 752.343 281.45C764.573 282.321 777.164 283.275 789.001 286.506C792.095 287.359 793.411 282.858 790.336 282.01ZM784.989 300.849C763.415 295.752 740.107 295.999 718.001 296.581C717.754 296.581 717.577 296.664 717.375 296.728C714.837 297.411 715.015 301.348 718.001 301.266C718.513 301.243 719.026 301.243 719.538 301.225C740.752 300.684 763.016 300.477 783.649 305.35C786.768 306.097 788.109 301.596 784.989 300.849ZM992.12 338.637C987.532 336.772 982.693 335.094 977.746 334.246C977.657 334.223 977.593 334.205 977.524 334.205C976.208 333.994 975.252 334.64 974.759 335.511C974.05 336.73 974.336 338.371 976.188 338.678C980.643 339.426 985.078 340.837 989.222 342.492C998.004 345.999 1006.25 351.201 1011.8 358.558C1013.65 360.983 1017.97 358.664 1016.12 356.216C1010.15 348.3 1001.59 342.515 992.12 338.637ZM136.376 124.7C136.332 124.553 136.288 124.388 136.243 124.246C136.268 124.347 136.312 124.452 136.332 124.553C136.357 124.594 136.357 124.658 136.376 124.7ZM136.066 123.623C136.13 123.829 136.174 124.035 136.243 124.246C136.199 124.058 136.155 123.893 136.086 123.682C136.086 123.664 136.086 123.623 136.066 123.623ZM134.617 117.92C134.706 118.337 134.819 118.75 134.908 119.126C134.908 119.144 134.928 119.167 134.928 119.185C134.819 118.732 134.706 118.273 134.593 117.797C134.593 117.838 134.593 117.879 134.617 117.92ZM135.618 121.904C135.731 122.293 135.82 122.687 135.933 123.063C135.933 123.022 135.908 122.999 135.908 122.958C135.82 122.646 135.731 122.316 135.642 121.986C135.618 121.963 135.618 121.922 135.618 121.904ZM136.756 125.882C136.78 125.942 136.8 126.024 136.825 126.089C136.736 125.777 136.623 125.447 136.509 125.071C136.509 125.112 136.509 125.135 136.534 125.158C136.598 125.406 136.692 125.653 136.756 125.882ZM136.889 126.4C136.889 126.377 136.889 126.336 136.869 126.295C136.958 126.648 137.066 126.978 137.155 127.248C137.135 127.166 137.091 127.065 137.066 126.978C137.022 126.794 136.958 126.607 136.889 126.4ZM135.396 121.115C135.307 120.781 135.218 120.428 135.13 120.056C135.13 120.038 135.105 120.015 135.105 119.974C135.199 120.386 135.307 120.822 135.42 121.216C135.42 121.175 135.396 121.156 135.396 121.115ZM133.144 61.9756C133.144 61.9756 133.144 61.9756 133.144 61.9939C133.326 61.2697 133.503 60.5455 133.681 59.8396C133.503 60.5455 133.326 61.2697 133.144 61.9756ZM132.789 63.6762C132.631 64.3821 132.498 65.1063 132.365 65.8122C132.498 65.1063 132.631 64.4004 132.789 63.6762C132.789 63.6945 132.789 63.6945 132.789 63.6762ZM130.941 77.2303C130.941 77.2533 130.941 77.2533 130.941 77.2716C130.961 76.7949 131.005 76.3182 131.049 75.8415C131.005 76.3182 130.961 76.7766 130.941 77.2303ZM131.094 75.1585C131.074 75.3877 131.049 75.6169 131.049 75.8415C131.074 75.6169 131.094 75.3648 131.094 75.1402C131.118 75.1402 131.094 75.1585 131.094 75.1585ZM131.276 73.4396V73.4579C131.34 72.7749 131.429 72.0507 131.518 71.3448C131.429 72.0507 131.34 72.752 131.276 73.4396ZM136.066 52.0655C135.8 52.8356 135.509 53.6011 135.263 54.3666C135.529 53.6011 135.8 52.8539 136.066 52.1068C136.066 52.0885 136.066 52.0655 136.066 52.0655ZM137.623 48.1098C137.268 48.9348 136.914 49.7462 136.598 50.5758C136.933 49.7232 137.293 48.8936 137.623 48.0685C137.623 48.0868 137.623 48.0868 137.623 48.1098ZM132.321 106.25C132.232 105.567 132.119 104.884 132.03 104.178C132.01 104.096 132.01 104.013 131.986 103.908C132.099 104.719 132.212 105.508 132.321 106.273V106.25ZM130.852 91.99C130.808 91.2841 130.764 90.5828 130.739 89.854C130.764 90.6241 130.808 91.3666 130.852 92.1138C130.852 92.0725 130.852 92.0313 130.852 91.99ZM131.118 95.8679C131.049 95.0153 130.985 94.1673 130.916 93.3147C130.916 93.3147 130.916 93.3147 130.916 93.3377C130.961 94.1261 131.03 94.8915 131.094 95.657C131.094 95.7212 131.094 95.8037 131.118 95.8679ZM134.371 116.884C134.371 116.907 134.371 116.926 134.395 116.967C134.282 116.472 134.174 115.972 134.06 115.454C134.06 115.496 134.06 115.537 134.08 115.56C134.174 116.013 134.282 116.449 134.371 116.884ZM131.877 103.206C131.744 102.166 131.606 101.13 131.498 100.053C131.498 100.035 131.498 100.012 131.498 99.9933C131.385 99.0994 131.296 98.146 131.207 97.2155C131.385 99.2874 131.606 101.3 131.877 103.225V103.206ZM131.163 96.6975C131.163 96.7159 131.163 96.7159 131.163 96.7388C131.187 96.9038 131.207 97.0459 131.207 97.2155C131.207 97.0459 131.187 96.8809 131.163 96.6975ZM133.523 112.924C133.637 113.465 133.75 114.024 133.858 114.542C133.858 114.524 133.858 114.524 133.858 114.501C133.75 114.024 133.656 113.529 133.548 113.029C133.523 112.988 133.523 112.947 133.523 112.924ZM133.326 111.911C133.237 111.393 133.124 110.875 133.035 110.334C133.011 110.275 133.011 110.233 132.991 110.169C133.099 110.77 133.213 111.37 133.326 111.952C133.326 111.929 133.326 111.929 133.326 111.911ZM132.478 107.185C132.587 107.868 132.7 108.533 132.814 109.175C132.814 109.175 132.814 109.152 132.814 109.133C132.725 108.574 132.612 107.974 132.523 107.391C132.498 107.327 132.498 107.268 132.478 107.185ZM130.675 84.6927C130.675 84.7156 130.675 84.7339 130.675 84.7339C130.675 84.0326 130.675 83.3267 130.695 82.6208C130.675 83.3267 130.675 84.0097 130.675 84.6927ZM130.828 78.9126C130.808 79.2609 130.808 79.6139 130.783 79.9668C130.808 79.6139 130.808 79.2609 130.828 78.9309C130.828 78.9126 130.828 78.9126 130.828 78.9126ZM130.739 81.0028V81.0257C130.764 80.6728 130.764 80.3198 130.783 79.9668C130.764 80.3198 130.764 80.6498 130.739 81.0028ZM130.675 86.2466C130.675 86.2695 130.675 86.2695 130.675 86.2695C130.675 86.4162 130.675 86.5399 130.675 86.682C130.675 86.5399 130.675 86.3933 130.675 86.2466ZM130.719 88.323C130.695 87.7822 130.695 87.2229 130.675 86.682C130.675 87.2642 130.695 87.8234 130.719 88.4055C130.719 88.3826 130.719 88.3414 130.719 88.323ZM181.55 101.818C182.126 102.336 182.683 102.872 183.265 103.39C183.733 103.825 184.398 104.054 185.048 104.054C185.714 104.073 186.359 103.848 186.827 103.39C187.744 102.459 187.833 101.006 186.827 100.094C182.86 96.4454 178.918 92.7968 174.951 89.1298C174.375 88.6118 173.813 88.0709 173.236 87.553C173.034 87.3696 172.788 87.2642 172.547 87.1404C171.61 86.7233 170.408 86.8104 169.669 87.553C168.757 88.488 168.668 89.9365 169.669 90.8487C173.636 94.5203 177.583 98.1689 181.55 101.818ZM186.118 161.846C192.534 168.126 200.847 172.458 209.382 175.712C209.894 175.919 210.451 175.818 210.939 175.607C211.274 175.465 211.609 175.258 211.856 175.006C211.875 174.988 211.875 174.988 211.9 174.965C212.166 174.718 212.368 174.406 212.457 174.094C212.546 173.787 212.57 173.475 212.521 173.205C212.477 172.935 212.388 172.664 212.235 172.439C211.92 171.876 211.388 171.463 210.717 171.216C209.249 170.656 207.485 169.928 205.858 169.185C203.942 168.314 202.049 167.361 200.221 166.325C196.343 164.147 192.755 161.617 189.661 158.551C187.428 156.373 183.91 159.669 186.118 161.846ZM254.797 109.61C254.195 108.492 252.48 108.157 251.367 108.78C250.14 109.445 249.849 110.834 250.475 111.971C250.539 112.117 250.608 112.241 250.697 112.388C250.766 112.534 250.83 112.677 250.918 112.823C250.943 112.883 250.987 112.947 251.007 113.011C251.544 114.23 252.012 115.496 252.392 116.784C252.614 117.549 252.816 118.337 252.949 119.126C252.968 119.291 252.993 119.474 253.037 119.644C252.904 118.956 253.013 119.58 253.037 119.768C253.082 120.18 253.101 120.597 253.126 121.01C253.126 121.404 253.126 121.775 253.082 122.169C253.057 122.316 253.057 122.38 253.057 122.422C253.037 122.564 253.013 122.729 252.968 122.875C252.88 123.205 252.771 123.54 252.658 123.852C252.658 123.87 252.658 123.852 252.658 123.87C252.633 123.893 252.658 123.87 252.633 123.911C252.525 124.076 252.436 124.264 252.323 124.429C252.278 124.493 252.234 124.535 252.209 124.594C252.076 124.7 251.943 124.888 251.81 124.988C251.741 125.053 251.653 125.112 251.589 125.176C251.411 125.282 251.253 125.383 251.076 125.488C250.874 125.589 250.115 125.818 250.766 125.653C250.495 125.717 250.248 125.818 249.982 125.901C249.691 125.983 249.425 126.047 249.135 126.089C249.026 126.111 248.913 126.13 248.804 126.13C248.711 126.153 248.602 126.153 248.533 126.171C247.198 126.295 246.04 127.166 246.04 128.495C245.996 129.632 247.129 130.897 248.489 130.796C251.076 130.567 253.683 129.884 255.531 128.078C257.113 126.524 257.827 124.535 258.074 122.44C258.453 119.039 257.384 115.477 256.068 112.346C255.689 111.434 255.289 110.499 254.797 109.61ZM233.893 136.329C233.962 136.494 233.982 136.535 233.893 136.329V136.329ZM247.533 142.32C247.976 143.562 247.02 144.786 245.793 145.18C244.749 145.51 243.566 145.592 242.472 145.574C239.777 145.533 237.012 144.891 234.676 143.644C231.754 142.113 229.66 139.601 228.748 136.617C228.344 135.375 229.192 134.151 230.483 133.757C231.779 133.363 233.203 134.216 233.558 135.375C233.627 135.582 233.696 135.811 233.784 136.017C233.804 136.122 233.848 136.223 233.893 136.329C233.873 136.287 233.873 136.287 233.848 136.223C233.804 136.494 234.317 137.094 234.474 137.323C234.583 137.488 234.721 137.635 234.829 137.8C235.095 138.089 235.366 138.359 235.677 138.63C235.834 138.753 235.987 138.877 236.145 139.001C236.189 139.024 236.165 139.024 236.234 139.065C236.5 139.253 236.815 139.418 237.101 139.583C237.436 139.771 237.796 139.913 238.15 140.078C238.195 140.101 238.17 140.078 238.219 140.101C238.372 140.165 238.53 140.225 238.683 140.266C239.377 140.472 240.067 140.642 240.757 140.766C240.782 140.766 240.871 140.784 240.935 140.784C240.915 140.784 240.935 140.807 241.112 140.825H241.137C240.959 140.807 240.935 140.784 240.959 140.784C240.979 140.766 241.156 140.766 241.25 140.825C241.25 140.825 241.25 140.825 241.27 140.825C241.56 140.848 241.807 140.867 242.093 140.89C242.63 140.908 243.142 140.89 243.674 140.848C243.743 140.848 243.788 140.848 243.857 140.825C244.054 140.784 244.256 140.743 244.433 140.683C245.749 140.266 247.109 141.16 247.533 142.32ZM241.27 140.848C241.25 140.825 241.225 140.825 241.225 140.825H241.201C241.225 140.848 241.27 140.848 241.27 140.848ZM284.703 106.644C284.634 106.502 284.546 106.374 284.437 106.232C284.368 106.149 284.324 106.067 284.255 106.003C284.102 105.838 283.92 105.691 283.743 105.567C283.723 105.549 283.678 105.526 283.654 105.508C282.944 105.09 282.028 104.967 281.205 105.402C281.003 105.508 280.825 105.59 280.623 105.755C280.47 105.897 280.224 106.044 280.268 106.044C280.091 106.149 279.909 106.273 279.731 106.374C279.465 106.543 279.174 106.686 278.884 106.809C278.731 106.892 278.573 106.956 278.421 107.02C278.396 107.038 278.238 107.08 278.149 107.144C278.041 107.185 277.859 107.245 277.839 107.268C277.617 107.35 277.415 107.414 277.193 107.474C276.814 107.598 276.415 107.703 276.035 107.804C275.631 107.909 275.208 107.992 274.808 108.056C274.651 108.074 274.498 108.097 274.34 108.139C274.296 108.139 274.094 108.157 273.985 108.18C273.094 108.262 272.202 108.262 271.31 108.18C271.265 108.18 270.866 108.116 270.866 108.116C270.708 108.097 270.551 108.074 270.398 108.033C269.95 107.951 269.506 107.827 269.058 107.68C268.994 107.662 268.723 107.579 268.678 107.556C268.501 107.474 268.323 107.414 268.146 107.309C267.698 107.103 267.298 106.851 266.875 106.603C266.628 106.438 266.609 106.415 266.761 106.543C266.653 106.461 266.564 106.397 266.475 106.314C266.273 106.149 266.071 105.984 265.894 105.815C265.47 105.42 265.071 105.008 264.692 104.55C263.844 103.555 262.016 103.743 261.149 104.55C260.099 105.526 260.301 106.851 261.149 107.85C264.199 111.453 269.082 113.236 273.985 112.8C276.011 112.635 278.149 112.159 280.135 111.393C280.87 111.1 281.56 110.793 282.23 110.417C282.92 110.004 283.59 109.569 284.166 109.051C284.437 108.803 284.634 108.533 284.748 108.239C284.792 108.157 284.767 108.074 284.812 107.992C284.856 107.804 284.901 107.598 284.901 107.414C284.901 107.309 284.856 107.185 284.836 107.08C284.812 106.938 284.768 106.791 284.703 106.644ZM234.785 108.345C238.352 108.033 242.364 106.956 244.99 104.572C247.287 102.459 243.743 99.1819 241.447 101.277C241.294 101.423 241.068 101.588 241.092 101.565C240.915 101.671 240.738 101.795 240.555 101.9C240.289 102.065 239.998 102.207 239.713 102.336C239.555 102.418 239.397 102.478 239.244 102.542C239.22 102.56 239.062 102.601 238.973 102.666C238.865 102.707 238.683 102.771 238.663 102.789C238.441 102.872 238.239 102.936 238.017 102.996C237.638 103.119 237.239 103.225 236.859 103.33C236.455 103.431 236.031 103.514 235.632 103.578C235.475 103.596 235.322 103.619 235.164 103.66C235.12 103.66 234.918 103.683 234.809 103.702C233.917 103.784 233.026 103.784 232.134 103.702C232.089 103.702 231.69 103.642 231.69 103.642C231.532 103.619 231.375 103.596 231.222 103.555C230.773 103.472 230.33 103.349 229.882 103.206C229.818 103.184 229.546 103.101 229.502 103.078C229.325 102.996 229.147 102.936 228.97 102.831C228.521 102.624 228.122 102.377 227.699 102.125C227.452 101.96 227.432 101.941 227.585 102.065C227.477 101.983 227.388 101.918 227.299 101.836C227.097 101.671 226.895 101.506 226.718 101.341C226.294 100.947 225.895 100.53 225.516 100.076C224.668 99.0811 222.84 99.2645 221.972 100.076C220.923 101.048 221.125 102.377 221.972 103.371C225.023 106.997 229.906 108.757 234.785 108.345ZM384.447 258.628C384.58 257.363 383.821 256.056 382.087 256.18C380.702 256.286 379.322 256.345 377.943 256.428C358.729 257.592 339.033 257.468 320.425 262.336C317.326 263.147 318.641 267.644 321.761 266.837C341.285 261.717 362.031 262.276 382.087 260.846C383.555 260.741 384.314 259.705 384.447 258.628ZM401.029 275.23C388.123 275.478 375.198 275.936 362.316 276.867C350.017 277.76 337.318 278.755 325.437 282.028C322.362 282.88 323.677 287.377 326.777 286.529C338.609 283.275 351.199 282.321 363.435 281.469C375.937 280.579 388.483 280.144 401.029 279.896C401.473 279.896 401.852 279.768 402.187 279.603C402.453 279.438 402.7 279.25 402.877 279.044C403.454 278.361 403.567 277.385 403.232 276.578C402.922 275.812 402.187 275.212 401.029 275.23ZM398.398 296.746C398.196 296.682 397.994 296.623 397.772 296.6C375.646 296.022 352.357 295.775 330.788 300.872C327.669 301.619 328.98 306.097 332.124 305.368C352.756 300.5 375.045 300.707 396.235 301.243C396.747 301.266 397.26 301.266 397.772 301.284C400.758 301.348 400.936 297.411 398.398 296.746ZM237.86 386.872C237.17 387.349 236.455 387.807 235.765 388.284C183.752 423.542 100.857 460.606 50.2925 403.603C34.3609 385.63 25.3134 363.078 19.0945 340.773C18.7594 339.591 17.7788 339.137 16.7785 339.137C15.3051 339.155 13.7676 340.278 14.2604 341.997C16.4631 349.895 19.1389 357.958 22.3272 365.897C33.4443 393.468 51.2731 419.458 81.0667 431.357C112.935 444.105 148.903 436.89 179.5 424.496C200.246 416.103 219.587 404.969 237.84 392.597C238.683 392.015 239.53 391.456 240.378 390.897C241.625 390.044 241.669 388.637 241.092 387.642C240.491 386.583 239.195 385.96 237.86 386.872ZM90.9371 253.485C88.9561 251.165 92.4795 247.847 94.4851 250.189C98.8265 255.25 102.084 261.071 105.159 266.879C105.267 267.126 105.4 267.355 105.538 267.603C117.212 289.701 126.664 312.977 135.484 336.194C139.988 333.911 144.512 331.633 149.125 329.497C165.012 322.117 180.81 314.513 197.412 308.604C197.703 308.481 197.994 308.352 198.304 308.252C199.709 307.775 200.714 308.481 201.113 309.452C201.581 310.612 201.246 312.171 199.645 312.73C199.576 312.748 199.511 312.789 199.443 312.812C182.506 318.78 166.416 326.619 150.263 334.163C139.52 339.155 129.157 344.61 118.883 350.349C116.123 351.907 113.605 347.864 116.365 346.329C121.223 343.615 126.127 341.002 131.049 338.431C131.03 338.39 131.005 338.371 130.985 338.33C126.417 326.266 121.514 314.302 116.409 302.448C112.289 292.868 108.007 283.334 103.286 273.988C102.503 272.452 101.724 270.876 100.921 269.322C98.0922 263.789 94.9976 258.211 90.9371 253.485ZM133.346 339.902C134.908 339.967 136.49 338.848 135.82 337.083C136.465 338.825 134.908 339.944 133.346 339.902ZM1034.1 217.209C1020.67 225.295 1012.44 239.807 1006.05 252.967C999.699 266.026 994.707 279.667 990.607 293.474C989.715 296.458 988.843 299.46 988.109 302.49C987.774 303.814 988.621 304.768 989.671 305.162C990.849 305.639 992.322 305.327 992.81 303.938C992.835 303.856 992.879 303.814 992.899 303.732C995.796 292.062 999.719 280.515 1004.2 269.303C1007.99 259.81 1012.33 250.46 1017.81 241.691C1022.63 233.981 1028.44 226.147 1036.62 221.234C1039.32 219.615 1036.83 215.573 1034.1 217.209ZM1110.05 317.414C1110.03 317.332 1109.98 317.245 1109.96 317.162C1109.89 316.938 1109.81 316.727 1109.65 316.562C1109.6 316.502 1109.56 316.479 1109.49 316.42C1109.29 316.232 1109.09 316.067 1108.83 315.943C1108.8 315.92 1108.78 315.92 1108.76 315.92C1108.45 315.796 1108.11 315.691 1107.78 315.673C1106.71 315.59 1105.55 316.026 1105.12 317.245C1102.65 324.13 1100.2 330.992 1097.73 337.872C1097.39 338.784 1097.08 339.673 1096.75 340.585C1096.72 340.65 1096.7 340.732 1096.68 340.796C1096.15 342.268 1097.19 343.303 1098.46 343.551C1099.64 343.799 1101 343.386 1101.49 342.015C1103.12 337.478 1104.74 332.958 1106.37 328.42C1107.22 326.078 1108.04 323.735 1108.89 321.393C1109.25 320.417 1109.58 319.445 1109.94 318.469C1110.07 318.075 1110.09 317.745 1110.05 317.414ZM453.397 140.289C454.24 139.418 454.466 137.841 453.397 136.993C449.139 133.615 444.906 130.255 440.649 126.895C440.023 126.419 439.422 125.942 438.821 125.465C438.308 125.071 437.663 124.823 437.017 124.805C436.372 124.782 435.726 124.97 435.258 125.465C434.41 126.336 434.189 127.913 435.258 128.761C439.511 132.121 443.748 135.481 448.001 138.859C448.602 139.336 449.204 139.812 449.829 140.289C450.342 140.683 450.987 140.931 451.633 140.949C452.283 140.972 452.904 140.784 453.397 140.289ZM984.965 276.889C984.965 297.764 966.781 314.678 944.345 314.678C921.904 314.678 903.72 297.764 903.72 276.889C903.72 257.363 919.652 241.278 940.087 239.307C932.508 232.427 927.787 222.852 927.787 212.236C927.787 211.823 927.832 211.406 927.851 210.993C928.118 203.201 930.907 196.046 935.495 190.142C939.55 184.916 945.01 180.709 951.362 177.972C956.063 175.941 961.232 174.718 966.693 174.488C961.232 174.699 956.063 175.941 951.362 177.972C942.137 171.028 936.229 160.435 936.229 148.558C936.229 134.834 944.118 122.857 955.886 116.243C955.886 116.243 955.886 116.243 955.91 116.243C955.462 115.995 955.038 115.789 954.614 115.537C978.904 95.1803 967.9 63.9466 946.257 62.764C928.61 61.7877 916.779 76.3411 911.94 83.7209C886.315 60.628 867.284 37.0996 867.284 37.0996L831.493 79.9898L830.404 79.0363C830.202 77.377 830 75.7177 829.867 74.0584C829.847 73.875 829.847 73.6871 829.823 73.4992C829.803 73.2516 829.803 72.9812 829.778 72.7108C829.69 71.5511 829.621 70.3914 829.576 69.2088C829.556 68.8558 829.532 68.5029 829.532 68.1545C829.487 66.8252 829.487 65.5005 829.487 64.1712C829.487 63.777 829.487 63.3645 829.487 62.9703C829.512 61.2697 829.576 59.5921 829.714 57.8915C829.847 56.3147 830.025 54.802 830.271 53.2894C830.36 52.7944 830.493 52.3176 830.581 51.818C830.784 50.8463 830.961 49.847 831.207 48.8936C831.34 48.3344 831.537 47.7751 831.695 47.2159C831.942 46.3679 832.188 45.5154 832.474 44.6857C832.676 44.1081 832.922 43.5489 833.144 42.9668C833.435 42.2013 833.745 41.4129 834.08 40.6657C834.327 40.0882 834.612 39.5244 834.903 38.9652C835.263 38.2409 835.637 37.535 836.017 36.8337C836.332 36.2699 836.662 35.7336 836.997 35.1927C837.402 34.5327 837.801 33.8451 838.249 33.2034C838.604 32.6671 838.983 32.1491 839.363 31.6266C839.806 30.9849 840.274 30.366 840.767 29.761C841.166 29.2659 841.59 28.7663 842.014 28.2713C842.526 27.6891 843.039 27.1116 843.571 26.5294C844.02 26.0527 844.463 25.576 844.931 25.1222C845.488 24.5584 846.045 24.0221 846.626 23.4812C847.095 23.0458 847.582 22.6103 848.075 22.1749C848.676 21.6386 849.278 21.139 849.903 20.6439C850.416 20.2268 850.928 19.8142 851.441 19.42C852.086 18.9204 852.732 18.4666 853.402 17.9899C853.934 17.6186 854.471 17.2244 855.004 16.8715C855.694 16.4131 856.388 15.9776 857.098 15.5422C857.655 15.1892 858.212 14.8592 858.769 14.5292C859.508 14.0937 860.262 13.6995 861.021 13.2824C861.577 12.9753 862.134 12.6819 862.691 12.3931C863.494 11.9989 864.342 11.6047 865.165 11.2335C865.722 10.9813 866.234 10.7155 866.791 10.4863C867.727 10.0692 868.688 9.6979 869.644 9.32662C870.112 9.15702 870.561 8.95075 871.029 8.78573C872.453 8.24485 873.902 7.7498 875.375 7.29143C876.775 6.83764 878.224 6.4251 879.672 6.04923C881.614 5.55419 883.575 5.13706 885.556 4.74286C886.069 4.66035 886.561 4.55951 887.049 4.47242C891.016 3.74819 895.052 3.2944 899.083 3.06521C899.576 3.04229 900.088 3.02395 900.576 3.00104C902.582 2.91853 904.612 2.87727 906.637 2.91853C909.668 2.9827 912.679 3.17063 915.665 3.519C918.025 3.78944 920.341 4.16531 922.638 4.6191C922.84 4.66035 923.062 4.70161 923.264 4.74286C925.599 5.21957 927.92 5.77879 930.192 6.44343C931.932 6.9614 933.622 7.52062 935.317 8.12109C935.563 8.2036 935.83 8.29069 936.076 8.39153C937.791 9.03326 939.486 9.72082 941.132 10.4863C952.141 15.5651 963.105 23.5042 971.507 35.8345C971.532 35.8345 971.532 35.8574 971.532 35.8574C972.798 37.7459 973.961 39.694 975.03 41.6421C975.208 41.9538 975.385 42.2426 975.543 42.5542C976.523 44.4198 977.415 46.3267 978.238 48.2519C978.396 48.6277 978.549 49.0219 978.706 49.3932C979.485 51.323 980.2 53.2711 980.821 55.2192C980.914 55.5079 981.003 55.8196 981.092 56.1313C981.471 57.3735 981.781 58.6157 982.092 59.8808C982.269 60.5638 982.496 61.2514 982.649 61.9344C982.673 62.0994 982.718 62.2644 982.762 62.4294C983.206 64.4233 983.565 66.431 983.876 68.4433C983.945 68.8375 983.989 69.2317 984.053 69.6259C984.319 71.5511 984.546 73.4579 984.699 75.3648C984.723 75.8002 984.768 76.2173 984.787 76.6528C984.925 78.5596 985.034 80.4665 985.078 82.3321C985.078 82.6438 985.078 82.9325 985.078 83.2213C985.103 84.9861 985.103 86.7233 985.058 88.4468C985.034 88.7356 985.034 89.0243 985.034 89.2948C985.014 90.1886 984.945 91.0366 984.901 91.9075C984.856 92.7968 984.832 93.7089 984.768 94.6028C984.743 94.997 984.699 95.4095 984.679 95.8037C984.521 97.463 984.364 99.0994 984.186 100.695C984.142 101.07 984.097 101.442 984.053 101.818C983.851 103.431 983.654 104.985 983.408 106.502C983.383 106.686 983.339 106.851 983.319 107.038C983.097 108.469 982.851 109.839 982.604 111.164C991.139 112.305 998.782 115.89 1004.75 121.134C1004.84 121.216 1004.93 121.28 1005 121.34C1005.67 121.945 1006.32 122.587 1006.94 123.228C1007.14 123.435 1007.36 123.664 1007.59 123.893C1008.12 124.471 1008.63 125.071 1009.13 125.676C1009.39 126.006 1009.66 126.336 1009.92 126.671C1010.35 127.23 1010.75 127.807 1011.15 128.39C1011.44 128.802 1011.71 129.219 1011.97 129.655C1012.31 130.214 1012.64 130.773 1012.95 131.332C1013.23 131.832 1013.49 132.327 1013.74 132.845C1014 133.386 1014.25 133.922 1014.49 134.486C1014.74 135.064 1014.96 135.646 1015.19 136.223C1015.36 136.741 1015.56 137.259 1015.74 137.8C1015.97 138.465 1016.12 139.125 1016.3 139.789C1016.43 140.266 1016.57 140.766 1016.68 141.261C1016.83 142.031 1016.95 142.815 1017.05 143.603C1017.1 144.02 1017.19 144.433 1017.24 144.85C1017.37 146.069 1017.43 147.316 1017.43 148.558C1017.43 149.883 1017.35 151.171 1017.21 152.454C1017.19 152.748 1017.12 153.036 1017.08 153.325C1016.95 154.32 1016.81 155.296 1016.59 156.25C1016.54 156.479 1016.45 156.703 1016.41 156.933C1016.17 157.95 1015.9 158.945 1015.56 159.917C1015.52 160.063 1015.45 160.187 1015.41 160.334C1015.05 161.37 1014.65 162.406 1014.18 163.419C1014.16 163.483 1014.12 163.547 1014.09 163.607C1013.58 164.707 1013.02 165.761 1012.42 166.779C1010.51 170.01 1008.08 172.957 1005.27 175.524C1001.97 178.531 998.117 180.997 993.879 182.822C988.932 179.113 983.008 176.459 976.523 175.236C983.008 176.459 988.932 179.113 993.859 182.822C1003.08 189.766 1008.99 200.359 1008.99 212.236C1008.99 231.762 993.081 247.828 972.645 249.795C980.219 256.68 984.965 266.255 984.965 276.889ZM976.878 110.77C978.125 110.77 979.396 110.852 980.643 110.976C979.396 110.852 978.15 110.77 976.878 110.77Z" fill="#2D2932"/>
</svg>
