<svg width="21" height="20" viewBox="0 0 21 20" fill="none" xmlns="http://www.w3.org/2000/svg">
<path d="M16.3333 5H4.66667C3.74619 5 3 5.74619 3 6.66667V13.3333C3 14.2538 3.74619 15 4.66667 15H16.3333C17.2538 15 18 14.2538 18 13.3333V6.66667C18 5.74619 17.2538 5 16.3333 5Z" stroke="#444444" stroke-width="0.833333"/>
<path d="M4.66406 7.5H7.16406M13.8307 12.5H16.3307" stroke="#444444" stroke-width="0.833333" stroke-linecap="round"/>
<path d="M10.5026 11.6673C11.4231 11.6673 12.1693 10.9211 12.1693 10.0007C12.1693 9.08018 11.4231 8.33398 10.5026 8.33398C9.58213 8.33398 8.83594 9.08018 8.83594 10.0007C8.83594 10.9211 9.58213 11.6673 10.5026 11.6673Z" stroke="#444444" stroke-width="0.833333"/>
</svg>
