<svg width="257" height="72" viewBox="0 0 257 72" fill="none" xmlns="http://www.w3.org/2000/svg">
<path d="M99.273 48.0007H105.069V38.0648H107.589L113.745 48.0007H119.937L113.133 37.0568C116.157 36.1568 118.425 34.1048 118.425 30.2168V30.0728C118.425 24.7449 114.573 22.2609 108.489 22.2609H99.273V48.0007ZM105.069 34.1048V26.7249H108.345C111.153 26.7249 112.737 27.6249 112.737 30.2528V30.3968C112.737 32.8809 111.261 34.1048 108.345 34.1048H105.069Z" fill="#444444"/>
<path d="M129.884 48.3967C135.032 48.3967 138.272 46.1288 138.884 42.0608H133.952C133.628 43.6448 132.44 44.6888 130.028 44.6888C127.184 44.6888 125.493 42.8888 125.348 39.7569H138.92V38.3169C138.92 31.5848 134.6 28.7409 129.74 28.7409C124.268 28.7409 120.056 32.5928 120.056 38.5328V38.8208C120.056 44.8328 124.196 48.3967 129.884 48.3967ZM125.42 36.5528C125.816 33.8888 127.4 32.3409 129.74 32.3409C132.224 32.3409 133.664 33.7088 133.844 36.5528H125.42Z" fill="#444444"/>
<path d="M141.4 47.9996H146.584V20.6398H141.4V47.9996Z" fill="#444444"/>
<path d="M156.529 48.3967C159.626 48.3967 161.533 46.9567 162.505 45.0487V48.0007H167.689V29.1727H162.505V40.2247C162.505 42.9968 160.777 44.3647 158.582 44.3647C156.35 44.3647 155.305 43.1407 155.305 40.5847V29.1727H150.122V41.3047C150.122 46.2367 152.857 48.3967 156.529 48.3967Z" fill="#444444"/>
<path d="M171.228 48.0008H176.449V36.8769C176.449 34.3209 178.069 33.0248 180.084 33.0248C181.921 33.0248 183.037 34.1048 183.037 36.5169V48.0008H188.221V36.8769C188.221 34.3209 189.841 33.0248 191.856 33.0248C193.728 33.0248 194.809 34.1048 194.809 36.5169V48.0008H199.993V35.9409C199.993 30.9369 197.293 28.7409 193.8 28.7409C191.425 28.7409 188.977 29.7488 187.465 32.0169C186.565 29.7849 184.693 28.7409 182.209 28.7409C179.4 28.7409 177.384 30.2888 176.449 32.0528V29.1728H171.228V48.0008Z" fill="#444444"/>
<path d="M212.048 48.3967C217.197 48.3967 220.437 46.1288 221.048 42.0608H216.116C215.792 43.6448 214.604 44.6888 212.192 44.6888C209.348 44.6888 207.657 42.8888 207.513 39.7569H221.085V38.3169C221.085 31.5848 216.764 28.7409 211.904 28.7409C206.432 28.7409 202.22 32.5928 202.22 38.5328V38.8208C202.22 44.8328 206.36 48.3967 212.048 48.3967ZM207.585 36.5528C207.981 33.8888 209.565 32.3409 211.904 32.3409C214.388 32.3409 215.829 33.7088 216.009 36.5528H207.585Z" fill="#444444"/>
<path fill-rule="evenodd" clip-rule="evenodd" d="M79.3248 23.8L78.9748 23.175C78.5234 22.4192 77.8867 21.791 77.1249 21.35L60.3499 11.675C59.5903 11.2344 58.7281 11.0016 57.8499 11H57.1249C56.2467 11.0016 55.3845 11.2344 54.6249 11.675L37.85 21.375C37.0924 21.8131 36.4631 22.4424 36.025 23.2L35.675 23.825C35.2344 24.5845 35.0016 25.4468 35 26.3249V45.6999C35.0016 46.5781 35.2344 47.4403 35.675 48.1999L36.025 48.8249C36.4745 49.5737 37.1012 50.2004 37.85 50.6499L54.6499 60.3248C55.4057 60.7745 56.2705 61.0081 57.1499 60.9998H57.8499C58.7281 60.9982 59.5903 60.7654 60.3499 60.3248L77.1249 50.6249C77.8899 50.1966 78.5216 49.565 78.9498 48.7999L79.3248 48.1749C79.7601 47.4131 79.9926 46.5522 79.9998 45.6749V26.2999C79.9983 25.4218 79.7655 24.5595 79.3248 23.8ZM57.1249 15.9999H57.8499L72.4999 24.4499L57.4999 33.0998L42.5 24.4499L57.1249 15.9999ZM59.9999 54.75L74.6248 46.3L74.9998 45.675V28.7751L59.9999 37.45V54.75Z" fill="#444444"/>
</svg>
