<svg width="424" height="393" viewBox="0 0 424 393" fill="none" xmlns="http://www.w3.org/2000/svg">
<g clip-path="url(#clip0_4660_2282)">
<path opacity="0.9" d="M61.0145 116.531C66.04 97.3207 74.8455 79.1744 88.481 65.1243C104.674 48.4489 126.037 36.4603 149.599 32.7361C173.162 29.0119 198.876 33.8649 219.661 47.5115C240.445 61.158 255.769 83.7654 258.807 107.735C261.72 130.693 272.933 153.985 291.983 168.317C306.266 179.059 323.472 185.114 340.896 187.091C362.006 189.505 380.349 205.088 384.971 225.822C386.291 231.823 386.648 237.877 386.027 243.753C383.766 265.292 370.862 284.07 353.971 296.894C337.081 309.718 327 309.5 295.481 322.258C214.5 271.5 45.2765 230.29 61.0145 116.531Z" fill="#6982B5" fill-opacity="0.68"/>
<path d="M263.522 88.5573C266.285 81.3984 274.577 74.8193 274.577 74.8193C274.577 74.8193 290.438 71.42 291.816 82.3318C293.19 93.2403 302.635 99.2169 316.803 101.126C330.974 103.042 329.337 118.172 329.337 118.172L327.936 119.691L326.424 112.945L326.395 121.365L324.423 123.503L322.287 116.23C322.287 116.23 321.572 123.028 321.349 126.84L315.225 133.488L263.916 105.59C263.916 105.59 260.203 97.1734 263.522 88.5573Z" fill="#363E44"/>
<path d="M324.169 117.26C324.005 117.26 323.864 117.138 323.845 116.971C323.362 112.911 319.915 109.927 316.848 108.486C313.761 107.039 310.28 106.489 306.918 105.958C306.442 105.879 305.966 105.804 305.491 105.729C301.833 105.126 297.647 104.288 294.278 101.858C291.32 99.7293 288.633 95.5244 289.722 91.3195C289.768 91.1459 289.945 91.0411 290.119 91.0837C290.296 91.1328 290.398 91.3097 290.352 91.4832C289.341 95.3901 291.874 99.3298 294.659 101.331C297.916 103.675 302.01 104.497 305.596 105.084C306.068 105.162 306.544 105.238 307.019 105.313C310.428 105.853 313.951 106.41 317.126 107.9C320.351 109.41 323.979 112.567 324.491 116.896C324.514 117.076 324.386 117.237 324.205 117.256L324.169 117.26Z" fill="#40484C"/>
<path d="M317.318 118.538C317.167 118.538 317.033 118.434 317 118.28C316.177 114.245 311.984 111.74 308.34 110.741C306.569 110.253 304.709 109.968 302.914 109.693C300.661 109.346 298.335 108.989 296.134 108.236C292.207 106.89 288.215 103.579 288.152 99.2136C288.149 99.0335 288.293 98.8861 288.471 98.8828C288.658 98.8828 288.799 99.0236 288.805 99.2037C288.861 103.251 292.633 106.349 296.344 107.62C298.489 108.357 300.788 108.707 303.009 109.051C304.827 109.33 306.706 109.618 308.514 110.112C313.474 111.475 316.885 114.478 317.64 118.145C317.673 118.322 317.561 118.496 317.384 118.532C317.361 118.535 317.341 118.538 317.318 118.538Z" fill="#40484C"/>
<path d="M286.584 140.466L305.079 148.712C310.888 151.302 317.715 149.19 321.041 143.777C324.204 138.635 323.301 131.981 318.879 127.874C314.264 123.581 308.638 118.521 305.4 116.229C299.23 111.853 286.584 140.466 286.584 140.466Z" fill="#8B865C"/>
<path d="M212.447 102.992C212.447 102.992 216.902 92.9419 245.13 93.61L246.18 119.285L212.447 102.992Z" fill="#8B865C"/>
<path d="M245.128 93.6094C245.128 93.6094 283.732 98.3972 306.176 116.851L288.708 142.064L279.392 190.316C279.392 190.316 225.262 156.152 225.275 155.53C225.285 154.908 239.798 119.841 239.798 119.841L245.128 93.6094Z" fill="#8B865C"/>
<path d="M288.043 105.848C288.043 105.848 272.875 138.872 266.924 168.945L235.744 159.153L255.909 95.5293C255.909 95.5293 275.007 97.9429 288.043 105.848Z" fill="white"/>
<path d="M272.405 75.0404C269.148 80.6797 270.119 88.1857 275.318 91.1854C280.518 94.1852 289.027 91.3001 292.285 85.6608C295.542 80.0248 293.968 73.0231 288.768 70.0234C283.565 67.0236 275.66 69.4044 272.405 75.0404Z" fill="#363E44"/>
<path d="M280.518 90.1387L276.388 104.25L268.256 102.066L271.461 90.9083L280.518 90.1387Z" fill="#BC8271"/>
<path d="M283.205 103.225C283.205 103.225 274.827 97.2124 264.562 97.0781L266.026 113.993L283.205 103.225Z" fill="#BC8271"/>
<path d="M282.814 73.9238C282.43 73.688 278.73 71.507 275.131 73.0167C272.451 74.14 271.024 76.5568 269.243 80.968C267.147 86.1652 266.619 89.5678 267.586 91.2609C269.115 93.9397 277.68 93.753 282.391 90.6092C285.789 88.3397 287.557 84.1512 287.108 80.0609C286.665 75.9837 283.06 74.0712 282.814 73.9238Z" fill="#BC8271"/>
<path d="M270.43 76.2202C270.417 76.2562 270.384 76.2759 270.371 76.3086V76.3119C270.056 76.7344 269.728 77.1797 269.344 77.5367C269.177 77.6939 268.993 77.743 268.816 77.874C268.688 77.969 268.563 78.0639 268.429 78.1524C267.852 76.5149 268.111 74.8906 268.111 74.8906C268.111 74.8906 269.324 75.2902 270.43 76.2202Z" fill="white"/>
<mask id="mask0_4660_2282" style="mask-type:luminance" maskUnits="userSpaceOnUse" x="268" y="76" width="5" height="6">
<path d="M268.256 76.0527H272.543V81.8165H268.256V76.0527Z" fill="white"/>
</mask>
<g mask="url(#mask0_4660_2282)">
<mask id="mask1_4660_2282" style="mask-type:luminance" maskUnits="userSpaceOnUse" x="268" y="74" width="5" height="8">
<path d="M268.111 74.8906C268.111 74.8906 267.734 77.2452 268.901 79.1446C270.073 81.0473 272.346 81.7711 272.346 81.7711C272.346 81.7711 272.726 79.4132 271.555 77.5138C270.384 75.6144 268.111 74.8906 268.111 74.8906Z" fill="white"/>
</mask>
<g mask="url(#mask1_4660_2282)">
<path d="M268.597 77.7555C267.892 79.2062 268.498 80.9484 269.948 81.6525C271.398 82.3566 273.144 81.7508 273.846 80.3C274.548 78.8493 273.941 77.107 272.491 76.403C271.041 75.6989 269.299 76.3047 268.597 77.7555Z" fill="#363E44"/>
</g>
</g>
<path d="M277.733 83.6502C277.471 84.2135 277.169 84.5901 276.654 84.8815C275.365 84.1611 274.574 83.136 274.574 83.136C274.574 83.136 276.283 82.2125 278.199 82.3402C278.156 82.7955 277.917 83.2539 277.733 83.6502Z" fill="white"/>
<mask id="mask2_4660_2282" style="mask-type:luminance" maskUnits="userSpaceOnUse" x="276" y="82" width="7" height="4">
<path d="M276.535 82.2598H282.597V85.6591H276.535V82.2598Z" fill="white"/>
</mask>
<g mask="url(#mask2_4660_2282)">
<mask id="mask3_4660_2282" style="mask-type:luminance" maskUnits="userSpaceOnUse" x="274" y="82" width="9" height="4">
<path d="M282.488 84.7788C282.488 84.7788 281.032 82.886 278.847 82.434C276.663 81.9788 274.576 83.1381 274.576 83.1381C274.576 83.1381 276.029 85.0277 278.214 85.4829C280.399 85.9349 282.488 84.7788 282.488 84.7788Z" fill="white"/>
</mask>
<g mask="url(#mask3_4660_2282)">
<path d="M282.325 83.866C281.751 82.3628 280.068 81.6063 278.559 82.1761C277.053 82.7492 276.296 84.4325 276.87 85.9389C277.44 87.4454 279.127 88.2018 280.632 87.6287C282.141 87.0589 282.896 85.3724 282.325 83.866Z" fill="#363E44"/>
</g>
</g>
<path d="M270.715 84.5812C270.558 84.5812 270.413 84.4633 270.394 84.2995C270.338 83.9 270.407 83.566 270.597 83.3073C270.807 83.0191 271.092 82.9372 271.371 82.8553C271.548 82.7997 271.735 82.7473 271.939 82.6326C272.195 82.4885 272.424 82.279 272.621 82.0104C272.726 81.8663 272.929 81.8336 273.077 81.9384C273.221 82.0464 273.254 82.2495 273.149 82.3936C272.897 82.7374 272.598 83.0125 272.257 83.2025C271.988 83.3498 271.749 83.4219 271.555 83.4775C271.316 83.5496 271.197 83.5889 271.122 83.6937C271.037 83.8116 271.007 83.9851 271.037 84.2111C271.063 84.388 270.938 84.555 270.758 84.5779C270.745 84.5812 270.732 84.5812 270.715 84.5812Z" fill="#363E44"/>
<path d="M271.1 87.9896C271.29 88.7494 272.061 89.2144 272.822 89.0245C273.586 88.8378 274.049 88.0682 273.862 87.3052C273.671 86.5454 273.242 87.4591 272.481 87.6458C271.72 87.8357 270.913 87.2299 271.1 87.9896Z" fill="#363E44"/>
<path d="M272.923 93.4329C272.572 93.4329 272.218 93.4231 271.86 93.4002C271.683 93.3871 271.545 93.2331 271.555 93.053C271.568 92.8762 271.722 92.7386 271.903 92.7485C275.298 92.9679 278.628 91.9789 278.661 91.9658C278.834 91.9167 279.015 92.0149 279.067 92.1852C279.12 92.3588 279.021 92.5389 278.851 92.5913C278.726 92.6306 276.023 93.4329 272.923 93.4329Z" fill="#363E44"/>
<path d="M286.58 72.0046C286.58 72.0046 285.189 66.2965 289.828 61.3318C294.466 56.3672 298.908 56.5342 302.733 60.6572C306.551 64.7868 305.456 73.642 291.904 77.6045L286.58 72.0046Z" fill="#363E44"/>
<path d="M295.122 72.6184C294.138 72.6184 293.16 72.4416 292.242 72.078C292.078 72.0093 291.992 71.8193 292.061 71.6523C292.127 71.4853 292.32 71.4067 292.481 71.4722C294.774 72.3826 297.526 72.0224 299.501 70.552C301.476 69.0816 302.611 66.5468 302.394 64.0973C302.378 63.9171 302.509 63.7599 302.69 63.7436C302.873 63.7272 303.027 63.8582 303.041 64.0383C303.28 66.7106 302.043 69.4713 299.891 71.0727C298.53 72.0879 296.821 72.6184 295.122 72.6184Z" fill="#40484C"/>
<path d="M295.692 74.7405C294.99 74.7405 294.292 74.6095 293.642 74.341C293.478 74.2722 293.399 74.079 293.468 73.9152C293.537 73.7482 293.727 73.6696 293.891 73.7384C295.256 74.3017 296.89 74.1805 298.156 73.4207C298.31 73.3258 298.51 73.3782 298.602 73.5288C298.694 73.686 298.645 73.8858 298.494 73.9775C297.654 74.4818 296.673 74.7405 295.692 74.7405Z" fill="#40484C"/>
<path d="M276.738 72.5684C276.738 72.5684 280.517 71.8184 283.876 76.0986C286.429 79.3538 287.131 82.9332 283.689 86.2703L286.855 88.0354C286.855 88.0354 292.074 79.4652 285.487 74.4154C283.65 73.0039 280.835 72.0935 276.738 72.5684Z" fill="#363E44"/>
<path d="M281.477 89.067C281.477 90.9205 282.979 92.4204 284.829 92.4204C286.683 92.4204 288.185 90.9205 288.185 89.067C288.185 87.2167 286.683 85.7168 284.829 85.7168C282.979 85.7168 281.477 87.2167 281.477 89.067Z" fill="#BC8271"/>
<path d="M283.237 89.729C283.168 89.729 283.099 89.7061 283.04 89.6635C282.899 89.5555 282.866 89.3524 282.974 89.2083C283.004 89.1723 283.65 88.3208 284.72 88.1735C285.409 88.0752 286.104 88.2914 286.78 88.8088C286.924 88.9169 286.95 89.1232 286.842 89.264C286.734 89.4081 286.527 89.4376 286.386 89.3262C285.851 88.9169 285.317 88.7466 284.808 88.8186C284.004 88.93 283.503 89.5915 283.496 89.598C283.434 89.6832 283.335 89.729 283.237 89.729Z" fill="#363E44"/>
<path d="M129.262 170.152L155.925 216.308L161.534 167.467L129.262 170.152Z" fill="#363E44"/>
<path d="M120.517 137.978L99.2597 145.005C92.5874 147.213 85.2557 144.229 82.1197 138.037C79.1443 132.155 80.8042 125.049 86.0988 121.053C91.6295 116.884 98.3511 111.985 102.16 109.837C109.413 105.737 120.517 137.978 120.517 137.978Z" fill="white"/>
<path d="M206.171 105.013C206.171 105.013 202.257 93.6887 171.005 91.5273L168.637 104.479L206.171 105.013Z" fill="white"/>
<path d="M171.006 91.5273C171.006 91.5273 127.882 92.7652 101.238 110.43L118.011 139.484L124.559 172.265C127.157 173.254 149.057 173.729 153.2 174.738C153.2 174.738 153.915 174.957 161.424 175.547C170.409 176.251 165.488 166.672 186.742 160.528C182.582 147.167 178.423 133.806 174.266 120.444L171.006 91.5273Z" fill="white"/>
<path d="M130.417 63.3784C130.896 63.1263 135.518 60.7684 139.746 62.8545C142.892 64.4067 144.434 67.4229 146.255 72.8755C148.397 79.2975 148.78 83.4336 147.491 85.4051C145.448 88.5194 135.141 87.6614 129.695 83.522C125.762 80.5354 123.941 75.3611 124.784 70.4619C125.624 65.5791 130.108 63.5389 130.417 63.3784Z" fill="#84524D"/>
<path d="M140.716 105.035C136.639 106.129 132.45 103.712 131.357 99.6381L125.335 77.1792C124.242 73.1053 126.66 68.92 130.734 67.8295C134.812 66.7357 139.001 69.1525 140.093 73.2264L146.116 95.6853C147.208 99.7559 144.791 103.944 140.716 105.035Z" fill="#84524D"/>
<path d="M141.842 87.8069C138.011 87.8069 133.002 86.6083 129.551 83.9851C129.406 83.8771 129.38 83.6708 129.488 83.5299C129.597 83.3891 129.8 83.3596 129.944 83.4677C133.792 86.3889 140.041 87.5678 143.863 87.0242C144.04 86.998 144.207 87.1224 144.23 87.2993C144.257 87.4761 144.132 87.6431 143.955 87.6661C143.312 87.761 142.6 87.8069 141.842 87.8069Z" fill="#363E44"/>
<path d="M135.314 74.2253C135.314 74.2253 136.64 75.8234 138.68 76.6454C139.11 76.819 139.7 73.0234 139.215 73.0529C137.05 73.1773 135.314 74.2253 135.314 74.2253Z" fill="white"/>
<path d="M145.46 75.9441C145.46 75.9441 142.855 77.516 140.054 77.0379C139.565 76.956 139.103 76.8152 138.67 76.6417C138.194 75.3972 138.43 74.048 139.194 73.0524C139.686 73.0229 140.198 73.0393 140.717 73.131C143.521 73.6059 145.46 75.9441 145.46 75.9441Z" fill="#363E44"/>
<path d="M144.092 81.1675C143.879 81.1675 143.666 81.1282 143.462 81.043C142.599 80.673 142.468 79.72 142.462 79.6807C142.439 79.5006 142.567 79.3368 142.744 79.3172C142.924 79.2942 143.085 79.4187 143.108 79.5988C143.108 79.6021 143.2 80.2243 143.718 80.4437C144.135 80.6206 144.64 80.4797 144.948 80.1031C145.063 79.9656 145.266 79.9459 145.407 80.0573C145.545 80.1719 145.565 80.3782 145.453 80.5158C145.106 80.9382 144.6 81.1675 144.092 81.1675Z" fill="#363E44"/>
<path d="M146.48 75.0898C146.585 75.401 146.789 75.8398 147.189 76.2197C147.671 76.6716 148.088 76.6978 148.226 77.0548C148.317 77.2938 148.291 77.6999 147.678 78.4204L146.48 75.0898Z" fill="#84524D"/>
<path d="M147.678 78.7454C147.602 78.7454 147.527 78.7192 147.468 78.6668C147.33 78.5522 147.314 78.3459 147.429 78.2084C147.819 77.7499 147.999 77.3733 147.921 77.1702C147.891 77.0884 147.809 77.0327 147.606 76.9148C147.429 76.81 147.206 76.6823 146.966 76.453C146.612 76.1223 146.346 75.6966 146.172 75.1922C146.113 75.0252 146.205 74.8385 146.376 74.7796C146.543 74.7207 146.73 74.8123 146.789 74.9826C146.927 75.3854 147.137 75.7195 147.412 75.9815C147.599 76.155 147.78 76.2598 147.937 76.3548C148.17 76.4923 148.413 76.6332 148.531 76.9377C148.705 77.3962 148.508 77.9496 147.927 78.6308C147.862 78.7061 147.77 78.7454 147.678 78.7454Z" fill="#363E44"/>
<path d="M132.463 82.6062C131.318 82.6062 130.124 82.1444 129.163 81.2701C128.264 80.4513 127.687 79.3837 127.539 78.2637C127.388 77.1241 127.697 76.063 128.412 75.2804C129.534 74.0457 131.446 73.7739 133.175 74.6025C133.339 74.6778 133.408 74.8743 133.329 75.0347C133.251 75.1985 133.057 75.2673 132.896 75.1887C131.427 74.4846 129.819 74.7007 128.891 75.7192C128.31 76.3578 128.058 77.2322 128.186 78.1786C128.314 79.148 128.815 80.0747 129.599 80.7886C130.882 81.9512 132.621 82.2853 133.93 81.6139C134.09 81.532 134.284 81.5975 134.366 81.758C134.448 81.9185 134.386 82.1117 134.225 82.1936C133.684 82.4719 133.08 82.6062 132.463 82.6062Z" fill="#363E44"/>
<path d="M130.922 80.3105C130.863 80.3105 130.8 80.2941 130.744 80.2614C130.61 80.1729 130.475 80.0747 130.354 79.9633C129.337 79.0366 129.16 77.5694 129.96 76.6918C130.161 76.4724 130.407 76.3021 130.689 76.194C130.859 76.1285 131.046 76.2136 131.112 76.3807C131.177 76.5477 131.092 76.7376 130.925 76.7998C130.738 76.8752 130.574 76.9832 130.443 77.1306C129.885 77.743 130.042 78.7975 130.794 79.4787C130.885 79.5671 130.99 79.6457 131.095 79.7145C131.246 79.8094 131.292 80.0092 131.194 80.1631C131.135 80.2581 131.03 80.3105 130.922 80.3105Z" fill="#363E44"/>
<path d="M142.083 62.8783C138.885 61.3391 136.28 61.5749 135.004 61.5356C136.143 61.8467 136.884 62.0982 138.501 62C139.501 63 140.542 62.5 141.001 62.5C140.492 62.2249 140.223 60.5759 139.032 60.1405C137.376 59.5347 135.509 59.0729 133.662 59.3054C130.425 59.7148 127.833 62.5213 126.947 63.3204C128.001 63 128.243 62.3056 129.001 61.5C129.411 61.0677 130.009 60.8471 130.423 60.5C128.655 60.8701 126.636 60.7529 125.474 61.8467C124.956 62.3314 124.631 62.8554 124.248 63.5955C123.818 64.4175 123.605 65.4228 123.434 66.0975C123.421 65.8224 124.221 65.4847 124.248 65C124.257 64.8035 124.452 63.9388 124.501 63.5C124.058 64.0796 122.728 63.8464 122.001 65.5C119.784 70.5465 122.335 74.7758 125.104 76.6359C130.238 74.4614 134.84 71.37 139.537 69.3363C138.317 69.3134 137.359 69.0186 136.821 68.809C139.761 68.6813 141.417 68.4324 142.345 68.2687C143.802 68.0165 143.364 67.9388 145.001 67.5C144.63 66.7271 144.406 63.995 142.083 62.8783Z" fill="#363E44"/>
<path d="M194.341 99.207V184.409H109.084C109.084 137.352 147.255 99.207 194.341 99.207Z" fill="#D87355"/>
<path d="M194.341 184.409V269.61C147.255 269.61 109.084 231.465 109.084 184.409H142.918V180.096C139.821 178.579 137.696 175.403 137.696 171.728C137.696 166.59 141.865 162.418 147.012 162.418C152.162 162.418 156.332 166.59 156.332 171.728C156.332 175.403 154.203 178.579 151.109 180.096V184.409H194.341Z" fill="#EFBC73"/>
<path d="M279.595 184.404C279.595 231.464 241.421 269.609 194.341 269.609V235.921H189.302C187.784 239.012 184.608 241.141 180.931 241.141C175.781 241.141 171.611 236.972 171.611 231.827C171.611 226.683 175.781 222.514 180.931 222.514C184.608 222.514 187.784 224.642 189.302 227.734H194.341V184.404H279.595Z" fill="white"/>
<path d="M279.592 184.409H194.341V150.435H189.302C187.784 153.524 184.608 155.652 180.931 155.652C175.781 155.652 171.611 151.483 171.611 146.342C171.611 141.197 175.781 137.025 180.931 137.025C184.608 137.025 187.784 139.157 189.302 142.245H194.341V99.207C241.421 99.207 279.592 137.352 279.592 184.409Z" fill="#E6D0BE"/>
<path d="M251.106 197.813C251.106 202.951 246.936 207.123 241.786 207.123C236.642 207.123 232.47 202.951 232.47 197.813C232.47 194.135 234.602 190.962 237.692 189.445V184.409H194.342V99.207C241.422 99.207 279.593 137.352 279.593 184.409H245.887V189.445C248.977 190.962 251.106 194.135 251.106 197.813Z" fill="#E6D0BE"/>
<path d="M153.182 151.643C151.693 149.602 146.867 140.128 141.907 140.125C136.918 140.122 132.663 143.632 130.032 147.87C130.039 147.89 130.042 147.909 130.045 147.932C129.878 149.301 129.835 151.377 130.836 153.434C131.978 155.775 133.378 155.848 134.969 158.133C137.649 161.994 136.196 165.666 137.846 165.891C138.978 166.049 139.919 163.946 140.277 161.804C140.644 159.607 139.952 158.029 140.3 157.907C140.677 157.776 141.169 159.466 141.976 161.516C142.35 162.466 141.77 165.711 143.285 166.153C144.492 166.504 145.942 163.281 145.535 160.229C145.247 158.068 143.672 156.656 143.99 156.417C144.23 156.241 145.148 157.105 145.719 158.088C146.657 159.705 146.1 163.029 147.5 163.409C148.875 163.782 150.092 160.946 149.898 158.114C149.731 155.726 147.897 154.233 148.294 153.935C148.573 153.725 149.531 154.223 151.142 155.815C152.487 157.141 154.242 160.59 155.842 159.394C157.191 158.389 155.429 154.724 153.182 151.643Z" fill="#84524D"/>
<path d="M100.568 121.069C95.1358 119.812 89.4246 122.186 86.6855 127.036C84.8911 130.219 84.445 134.358 88.1124 139.258C97.0384 151.185 133.815 150.369 133.815 150.369L144.283 140.794C131.089 131.807 115.52 124.541 100.568 121.069Z" fill="#84524D"/>
<path d="M106.168 226.975C105.968 226.975 105.781 227.014 105.604 227.096C105.145 227.305 104.827 227.78 104.715 228.435C104.597 229.133 104.722 229.935 105.069 230.692C105.42 231.451 105.945 232.07 106.552 232.434C107.123 232.774 107.69 232.843 108.15 232.634C109.147 232.175 109.386 230.561 108.684 229.035C108.337 228.275 107.809 227.656 107.202 227.292C106.847 227.083 106.496 226.975 106.168 226.975ZM107.586 233.403C107.143 233.403 106.677 233.266 106.221 232.994C105.499 232.562 104.882 231.841 104.479 230.963C104.076 230.086 103.931 229.149 104.072 228.324C104.223 227.453 104.669 226.808 105.332 226.503C105.995 226.199 106.779 226.28 107.536 226.736C108.255 227.165 108.875 227.885 109.275 228.763C110.128 230.616 109.744 232.617 108.422 233.223C108.16 233.344 107.877 233.403 107.586 233.403Z" fill="#363E44"/>
<path d="M105.925 229.64C103.734 224.859 102.035 222.262 99.0198 221.162C94.9685 219.678 90.9927 222.275 90.5827 222.554C90.3202 222.73 86.4362 225.026 86.1541 229.552C85.872 234.022 87.9715 238.482 91.7308 240.844L92.5935 250.701C92.8691 253.864 95.6607 256.206 98.8263 255.931L99.5447 255.869C102.71 255.59 105.052 252.803 104.777 249.64L104.203 243.054C106.194 242.71 107.733 241.99 108.28 240.916C109.265 238.997 108.507 235.27 105.925 229.64Z" fill="#9E6841"/>
<path d="M99.8573 232.287C99.7195 232.287 99.5883 232.195 99.5457 232.058C99.4932 231.884 99.5883 231.704 99.7622 231.648L108.872 228.839C109.046 228.786 109.226 228.881 109.279 229.055C109.331 229.225 109.236 229.408 109.065 229.461L99.9524 232.271C99.9229 232.28 99.8901 232.287 99.8573 232.287Z" fill="#363E44"/>
<path d="M104.278 243.215C104.114 243.215 103.973 243.094 103.953 242.927L103.678 240.523C103.658 240.343 103.789 240.183 103.966 240.16C104.144 240.143 104.308 240.268 104.327 240.448L104.603 242.855C104.622 243.032 104.495 243.192 104.314 243.215H104.278Z" fill="#363E44"/>
<path d="M99.6853 235.965C99.6066 235.965 99.5278 235.938 99.4655 235.879C98.8685 235.333 98.4978 234.976 98.2222 234.717C98.091 234.589 97.9861 234.484 97.8844 234.393C97.7532 234.272 97.7466 234.065 97.868 233.934C97.9926 233.8 98.196 233.797 98.3305 233.918C98.4322 234.013 98.5404 234.118 98.6749 234.245C98.9439 234.504 99.3113 234.858 99.9051 235.401C100.04 235.522 100.046 235.729 99.9248 235.86C99.8624 235.932 99.7739 235.965 99.6853 235.965Z" fill="#363E44"/>
<path d="M100.286 220.653C96.6575 217.65 88.3351 220.29 85.432 224.917C81.5053 231.172 84.4807 239.873 89.8474 242.457C91.645 243.322 94.6105 244.321 97.5202 242.647C99.2195 241.671 98.6421 239.097 98.4912 238.478C96.8117 238.321 95.4995 236.992 95.3814 235.397C95.26 233.789 96.3819 232.328 97.7925 231.961C98.7274 231.719 99.5409 232.02 99.8755 232.168C102.254 227.278 102.874 222.792 100.286 220.653Z" fill="#B77250"/>
<path d="M89.1439 224.969C89.1439 224.969 95.8097 195.276 84.4694 194.962C73.1257 194.647 82.2781 220.008 89.1439 224.969Z" fill="#B77250"/>
<path d="M88.6536 222.579C88.6536 222.579 84.6417 205.573 93.922 205.743C103.199 205.917 88.6536 222.579 88.6536 222.579Z" fill="#B77250"/>
<path d="M89.3233 224.12C89.3233 224.12 79.7314 198.34 71.8519 202.62C63.9724 206.9 66.8362 213.07 66.8362 213.07C66.8362 213.07 64.7334 210.287 62.1452 214.721C59.557 219.152 62.8275 236.941 86.2528 232.13L89.3233 224.12Z" fill="#B77250"/>
<path d="M100.75 237.267C99.2507 237.267 98.0337 238.485 98.0337 239.982C98.0337 241.475 99.2507 242.693 100.75 242.693C102.246 242.693 103.466 241.475 103.466 239.982C103.466 238.485 102.246 237.267 100.75 237.267ZM100.75 243.345C98.8931 243.345 97.3809 241.835 97.3809 239.982C97.3809 238.125 98.8931 236.615 100.75 236.615C102.607 236.615 104.116 238.125 104.116 239.982C104.116 241.835 102.607 243.345 100.75 243.345Z" fill="#EFBC73"/>
<path d="M143.956 272.43C166.446 287.789 184.183 298.291 177.76 304.373C160.676 320.56 151.848 306.734 135.381 299.801C137.549 292.763 141.151 280.889 143.956 272.43Z" fill="#9E6841"/>
<path d="M185.717 260.257C184.822 262.546 179.57 271.474 182.164 275.541C184.782 279.638 189.896 281.285 194.758 281.223C194.771 281.21 194.787 281.193 194.801 281.18C196.014 280.597 197.743 279.543 198.908 277.647C200.236 275.482 199.56 274.293 200.607 271.795C202.368 267.573 206.147 266.84 205.472 265.366C205.003 264.357 202.782 264.688 200.837 265.517C198.839 266.368 197.904 267.76 197.625 267.54C197.317 267.298 198.448 266.008 199.708 264.272C200.292 263.47 203.264 262.245 202.831 260.771C202.487 259.596 199.081 260.093 196.785 262.029C195.158 263.398 194.827 265.431 194.463 265.294C194.19 265.192 194.42 263.984 194.925 263.002C195.765 261.384 198.79 260.097 198.366 258.748C197.95 257.428 194.981 257.916 192.757 259.56C190.881 260.948 190.618 263.234 190.165 263.064C189.847 262.946 189.752 261.898 190.215 259.746C190.602 257.945 192.514 254.697 190.69 254.012C189.158 253.436 187.069 256.799 185.717 260.257Z" fill="#9E6841"/>
<path d="M155.532 292.232C152.393 295.392 151.245 300.049 152.642 304.277C153.977 308.312 157.136 312.235 164.435 311.619C178.898 310.404 197.18 279.607 197.18 279.607L194.657 266.023C180.296 272.337 166.141 281.553 155.532 292.232Z" fill="#9E6841"/>
<path d="M141.212 304.373L156.84 280.335C156.84 280.335 139.296 260.123 125.292 256.891L124.971 296.041C129.15 299.902 134.937 302.352 141.212 304.373Z" fill="#363E44"/>
<path d="M130.437 327.82H60.6562V271.66C66.5741 264.818 73.6893 258.524 81.8279 253.894C85.4134 251.853 89.5172 251.473 93.6209 251.057C107.153 249.672 118.775 253.684 132.192 259.713C132.192 259.713 128.318 298.464 130.437 327.82Z" fill="#363E44"/>
<path d="M254.813 120.398C256.958 119.629 265.366 115.014 269.06 117.523C272.78 120.054 274.171 124.826 273.98 129.322L273.938 129.361C273.37 130.468 272.347 132.037 270.559 133.062C268.522 134.231 267.436 133.576 265.094 134.473C261.138 135.99 260.357 139.464 259.012 138.796C258.09 138.341 258.454 136.297 259.278 134.519C260.121 132.692 261.433 131.867 261.236 131.601C261.023 131.31 259.796 132.322 258.159 133.442C257.395 133.959 256.184 136.674 254.829 136.235C253.75 135.885 254.304 132.751 256.158 130.678C257.467 129.211 259.36 128.959 259.241 128.618C259.153 128.363 258.031 128.543 257.106 128.985C255.587 129.718 254.314 132.479 253.078 132.05C251.867 131.631 252.395 128.9 253.98 126.886C255.315 125.189 257.441 125.006 257.296 124.583C257.194 124.289 256.227 124.174 254.219 124.541C252.543 124.852 249.482 126.532 248.898 124.826C248.406 123.395 251.578 121.554 254.813 120.398Z" fill="#BC8271"/>
<path d="M309.537 124.279C314.222 126.093 317.276 130.76 316.856 135.771C316.577 139.052 314.809 142.363 309.59 144.157C296.885 148.526 269.894 129.27 269.894 129.27L266.951 116.822C281.346 116.809 296.632 119.285 309.537 124.279Z" fill="#BC8271"/>
<path d="M266.794 238.727C268.998 234.1 270.691 231.598 273.643 230.563C277.609 229.175 281.447 231.762 281.844 232.037C282.097 232.214 285.846 234.503 286.059 238.917C286.214 242.094 285.134 245.254 283.107 247.602C281.706 249.223 281.483 251.548 282.579 253.389L289.468 264.962C289.156 268.041 286.404 270.284 283.32 269.969L282.622 269.897C279.541 269.586 273.394 267.219 273.705 264.137L268.29 251.824C266.351 251.457 264.862 250.736 264.343 249.682C263.412 247.799 264.202 244.177 266.794 238.727Z" fill="#84524D"/>
<path d="M268.212 251.988C268.058 251.988 267.92 251.876 267.894 251.719C267.861 251.542 267.979 251.372 268.157 251.342L270.535 250.907C270.712 250.877 270.879 250.995 270.915 251.169C270.945 251.346 270.83 251.516 270.653 251.549L268.271 251.981C268.252 251.984 268.232 251.988 268.212 251.988Z" fill="#363E44"/>
<path d="M272.128 245.297C272.039 245.297 271.95 245.261 271.885 245.188C271.767 245.057 271.777 244.848 271.911 244.73C272.206 244.468 272.469 244.222 272.744 243.97C272.967 243.761 273.204 243.544 273.469 243.305C273.604 243.184 273.807 243.194 273.929 243.328C274.05 243.463 274.04 243.669 273.906 243.787C273.643 244.026 273.413 244.239 273.184 244.452C272.908 244.704 272.643 244.953 272.344 245.215C272.282 245.27 272.206 245.297 272.128 245.297Z" fill="#363E44"/>
<path d="M291.843 241.633C292.653 239.194 291.331 236.561 288.89 235.752L288.88 235.748C289.264 235.339 289.566 234.848 289.756 234.281C290.455 232.179 289.317 229.913 287.217 229.215C286.778 229.071 286.332 229.009 285.895 229.012C286.443 226.978 285.318 224.843 283.291 224.172C282.149 223.789 280.952 223.959 279.987 224.529C279.61 223.039 278.504 221.771 276.94 221.251C274.571 220.465 272.019 221.68 271.12 223.979C271.012 223.93 270.901 223.884 270.786 223.848C268.683 223.15 266.413 224.287 265.718 226.386C265.019 228.485 266.157 230.751 268.257 231.449C268.316 231.468 268.378 231.481 268.437 231.501C267.499 235.3 271.288 237.016 271.504 237.15C270.504 238.706 269.506 240.261 268.509 241.817C269.1 242.21 269.788 242.727 270.379 243.123C271.337 241.46 272.265 240.995 273.318 241.142C274.978 241.375 275.982 243.284 275.628 244.869C275.303 246.313 274.322 247.62 272.731 247.97C274.309 248.52 275.975 249.051 277.734 249.549C278.649 249.807 279.548 250.046 280.43 250.263C281.063 250.089 285.174 248.894 287.24 244.813C289.258 244.895 291.17 243.644 291.843 241.633Z" fill="#363E44"/>
<path d="M253.889 272.187L262.578 301.604L273.387 327.59H329.843C329.974 327.499 330.105 327.4 330.233 327.299V280.898L321.501 265.244L308.625 242.166C308.625 242.166 299.653 247.412 292.371 250.838C285.187 254.217 253.889 272.187 253.889 272.187Z" fill="#EFBC73"/>
<path d="M198.955 301.196C199.24 300.459 199.978 299.942 200.841 299.834C200.762 299.765 199.713 298.825 199.906 297.427C200.051 296.366 200.858 295.475 201.943 295.19C201.451 294.27 201.402 293.235 201.874 292.501C203.288 290.284 210.846 293.369 214.432 294.718C216.013 295.314 229.469 300.593 238.815 304.268L239.779 299.807C249.086 303.027 259.895 305.928 259.895 305.928C257.969 317.285 253.606 322.745 253.606 322.745C249.414 327.588 243.903 327.339 241.138 326.537C234.003 324.464 227.685 322.031 214.137 315.291C208.373 312.422 203.715 309.74 200.53 308.542C199.536 307.893 199.011 306.786 199.198 305.745C199.365 304.805 200.051 304.258 200.251 304.114C199.07 303.518 198.558 302.211 198.955 301.196Z" fill="#84524D"/>
<path d="M244.677 306.806C244.641 306.806 244.602 306.796 244.562 306.783C242.86 306.154 239.11 304.729 235.482 303.351C231.854 301.975 228.105 300.551 226.402 299.919C226.235 299.856 226.149 299.67 226.212 299.503C226.274 299.332 226.458 299.247 226.628 299.309C228.334 299.938 232.084 301.366 235.712 302.741C239.34 304.12 243.089 305.545 244.789 306.173C244.959 306.236 245.045 306.422 244.982 306.593C244.933 306.724 244.808 306.806 244.677 306.806Z" fill="#363E44"/>
<path d="M206.506 295.858C206.476 295.858 206.443 295.854 206.411 295.845C206.237 295.792 206.142 295.612 206.194 295.438L206.683 293.827C206.735 293.654 206.916 293.555 207.09 293.608C207.26 293.664 207.359 293.844 207.306 294.014L206.817 295.628C206.775 295.766 206.644 295.858 206.506 295.858Z" fill="#363E44"/>
<path d="M205.26 299.948C205.23 299.948 205.197 299.944 205.165 299.931C204.991 299.882 204.896 299.699 204.948 299.525L205.437 297.914C205.489 297.744 205.67 297.645 205.844 297.698C206.014 297.75 206.113 297.93 206.06 298.104L205.571 299.715C205.529 299.856 205.397 299.948 205.26 299.948Z" fill="#363E44"/>
<path d="M203.943 304.096C203.913 304.096 203.881 304.093 203.848 304.083C203.677 304.03 203.579 303.847 203.631 303.674L204.12 302.062C204.173 301.892 204.353 301.794 204.527 301.846C204.697 301.899 204.796 302.082 204.743 302.252L204.255 303.863C204.212 304.004 204.084 304.096 203.943 304.096Z" fill="#363E44"/>
<path d="M202.828 307.885C202.798 307.885 202.765 307.879 202.733 307.869C202.562 307.817 202.464 307.636 202.516 307.463L203.005 305.852C203.057 305.678 203.238 305.583 203.412 305.635C203.582 305.688 203.681 305.868 203.628 306.042L203.139 307.653C203.097 307.794 202.969 307.885 202.828 307.885Z" fill="#363E44"/>
<path d="M263.553 310.542L235.594 301.405C235.594 301.405 236.912 280.636 258.819 269.252C272.744 262.015 269.818 302.328 269.818 302.328L263.553 310.542Z" fill="#EFBC73"/>
<path d="M265.924 306.272C265.868 306.272 265.813 306.258 265.763 306.229C265.606 306.141 265.55 305.941 265.642 305.787L269.706 298.654C269.795 298.497 269.995 298.445 270.149 298.533C270.307 298.621 270.363 298.821 270.271 298.978L266.206 306.108C266.147 306.213 266.036 306.272 265.924 306.272Z" fill="#363E44"/>
<path d="M304.586 225.848C304.586 225.848 291.842 215.522 283.188 213.056C265.881 208.125 262.42 201.496 263.975 200.101C265.661 198.585 268.157 201.215 270.03 202.331C269.932 201.968 269.85 200.848 270.66 200.072C271.854 198.922 273.048 199.482 273.179 199.489C273.137 199.371 272.697 198.067 273.376 197.17C274.141 196.162 275.194 195.906 276.125 196.086C276.023 195.788 275.774 194.632 276.45 193.791C277.145 192.923 278.362 192.749 279.415 193.014C284.454 194.272 288.272 194.93 290.953 196.103C296.224 198.411 314.204 206.156 320.781 211.557C325.161 216.102 320.532 224.135 313.6 226.781C309.231 228.448 304.586 225.848 304.586 225.848Z" fill="#84524D"/>
<path d="M279.564 196.791C279.492 196.791 279.42 196.768 279.358 196.719C279.22 196.607 279.197 196.404 279.312 196.26L280.444 194.865C280.558 194.724 280.765 194.705 280.903 194.816C281.044 194.931 281.064 195.134 280.952 195.274L279.817 196.673C279.755 196.751 279.66 196.791 279.564 196.791Z" fill="#363E44"/>
<path d="M276.693 200.353C276.617 200.353 276.542 200.33 276.483 200.275C276.345 200.157 276.332 199.95 276.447 199.816L277.775 198.274C277.893 198.136 278.097 198.123 278.235 198.238C278.372 198.355 278.389 198.562 278.271 198.699L276.942 200.242C276.876 200.317 276.785 200.353 276.693 200.353Z" fill="#363E44"/>
<path d="M273.787 203.687C273.715 203.687 273.642 203.664 273.583 203.615C273.442 203.5 273.419 203.297 273.534 203.157C273.744 202.895 273.938 202.662 274.128 202.43C274.321 202.194 274.512 201.961 274.725 201.696C274.84 201.558 275.043 201.536 275.184 201.647C275.322 201.762 275.345 201.965 275.233 202.109C275.02 202.371 274.823 202.606 274.633 202.842C274.443 203.071 274.249 203.307 274.039 203.566C273.977 203.645 273.882 203.687 273.787 203.687Z" fill="#363E44"/>
<path d="M271.707 206.714C271.644 206.714 271.576 206.694 271.52 206.655C271.372 206.553 271.336 206.35 271.441 206.203L272.465 204.742C272.566 204.595 272.77 204.559 272.917 204.664C273.065 204.765 273.101 204.968 272.999 205.116L271.972 206.576C271.91 206.668 271.808 206.714 271.707 206.714Z" fill="#363E44"/>
<path d="M302.936 221.564V246.191L325.685 257.712C326.115 243.099 325.951 226.961 322.352 214.5L302.936 221.564Z" fill="#84524D"/>
<path d="M325.181 272.226C327.713 263.377 327.713 246.191 327.713 246.191L301.756 236.988L299.082 247.461L325.181 272.226Z" fill="#EFBC73"/>
<path d="M325.177 272.553C325.079 272.553 324.98 272.507 324.915 272.422L316.891 261.586C316.786 261.441 316.815 261.238 316.96 261.13C317.104 261.022 317.307 261.055 317.416 261.199L325.44 272.032C325.548 272.176 325.515 272.379 325.371 272.488C325.315 272.533 325.246 272.553 325.177 272.553Z" fill="#363E44"/>
<path d="M171.999 167.235C177.904 161.333 187.476 161.333 193.377 167.235L193.495 167.352L193.587 167.261C199.505 161.346 209.103 161.346 215.021 167.261C220.942 173.178 220.942 182.767 215.021 188.685L193.548 210.142L171.999 188.6C166.094 182.698 166.094 173.133 171.999 167.235Z" fill="white"/>
<path d="M182.69 163.134C178.741 163.134 175.024 164.673 172.229 167.463C169.434 170.257 167.899 173.967 167.899 177.917C167.899 181.863 169.434 185.577 172.229 188.37L193.548 209.683L214.792 188.452C217.594 185.655 219.135 181.932 219.135 177.972C219.135 174.013 217.594 170.293 214.792 167.493C209.009 161.713 199.601 161.713 193.817 167.493L193.729 167.581C193.601 167.709 193.394 167.709 193.266 167.581L193.148 167.463C190.356 164.673 186.64 163.134 182.69 163.134ZM193.548 210.469C193.463 210.469 193.378 210.436 193.319 210.374L171.77 188.829C168.853 185.914 167.246 182.037 167.246 177.917C167.246 173.794 168.853 169.92 171.77 167.005C174.686 164.09 178.563 162.482 182.69 162.482C186.761 162.482 190.593 164.048 193.496 166.894C199.545 160.999 209.265 161.045 215.251 167.031C218.178 169.952 219.788 173.84 219.788 177.972C219.788 182.105 218.178 185.989 215.251 188.914L193.778 210.374C193.716 210.436 193.634 210.469 193.548 210.469Z" fill="#363E44"/>
<path d="M186.364 183.563C188.588 181.09 198.055 167.188 200.666 169.648C201.896 170.804 195.208 179.459 194.299 180.923C195.788 179.584 203.199 170.519 204.675 172.133C206.2 173.794 197.494 183.307 197.468 183.392C198.268 182.692 205.275 174.937 207.02 176.581C208.697 178.166 201.345 184.227 200.745 185.203C201.88 184.444 206.525 179.898 207.621 180.93C209.084 182.318 203.996 186.808 203.56 187.741C201.746 190.07 201.539 190.279 198.859 195.172C194.063 203.926 177.608 193.309 186.364 183.563Z" fill="#6982B5"/>
<path d="M189.918 179.59C189.603 174.331 189.016 172.058 188.448 171.957C186.581 171.623 184.371 182.41 185.292 185.407C185.712 186.779 186.408 186.746 186.408 186.746C186.942 187.394 187.3 187.827 187.628 187.83C188.3 187.837 189.016 187.234 189.918 179.59Z" fill="#6982B5"/>
<path d="M188.251 190.814C189.054 189.619 192.266 183.082 193.536 183.976C194.133 184.399 191.794 188.515 191.492 189.2C192.046 188.535 194.674 184.196 195.405 184.798C196.16 185.42 193.007 190.028 193.001 190.067C193.299 189.717 195.835 185.964 196.681 186.567C197.498 187.143 194.713 190.189 194.516 190.641C194.956 190.248 196.672 188.017 197.203 188.394C197.918 188.898 196.006 191.135 195.878 191.561C195.241 192.671 195.166 192.773 194.313 195.035C192.791 199.077 185.088 195.527 188.251 190.814Z" fill="#EBEBEB"/>
<path d="M189.53 188.894C189.077 186.658 188.686 185.718 188.434 185.711C187.614 185.678 187.322 190.44 187.899 191.668C188.165 192.231 188.46 192.176 188.46 192.176C188.729 192.421 188.91 192.585 189.047 192.565C189.336 192.529 189.608 192.228 189.53 188.894Z" fill="#EBEBEB"/>
</g>
<defs>
<clipPath id="clip0_4660_2282">
<rect width="423.738" height="392.012" fill="white"/>
</clipPath>
</defs>
</svg>
