<svg width="16" height="16" viewBox="0 0 16 16" fill="none" xmlns="http://www.w3.org/2000/svg">
<g clip-path="url(#clip0_4800_11225)">
<path d="M7.33594 1.33398C10.6479 1.33398 13.3359 4.02198 13.3359 7.33398C13.3359 10.646 10.6479 13.334 7.33594 13.334C4.02394 13.334 1.33594 10.646 1.33594 7.33398C1.33594 4.02198 4.02394 1.33398 7.33594 1.33398ZM7.33594 12.0007C9.91394 12.0007 12.0026 9.91198 12.0026 7.33398C12.0026 4.75532 9.91394 2.66732 7.33594 2.66732C4.75727 2.66732 2.66927 4.75532 2.66927 7.33398C2.66927 9.91198 4.75727 12.0007 7.33594 12.0007ZM12.9926 12.048L14.8786 13.9333L13.9353 14.8767L12.0499 12.9907L12.9926 12.048Z" fill="#A6A6A6"/>
<path d="M7.33594 1.33398C10.6479 1.33398 13.3359 4.02198 13.3359 7.33398C13.3359 10.646 10.6479 13.334 7.33594 13.334C4.02394 13.334 1.33594 10.646 1.33594 7.33398C1.33594 4.02198 4.02394 1.33398 7.33594 1.33398ZM7.33594 12.0007C9.91394 12.0007 12.0026 9.91198 12.0026 7.33398C12.0026 4.75532 9.91394 2.66732 7.33594 2.66732C4.75727 2.66732 2.66927 4.75532 2.66927 7.33398C2.66927 9.91198 4.75727 12.0007 7.33594 12.0007ZM12.9926 12.048L14.8786 13.9333L13.9353 14.8767L12.0499 12.9907L12.9926 12.048Z" fill="black" fill-opacity="0.2"/>
<path d="M7.33594 1.33398C10.6479 1.33398 13.3359 4.02198 13.3359 7.33398C13.3359 10.646 10.6479 13.334 7.33594 13.334C4.02394 13.334 1.33594 10.646 1.33594 7.33398C1.33594 4.02198 4.02394 1.33398 7.33594 1.33398ZM7.33594 12.0007C9.91394 12.0007 12.0026 9.91198 12.0026 7.33398C12.0026 4.75532 9.91394 2.66732 7.33594 2.66732C4.75727 2.66732 2.66927 4.75532 2.66927 7.33398C2.66927 9.91198 4.75727 12.0007 7.33594 12.0007ZM12.9926 12.048L14.8786 13.9333L13.9353 14.8767L12.0499 12.9907L12.9926 12.048Z" fill="black" fill-opacity="0.2"/>
</g>
<defs>
<clipPath id="clip0_4800_11225">
<rect width="16" height="16" fill="white"/>
</clipPath>
</defs>
</svg>
