<svg width="18" height="18" viewBox="0 0 18 18" fill="none" xmlns="http://www.w3.org/2000/svg">
<g clip-path="url(#clip0_6100_7709)">
<path d="M1.20158 13.5C1.82194 14.5767 3.19771 14.9466 4.27441 14.3262C4.27515 14.3258 4.27585 14.3254 4.27659 14.325L4.61033 14.1322C5.24032 14.6712 5.96447 15.0892 6.74631 15.3652V15.75C6.74631 16.9926 7.75368 18 8.99631 18C10.2389 18 11.2463 16.9926 11.2463 15.75V15.3652C12.0283 15.0888 12.7524 14.6703 13.3823 14.1307L13.7176 14.3242C14.7945 14.9456 16.1712 14.5762 16.7926 13.4992C17.4139 12.4223 17.0445 11.0455 15.9676 10.4242L15.6346 10.2322C15.7845 9.41657 15.7845 8.58041 15.6346 7.76472L15.9676 7.57273C17.0445 6.95141 17.4139 5.57469 16.7926 4.49771C16.1712 3.42077 14.7945 3.05139 13.7176 3.6727L13.3838 3.86546C12.7532 3.32712 12.0285 2.90988 11.2463 2.63475V2.25C11.2463 1.00737 10.2389 0 8.99631 0C7.75368 0 6.74631 1.00737 6.74631 2.25V2.63475C5.96437 2.91118 5.24018 3.32968 4.61033 3.86926L4.27508 3.67502C3.1981 3.05367 1.82138 3.42306 1.20006 4.5C0.578747 5.57694 0.948099 6.9537 2.02508 7.57501L2.35808 7.767C2.20817 8.58266 2.20817 9.41882 2.35808 10.2345L2.02508 10.4265C0.951087 11.0495 0.582931 12.4235 1.20158 13.5ZM8.99631 6.00001C10.6532 6.00001 11.9963 7.34316 11.9963 9C11.9963 10.6568 10.6532 12 8.99631 12C7.33947 12 5.99633 10.6568 5.99633 9C5.99633 7.34316 7.33947 6.00001 8.99631 6.00001Z" fill="#A6A6A6"/>
<path d="M1.20158 13.5C1.82194 14.5767 3.19771 14.9466 4.27441 14.3262C4.27515 14.3258 4.27585 14.3254 4.27659 14.325L4.61033 14.1322C5.24032 14.6712 5.96447 15.0892 6.74631 15.3652V15.75C6.74631 16.9926 7.75368 18 8.99631 18C10.2389 18 11.2463 16.9926 11.2463 15.75V15.3652C12.0283 15.0888 12.7524 14.6703 13.3823 14.1307L13.7176 14.3242C14.7945 14.9456 16.1712 14.5762 16.7926 13.4992C17.4139 12.4223 17.0445 11.0455 15.9676 10.4242L15.6346 10.2322C15.7845 9.41657 15.7845 8.58041 15.6346 7.76472L15.9676 7.57273C17.0445 6.95141 17.4139 5.57469 16.7926 4.49771C16.1712 3.42077 14.7945 3.05139 13.7176 3.6727L13.3838 3.86546C12.7532 3.32712 12.0285 2.90988 11.2463 2.63475V2.25C11.2463 1.00737 10.2389 0 8.99631 0C7.75368 0 6.74631 1.00737 6.74631 2.25V2.63475C5.96437 2.91118 5.24018 3.32968 4.61033 3.86926L4.27508 3.67502C3.1981 3.05367 1.82138 3.42306 1.20006 4.5C0.578747 5.57694 0.948099 6.9537 2.02508 7.57501L2.35808 7.767C2.20817 8.58266 2.20817 9.41882 2.35808 10.2345L2.02508 10.4265C0.951087 11.0495 0.582931 12.4235 1.20158 13.5ZM8.99631 6.00001C10.6532 6.00001 11.9963 7.34316 11.9963 9C11.9963 10.6568 10.6532 12 8.99631 12C7.33947 12 5.99633 10.6568 5.99633 9C5.99633 7.34316 7.33947 6.00001 8.99631 6.00001Z" fill="black" fill-opacity="0.2"/>
<path d="M1.20158 13.5C1.82194 14.5767 3.19771 14.9466 4.27441 14.3262C4.27515 14.3258 4.27585 14.3254 4.27659 14.325L4.61033 14.1322C5.24032 14.6712 5.96447 15.0892 6.74631 15.3652V15.75C6.74631 16.9926 7.75368 18 8.99631 18C10.2389 18 11.2463 16.9926 11.2463 15.75V15.3652C12.0283 15.0888 12.7524 14.6703 13.3823 14.1307L13.7176 14.3242C14.7945 14.9456 16.1712 14.5762 16.7926 13.4992C17.4139 12.4223 17.0445 11.0455 15.9676 10.4242L15.6346 10.2322C15.7845 9.41657 15.7845 8.58041 15.6346 7.76472L15.9676 7.57273C17.0445 6.95141 17.4139 5.57469 16.7926 4.49771C16.1712 3.42077 14.7945 3.05139 13.7176 3.6727L13.3838 3.86546C12.7532 3.32712 12.0285 2.90988 11.2463 2.63475V2.25C11.2463 1.00737 10.2389 0 8.99631 0C7.75368 0 6.74631 1.00737 6.74631 2.25V2.63475C5.96437 2.91118 5.24018 3.32968 4.61033 3.86926L4.27508 3.67502C3.1981 3.05367 1.82138 3.42306 1.20006 4.5C0.578747 5.57694 0.948099 6.9537 2.02508 7.57501L2.35808 7.767C2.20817 8.58266 2.20817 9.41882 2.35808 10.2345L2.02508 10.4265C0.951087 11.0495 0.582931 12.4235 1.20158 13.5ZM8.99631 6.00001C10.6532 6.00001 11.9963 7.34316 11.9963 9C11.9963 10.6568 10.6532 12 8.99631 12C7.33947 12 5.99633 10.6568 5.99633 9C5.99633 7.34316 7.33947 6.00001 8.99631 6.00001Z" fill="black" fill-opacity="0.2"/>
</g>
<defs>
<clipPath id="clip0_6100_7709">
<rect width="18" height="18" fill="white"/>
</clipPath>
</defs>
</svg>
