<svg width="20" height="20" viewBox="0 0 20 20" fill="none" xmlns="http://www.w3.org/2000/svg">
<g clip-path="url(#clip0_2380_14109)">
<path d="M14.1641 4.99935H18.3307V6.66602H16.6641V17.4993C16.6641 17.7204 16.5763 17.9323 16.42 18.0886C16.2637 18.2449 16.0517 18.3327 15.8307 18.3327H4.16406C3.94305 18.3327 3.73109 18.2449 3.57481 18.0886C3.41853 17.9323 3.33073 17.7204 3.33073 17.4993V6.66602H1.66406V4.99935H5.83073V2.49935C5.83073 2.27834 5.91853 2.06637 6.07481 1.91009C6.23109 1.75381 6.44305 1.66602 6.66406 1.66602H13.3307C13.5517 1.66602 13.7637 1.75381 13.92 1.91009C14.0763 2.06637 14.1641 2.27834 14.1641 2.49935V4.99935ZM14.9974 6.66602H4.9974V16.666H14.9974V6.66602ZM7.4974 9.16602H9.16406V14.166H7.4974V9.16602ZM10.8307 9.16602H12.4974V14.166H10.8307V9.16602ZM7.4974 3.33268V4.99935H12.4974V3.33268H7.4974Z" fill="#444444"/>
</g>
<defs>
<clipPath id="clip0_2380_14109">
<rect width="20" height="20" fill="white"/>
</clipPath>
</defs>
</svg>
