<svg width="14" height="18" viewBox="0 0 14 18" fill="none" xmlns="http://www.w3.org/2000/svg">
<g clip-path="url(#clip0_4898_11039)">
<path d="M14 2.4375V3.3125C14 3.55404 13.804 3.75 13.5625 3.75H0.4375C0.195964 3.75 0 3.55404 0 3.3125V2.4375C0 2.19596 0.195964 2 0.4375 2H4.375V1.125C4.375 0.641927 4.76693 0.25 5.25 0.25H8.75C9.23307 0.25 9.625 0.641927 9.625 1.125V2H13.5625C13.804 2 14 2.19596 14 2.4375ZM1.63607 16.1226C1.70078 17.0409 2.46549 17.7523 3.38607 17.75H10.6313C11.5518 17.7523 12.317 17.0409 12.3813 16.1226L13.125 5.5H0.875L1.63607 16.1226Z" fill="#444444"/>
</g>
<defs>
<clipPath id="clip0_4898_11039">
<rect width="14" height="17.5" fill="white" transform="translate(0 0.25)"/>
</clipPath>
</defs>
</svg>
