<svg width="424" height="393" viewBox="0 0 424 393" fill="none" xmlns="http://www.w3.org/2000/svg">
<g clip-path="url(#clip0_5157_8729)">
<path d="M53.5991 139.158C55.9447 119.44 62.1803 100.258 73.7618 84.4719C87.5166 65.7347 107.035 50.9316 129.865 44.0135C152.695 37.0955 178.832 38.3788 201.29 49.0483C223.749 59.7178 242.026 80.0119 248.32 103.339C254.352 125.681 268.651 147.216 289.486 158.803C305.106 167.486 322.979 171.126 340.509 170.697C361.751 170.195 382.057 183.117 389.476 203.022C391.606 208.786 392.789 214.734 392.98 220.639C393.692 242.285 383.483 262.655 368.509 277.672C353.536 292.69 334.117 302.883 314.047 310.813C224.571 349.315 37.5811 273.146 53.5991 139.158Z" fill="#6982B5" fill-opacity="0.26"/>
<path opacity="0.9" d="M53.5991 139.158C55.9447 119.44 62.1803 100.258 73.7618 84.4719C87.5166 65.7347 107.035 50.9316 129.865 44.0135C152.695 37.0955 178.832 38.3788 201.29 49.0483C223.749 59.7178 242.026 80.0119 248.32 103.339C254.352 125.681 268.651 147.216 289.486 158.803C305.106 167.486 322.979 171.126 340.509 170.697C361.751 170.195 382.057 183.117 389.476 203.022C391.606 208.786 392.789 214.734 392.98 220.639C393.692 242.285 383.483 262.655 368.509 277.672C353.536 292.69 334.117 302.883 314.047 310.813C224.571 349.315 37.5811 273.146 53.5991 139.158Z" fill="#6982B5" fill-opacity="0.26"/>
<mask id="mask0_5157_8729" style="mask-type:luminance" maskUnits="userSpaceOnUse" x="13" y="235" width="406" height="146">
<path d="M13 235.189H419V381.001H13V235.189Z" fill="white"/>
</mask>
<g mask="url(#mask0_5157_8729)">
<path d="M418.607 301.641C418.79 307.126 417.676 312.757 415.174 318.297C410.113 329.543 400.992 338.595 390.412 345.854C380.069 352.95 368.28 358.361 357.48 362.456C341.344 368.562 324.606 372.841 307.61 375.641C243.303 386.209 177.754 378.51 114.051 369.003C83.9898 364.524 45.7966 357.245 24.3589 332.927C11.4935 318.335 9.68558 296.592 21.1798 280.631C30.6629 267.466 44.7369 262.364 59.2815 257.115C76.8258 250.789 95.2808 247.039 113.448 242.818C134.957 237.824 156.3 237.129 178.303 236.489C215.034 235.431 251.818 234.478 288.569 235.977C312.069 236.929 335.572 241.92 357.754 249.599C375.207 255.634 394.854 263.35 407.807 277.027C414.589 284.197 418.316 292.717 418.607 301.641Z" fill="#3D7064"/>
</g>
<path d="M415.173 318.315C410.112 329.558 400.991 338.61 390.411 345.869L127.314 299.828L220.971 282.859L415.173 318.315Z" fill="#DBD0C5"/>
<path d="M343.483 312.41C343.462 312.39 343.462 312.41 343.483 312.41C341.746 311.02 339.169 311 337.067 310.746C334.419 310.397 331.769 310.051 329.118 309.702C328.295 309.593 327.455 309.485 326.633 309.373C305.307 306.593 283.964 303.833 262.638 301.053C258.416 300.504 254.194 299.958 249.972 299.408C243.228 298.53 236.467 297.652 229.706 296.774C224.17 296.062 218.614 295.33 213.076 294.618C210.628 294.306 208.105 294.031 205.766 295.038C203.721 295.916 202.038 297.452 200.031 298.422C197.745 299.537 195.24 300.12 192.684 300.175C192.298 300.195 192.19 300.595 192.335 300.836C186.817 301.968 181.406 303.596 176.182 305.681C175.834 305.809 175.725 306.413 176.182 306.501C198.202 310.271 220.223 314.055 242.226 317.821C253.226 319.703 264.246 321.588 275.246 323.49C276.8 323.765 278.371 324.019 279.925 324.293C280.382 324.368 280.839 324.46 281.313 324.531C284.766 325.134 288.24 325.738 291.71 326.287C292.059 326.341 292.387 326.396 292.736 326.453C297.669 327.219 302.659 327.786 307.663 327.511C312.873 327.219 318.009 326.141 323.051 324.805C328.224 323.436 333.323 321.771 338.31 319.815C339.461 319.357 340.612 318.899 341.746 318.425C342.677 318.021 343.683 317.621 344.322 316.797C345.419 315.39 344.763 313.451 343.483 312.41Z" fill="#BDB0A4"/>
<path d="M124.922 152.705L221.246 153.4V214.107L124.922 195.749V152.705Z" fill="#D18640"/>
<path d="M304.813 159.765V268.91L270.513 274.778L220.66 283.319L221.246 153.967L221.358 153.842L266.694 105.275L304.813 159.765Z" fill="#F0AD4A"/>
<path d="M276.671 112.478C277.112 111.966 276.983 111.217 276.38 110.888C275.483 110.393 274.004 111.126 273.144 111.4C270.696 112.166 268.302 113.099 265.946 114.123C261.067 116.282 256.368 118.859 251.784 121.548C243.232 126.558 234.568 132.41 228.609 140.472C227.204 142.374 225.962 144.405 224.993 146.561C224.133 148.463 223.036 150.769 223.585 152.888C224.756 157.478 230.566 157.953 234.385 157.187C239.118 156.254 243.232 153.383 246.922 150.42C251.015 147.128 254.942 143.598 258.707 139.923C262.509 136.231 266.129 132.352 269.582 128.332C272.778 124.602 276.123 120.561 276.709 115.496C276.817 114.489 276.8 113.485 276.671 112.478C276.654 112.495 276.654 112.495 276.671 112.478Z" fill="#D18640"/>
<path d="M283.782 223.414C283.068 222.59 282.394 221.715 281.517 221.054C280.146 220.014 278.484 219.519 276.784 219.373C274.644 219.173 272.471 219.485 270.368 219.905C269.508 220.088 268.577 220.197 267.883 220.763C264.284 220.671 260.682 220.563 257.083 220.471C253.007 220.363 248.494 220.709 244.692 218.99C244.401 218.861 244.072 219.007 244.052 219.356C243.778 229.191 244.363 239.047 245.789 248.777C245.863 249.306 246.686 249.086 246.612 248.557C246.537 248.028 246.466 247.496 246.391 246.967C253.555 254.48 260.445 262.271 266.986 270.333C268.175 271.814 269.363 273.279 270.534 274.778L304.851 268.889V250.421C296.079 239.525 284.331 224.055 283.782 223.414Z" fill="#D18640"/>
<path d="M220.863 219.52V283.319L221.632 283.173V219.52H220.863Z" fill="#212332"/>
<path d="M119.549 153.055C120.226 154.262 120.592 154.736 121.543 156.455L231.863 157.496L234.552 154.15L228.721 154.058L119.549 153.055Z" fill="#212332"/>
<path d="M278.392 105L228.721 154.078L214.868 153.95H214.759L213.882 153.933H213.774L199.774 153.804H198.789L198.661 153.783L185.629 153.675H185.501L184.698 153.658H184.57L170.462 153.529H169.348L156.865 153.4H155.751L141.664 153.272L140.567 153.255L128.67 153.146H127.573L119.549 153.071L167.723 107.634L173.861 107.485L175.012 107.468L187.312 107.177L188.443 107.139L203.008 106.793L204.159 106.773L217.082 106.461H217.207L218.104 106.444L218.233 106.427L232.777 106.098L232.906 106.078L233.8 106.061H233.929L247.359 105.749L247.471 105.732L248.365 105.712H248.493L263.058 105.366H263.187L264.081 105.346L264.193 105.329L278.392 105Z" fill="#993C2C"/>
<path d="M264.192 105.328L214.867 153.949H214.759L213.882 153.932H213.773L263.058 105.365H263.187L264.08 105.345L264.192 105.328Z" fill="#6E3420"/>
<path d="M248.493 105.713L199.774 153.805H198.789L198.66 153.784L247.359 105.75L247.471 105.733L248.364 105.713H248.493Z" fill="#6E3420"/>
<path d="M233.929 106.061L185.63 153.674H185.501L184.699 153.657H184.57L232.778 106.098L232.907 106.077L233.801 106.061H233.929Z" fill="#6E3420"/>
<path d="M218.233 106.428L218.158 106.499L170.462 153.53H169.348L169.422 153.455L217.081 106.462H217.207L218.104 106.445L218.233 106.428Z" fill="#6E3420"/>
<path d="M204.16 106.773L204.088 106.828L156.866 153.401H155.752L155.806 153.329L203.008 106.794L204.16 106.773Z" fill="#6E3420"/>
<path d="M188.442 107.139L188.388 107.213L141.663 153.271L140.566 153.254L140.621 153.2L187.312 107.176L188.442 107.139Z" fill="#6E3420"/>
<path d="M175.012 107.469L174.94 107.523L128.669 153.147H127.572L127.626 153.072L173.86 107.486L175.012 107.469Z" fill="#6E3420"/>
<path d="M220.955 216.209L220.66 283.317L188.388 288.857L139.927 297.157L139.615 297.231V219.135L220.955 216.209Z" fill="#F0AD4A"/>
<path d="M139.616 219.301V297.231L139.325 297.214L72.293 287.084V219.301L105.773 166.219L106.156 166.256L107.382 168.192L139.616 219.301Z" fill="#D18640"/>
<path d="M212.349 230.252V284.779L209.806 285.219L209.041 285.345L155.735 294.489L154.949 294.617L152.738 295V233.29L152.975 233.269L212.108 230.272L212.349 230.252Z" fill="#F5E7E1"/>
<path d="M155.332 246.509H155.24V247.295L209.407 242.779H209.478V242.047L155.332 246.509Z" fill="#7D746D"/>
<path d="M209.606 250.076V250.622L200.963 251.52L200.36 251.592L192.153 252.432L191.551 252.49L183.51 253.331L182.907 253.385L175.066 254.209L174.464 254.263L155.314 256.236V255.616L174.464 253.66L175.066 253.606L182.907 252.799L183.51 252.744L191.551 251.921L192.153 251.849L200.36 251.025L200.963 250.954L209.606 250.076Z" fill="#3D4156"/>
<path d="M155.24 256.327V255.54L209.698 249.963V250.695H209.623L155.24 256.327ZM155.406 255.706V256.143L209.532 250.549V250.166L155.406 255.706Z" fill="#7D746D"/>
<path d="M209.477 255.396V254.684H209.349L155.257 260.315H155.186V261.101L209.369 255.416L209.477 255.396Z" fill="#7D746D"/>
<path d="M209.497 260.132V259.42L155.385 265.892V266.679L209.385 260.149L209.497 260.132Z" fill="#7D746D"/>
<path d="M155.277 271.523V272.31L209.295 264.906L209.369 264.885V264.156L209.241 264.173L155.348 271.523H155.277Z" fill="#7D746D"/>
<path d="M155.406 276.992V277.779L209.698 269.933L209.806 269.913V269.201L155.406 276.992Z" fill="#7D746D"/>
<path d="M209.607 275.235V274.523L209.478 274.54L155.315 283.098L155.24 283.115V283.901L209.498 275.273L209.607 275.235Z" fill="#7D746D"/>
<path d="M155.332 288.986L155.258 289.003V289.79L209.533 280.392L209.644 280.371V279.643L209.499 279.66L155.332 288.986Z" fill="#7D746D"/>
<path d="M209.806 233.107V285.22L209.041 285.345V233.765L155.714 236.636V237.02L155.735 294.489V294.543L154.949 294.709V235.884L155.66 235.813H155.714V235.85L209.552 233.033L209.806 233.016V233.107Z" fill="#7D746D"/>
<path d="M182.816 253.476L183.602 253.402V234.826L182.816 234.86V253.476Z" fill="#7D746D"/>
<path d="M191.459 252.598L192.244 252.506V234.514L191.459 234.551V252.598Z" fill="#7D746D"/>
<path d="M200.27 233.635V251.682L201.035 251.59V233.598L200.27 233.635Z" fill="#7D746D"/>
<path d="M165.566 255.266L166.352 255.14V235.463L165.566 235.5V255.266Z" fill="#7D746D"/>
<path d="M174.373 254.355L175.142 254.28V235.135L174.373 235.172V254.355Z" fill="#7D746D"/>
<path d="M212.349 230.252V231.167L209.532 234.185L209.478 234.093C209.386 233.964 209.241 233.91 209.149 233.873L209.095 233.856V233.802C209.095 233.781 209.095 233.764 209.095 233.727C209.095 233.69 209.075 233.673 209.075 233.652L209.058 233.636L209.041 233.581L209.075 233.544L209.204 233.398L212.129 230.252H212.349Z" fill="#7D746D"/>
<path d="M156.408 236.524L155.714 236.599V237.019L152.738 234.202V233.29L152.975 233.27L156.408 236.524Z" fill="#7D746D"/>
<path d="M139.928 185.106V297.156L139.616 297.231H139.305V185.106C139.305 184.906 139.45 184.814 139.616 184.814C139.653 184.814 139.691 184.814 139.725 184.831C139.836 184.869 139.928 184.96 139.928 185.106Z" fill="#3D4156"/>
<path d="M139.632 297.305H139.232V185.106C139.232 184.777 139.561 184.668 139.761 184.74C139.906 184.794 139.998 184.923 139.998 185.106V297.214L139.632 297.305ZM139.395 297.139H139.598L139.815 297.085V185.106C139.815 184.977 139.723 184.923 139.689 184.906C139.578 184.851 139.378 184.906 139.378 185.106V297.139H139.395Z" fill="#3D4156"/>
<path d="M316.253 160.476L311.503 160.184L311.395 160.167L310.589 160.13L310.481 160.11L304.813 159.764L300.629 153.783L300.575 153.692L300.138 153.055L300.063 152.98L295.259 146.087L295.202 145.996L294.744 145.372L294.69 145.284L289.774 138.259L289.72 138.188L289.28 137.547L289.226 137.456L285.079 131.55L285.024 131.458L284.584 130.838L284.513 130.746L280.237 124.62L280.18 124.528L279.726 123.888L279.668 123.816L275.43 117.765L275.375 117.673L274.935 117.032L274.881 116.958L274.113 115.863L274.041 115.751L273.676 115.239L273.73 115.113L278.392 105L316.253 160.476Z" fill="#212332"/>
<path d="M308.287 153.601C308.287 153.805 308.158 153.988 307.904 153.988H307.738L300.629 153.767L300.574 153.676L300.138 153.035L300.08 152.943L305.71 153.072L307.921 153.181C308.03 153.181 308.141 153.238 308.195 153.31C308.25 153.421 308.287 153.513 308.287 153.601Z" fill="#7D746D"/>
<path d="M302.968 146.141C302.897 146.249 302.786 146.324 302.66 146.324H302.511L295.259 146.104L295.202 146.012L294.765 145.371L294.711 145.283L300.466 145.409L302.677 145.521C302.806 145.521 302.935 145.592 302.989 145.704C303.043 145.829 303.043 146.012 302.968 146.141Z" fill="#7D746D"/>
<path d="M297.653 138.316C297.578 138.425 297.47 138.499 297.341 138.499H297.175L289.795 138.279L289.737 138.187L289.3 137.547L289.246 137.455L296.647 137.675L297.378 137.692C297.524 137.692 297.632 137.767 297.686 137.875C297.724 138.021 297.724 138.187 297.653 138.316Z" fill="#7D746D"/>
<path d="M293.028 131.604C292.954 131.716 292.846 131.787 292.717 131.787H292.609L285.096 131.57L285.042 131.478L284.605 130.838L284.551 130.746L292.06 130.966L292.737 130.983C292.883 130.983 292.991 131.055 293.045 131.166C293.103 131.295 293.103 131.478 293.028 131.604Z" fill="#7D746D"/>
<path d="M288.386 124.458C288.386 124.658 288.257 124.841 288.003 124.841H287.837L280.216 124.621L280.162 124.529L279.726 123.888L279.668 123.797L287.309 124.034L288.02 124.055C288.278 124.055 288.386 124.275 288.386 124.458Z" fill="#7D746D"/>
<path d="M283.599 117.598C283.599 117.798 283.47 117.981 283.213 117.981H283.179L275.429 117.744L275.375 117.652L274.935 117.011L274.881 116.92L282.647 117.161L283.233 117.178C283.47 117.195 283.599 117.398 283.599 117.598Z" fill="#7D746D"/>
<path d="M316.254 160.476L311.375 160.167L275.596 107.889L278.392 105L316.254 160.476Z" fill="#F5E7E1"/>
<path d="M280.619 108.401L234.551 154.15L228.721 154.078L278.391 105L280.619 108.401Z" fill="#F5E7E1"/>
<path d="M265.194 199.956C265.16 199.077 265.377 197.613 264.811 196.847C264.209 196.023 262.858 196.352 261.998 196.389C260.481 196.46 258.964 196.535 257.465 196.609C251.58 196.881 245.696 197.155 239.812 197.43C239.758 197.43 239.704 197.45 239.666 197.467C239.484 197.064 238.769 197.284 238.881 197.779C239.172 199.132 239.484 200.484 239.812 201.82C239.958 202.441 240.123 203.061 240.286 203.685C240.377 203.993 240.435 204.38 240.743 204.58C241.075 204.8 241.586 204.746 241.969 204.78C242.683 204.817 243.394 204.855 244.125 204.872C245.496 204.909 246.885 204.909 248.256 204.892C253.828 204.855 259.401 204.763 264.957 204.688C265.177 204.688 265.397 204.505 265.377 204.268C265.323 202.844 265.268 201.4 265.194 199.956Z" fill="#212332"/>
<path d="M289.081 173.057V173.769L288.387 173.678L273.273 171.467V170.752H273.294L289.081 173.057Z" fill="#3D4156"/>
<path d="M289.081 165.396V166.111L288.387 165.999L273.273 163.789V163.094H273.294L289.081 165.396Z" fill="#3D4156"/>
<path d="M289.081 188.912V189.623L273.273 188.233V187.521L289.081 188.912Z" fill="#3D4156"/>
<path d="M289.081 180.721V181.416L288.387 181.341L273.273 179.493V178.781L289.081 180.721Z" fill="#3D4156"/>
<path d="M291.494 162.635V163.567L288.988 166.073C288.917 166.144 288.843 166.181 288.751 166.181C288.734 166.181 288.714 166.181 288.697 166.181C288.568 166.164 288.46 166.052 288.423 165.907C288.386 165.778 288.402 165.632 288.494 165.524L291.402 162.598L291.494 162.635Z" fill="#3D4156"/>
<path d="M291.494 162.69V198.384L242.592 197.305V155.469L291.402 162.673L291.494 162.69Z" fill="#F5E7E1"/>
<path d="M289.081 165.45V196.279L288.312 196.262V165.342L289.081 165.45Z" fill="#7D746D"/>
<path d="M257.815 160.972V195.221L257.029 195.201V160.863L257.815 160.972Z" fill="#7D746D"/>
<path d="M273.384 163.184V195.748L272.615 195.731V163.072L273.384 163.184Z" fill="#7D746D"/>
<path d="M289.08 165.449V166.164L288.386 166.052L242.592 159.289V158.594H242.609L289.08 165.449Z" fill="#7D746D"/>
<path d="M288.971 179.751V180.446L288.277 180.391L242.592 175.747V175.031L288.971 179.751Z" fill="#7D746D"/>
<path d="M289.08 195.567V196.279L288.311 196.262L273.384 195.75L272.615 195.733L257.814 195.221L257.028 195.2L242.592 194.689V193.977L257.028 194.489L257.814 194.505L272.615 195.017L273.384 195.055L288.311 195.55L289.08 195.567Z" fill="#7D746D"/>
<path d="M291.494 162.69V163.622L288.988 166.127C288.917 166.199 288.843 166.236 288.751 166.236C288.734 166.236 288.714 166.236 288.697 166.236C288.568 166.219 288.46 166.11 288.423 165.961C288.386 165.836 288.402 165.687 288.494 165.578L291.402 162.652L291.494 162.69Z" fill="#7D746D"/>
<path d="M293.484 200.889C291.967 199.17 290.451 197.451 288.934 195.732C288.551 195.312 287.982 195.841 288.348 196.261C289.865 197.98 291.382 199.699 292.898 201.418C293.284 201.838 293.85 201.309 293.484 200.889Z" fill="#7D746D"/>
<path d="M300.924 192.258C299.918 191.854 298.875 191.983 297.89 192.312C298.493 191.671 299.058 190.976 299.553 190.247C300.301 189.186 301.069 187.942 301.052 186.589C301.032 184.321 298.73 183.189 296.776 182.968C295.75 182.839 294.728 182.877 293.722 183.023C290.469 183.501 287.435 185.274 284.896 187.43C285.025 187.21 285.133 186.993 285.245 186.772C285.773 185.748 286.359 184.558 286.487 183.389C286.687 181.524 285.187 180.026 283.434 179.659C281.114 179.185 278.738 180.446 276.784 181.578C274.844 182.714 273.036 184.084 271.428 185.64C269.691 187.338 268.195 189.257 266.952 191.342C265.927 189.424 263.699 188.291 261.762 187.484C259.348 186.46 256.735 185.948 254.121 185.931C250.028 185.911 243.815 187.118 242.298 191.546C240.802 191.014 239.011 190.722 237.602 191.654C236.489 192.404 235.811 193.811 236.306 195.109C236.323 195.167 236.36 195.221 236.397 195.238C235.591 195.858 235.226 196.974 235.446 197.981C235.795 199.479 237.22 200.449 238.645 200.798C240.453 201.235 242.481 200.981 244.309 200.723C246.1 200.469 247.837 200.012 249.483 199.225C249.865 200.815 250.376 202.497 251.748 203.504C253.335 204.656 255.421 204.473 257.266 204.199C259.386 203.887 261.617 203.449 263.587 202.571C264.796 202.022 265.927 201.327 266.878 200.395C267.115 200.157 267.352 199.9 267.572 199.645C267.646 199.662 267.701 199.683 267.775 199.7C274.262 201.344 281.131 202.68 287.855 202.442C290.855 202.334 293.888 201.856 296.665 200.686C298.913 199.737 302.22 198.072 302.603 195.346C302.806 194.014 302.203 192.77 300.924 192.258Z" fill="#3D7064"/>
<path d="M300.924 192.257C299.918 191.853 298.875 191.982 297.89 192.311C298.493 191.67 299.058 190.975 299.553 190.246C300.301 189.185 301.069 187.941 301.052 186.588C301.032 184.32 298.73 183.188 296.776 182.967C295.75 182.839 294.728 182.876 293.722 183.022C293.814 183.133 293.905 183.242 293.98 183.371C294.62 184.395 294.308 185.656 293.777 186.642C292.771 188.507 290.635 190.063 288.441 189.734C288.204 189.697 288.021 189.789 287.93 190.026C287.053 192.22 284.696 193.41 282.448 193.572C279.635 193.793 276.893 192.623 274.353 191.525C274.171 191.453 273.876 191.453 273.768 191.67C272.417 194.779 270.352 197.522 267.775 199.661C274.262 201.309 281.131 202.641 287.855 202.404C290.855 202.296 293.888 201.821 296.665 200.651C298.913 199.699 302.22 198.034 302.603 195.312C302.806 194.013 302.203 192.769 300.924 192.257ZM264.339 202.075C264.318 202.075 264.301 202.075 264.285 202.096C263.99 202.204 263.77 202.367 263.607 202.587C264.813 202.038 265.947 201.343 266.895 200.411C266.109 200.997 265.27 201.546 264.41 202.021C264.393 202.038 264.356 202.058 264.339 202.075Z" fill="#212332"/>
<path d="M287.493 281.486L243.652 279.605V274.156L287.493 276.058V281.486Z" fill="#F5E7E1"/>
<path d="M315.285 274.541L287.492 281.508V276.077L315.285 269.109V274.541Z" fill="#F5E7E1"/>
<path d="M315.284 269.11L282.667 267.008L243.76 274.158L287.492 276.077L315.284 269.11Z" fill="#F5E7E1"/>
<path d="M248.145 219.064L243.652 218.881V275.143L248.145 275.343V219.064Z" fill="#F5E7E1"/>
<path d="M287.493 223.671L283.014 223.488V275.876L287.493 276.076V223.671Z" fill="#F5E7E1"/>
<path d="M315.285 212.975V269.109L310.789 270.333V212.771L315.285 212.975Z" fill="#212332"/>
<path d="M283.014 220.288V228.204L243.652 226.506V218.586L283.014 220.288Z" fill="#F5E7E1"/>
<path d="M315.285 217.399V225.315L310.789 225.719L283.014 228.204V220.287L305.125 203.977L315.285 217.399Z" fill="#F5E7E1"/>
<path d="M321.664 219.884L320.276 219.958H320.184L319.89 219.975H319.856L319.582 219.996H319.399L315.323 219.884L314.666 218.88L312.563 215.588L312.035 214.764L308.653 209.479L308.121 208.658L301.506 198.328L307.976 198.454L309.019 200.101L314.737 209.079L315.214 209.828L318.63 215.205L319.07 215.88L320.77 218.551L321.664 219.884Z" fill="#212332"/>
<path d="M310.482 198.421L309.439 199.499L308.965 199.991L305.088 203.924L300.575 208.548L288.441 220.93L277.915 220.563H277.787L276.91 220.526H276.785L265.653 220.143L265.544 220.123L264.65 220.106L264.539 220.089L254.121 219.723H253.996L253.099 219.685H252.99L241.459 219.282L263.77 197.852L276.124 197.997L276.236 198.018H277.275L287.947 198.147H288.059L288.973 198.163H289.101L300.484 198.309H301.635L310.482 198.421Z" fill="#993C2C"/>
<path d="M319.087 215.843C319.087 215.863 319.07 215.863 319.07 215.88C318.996 215.955 318.905 216.009 318.796 216.009H318.759L312.563 215.606L312.035 214.785L318.63 215.223L318.796 215.239C318.942 215.239 319.05 215.331 319.125 215.46C319.179 215.551 319.179 215.717 319.087 215.843Z" fill="#7D746D"/>
<path d="M315.305 209.738C315.284 209.776 315.251 209.813 315.213 209.83C315.159 209.867 315.085 209.884 315.01 209.884C315.01 209.884 314.993 209.884 314.976 209.884L308.635 209.481L308.104 208.66L314.719 209.081L314.993 209.098C315.139 209.118 315.251 209.189 315.322 209.318C315.396 209.447 315.396 209.609 315.305 209.738Z" fill="#7D746D"/>
<path d="M324.168 219.847L320.275 219.959L320.183 219.976H319.855L310.114 204.746L310.06 204.672L307.938 201.342L309.018 200.102L310.48 198.42L324.168 219.847Z" fill="#F5E7E1"/>
<path d="M312.762 202.037L294.527 220.725L288.439 220.945L310.48 198.42L312.762 202.037Z" fill="#F5E7E1"/>
<path d="M301.634 198.309L301.617 198.329L301.579 198.383L301.542 198.4L277.914 220.563H277.785L276.908 220.525H276.783L300.483 198.309H301.634Z" fill="#6E3420"/>
<path d="M289.1 198.163L289.025 198.218L265.651 220.143L265.543 220.123L264.649 220.106L264.537 220.089L287.945 198.146H288.057L288.971 198.163H289.1Z" fill="#6E3420"/>
<path d="M277.275 198.016L277.204 198.088L254.121 219.721H253.996L253.099 219.684H252.99L276.124 197.996L276.236 198.016H277.275Z" fill="#6E3420"/>
<path d="M282.702 275.655L248.457 274.174C248.203 274.174 248.091 274.357 248.074 274.54C248.074 274.74 248.203 274.96 248.44 274.96L282.685 276.442H282.702C282.943 276.442 283.051 276.259 283.068 276.076C283.088 275.876 282.96 275.655 282.702 275.655Z" fill="#7D746D"/>
<path d="M314.499 269.659C314.408 269.567 314.279 269.53 314.133 269.567L288.02 275.527C287.783 275.602 287.709 275.819 287.763 276.002C287.8 276.168 287.946 276.314 288.129 276.314C288.166 276.314 288.203 276.314 288.24 276.297L314.354 270.333C314.482 270.299 314.574 270.208 314.611 270.079C314.665 269.95 314.611 269.767 314.499 269.659Z" fill="#7D746D"/>
<path d="M270.094 227.639C269.857 227.622 269.599 227.622 269.362 227.602C264.849 227.402 260.573 227.236 257.1 227.09V271.707C262.219 271.157 267.317 270.537 272.433 269.988V227.748C271.665 227.714 270.879 227.676 270.094 227.639Z" fill="#F5E7E1"/>
<path d="M272.03 265.671L257.32 268.194C256.974 268.251 256.974 268.872 257.32 268.818L272.03 266.295C272.379 266.238 272.379 265.617 272.03 265.671Z" fill="#7D746D"/>
<path d="M270.095 227.601L270.078 227.564H270.02C269.837 227.547 269.654 227.547 269.472 227.547H269.417L269.401 227.601C269.38 227.655 269.363 227.713 269.363 227.767V266.258C269.363 266.512 269.563 266.658 269.766 266.658C269.858 266.658 269.949 266.624 270.02 266.566C270.078 266.512 270.132 266.441 270.132 266.295V227.767C270.132 227.693 270.112 227.638 270.095 227.601Z" fill="#7D746D"/>
<path d="M262.73 244.918V265.104L268.12 264.426V244.24L262.73 244.918ZM267.352 263.714L263.516 264.189V245.613L267.352 245.135V263.714Z" fill="#7D746D"/>
<path d="M261.524 245.193V265.379L257.119 265.929V265.122L260.755 264.667V246.088L257.119 246.546V245.76L261.524 245.193Z" fill="#7D746D"/>
<path d="M262.768 231.917H262.693V243.475L268.083 242.797V231.514L262.768 231.917ZM267.318 242.102L263.479 242.576V232.629L267.318 232.392V242.102Z" fill="#7D746D"/>
<path d="M261.487 232.025V243.766L257.119 244.315V243.508L260.718 243.054V232.924L257.119 233.141V232.358L261.487 232.025Z" fill="#7D746D"/>
<path d="M307.373 208.293L291.183 224.292L290.195 225.279L288.807 225.245L289.795 224.255L306.662 207.581C307.119 207.123 307.83 207.835 307.373 208.293Z" fill="#7D746D"/>
<path d="M291.163 224.292L290.178 225.279L288.789 225.245L283.014 225.042L279.597 224.933L243.652 223.78V222.773L279.597 223.926L283.014 224.038L289.775 224.255L291.163 224.292Z" fill="#7D746D"/>
<path d="M272.417 227.6C272.342 227.475 272.234 227.4 272.085 227.4L257.466 226.834C257.337 226.834 257.212 226.888 257.154 226.997C257.083 227.126 257.066 227.292 257.137 227.437C257.212 227.563 257.32 227.637 257.466 227.637L272.085 228.204H272.105C272.234 228.204 272.342 228.149 272.396 228.041C272.488 227.912 272.488 227.729 272.417 227.6Z" fill="#7D746D"/>
<path d="M108.532 166.494L107.381 168.193L101.605 176.641L101.165 177.282L96.9094 183.5L96.4692 184.137L92.1763 190.447L91.7361 191.088L87.5718 197.177L87.1317 197.797L82.2158 205.002L81.7959 205.622L76.9545 212.701L76.5313 213.338L72.2925 219.539L72.2553 219.594L68.091 219.905L67.3597 219.885L64.5801 219.868L100.637 165.745V165.725L105.773 166.22L106.155 166.257L108.532 166.494Z" fill="#F5E7E1"/>
<path d="M102.153 167.281L101.933 169.071L100.802 170.773L68.2899 219.611L68.0902 219.905L67.3589 219.885L64.5996 219.868L100.636 165.725V165.745L102.153 167.281Z" fill="#F5E7E1"/>
<path d="M99.6485 167.243L99.3945 169.345L130.332 219.136H134.754L102.025 167.352L100.637 165.725L99.6485 167.243Z" fill="#F5E7E1"/>
<path d="M223.42 216.868L210.429 217.197L209.589 217.217H209.478L198.935 217.492H198.715L198.075 217.509H197.983L185.849 217.82H185.832L185.741 217.837L184.989 217.858H184.898L173.769 218.132L173.678 218.149L172.93 218.166H172.838L167.594 218.295L160.721 218.478L159.773 218.495L141.169 218.973L134.754 219.136H134.737L100.637 165.725L114.745 166.548L114.853 166.565L115.638 166.603L115.75 166.623L127.519 167.298H127.627L128.287 167.352H128.504L141.278 168.101H141.369L142.155 168.159H142.266L153.96 168.834L154.052 168.854L154.837 168.888H154.949L166.551 169.566L167.702 169.637H167.814L168.6 169.695H168.708L179.891 170.352H180.002L180.788 170.407H180.896L193.799 171.156L223.42 216.868Z" fill="#993C2C"/>
<path d="M148.624 218.79L147.693 218.807L114.744 166.549L114.852 166.566L115.638 166.603L115.75 166.623L148.624 218.79Z" fill="#6E3420"/>
<path d="M160.76 218.532L159.828 218.569L159.791 218.532L159.774 218.494L127.52 167.297H127.628L128.413 167.351H128.505L160.722 218.477L160.76 218.532Z" fill="#6E3420"/>
<path d="M173.823 218.221L173.678 218.241L172.892 218.258L172.855 218.221L172.838 218.167L141.277 168.102H141.369L142.154 168.159H142.266L173.769 218.133L173.823 218.221Z" fill="#6E3420"/>
<path d="M185.887 217.912L185.759 217.929L184.956 217.95L184.936 217.912L184.899 217.858L153.961 168.834L154.052 168.854L154.838 168.888H154.95L185.833 217.821H185.85L185.887 217.912Z" fill="#6E3420"/>
<path d="M168.654 169.603L167.648 169.545L198.001 217.562L198.038 217.599L198.969 217.562L168.671 169.636L168.654 169.603Z" fill="#6E3420"/>
<path d="M210.466 217.27L209.532 217.308L209.478 217.216L179.891 170.352H180.002L180.788 170.406H180.896L210.429 217.196L210.466 217.27Z" fill="#6E3420"/>
<path d="M100.803 171.102L68.2911 219.611L68.1082 219.906H67.377L100.326 170.753C100.471 170.536 100.729 170.607 100.82 170.773C100.874 170.865 100.874 170.973 100.803 171.102Z" fill="#3D4156"/>
<path d="M103.251 174.301L100.803 170.734C100.583 170.405 100.089 170.772 100.309 171.1C101.132 172.287 101.934 173.477 102.757 174.667C102.977 174.976 103.471 174.63 103.251 174.301Z" fill="#3D4156"/>
<path d="M76.9547 212.701L76.5146 213.339L72.4958 213.43C72.1099 213.43 72.0726 212.81 72.4755 212.81L76.9547 212.701Z" fill="#3D4156"/>
<path d="M82.2151 205.002L81.7783 205.643L77.6276 205.734C77.245 205.734 77.2078 205.11 77.6107 205.11L82.2151 205.002Z" fill="#3D4156"/>
<path d="M87.5723 197.176L87.1321 197.817L82.8561 197.888C82.4735 197.888 82.4363 197.267 82.8392 197.267L87.5723 197.176Z" fill="#3D4156"/>
<path d="M92.1763 190.447L91.7362 191.088L87.389 191.18C87.0031 191.18 86.9692 190.556 87.3687 190.556L92.1763 190.447Z" fill="#3D4156"/>
<path d="M96.9095 183.5L96.4694 184.137L91.9733 184.229C91.5907 184.229 91.5738 183.608 91.9563 183.608L96.9095 183.5Z" fill="#3D4156"/>
<path d="M101.605 176.641L101.165 177.281L96.6894 177.373C96.3068 177.373 96.2865 176.749 96.6725 176.749L101.605 176.641Z" fill="#3D4156"/>
<path d="M132.214 222.536L221.245 220.18L223.419 216.867L134.736 219.135H130.314L132.214 222.536Z" fill="#212332"/>
<path d="M260.461 191.873C256.459 190.829 252.332 192.422 250.047 195.877C249.753 196.335 250.484 196.755 250.778 196.297C252.844 193.171 256.608 191.744 260.245 192.676C260.773 192.822 260.993 192.019 260.461 191.873Z" fill="#212332"/>
<path d="M272.962 191.049C272.288 189.13 269.691 190.758 268.743 191.432C266.952 192.714 265.104 193.883 263.15 194.89C260.828 196.097 258.4 196.901 255.949 197.759C253.921 198.474 252.039 199.989 250.999 201.912C250.505 201.179 250.211 200.284 250.177 199.169C250.177 198.84 249.662 198.84 249.662 199.169C249.754 203.21 253.447 205 257.046 204.963C261.031 204.929 264.996 203.336 267.938 200.651C269.4 199.315 270.626 197.704 271.537 195.931C271.939 195.165 272.268 194.358 272.542 193.517C272.799 192.805 273.236 191.798 272.962 191.049Z" fill="#3D7064"/>
<path d="M330.564 260.99C331.038 262.929 332.135 264.685 333.78 265.855C335.916 267.374 338.73 267.977 341.272 268.489C345.129 269.276 349.039 269.584 352.966 269.805C354.595 269.896 356.237 269.971 357.865 270.062C362.707 270.334 367.477 271.195 372.227 272.144C376.066 272.931 380.654 274.046 383.85 271.029C386.372 268.652 385.841 264.702 384.747 261.76C383.779 259.183 382.005 256.878 379.665 255.396C378.751 254.83 377.766 254.355 376.74 254.043C375.481 253.64 374.164 253.585 372.887 253.294C370.365 252.69 368.994 250.534 367.623 248.52C365.009 244.716 361.356 241.882 356.86 240.733C354.849 240.221 352.638 240 350.627 240.658C348.562 241.336 347.556 242.797 346.791 244.754C346.314 245.961 345.748 246.985 344.506 247.534C343.429 248.008 342.203 248.1 341.052 248.246C338.879 248.52 336.83 249.144 335.002 250.368C334.271 250.863 333.614 251.429 333.028 252.07C330.801 254.447 329.758 257.681 330.564 260.99Z" fill="#3D7064"/>
<path d="M330.564 260.989C331.038 262.928 332.135 264.684 333.78 265.854C335.917 267.373 338.73 267.976 341.273 268.488C345.129 269.275 349.039 269.583 352.967 269.804C350.864 267.848 350.41 264.518 350.556 261.704C350.573 261.447 350.353 261.301 350.136 261.284C346.151 260.826 342.278 259.453 338.896 257.297C337.196 256.219 335.625 254.937 334.237 253.493C333.814 253.056 333.394 252.581 333.012 252.086C330.801 254.446 329.758 257.68 330.564 260.989Z" fill="#212332"/>
<path d="M358.195 255.121C361.848 252.582 366.435 251.646 370.803 252.544C371.334 252.653 371.114 253.456 370.583 253.365C366.435 252.524 362.105 253.44 358.632 255.853C358.158 256.165 357.738 255.433 358.195 255.121Z" fill="#212332"/>
<path d="M216.293 298.035C216.077 303.046 212.512 306.85 207.87 307.545C206.956 307.674 202.04 308.294 202.04 308.294C202.04 308.294 194.419 301.418 194.676 295.421C194.934 289.423 199.975 285.162 205.95 285.877C211.909 286.61 216.534 292.058 216.293 298.035Z" fill="#7D746D"/>
<path d="M304.194 312.681C303.974 317.692 300.412 321.496 295.77 322.191C294.856 322.319 289.94 322.94 289.94 322.94C289.94 322.94 282.319 316.064 282.577 310.067C282.831 304.069 287.875 299.811 293.851 300.523C299.809 301.255 304.451 306.704 304.194 312.681Z" fill="#7D746D"/>
<path d="M247.673 289.556C248.141 290.081 248.554 290.641 248.916 291.241C249.282 291.841 249.586 292.465 249.83 293.112C250.077 293.763 250.26 294.428 250.379 295.102C250.497 295.78 250.551 296.455 250.538 297.133C250.524 297.808 250.446 298.472 250.301 299.123C250.158 299.774 249.952 300.398 249.681 300.998C249.414 301.598 249.085 302.161 248.703 302.686C248.317 303.212 247.883 303.69 247.399 304.124C246.915 304.554 246.387 304.931 245.821 305.253C245.256 305.575 244.657 305.833 244.03 306.033C243.404 306.229 242.761 306.365 242.097 306.433C241.437 306.501 240.767 306.501 240.096 306.436C239.423 306.368 238.756 306.239 238.099 306.043C237.442 305.846 236.806 305.589 236.189 305.27C235.573 304.951 234.987 304.575 234.436 304.144C233.884 303.714 233.373 303.239 232.905 302.714C232.438 302.188 232.025 301.625 231.659 301.029C231.297 300.428 230.992 299.805 230.749 299.154C230.502 298.506 230.319 297.842 230.2 297.167C230.082 296.489 230.028 295.814 230.041 295.136C230.055 294.461 230.133 293.797 230.275 293.146C230.42 292.495 230.627 291.871 230.894 291.271C231.165 290.671 231.49 290.108 231.876 289.583C232.259 289.057 232.695 288.579 233.18 288.145C233.664 287.715 234.188 287.338 234.757 287.016C235.323 286.694 235.919 286.433 236.545 286.237C237.171 286.036 237.818 285.904 238.481 285.836C239.142 285.769 239.809 285.769 240.482 285.833C241.156 285.901 241.82 286.03 242.48 286.226C243.137 286.423 243.773 286.681 244.389 286.999C245.006 287.318 245.591 287.694 246.143 288.125C246.695 288.555 247.206 289.03 247.673 289.556Z" fill="#7D746D"/>
<path d="M336.107 300.988C336.598 301.541 337.035 302.134 337.421 302.765C337.804 303.399 338.122 304.056 338.382 304.741C338.643 305.426 338.833 306.128 338.958 306.84C339.083 307.552 339.141 308.267 339.127 308.979C339.114 309.694 339.029 310.393 338.877 311.081C338.724 311.766 338.508 312.427 338.223 313.058C337.939 313.692 337.594 314.285 337.187 314.841C336.781 315.397 336.324 315.902 335.813 316.356C335.302 316.814 334.746 317.211 334.147 317.55C333.548 317.889 332.921 318.163 332.258 318.374C331.598 318.584 330.917 318.723 330.22 318.794C329.519 318.865 328.815 318.869 328.104 318.801C327.396 318.73 326.692 318.594 326.001 318.387C325.307 318.18 324.633 317.906 323.983 317.57C323.333 317.234 322.717 316.838 322.132 316.387C321.549 315.933 321.014 315.427 320.52 314.875C320.029 314.322 319.589 313.729 319.206 313.098C318.824 312.468 318.502 311.807 318.245 311.122C317.984 310.437 317.795 309.738 317.669 309.023C317.544 308.311 317.486 307.596 317.5 306.884C317.514 306.168 317.598 305.47 317.751 304.785C317.903 304.097 318.12 303.436 318.404 302.805C318.688 302.171 319.034 301.578 319.44 301.022C319.846 300.466 320.303 299.961 320.815 299.506C321.326 299.049 321.881 298.652 322.48 298.313C323.076 297.974 323.706 297.699 324.369 297.489C325.03 297.282 325.71 297.14 326.408 297.069C327.108 296.998 327.813 296.994 328.52 297.065C329.231 297.133 329.932 297.272 330.626 297.479C331.32 297.682 331.994 297.957 332.644 298.293C333.294 298.628 333.91 299.025 334.492 299.479C335.075 299.93 335.613 300.435 336.107 300.988Z" fill="#7D746D"/>
<path d="M348.014 309.119C347.997 309.319 347.851 309.502 347.648 309.539L327.019 313.452C326.999 313.452 326.999 313.452 326.982 313.452C324.622 314.092 322.229 314.584 319.818 314.896C319.727 314.913 319.618 314.913 319.527 314.933C319.307 314.97 319.087 314.987 318.887 315.004C318.796 315.025 318.704 315.025 318.593 315.042C313.677 315.591 308.727 315.499 303.811 314.73C303.205 314.642 302.585 314.55 301.946 314.438C301.854 314.421 301.78 314.401 301.688 314.401C301.526 314.384 301.343 314.347 301.177 314.33C301.086 314.309 301.015 314.292 300.923 314.292C293.996 313.214 285.095 311.807 275.267 310.271C275.175 310.251 275.101 310.251 275.01 310.234C274.844 310.197 274.661 310.18 274.478 310.143C274.387 310.122 274.316 310.122 274.224 310.105C273.31 309.96 272.396 309.814 271.465 309.668C271.39 309.648 271.299 309.648 271.208 309.631C271.025 309.593 270.842 309.576 270.642 309.539C270.568 309.519 270.476 309.519 270.385 309.502C262.892 308.312 255.001 307.071 247.143 305.827C246.794 305.772 246.428 305.718 246.083 305.661C245.568 305.569 245.04 305.498 244.529 305.406C244.346 305.369 244.163 305.352 243.98 305.315C234.826 303.85 225.796 302.406 217.573 301.073C217.481 301.053 217.41 301.036 217.319 301.036C217.136 300.999 216.933 300.982 216.75 300.945C216.679 300.928 216.587 300.928 216.513 300.907C215.636 300.762 214.776 300.633 213.936 300.487C213.845 300.47 213.754 300.45 213.682 300.45C213.5 300.416 213.334 300.395 213.151 300.358C213.06 300.341 212.968 300.324 212.894 300.324C207.395 299.426 202.368 298.605 198.021 297.873C193.745 297.161 190.142 296.537 187.457 296.046C187.366 296.025 187.292 296.008 187.2 296.008C187.017 295.971 186.855 295.954 186.689 295.917C186.598 295.896 186.526 295.879 186.435 295.863C185.538 295.696 184.773 295.551 184.15 295.422C182.853 295.168 181.847 294.123 181.648 292.825C181.465 291.692 181.299 290.485 181.225 289.479C181.191 289.021 181.079 287.048 180.971 284.725C180.95 284.268 180.95 283.81 180.988 283.356C180.988 283.356 180.971 283.356 180.971 283.373C180.988 282.989 181.025 282.586 181.062 282.203C181.282 279.897 181.831 277.65 183.31 275.822C184.241 274.67 185.392 273.791 186.652 273.096C188.317 272.181 190.18 271.615 192.008 271.195C195.627 270.371 199.317 269.804 202.974 269.201C206.498 268.618 218.233 266.933 221.777 266.441C221.869 266.421 221.94 266.387 221.994 266.35C226.785 262.217 232.449 258.559 233.983 257.389C238.678 253.88 245.809 252.361 249.993 252.415C274.661 252.69 289.795 252.836 300.811 254.592C308.598 255.816 314.225 257.772 315.888 258.488C316.764 258.871 318.538 259.857 320.77 261.193C326.908 264.868 336.557 271.103 340.833 273.92C341.236 274.192 342.221 274.449 343.355 274.707C345.312 275.127 346.92 276.334 347.868 277.962C348.528 279.057 348.874 280.338 348.836 281.691C348.819 282.549 348.782 283.481 348.745 284.451C348.654 287.414 348.545 290.797 348.454 294.086C348.454 294.178 348.454 294.252 348.454 294.344C348.454 294.527 348.437 294.71 348.437 294.893C348.437 294.984 348.437 295.056 348.437 295.147C348.362 297.215 348.308 299.209 348.254 301.036C348.254 301.128 348.254 301.199 348.234 301.29C348.234 301.494 348.217 301.677 348.217 301.86C348.217 301.952 348.217 302.043 348.217 302.114C348.105 306.21 348.014 309.119 348.014 309.119Z" fill="#212332"/>
<path d="M207.168 291.468C207.635 291.99 208.052 292.553 208.414 293.153C208.776 293.749 209.081 294.377 209.328 295.024C209.572 295.675 209.755 296.336 209.873 297.014C209.992 297.689 210.046 298.367 210.032 299.042C210.022 299.72 209.941 300.381 209.799 301.032C209.657 301.683 209.45 302.31 209.179 302.91C208.908 303.507 208.583 304.073 208.197 304.598C207.815 305.124 207.378 305.602 206.894 306.033C206.41 306.467 205.885 306.843 205.316 307.165C204.751 307.487 204.155 307.745 203.529 307.945C202.902 308.141 202.256 308.274 201.595 308.341C200.932 308.409 200.265 308.413 199.591 308.345C198.917 308.28 198.254 308.148 197.597 307.955C196.94 307.758 196.3 307.501 195.684 307.182C195.068 306.86 194.482 306.487 193.93 306.056C193.379 305.626 192.867 305.148 192.403 304.626C191.936 304.1 191.52 303.537 191.158 302.941C190.795 302.341 190.491 301.717 190.243 301.066C189.996 300.415 189.817 299.754 189.695 299.076C189.576 298.401 189.526 297.726 189.539 297.048C189.549 296.374 189.627 295.709 189.773 295.058C189.915 294.407 190.122 293.783 190.392 293.183C190.66 292.583 190.988 292.02 191.371 291.495C191.757 290.969 192.19 290.488 192.678 290.057C193.162 289.623 193.687 289.247 194.252 288.928C194.821 288.606 195.417 288.345 196.043 288.149C196.669 287.949 197.313 287.816 197.976 287.749C198.64 287.681 199.307 287.681 199.98 287.745C200.651 287.81 201.318 287.942 201.975 288.138C202.631 288.335 203.268 288.593 203.887 288.911C204.504 289.23 205.086 289.603 205.641 290.034C206.193 290.464 206.701 290.942 207.168 291.468Z" fill="#7D746D"/>
<path d="M205.513 298.968C205.459 300.432 204.873 301.71 203.959 302.663C203.831 302.792 203.685 302.938 203.539 303.046C202.405 303.999 200.888 304.473 199.226 304.27C198.969 304.236 198.715 304.199 198.458 304.124C198.275 304.07 198.092 304.033 197.929 303.961C196.43 303.45 195.187 302.388 194.385 301.053C194.293 300.89 194.202 300.724 194.11 300.561C193.653 299.629 193.416 298.584 193.471 297.506C193.487 297.123 193.542 296.757 193.616 296.408C193.653 296.208 193.708 296.025 193.782 295.842C194.33 294.269 195.515 293.082 197.015 292.516C197.198 292.441 197.364 292.387 197.543 292.35C198.221 292.167 198.969 292.112 199.737 292.204C200.851 292.333 201.877 292.77 202.754 293.411C202.899 293.519 203.065 293.648 203.211 293.777C204.216 294.655 204.948 295.804 205.293 297.103C205.347 297.286 205.385 297.469 205.422 297.669C205.513 298.093 205.55 298.53 205.513 298.968Z" fill="#212332"/>
<path d="M295.52 305.179C296.011 305.732 296.451 306.325 296.834 306.956C297.216 307.586 297.538 308.247 297.795 308.932C298.056 309.617 298.245 310.316 298.371 311.031C298.496 311.743 298.554 312.455 298.54 313.17C298.526 313.882 298.442 314.584 298.29 315.269C298.141 315.957 297.92 316.615 297.636 317.249C297.352 317.883 297.006 318.476 296.6 319.032C296.197 319.585 295.737 320.093 295.226 320.548C294.714 321.002 294.159 321.402 293.56 321.741C292.964 322.08 292.334 322.355 291.671 322.565C291.01 322.772 290.33 322.914 289.632 322.985C288.932 323.056 288.227 323.06 287.52 322.989C286.809 322.921 286.108 322.782 285.414 322.575C284.72 322.368 284.046 322.097 283.396 321.761C282.746 321.426 282.13 321.029 281.548 320.575C280.965 320.12 280.427 319.619 279.933 319.066C279.442 318.513 279.005 317.92 278.622 317.289C278.236 316.655 277.918 315.998 277.658 315.313C277.4 314.628 277.207 313.926 277.082 313.214C276.957 312.502 276.903 311.787 276.916 311.075C276.93 310.36 277.011 309.661 277.163 308.973C277.316 308.288 277.532 307.627 277.817 306.996C278.101 306.362 278.446 305.769 278.853 305.213C279.259 304.657 279.716 304.152 280.227 303.698C280.742 303.24 281.294 302.843 281.893 302.504C282.492 302.165 283.122 301.891 283.782 301.68C284.442 301.47 285.123 301.331 285.82 301.26C286.521 301.185 287.225 301.185 287.936 301.253C288.644 301.324 289.348 301.46 290.042 301.667C290.733 301.874 291.407 302.145 292.057 302.484C292.707 302.819 293.326 303.216 293.909 303.667C294.491 304.121 295.029 304.627 295.52 305.179Z" fill="#7D746D"/>
<path d="M293.431 312.83C293.357 314.345 292.754 315.644 291.803 316.596C291.678 316.722 291.529 316.851 291.383 316.959C290.269 317.858 288.769 318.315 287.161 318.132C286.924 318.095 286.687 318.058 286.45 318.003C286.267 317.966 286.085 317.912 285.902 317.837C284.439 317.346 283.197 316.339 282.394 315.061C282.282 314.894 282.191 314.728 282.12 314.566C281.605 313.596 281.351 312.497 281.406 311.365C281.426 311.036 281.46 310.724 281.517 310.433C281.551 310.233 281.605 310.05 281.663 309.867C282.174 308.239 283.363 306.995 284.896 306.392C285.079 306.32 285.245 306.263 285.428 306.208C286.122 306.025 286.887 305.954 287.655 306.046C288.827 306.191 289.887 306.649 290.78 307.324C290.926 307.436 291.072 307.561 291.221 307.69C292.206 308.585 292.937 309.792 293.249 311.091C293.286 311.274 293.32 311.457 293.357 311.657C293.431 312.06 293.448 312.443 293.431 312.83Z" fill="#212332"/>
<path d="M348.455 295.146C347.013 295.312 345.438 295.495 343.888 295.678C340.123 296.133 336.212 296.59 334.256 296.736C333.944 296.757 333.599 296.794 333.25 296.828C332.41 296.919 331.442 297.011 330.511 296.977C328.92 296.902 327.403 296.428 326.689 294.78C326.289 293.848 326.015 292.844 325.758 291.874C325.649 291.434 325.521 290.996 325.392 290.576C324.955 289.149 324.424 287.467 323.804 285.823C321.262 279.164 317.646 274.794 313.038 272.875C312.855 272.804 312.73 272.638 312.709 272.438C312.693 272.234 312.764 272.034 312.913 271.926C313.058 271.814 313.221 271.797 313.404 271.872C316.071 272.987 318.465 274.869 320.496 277.466C322.122 279.568 323.51 282.09 324.715 285.182C325.192 286.426 325.666 287.796 326.215 289.515C326.398 290.081 326.563 290.647 326.709 291.217C326.983 292.166 327.257 293.153 327.603 294.068C327.897 294.855 328.334 295.367 328.957 295.604C329.539 295.841 330.2 295.878 330.711 295.878C331.862 295.878 333.03 295.77 334.164 295.678C334.638 295.641 335.132 295.587 335.606 295.55C337.289 295.421 340.908 294.983 344.399 294.563C345.804 294.397 347.212 294.214 348.492 294.068H348.529C348.529 294.16 348.529 294.234 348.529 294.326C348.529 294.505 348.509 294.688 348.509 294.872C348.455 294.963 348.455 295.055 348.455 295.146Z" fill="#323A5C"/>
<path d="M327.676 285.711C326.633 286.06 325.482 285.894 324.443 285.694C323.417 285.494 322.411 285.237 321.406 284.945C319.378 284.321 317.404 283.501 315.542 282.494C313.676 281.47 311.923 280.28 310.314 278.91C313.348 279.056 324.825 279.568 329.064 279.659C329.887 279.676 330.472 280.446 330.307 281.249C329.924 282.86 329.138 285.22 327.676 285.711Z" fill="#E66F4E"/>
<path d="M214.028 300.743L213.189 300.594H212.985L212.952 300.394C212.952 300.377 212.952 300.34 212.931 300.323C212.732 298.895 212.511 297.505 212.258 296.153C211.597 292.606 210.375 288.162 206.885 285.402C203.831 282.988 199.721 282.181 196.139 283.297C192.557 284.412 189.689 287.267 188.409 290.921C187.878 292.44 187.587 294.105 187.495 296.007V296.041C187.404 296.024 187.329 296.007 187.238 296.007C187.055 295.97 186.892 295.953 186.727 295.915C186.635 295.895 186.564 295.878 186.473 295.861C186.618 293.061 187.184 290.704 188.226 288.691C190.051 285.161 193.417 282.639 197.236 281.944C201.126 281.232 205.385 282.51 208.344 285.31C211.635 288.416 212.769 292.952 213.442 296.993C213.625 298.126 213.808 299.279 213.957 300.431L213.974 300.502L214.028 300.743Z" fill="#323A5C"/>
<path d="M301.982 314.457C301.891 314.437 301.816 314.42 301.725 314.42C301.562 314.4 301.379 314.366 301.213 314.345C301.122 314.328 301.051 314.308 300.96 314.308C300.719 312.409 300.428 310.562 300.1 308.805C299.443 305.259 298.217 300.814 294.727 298.055C291.676 295.641 287.563 294.837 283.981 295.953C280.399 297.068 277.531 299.919 276.251 303.578C275.977 304.361 275.777 305.185 275.611 306.063C275.574 306.246 275.557 306.429 275.52 306.612C275.357 307.727 275.283 308.914 275.283 310.25V310.287C275.192 310.27 275.117 310.27 275.026 310.25C274.863 310.212 274.68 310.196 274.498 310.158C274.406 310.141 274.332 310.141 274.24 310.121C274.24 308.789 274.315 307.582 274.477 306.446C274.498 306.263 274.535 306.08 274.569 305.9C274.863 304.198 275.337 302.716 276.052 301.364C277.876 297.834 281.242 295.312 285.061 294.617C288.951 293.902 293.21 295.183 296.169 297.98C299.46 301.089 300.594 305.625 301.268 309.646C301.525 311.202 301.762 312.809 301.962 314.42L301.982 314.457Z" fill="#323A5C"/>
<path d="M225.176 267.939C225.193 268.214 224.973 268.542 224.607 268.559C223.73 268.597 222.891 268.888 222.105 269.42C221.885 269.566 221.665 269.749 221.465 269.932C220.352 270.936 219.454 272.438 219.035 274.045C218.449 276.221 218.395 278.507 218.34 280.72C218.324 281.324 218.303 281.927 218.286 282.531C218.175 285.291 218.049 288.179 217.938 291.38C217.866 293.482 217.809 295.421 217.738 297.36V297.414C217.738 297.581 217.718 297.743 217.718 297.909V297.943C217.684 298.988 217.663 300.011 217.626 301.052V301.09C217.535 301.073 217.464 301.052 217.372 301.052C217.189 301.015 216.99 300.998 216.807 300.961C216.732 300.944 216.641 300.944 216.566 300.927C216.587 300.157 216.604 299.388 216.624 298.638L216.658 297.248C216.824 291.617 217.044 285.731 217.318 279.734L217.335 279.164C217.443 276.513 217.555 273.753 218.997 271.302C219.346 270.719 219.749 270.187 220.206 269.695C220.385 269.512 220.568 269.329 220.771 269.163C221.939 268.139 223.294 267.573 224.644 267.518C224.939 267.481 225.156 267.664 225.176 267.939Z" fill="#323A5C"/>
<path d="M255.583 268.251C255.583 268.434 255.491 268.58 255.308 268.689C252.952 270.062 252.075 272.838 251.601 274.815C251.107 276.917 250.778 279.131 250.484 281.25C250.392 281.908 250.301 282.548 250.193 283.206C249.736 286.206 249.299 289.241 248.896 292.258C248.293 296.737 247.708 301.29 247.196 305.809C246.848 305.752 246.482 305.697 246.137 305.643C246.353 303.704 246.594 301.768 246.81 299.9C247.599 293.594 248.493 287.193 249.461 280.904C249.536 280.392 249.607 279.897 249.698 279.385C250.01 277.283 250.321 275.09 250.978 273.042C251.784 270.553 253.06 268.763 254.78 267.756C255.034 267.611 255.329 267.682 255.491 267.939C255.566 268.048 255.583 268.16 255.583 268.251Z" fill="#323A5C"/>
<path d="M291.253 286.81C291.219 287.76 291.162 288.712 291.107 289.645C291.09 289.882 290.925 290.102 290.688 290.136C288.111 290.685 285.717 291.472 283.578 292.479C279.231 294.527 275.94 297.469 274.078 301.016C273.384 302.335 272.835 303.816 272.358 305.569C272.304 305.752 272.266 305.935 272.212 306.118C272.05 306.813 271.884 307.583 271.701 308.461C271.627 308.861 271.555 309.244 271.481 309.647C271.41 309.631 271.318 309.631 271.227 309.61C271.044 309.576 270.861 309.556 270.658 309.519C270.587 309.502 270.496 309.502 270.404 309.485C270.55 308.661 270.695 307.857 270.861 307.105C270.953 306.705 271.044 306.301 271.136 305.918C271.169 305.735 271.227 305.552 271.281 305.369C271.867 303.138 272.615 301.273 273.566 299.663C274.68 297.819 276.16 296.134 277.968 294.655C281.15 292.075 285.206 290.248 290.01 289.17C290.359 282.349 290.451 275.456 290.251 268.652C290.251 268.36 290.451 268.14 290.742 268.14C291.016 268.123 291.31 268.323 291.31 268.672C291.547 274.703 291.51 280.792 291.253 286.81Z" fill="#323A5C"/>
<path d="M298.584 262.071C296.153 261.23 293.631 260.498 291.054 259.84C290.872 259.786 290.689 259.748 290.506 259.694C289.886 259.528 289.247 259.382 288.624 259.236C288.295 259.162 287.984 259.091 287.655 259.016C286.413 258.741 284.842 258.467 283.068 258.192C275.741 257.077 264.758 256.053 257.12 255.487C256.809 255.47 256.497 255.449 256.206 255.416C255.329 255.358 254.486 255.287 253.721 255.249C250.962 255.066 249.025 254.975 248.494 255.012C238.774 255.616 228.813 264.098 224.957 268.414C228.519 268.526 232.067 268.634 235.629 268.743C237.254 268.797 238.882 268.834 240.49 268.889C244.804 269.018 249.117 269.146 253.427 269.275C254.469 269.309 255.512 269.329 256.552 269.367C258.18 269.421 259.805 269.458 261.434 269.513C265.287 269.621 269.163 269.75 273.019 269.858C278.409 270.025 283.799 270.187 289.172 270.353L289.538 270.37L292.646 270.462L293.319 270.482C294.528 270.516 296.008 270.791 296.83 269.621C297.541 268.597 297.998 267.261 298.439 266.075C298.747 265.234 299.021 264.393 299.278 263.532C299.461 262.929 299.149 262.271 298.584 262.071Z" fill="#BDD0F2"/>
<path d="M336.394 270.973C336.154 270.81 335.9 270.664 335.663 270.498C333.963 269.4 332.098 268.193 330.198 267.006C329.961 266.86 329.721 266.694 329.467 266.548C327.93 265.579 326.396 264.609 324.934 263.697C324.68 263.551 324.443 263.385 324.203 263.239C322.997 262.49 321.846 261.795 320.803 261.154C319.855 261.229 318.904 261.32 317.973 261.412C314.3 261.758 310.643 262.178 306.99 262.653C306.33 262.744 305.839 263.277 305.785 263.934C305.748 264.555 305.71 265.179 305.693 265.816C305.693 265.999 305.693 266.202 305.693 266.386C305.693 266.898 305.693 267.409 305.71 267.921C305.727 268.488 305.71 269.108 305.856 269.674C305.91 269.857 305.968 270.061 306.059 270.223C306.076 270.261 306.093 270.298 306.13 270.332C306.513 270.956 307.227 271.302 307.867 271.63C308.981 272.2 310.132 272.729 311.32 273.204C311.703 273.349 312.089 273.515 312.471 273.644C312.637 273.699 312.82 273.77 312.983 273.827C314.171 274.248 315.397 274.577 316.619 274.851C319.818 275.526 323.014 275.363 326.268 275.106C331.13 274.702 335.991 274.282 340.853 273.882C339.702 273.132 338.165 272.125 336.394 270.973Z" fill="#BDD0F2"/>
<path d="M257.1 255.487C256.792 255.47 256.48 255.45 256.186 255.416C249.208 259.657 242.352 264.099 235.611 268.726C237.236 268.781 238.862 268.818 240.47 268.872C244.783 269.001 249.096 269.13 253.41 269.255C254.452 269.293 255.492 269.31 256.534 269.347C258.16 269.401 259.788 269.438 261.413 269.493C265.252 267.482 269.088 265.472 272.928 263.461C276.306 261.705 279.668 259.932 283.051 258.159C275.721 257.077 264.741 256.053 257.1 255.487Z" fill="#8FB6E3"/>
<path d="M348.234 302.114C347.594 302.223 346.937 302.334 346.297 302.443C340.596 303.43 334.912 304.42 329.21 305.406L328.371 305.552C328.134 305.589 327.897 305.626 327.656 305.66C326.563 305.827 325.412 306.01 324.497 306.559C323.472 307.162 322.906 308.257 322.378 309.335L322.304 309.464C321.427 311.204 320.587 313.031 319.835 314.896C319.744 314.913 319.636 314.913 319.544 314.933C319.324 314.97 319.104 314.987 318.904 315.004C318.813 315.024 318.722 315.024 318.613 315.041L318.667 314.913C319.673 312.373 320.695 310.122 321.83 308.074C322.321 307.179 323.035 306.064 324.315 305.46C325.32 304.965 326.434 304.803 327.511 304.62C327.731 304.582 327.951 304.545 328.171 304.511L348.288 301.016C348.288 301.107 348.288 301.182 348.271 301.273C348.271 301.473 348.254 301.656 348.254 301.839C348.234 301.931 348.234 302.023 348.234 302.114Z" fill="#323A5C"/>
<path d="M256.206 255.432C255.931 256.255 255.674 257.076 255.42 257.9C254.232 261.666 253.152 265.47 252.184 269.291C253.318 269.329 254.452 269.366 255.566 269.4C256.754 264.775 258.105 260.205 259.605 255.669C258.379 255.577 257.228 255.486 256.206 255.432Z" fill="#212332"/>
<path d="M272.158 305.277C271.975 305.26 271.792 305.222 271.61 305.206C266.893 304.527 261.761 303.778 255.91 302.917C247.233 301.639 238.058 300.266 228.629 298.822C224.536 298.201 220.9 297.635 217.534 297.123L217.115 297.069C217.06 297.069 217.023 297.048 216.969 297.048L216.678 296.994L216.641 298.072L216.861 298.11C216.932 298.127 217.006 298.127 217.081 298.147L217.426 298.201C225.047 299.371 232.793 300.561 240.469 301.71C249.826 303.12 259.073 304.49 267.953 305.772L272.175 306.375L272.232 306.155C272.266 305.972 272.324 305.789 272.358 305.626L272.432 305.351L272.158 305.277Z" fill="#323A5C"/>
<path d="M205.551 297.032L205.493 296.829L205.294 296.849C204.491 296.903 203.686 297.049 202.917 297.286C202.663 296.646 202.223 296.063 201.695 295.642C202.132 295.093 202.626 294.598 203.191 294.144C203.266 294.086 203.32 294.032 203.394 293.994L203.648 293.815L203.411 293.611C203.266 293.483 203.1 293.357 202.937 293.245L202.792 293.137L202.643 293.245C201.949 293.794 201.329 294.415 200.798 295.093C200.452 294.947 200.087 294.839 199.721 294.801C199.447 294.764 199.189 294.764 198.935 294.781C198.458 293.994 198.092 293.174 197.855 292.296L197.784 292.059L197.544 292.113C197.361 292.167 197.161 292.221 196.979 292.296L196.759 292.387L196.816 292.608C197.053 293.466 197.398 294.289 197.839 295.056C197.544 295.184 197.273 295.368 197.016 295.568C196.667 295.863 196.393 296.225 196.176 296.629C195.391 296.408 194.639 296.08 193.945 295.642L193.671 295.476L193.563 295.771C193.488 295.954 193.434 296.154 193.397 296.354L193.359 296.537L193.525 296.629C194.257 297.07 195.025 297.415 195.865 297.636C195.848 297.781 195.827 297.927 195.827 298.073C195.811 298.514 195.865 298.968 196.01 299.388C195.391 299.792 194.785 300.141 194.111 300.304L193.8 300.378L193.928 300.653C193.999 300.816 194.111 300.999 194.202 301.165L194.294 301.328L194.477 301.274C195.188 301.073 195.848 300.707 196.43 300.341C196.887 301.053 197.564 301.602 198.333 301.914C198.167 302.572 197.967 303.213 197.727 303.816C197.727 303.833 197.71 303.85 197.71 303.871L197.635 304.108L197.876 304.182C198.059 304.237 198.241 304.308 198.441 304.345L198.661 304.399L198.753 304.199C198.77 304.162 198.79 304.108 198.807 304.071C199.044 303.467 199.244 302.826 199.409 302.152C200.307 302.243 201.163 302.006 201.857 301.494C202.406 301.894 202.9 302.426 203.394 303.138L203.557 303.376L203.777 303.192C203.923 303.067 204.068 302.938 204.217 302.792L204.363 302.647L204.234 302.48C203.723 301.748 203.191 301.182 202.626 300.745C203.008 300.195 203.228 299.555 203.266 298.86C203.266 298.677 203.266 298.476 203.249 298.293C203.997 298.073 204.766 297.927 205.514 297.89L205.788 297.873L205.734 297.598C205.659 297.415 205.605 297.232 205.551 297.032ZM201.292 300.595C200.781 301.036 200.124 301.219 199.409 301.145C197.93 300.962 196.779 299.609 196.85 298.148C196.85 297.982 196.87 297.836 196.908 297.69C197.033 297.581 197.09 297.398 197.07 297.215C197.216 296.903 197.419 296.629 197.673 296.408C198.184 295.988 198.861 295.788 199.555 295.863C201.035 296.042 202.186 297.398 202.115 298.877C202.094 299.538 201.803 300.158 201.292 300.595Z" fill="#7D746D"/>
<path d="M293.651 311.916L293.614 311.641C293.577 311.441 293.54 311.238 293.502 311.055L293.448 310.855L293.228 310.872C292.405 310.93 291.603 311.075 290.818 311.313C290.56 310.655 290.141 310.068 289.592 309.631C290.012 309.099 290.506 308.607 291.055 308.166C291.163 308.095 291.254 308.004 291.366 307.929L291.62 307.746L291.383 307.546C291.237 307.417 291.072 307.288 290.926 307.163L290.763 307.034L290.581 307.18C289.866 307.729 289.226 308.37 288.678 309.065C288.333 308.899 287.947 308.807 287.564 308.753C287.29 308.716 287.016 308.716 286.741 308.753C286.267 307.949 285.885 307.071 285.644 306.173L285.573 305.936L285.336 306.01C285.153 306.064 284.95 306.119 284.768 306.193L284.551 306.264L284.605 306.485C284.842 307.38 285.187 308.241 285.644 309.044C285.353 309.173 285.096 309.336 284.842 309.556C284.476 309.868 284.185 310.251 283.982 310.672C283.18 310.451 282.428 310.123 281.734 309.668L281.46 309.485L281.368 309.794C281.314 309.997 281.26 310.197 281.223 310.397L281.186 310.563L281.335 310.655C282.062 311.092 282.851 311.441 283.691 311.679C283.671 311.808 283.654 311.933 283.654 312.045C283.637 312.503 283.708 312.977 283.853 313.415C283.251 313.798 282.668 314.147 282.008 314.33L281.697 314.401L281.846 314.676C281.937 314.842 282.029 315.025 282.137 315.188L282.245 315.354L282.428 315.3C283.126 315.079 283.745 314.73 284.31 314.367C284.768 315.062 285.428 315.591 286.193 315.903C286.047 316.561 285.848 317.164 285.627 317.747L285.536 317.988L285.793 318.076C285.976 318.151 286.176 318.205 286.359 318.242L286.579 318.297L286.65 318.097C286.887 317.493 287.09 316.852 287.236 316.157C287.31 316.157 287.381 316.178 287.456 316.178C288.258 316.212 289.01 315.995 289.629 315.537C290.161 315.92 290.652 316.432 291.129 317.11L291.275 317.327L291.474 317.164C291.62 317.035 291.786 316.907 291.915 316.781L292.06 316.632L291.932 316.449C291.437 315.774 290.926 315.225 290.361 314.788C290.763 314.238 291 313.56 291.017 312.848C291.017 312.682 291.017 312.52 291 312.336C291.749 312.099 292.534 311.97 293.303 311.933L293.651 311.916ZM290.032 312.811C289.995 313.506 289.704 314.127 289.193 314.567C288.678 315.005 288.021 315.188 287.31 315.117C285.827 314.933 284.676 313.581 284.751 312.099C284.788 311.404 285.079 310.784 285.59 310.343C286.047 309.96 286.633 309.756 287.253 309.777C287.327 309.777 287.402 309.777 287.456 309.794C288.935 309.977 290.086 311.33 290.032 312.811Z" fill="#7D746D"/>
<path d="M230.127 265.289C229.835 264.685 229.361 264.76 228.959 264.794C228.501 264.814 228.028 264.885 227.587 265.143C227.333 265.289 227.093 265.489 226.856 265.763C226.602 266.075 226.382 266.496 226.108 266.787C225.522 267.391 224.757 267.537 224.117 267.811C224.08 267.831 224.043 267.886 224.043 267.94C224.026 267.957 224.026 267.994 224.026 268.032C223.934 268.818 223.843 269.605 223.751 270.408C223.731 270.517 223.806 270.591 223.86 270.574C224.151 270.462 224.446 270.354 224.72 270.245C225.065 270.117 225.451 269.896 225.817 270.062C226.071 270.188 226.291 270.445 226.545 270.517C226.802 270.591 227.059 270.574 227.313 270.574C227.882 270.554 228.447 270.608 228.996 270.517C229.378 270.462 229.744 270.279 230.001 269.713C230.255 269.147 230.33 268.36 230.384 267.665C230.421 266.842 230.438 265.909 230.127 265.289Z" fill="#212332"/>
<path d="M290.489 259.694C289.866 259.528 289.227 259.382 288.607 259.236C288.279 259.161 287.967 259.09 287.639 259.016C287.984 262.782 288.35 266.549 288.698 270.333L292.28 270.444C291.678 266.861 291.092 263.277 290.489 259.694Z" fill="#212332"/>
<path d="M332.738 288.308C332.481 286.518 332.281 284.708 332.115 282.897C336.503 282.531 340.908 282.128 345.275 281.67C345.438 283.48 345.658 285.291 345.915 287.084C341.527 287.542 337.123 287.942 332.738 288.308Z" fill="#F5E7E1"/>
<path d="M221.922 268.963C221.594 269 221.265 269.037 220.934 269.092C212.768 270.095 204.104 271.431 194.401 273.187C191.915 273.625 189.248 274.082 186.617 274.34C186.451 274.357 186.322 274.448 186.251 274.577C186.177 274.723 186.197 274.923 186.306 275.069C186.397 275.198 186.543 275.272 186.688 275.272C186.708 275.272 186.746 275.272 186.763 275.272C190.199 274.943 193.652 274.303 196.977 273.699C198.203 273.479 199.482 273.241 200.742 273.021C205.4 272.218 210.133 271.485 214.795 270.844C216.641 270.59 218.56 270.333 220.46 270.095L221.411 269.987L221.465 269.932C221.665 269.749 221.885 269.566 222.105 269.421L222.945 268.834L221.922 268.963Z" fill="#323A5C"/>
<path d="M188.297 274.174C187.861 273.679 187.312 273.316 186.689 273.096C185.43 273.791 184.279 274.669 183.348 275.818C181.865 277.649 181.337 279.917 181.1 282.202C183.256 280.812 185.501 279.551 187.441 277.869C188.044 277.357 188.683 276.771 188.846 275.967C188.975 275.289 188.717 274.648 188.297 274.174Z" fill="#E66F4E"/>
<path d="M298.363 314.675C298.218 314.55 297.998 314.492 297.815 314.55C297.652 314.604 297.524 314.729 297.486 314.913C296.938 317.401 295.404 319.595 293.248 320.91C293.082 321.022 292.99 321.185 292.99 321.388C292.99 321.588 293.102 321.771 293.285 321.863C293.356 321.9 293.41 321.917 293.485 321.917C293.576 321.917 293.684 321.9 293.776 321.842C296.19 320.364 297.906 317.93 298.509 315.187C298.563 315.004 298.492 314.804 298.363 314.675Z" fill="#212332"/>
<path d="M210.171 299.882C209.88 299.828 209.643 299.974 209.568 300.265C209.02 302.754 207.486 304.947 205.33 306.263C205.164 306.375 205.072 306.537 205.072 306.741C205.072 306.941 205.184 307.124 205.367 307.216C205.438 307.253 205.492 307.27 205.567 307.27C205.658 307.27 205.766 307.253 205.858 307.195C208.272 305.717 209.988 303.283 210.591 300.54C210.682 300.211 210.445 299.937 210.171 299.882Z" fill="#212332"/>
<path d="M249.753 273.296C249.699 273.168 249.608 273.076 249.462 273.042C249.408 273.005 249.333 272.988 249.262 272.988C246.628 272.876 243.96 272.805 241.33 272.768C241.184 272.768 241.039 272.822 240.947 272.913C240.856 273.022 240.781 273.151 240.781 273.296C240.781 273.351 240.781 273.425 240.802 273.48C241.001 274.266 241.276 275.161 242.19 275.548C242.718 275.765 243.324 275.856 243.943 275.877C244.292 275.893 244.658 275.893 244.986 275.893C245.186 275.893 245.369 275.893 245.552 275.893C245.68 275.893 245.809 275.893 245.934 275.893C246.794 275.91 247.762 275.948 248.511 275.473C249.025 275.181 250.065 274.066 249.753 273.296ZM248.456 274.029C248.419 274.083 248.385 274.158 248.328 274.212C248.111 274.524 247.817 274.687 247.451 274.761C246.886 274.887 246.229 274.853 245.606 274.832C245.443 274.832 245.294 274.815 245.149 274.815C244.986 274.815 244.841 274.815 244.675 274.815C244.052 274.815 243.412 274.815 242.867 274.649C242.427 274.524 242.19 274.249 242.044 273.846C244.163 273.883 246.32 273.937 248.456 274.029Z" fill="#323A5C"/>
<path d="M289.499 274.703C289.445 274.577 289.354 274.486 289.208 274.448C289.154 274.411 289.079 274.394 289.008 274.394C286.374 274.282 283.706 274.211 281.076 274.174C280.93 274.174 280.785 274.228 280.693 274.32C280.602 274.431 280.527 274.557 280.527 274.703C280.527 274.76 280.527 274.832 280.544 274.886C280.747 275.672 281.022 276.571 281.936 276.954C282.464 277.174 283.067 277.266 283.69 277.283C284.035 277.3 284.4 277.3 284.729 277.3C284.932 277.3 285.115 277.3 285.298 277.3C285.426 277.3 285.552 277.3 285.68 277.3C286.54 277.32 287.508 277.357 288.257 276.879C288.788 276.588 289.811 275.472 289.499 274.703ZM288.203 275.435C288.165 275.489 288.128 275.564 288.074 275.618C287.854 275.93 287.563 276.093 287.197 276.184C286.632 276.296 285.975 276.276 285.352 276.259C285.186 276.259 285.04 276.242 284.878 276.242C284.712 276.242 284.566 276.242 284.4 276.242C283.781 276.242 283.141 276.242 282.593 276.076C282.152 275.947 281.915 275.672 281.77 275.272C283.927 275.289 286.083 275.364 288.203 275.435Z" fill="#323A5C"/>
<path d="M230.163 268.433C229.889 268.376 229.669 268.542 229.615 268.796C229.452 269.657 229.307 270.186 228.447 270.39C228.409 270.39 228.372 270.407 228.335 270.407C228.775 268.779 228.646 266.86 228.447 265.158C228.426 264.975 228.335 264.846 228.172 264.775C228.007 264.701 227.807 264.738 227.661 264.846C227.516 264.958 227.424 265.141 227.458 265.325C227.641 266.932 227.79 268.945 227.258 270.498C226.855 270.481 226.51 270.407 226.216 270.261C226.124 270.224 226.033 270.152 225.941 270.078C225.704 269.912 225.45 269.729 225.139 269.712H225.119C224.719 269.695 224.279 269.912 223.896 270.095C223.768 270.169 223.639 270.224 223.531 270.261C223.365 270.332 223.257 270.461 223.24 270.627C223.219 270.81 223.294 270.993 223.439 271.102C223.585 271.21 223.785 271.247 223.951 271.176C224.025 271.139 224.096 271.102 224.188 271.085C224.574 270.919 224.956 270.756 225.301 270.864C225.413 270.902 225.522 270.973 225.633 271.047C225.759 271.119 225.887 271.21 226.016 271.268C226.365 271.414 226.727 271.468 227.076 271.485C227.424 271.505 227.77 271.468 228.081 271.431C229.598 271.247 230.309 270.573 230.603 269.017C230.674 268.742 230.437 268.488 230.163 268.433Z" fill="#323A5C"/>
<path d="M306.99 262.674C306.33 262.765 305.839 263.294 305.785 263.952C305.748 264.576 305.71 265.196 305.693 265.837C305.693 266.02 305.693 266.22 305.693 266.403C305.693 266.915 305.693 267.427 305.71 267.939C305.727 268.505 305.71 269.129 305.856 269.695C305.91 269.878 305.968 270.078 306.059 270.245C306.076 270.278 306.093 270.316 306.13 270.353C306.513 270.973 307.227 271.323 307.867 271.652C308.981 272.218 310.132 272.747 311.32 273.225C311.703 273.37 312.089 273.533 312.471 273.662C312.637 273.716 312.82 273.791 312.983 273.845C314.537 269.658 316.182 265.525 317.936 261.43C314.3 261.776 310.626 262.196 306.99 262.674Z" fill="#8FB6E3"/>
<path d="M157.289 308.569C157.16 305.423 155.606 302.517 153.89 299.937C150.636 295.109 145.994 291.072 140.547 288.932C137.879 287.888 134.991 287.339 132.123 287.451C131.446 287.468 130.789 287.542 130.112 287.634C129.601 287.705 129.015 287.817 128.504 287.634C128.03 287.468 127.681 287.085 127.336 286.735C126.385 285.766 125.345 284.908 124.191 284.196C119.312 281.179 113.12 280.792 107.618 281.965C101.954 283.189 96.5812 286.098 92.5422 290.265C90.7512 292.112 89.2513 294.197 88.1002 296.466C86.658 299.317 85.7811 302.426 85.561 305.681C85.3782 308.569 85.7235 311.512 86.6207 314.275C87.0405 315.574 87.589 316.852 88.2661 318.059C88.9229 319.228 89.4714 321.168 90.7681 321.513C97.6409 323.361 104.73 324.439 111.271 325.043C124.303 326.25 135.157 325.575 137.662 325.483C143.8 325.226 150.524 323.581 154.255 318.387C155.934 316.065 157.414 311.458 157.289 308.569Z" fill="#3D7064"/>
<path d="M87.4228 296.756C85.6148 300.614 84.7549 304.856 85.1036 309.134C85.432 313.138 86.8777 316.796 88.7939 320.289C89.1054 320.838 89.4711 321.404 90.0195 321.753C90.8219 322.265 91.9392 322.374 92.8533 322.611C95.0438 323.14 97.2546 323.597 99.4688 324.001C103.816 324.787 108.221 325.337 112.625 325.699C119.935 326.303 127.282 326.432 134.608 326.157C140.272 325.94 146.214 325.574 151.039 322.265C154.255 320.051 156.134 316.851 157.16 313.121C157.651 311.328 157.945 309.446 157.708 307.598C157.397 305.296 156.428 303.154 155.24 301.181C154.912 300.614 154.035 301.126 154.363 301.693C155.406 303.428 156.283 305.276 156.628 307.287C156.923 308.989 156.72 310.707 156.3 312.372C155.497 315.59 154.072 318.532 151.475 320.672C147.033 324.33 141.132 324.879 135.614 325.116C121.011 325.757 106.047 325.008 91.8478 321.329C90.7881 321.058 90.2023 320.783 89.6539 319.794C89.251 319.082 88.9395 318.332 88.5569 317.6C87.4803 315.59 86.749 313.433 86.3631 311.182C85.5234 306.483 86.2547 301.601 88.2827 297.305C88.5569 296.682 87.697 296.17 87.4228 296.756Z" fill="#212332"/>
<path d="M125.416 288.783C119.478 292.258 113.739 296.94 111.857 303.85C111.711 304.382 112.534 304.603 112.68 304.07C114.508 297.378 120.118 292.879 125.857 289.516C126.314 289.241 125.89 288.509 125.416 288.783Z" fill="#212332"/>
<path d="M121.835 325.135C120.338 324.86 118.967 324.385 117.688 323.399C116.973 322.85 116.536 322.209 115.971 321.551C115.897 321.422 115.751 321.331 115.605 321.314C112.169 321.077 108.587 320.29 105.807 318.151C103.214 316.157 101.498 312.957 101.897 309.648C101.934 309.393 101.606 309.156 101.369 309.244C96.8728 310.8 91.317 310.088 88.9233 305.515C87.4235 302.664 87.4607 299.555 88.1209 296.5C86.6753 299.355 85.7984 302.464 85.5783 305.718C85.3955 308.607 85.7442 311.55 86.638 314.309C87.0612 315.608 87.6063 316.889 88.2835 318.096C88.9403 319.266 89.4887 321.205 90.7888 321.551C97.6582 323.399 104.748 324.477 111.292 325.08C111.363 325.064 111.421 325.026 111.492 325.009V325.043C114.122 325.226 116.773 325.392 119.404 325.575C120.393 325.647 121.361 325.701 122.346 325.776C122.84 325.813 123.463 326.05 123.917 325.83C123.9 325.484 123.372 325.392 123.098 325.372C122.675 325.281 122.255 325.209 121.835 325.135Z" fill="#212332"/>
<path d="M345.749 245.686C344.726 247.333 342.935 247.496 341.181 247.716C339.644 247.9 338.128 248.228 336.702 248.849C333.926 250.039 331.641 252.249 330.51 255.067C329.43 257.718 329.559 260.827 330.93 263.349C332.372 266.021 335.023 267.391 337.836 268.194C344.763 270.154 351.998 270.079 359.108 270.628C362.873 270.92 366.58 271.54 370.291 272.256C373.162 272.822 376.121 273.68 379.08 273.463C381.931 273.259 384.727 271.781 385.733 268.981C386.738 266.167 385.878 262.837 384.636 260.223C384.362 259.637 383.485 260.149 383.759 260.735C384.839 263.003 385.587 265.855 384.873 268.343C384.053 271.12 381.237 272.401 378.531 272.473C375.738 272.53 372.942 271.723 370.199 271.194C367.003 270.574 363.787 270.042 360.55 269.713C353.898 269.055 347.228 269.164 340.65 267.794C337.891 267.207 334.82 266.495 332.846 264.319C330.872 262.142 330.327 258.925 331.167 256.145C332.189 252.744 335.094 250.259 338.439 249.252C341.252 248.411 344.834 248.995 346.608 246.164C346.974 245.648 346.097 245.136 345.749 245.686Z" fill="#212332"/>
</g>
<defs>
<clipPath id="clip0_5157_8729">
<rect width="423.738" height="392.012" fill="white"/>
</clipPath>
</defs>
</svg>
