<svg width="253" height="72" viewBox="0 0 253 72" fill="none" xmlns="http://www.w3.org/2000/svg">
<g id="Webflow / Black">
<path id="Vector" d="M91.1666 30.5333C91.1666 26.964 87.7057 23.1777 81.7052 23.1777C74.9643 23.1777 67.5705 28.1127 66.4261 37.9739C65.2711 47.9437 71.4781 52.3491 77.7147 52.3491C83.9493 52.3491 87.2315 49.9198 90.5646 46.6633C87.6866 43.0386 83.9748 44.7254 83.2729 45.0786C82.4964 45.4677 81.4775 46.006 79.4078 46.006C76.9915 46.006 74.541 44.9127 74.541 40.4265C89.9882 38.946 91.1666 34.1047 91.1666 30.5333ZM83.5112 31.131C83.4111 32.2307 82.9601 34.1345 75.1431 35.1811C76.7916 29.3272 79.9355 28.8933 81.3882 28.8933C82.7496 28.8933 83.6175 29.9483 83.5112 31.131ZM57.3476 32.0818C57.3476 32.0818 54.025 42.5005 53.7676 43.3748C53.6783 42.5005 51.247 23.7861 51.247 23.7861C45.5888 23.7861 42.5619 27.8064 40.9667 32.0776C40.9667 32.0776 36.9251 42.526 36.5975 43.4003C36.5784 42.5813 35.9764 32.1861 35.9764 32.1861C35.6339 26.9618 30.865 23.7988 27 23.7988L31.6478 52.1512C37.5845 52.132 40.7624 48.1181 42.4386 43.8554C42.4386 43.8554 45.993 34.6365 46.1399 34.2175C46.1759 34.6174 48.6966 52.1512 48.6966 52.1512C54.6377 52.1512 57.8432 48.3926 59.5683 44.283L67.9045 23.7988C62.0337 23.7988 58.9429 27.8085 57.3476 32.0818ZM112.987 23.1394C109.334 23.1394 106.52 25.1241 104.151 28.0573L104.155 28.036L106.261 11C101.398 11 97.4246 15.233 96.6694 21.5122L92.9705 51.93C95.7761 51.93 98.7476 51.1153 100.351 49.0541C101.787 50.8983 103.921 52.3682 107.08 52.3682C115.28 52.3682 120.916 42.8365 120.916 33.8877C120.916 25.7218 116.943 23.1394 112.987 23.1394ZM112.234 37.7528C111.383 42.7557 108.603 46.1293 105.91 46.1293C103.195 46.1293 102.049 44.9296 102.049 44.9296C102.555 40.5563 102.891 37.874 103.88 35.564C104.867 33.2539 107.201 29.5676 109.643 29.5676C112.017 29.5676 113.084 32.7519 112.234 37.7528ZM141.473 23.801H135.732L135.759 23.5011C136.151 19.7531 137.049 17.7855 139.954 17.4834C141.939 17.2793 142.836 16.2476 143.045 15.133C143.209 14.2587 143.764 11.168 143.764 11.168C132.248 11.1021 128.638 16.0732 127.717 23.6287L127.696 23.7988L127.583 23.8031C125.713 23.8031 123.66 25.9196 123.301 28.6082L123.175 29.5973H127.004L123.79 56.2055L122.816 60.9872L123.212 61C128.587 60.7957 132.046 56.5565 132.809 50.3836L135.319 29.5973H137.119C138.88 29.5973 140.95 27.8319 141.333 24.8815L141.473 23.801ZM171.265 23.3076C164.65 23.3076 158.415 28.1765 156.499 35.8362C154.584 43.4939 157.495 52.5362 167.217 52.5362C176.943 52.5362 182.531 43.1109 182.531 35.2853C182.531 27.4553 177.239 23.3076 171.265 23.3076ZM173.947 37.5251C173.605 40.9987 172.074 46.2463 167.888 46.2463C163.684 46.2463 164.281 40.0883 164.688 37.1657C165.125 34.0324 166.885 29.5973 170.631 29.5973C174.015 29.5973 174.334 33.6027 173.947 37.5251ZM215.199 32.0818C215.199 32.0818 211.876 42.5005 211.621 43.3748C211.53 42.5005 209.099 23.7861 209.099 23.7861C203.441 23.7861 200.415 27.8064 198.818 32.0776C198.818 32.0776 194.779 42.526 194.451 43.4003C194.431 42.5813 193.83 32.1861 193.83 32.1861C193.487 26.9618 188.716 23.7988 184.853 23.7988L189.499 52.1512C195.435 52.132 198.616 48.1181 200.292 43.8554C200.292 43.8554 203.846 34.6365 203.992 34.2175C204.029 34.6174 206.548 52.1512 206.548 52.1512C212.489 52.1512 215.694 48.3926 217.419 44.283L225.758 23.7988C219.885 23.7988 216.794 27.8085 215.199 32.0818ZM146.876 11.168L142.056 50.0432L142.043 50.0368L141.064 54.8441L141.458 54.8568C146.648 54.793 150.33 50.239 151.024 44.4956L153.807 22.1822C154.652 15.3861 150.6 11.168 146.876 11.168Z" fill="#444444"/>
</g>
</svg>
