<svg width="50" height="51" viewBox="0 0 50 51" fill="none" xmlns="http://www.w3.org/2000/svg">
<path fill-rule="evenodd" clip-rule="evenodd" d="M24.9974 46.3327C13.4911 46.3327 4.16406 37.0056 4.16406 25.4993C4.16406 13.9931 13.4911 4.66602 24.9974 4.66602C36.5036 4.66602 45.8307 13.9931 45.8307 25.4993C45.8307 37.0056 36.5036 46.3327 24.9974 46.3327ZM24.9974 43.8327C29.8597 43.8327 34.5229 41.9011 37.961 38.463C41.3992 35.0248 43.3307 30.3617 43.3307 25.4993C43.3307 20.637 41.3992 15.9739 37.961 12.5357C34.5229 9.09756 29.8597 7.16602 24.9974 7.16602C20.1351 7.16602 15.4719 9.09756 12.0338 12.5357C8.5956 15.9739 6.66406 20.637 6.66406 25.4993C6.66406 30.3617 8.5956 35.0248 12.0338 38.463C15.4719 41.9011 20.1351 43.8327 24.9974 43.8327ZM22.5557 30.8285L34.6578 18.7285L36.4245 20.4973L24.0286 32.8931C23.638 33.2837 23.1082 33.5031 22.5557 33.5031C22.0033 33.5031 21.4735 33.2837 21.0828 32.8931L14.5807 26.3868L16.3495 24.6181L22.5578 30.8264L22.5557 30.8285Z" fill="#444444"/>
</svg>
