<svg width="20" height="16" viewBox="0 0 20 16" fill="none" xmlns="http://www.w3.org/2000/svg">
<g clip-path="url(#clip0_4779_10868)">
<path d="M0.744791 8.6939H19.3495C19.3953 8.6939 19.4406 8.68933 19.4854 8.68069C19.5302 8.67205 19.574 8.65884 19.6161 8.64156C19.6589 8.62479 19.699 8.60345 19.737 8.57855C19.775 8.55416 19.8104 8.52571 19.8427 8.4942C19.875 8.46219 19.9042 8.42815 19.9297 8.39055C19.9547 8.35345 19.9766 8.31433 19.9937 8.27266C20.0115 8.2315 20.0245 8.18882 20.0339 8.14512C20.0427 8.10091 20.0469 8.0567 20.0469 8.01199C20.0469 7.96727 20.0427 7.92307 20.0339 7.87886C20.0245 7.83516 20.0115 7.79248 19.9937 7.75132C19.9766 7.70965 19.9547 7.67053 19.9297 7.63343C19.9042 7.59583 19.875 7.56179 19.8427 7.52977C19.8104 7.49827 19.775 7.46981 19.737 7.44542C19.699 7.42053 19.6589 7.39918 19.6161 7.38242C19.574 7.36514 19.5302 7.35193 19.4854 7.34329C19.4406 7.33465 19.3953 7.33008 19.3495 7.33008H0.744791C0.698957 7.33008 0.653645 7.33465 0.608852 7.34329C0.563541 7.35193 0.519791 7.36514 0.477604 7.38242C0.435415 7.39918 0.395311 7.42053 0.35729 7.44542C0.319269 7.46981 0.283854 7.49827 0.251562 7.52977C0.21875 7.56179 0.190104 7.59583 0.164583 7.63343C0.139061 7.67053 0.117706 7.70965 0.0999985 7.75132C0.0828114 7.79248 0.0692692 7.83516 0.0604153 7.87886C0.0515614 7.92307 0.0468731 7.96727 0.0468731 8.01199C0.0468731 8.0567 0.0515614 8.10091 0.0604153 8.14512C0.0692692 8.18882 0.0828114 8.2315 0.0999985 8.27266C0.117706 8.31433 0.139061 8.35345 0.164583 8.39055C0.190104 8.42815 0.21875 8.46219 0.251562 8.4942C0.283854 8.52571 0.319269 8.55416 0.35729 8.57855C0.395311 8.60345 0.435415 8.62479 0.477604 8.64156C0.519791 8.65884 0.563541 8.67205 0.608852 8.68069C0.653645 8.68933 0.698957 8.6939 0.744791 8.6939Z" fill="#EFEFEF"/>
<path d="M11.9073 15.9664C12 15.9664 12.0891 15.9491 12.1745 15.9146C12.2599 15.88 12.3354 15.8307 12.4005 15.7662L19.8422 8.49485C19.875 8.46335 19.9036 8.42879 19.9292 8.3917C19.9547 8.35461 19.976 8.31497 19.9937 8.27381C20.0115 8.23265 20.0245 8.18997 20.0333 8.14627C20.0422 8.10207 20.0469 8.05786 20.0469 8.01314C20.0469 7.96843 20.0422 7.92422 20.0333 7.88001C20.0245 7.83631 20.0115 7.79363 19.9937 7.75247C19.976 7.71131 19.9547 7.67168 19.9292 7.63459C19.9036 7.59749 19.875 7.56294 19.8422 7.53144L12.4005 0.260094C12.3687 0.226557 12.3333 0.196577 12.2953 0.169647C12.2573 0.143224 12.2167 0.120866 12.174 0.102065C12.1312 0.0832644 12.087 0.0690369 12.0411 0.0593824C11.9953 0.0492198 11.9495 0.0441384 11.9026 0.0431222C11.8557 0.0421059 11.8094 0.046171 11.763 0.0543011C11.7172 0.0629393 11.6724 0.0756426 11.6286 0.0924109C11.5854 0.109687 11.5443 0.131029 11.5052 0.156435C11.4661 0.181334 11.4297 0.210297 11.3969 0.242817C11.3635 0.27483 11.3344 0.310399 11.3083 0.348508C11.2823 0.386618 11.2609 0.426761 11.2432 0.469443C11.2255 0.511618 11.2125 0.555317 11.2042 0.600541C11.1953 0.645764 11.1917 0.690988 11.1927 0.73672C11.1932 0.782451 11.199 0.827675 11.2089 0.87239C11.2193 0.917106 11.2339 0.960297 11.2526 1.00196C11.2719 1.04414 11.2948 1.08326 11.3224 1.12087C11.3495 1.15796 11.3802 1.192 11.4146 1.22351L18.3625 8.01314L11.4146 14.8028C11.3656 14.8505 11.325 14.9039 11.2927 14.9633C11.2604 15.0228 11.2375 15.0858 11.224 15.1519C11.2104 15.2179 11.2073 15.2845 11.2141 15.3516C11.2203 15.4186 11.237 15.4832 11.2635 15.5452C11.2901 15.6077 11.325 15.6646 11.3687 15.7169C11.4125 15.7687 11.463 15.814 11.5203 15.851C11.5776 15.8887 11.6391 15.9171 11.7052 15.9369C11.7708 15.9562 11.8385 15.9664 11.9073 15.9664Z" fill="#EFEFEF"/>
</g>
<defs>
<clipPath id="clip0_4779_10868">
<rect width="20" height="16" fill="white" transform="matrix(-1 0 0 1 20 0)"/>
</clipPath>
</defs>
</svg>
