<svg width="30" height="30" viewBox="0 0 30 30" fill="none" xmlns="http://www.w3.org/2000/svg">
<path d="M24.9988 11.25C24.9875 7.3575 24.865 5.29375 23.5363 3.965C22.07 2.5 19.7125 2.5 14.9987 2.5H12.4987C7.78625 2.5 5.42875 2.5 3.965 3.965C2.50125 5.43 2.5 7.78625 2.5 12.5V17.5C2.5 22.2137 2.5 24.5712 3.965 26.035C5.43 27.4987 7.78625 27.5 12.5 27.5H15C15.92 27.5 16.75 27.5 17.5 27.4887M8.75 8.75H18.75M8.75 15H17.5M8.75 21.25H15" stroke="#444444" stroke-width="1.5" stroke-linecap="round" stroke-linejoin="round"/>
<path d="M23.7626 23.75V27.5M20.0188 21.875C20.1976 22.8925 21.4938 23.32 23.0138 23.615C23.1526 23.6425 24.3013 23.5838 24.4388 23.56C25.5488 23.3675 27.5801 22.99 27.5063 21.875C27.4188 20.5625 26.4463 20.1213 25.5626 19.3263C25.2001 19.0013 25.1501 18.4713 25.3676 18.035L25.8701 17.0263C26.1038 16.56 26.0351 15.9813 25.6363 15.6463C25.0463 15.1525 24.5438 14.9988 23.7613 15C22.8726 15.0875 22.3526 15.2675 21.8676 15.6588C21.4701 15.9788 21.4163 16.5488 21.6438 17.005L22.1263 17.9725C22.3601 18.44 22.2801 19.0063 21.8888 19.3525C20.8738 20.2475 19.8476 20.8975 20.0188 21.875Z" stroke="#444444" stroke-width="1.5" stroke-linecap="round" stroke-linejoin="round"/>
</svg>
