<svg width="30" height="31" viewBox="0 0 30 31" fill="none" xmlns="http://www.w3.org/2000/svg">
<path d="M11.25 14.25C12.6307 14.25 13.75 13.1307 13.75 11.75C13.75 10.3693 12.6307 9.25 11.25 9.25C9.86929 9.25 8.75 10.3693 8.75 11.75C8.75 13.1307 9.86929 14.25 11.25 14.25Z" stroke="#444444" stroke-width="1.5"/>
<path d="M16.25 19.25C16.25 20.6313 16.25 21.75 11.25 21.75C6.25 21.75 6.25 20.6313 6.25 19.25C6.25 17.8687 8.4875 16.75 11.25 16.75C14.0125 16.75 16.25 17.8687 16.25 19.25Z" stroke="#444444" stroke-width="1.5"/>
<path opacity="0.5" d="M2.5 15.5C2.5 10.7863 2.5 8.42875 3.965 6.965C5.43 5.50125 7.78625 5.5 12.5 5.5H17.5C22.2137 5.5 24.5712 5.5 26.035 6.965C27.4987 8.43 27.5 10.7863 27.5 15.5C27.5 20.2137 27.5 22.5712 26.035 24.035C24.57 25.4987 22.2137 25.5 17.5 25.5H12.5C7.78625 25.5 5.42875 25.5 3.965 24.035C2.50125 22.57 2.5 20.2137 2.5 15.5Z" stroke="#444444" stroke-width="1.5"/>
<path d="M23.75 15.5H18.75M23.75 11.75H17.5" stroke="#444444" stroke-width="1.5" stroke-linecap="round"/>
<path opacity="0.9" d="M23.75 19.25H20" stroke="#444444" stroke-width="1.5" stroke-linecap="round"/>
</svg>
