<svg width="22" height="28" viewBox="0 0 22 28" fill="none" xmlns="http://www.w3.org/2000/svg">
<path d="M1 6.5V22.75C1 23.7446 1.39509 24.6984 2.09835 25.4017C2.80161 26.1049 3.75544 26.5 4.75 26.5H17.25C18.2446 26.5 19.1984 26.1049 19.9017 25.4017C20.6049 24.6984 21 23.7446 21 22.75V10.25C21 9.25544 20.6049 8.30161 19.9017 7.59835C19.1984 6.89509 18.2446 6.5 17.25 6.5H1ZM1 6.5V5.25" stroke="#6982B5" stroke-width="1.5"/>
<path opacity="0.5" d="M11 19C13.0711 19 14.75 17.3211 14.75 15.25C14.75 13.1789 13.0711 11.5 11 11.5C8.92893 11.5 7.25 13.1789 7.25 15.25C7.25 17.3211 8.92893 19 11 19Z" stroke="#6982B5" stroke-width="1.5"/>
<path d="M18.5 6.49988V7.43738H19.4375V6.49988H18.5ZM2.3375 7.43738H18.5V5.56238H2.33875L2.3375 7.43738ZM19.4375 6.49988V4.38238H17.5625V6.49988H19.4375ZM15.5138 0.979878L2.0175 2.90738L2.2825 4.76363L15.7787 2.83738L15.5138 0.979878ZM2.0175 2.90738C1.47457 2.98451 0.977779 3.25516 0.618559 3.6695C0.259339 4.08385 0.0618705 4.614 0.0625015 5.16238H1.9375C1.93719 5.0656 1.97197 4.97198 2.03541 4.89889C2.09885 4.8258 2.18664 4.77693 2.2825 4.76363L2.0175 2.90738ZM19.4375 4.38238C19.4374 3.88991 19.3316 3.4032 19.127 2.95521C18.9225 2.50721 18.6241 2.1084 18.252 1.78576C17.88 1.46312 17.4429 1.22419 16.9705 1.08516C16.4981 0.946119 16.0013 0.910215 15.5138 0.979878L15.7787 2.83738C16.0003 2.80568 16.2262 2.82072 16.4409 2.88388C16.6556 2.94704 16.8543 3.05561 17.0235 3.20223C17.1926 3.34885 17.3283 3.5301 17.4213 3.73371C17.5143 3.93732 17.5624 4.15853 17.5625 4.38238H19.4375ZM2.33875 5.56238C2.28601 5.56254 2.23376 5.55228 2.185 5.53217C2.13625 5.51206 2.09195 5.48251 2.05466 5.44522C2.01736 5.40793 1.98781 5.36363 1.96771 5.31487C1.9476 5.26612 1.93734 5.21512 1.9375 5.16238H0.0625015C0.0623372 5.46134 0.121102 5.75616 0.235436 6.0324C0.34977 6.30865 0.517431 6.55964 0.728833 6.77105C0.940235 6.98245 1.19123 7.15011 1.46747 7.26444C1.74372 7.37878 2.03853 7.43754 2.3375 7.43738L2.33875 5.56238Z" fill="#6982B5"/>
<path opacity="0.5" d="M8.5 22.75H13.5" stroke="#6982B5" stroke-width="1.5" stroke-linecap="round"/>
</svg>
