<svg width="56" height="57" viewBox="0 0 56 57" fill="none" xmlns="http://www.w3.org/2000/svg">
<path d="M50.5 21H5L27.75 7L50.5 21Z" fill="#EFEFEF"/>
<path d="M5.25 22.3743H11.375V38.1243H7C6.76794 38.1243 6.54538 38.2165 6.38128 38.3806C6.21719 38.5446 6.125 38.7672 6.125 38.9993C6.125 39.2313 6.21719 39.4539 6.38128 39.618C6.54538 39.7821 6.76794 39.8743 7 39.8743H49C49.2321 39.8743 49.4546 39.7821 49.6187 39.618C49.7828 39.4539 49.875 39.2313 49.875 38.9993C49.875 38.7672 49.7828 38.5446 49.6187 38.3806C49.4546 38.2165 49.2321 38.1243 49 38.1243H44.625V22.3743H50.75C50.9408 22.3747 51.1265 22.3128 51.2789 22.1979C51.4312 22.083 51.5418 21.9214 51.5938 21.7379C51.6459 21.5543 51.6365 21.3587 51.567 21.181C51.4976 21.0032 51.372 20.8531 51.2094 20.7533L28.4594 6.75333C28.3213 6.66816 28.1622 6.62305 28 6.62305C27.8378 6.62305 27.6787 6.66816 27.5406 6.75333L4.79062 20.7533C4.62796 20.8531 4.50236 21.0032 4.43295 21.181C4.36354 21.3587 4.35414 21.5543 4.40616 21.7379C4.45819 21.9214 4.5688 22.083 4.72113 22.1979C4.87347 22.3128 5.05919 22.3747 5.25 22.3743ZM13.125 22.3743H21.875V38.1243H13.125V22.3743ZM32.375 22.3743V38.1243H23.625V22.3743H32.375ZM42.875 38.1243H34.125V22.3743H42.875V38.1243ZM28 8.5274L47.6591 20.6243H8.34094L28 8.5274ZM53.375 45.9993C53.375 46.2313 53.2828 46.4539 53.1187 46.618C52.9546 46.7821 52.7321 46.8743 52.5 46.8743H3.5C3.26794 46.8743 3.04538 46.7821 2.88128 46.618C2.71719 46.4539 2.625 46.2313 2.625 45.9993C2.625 45.7672 2.71719 45.5446 2.88128 45.3806C3.04538 45.2165 3.26794 45.1243 3.5 45.1243H52.5C52.7321 45.1243 52.9546 45.2165 53.1187 45.3806C53.2828 45.5446 53.375 45.7672 53.375 45.9993Z" fill="#444444"/>
</svg>
