<svg width="56" height="57" viewBox="0 0 56 57" fill="none" xmlns="http://www.w3.org/2000/svg">
<g clip-path="url(#clip0_2018_7053)">
<path d="M26.6279 29.9014C27.9738 29.8457 29.8946 29.7716 31.4795 30.1367C32.2681 30.3184 32.9016 30.5937 33.3311 30.9736C33.6842 31.2861 33.9268 31.6915 33.9902 32.2637L34.0068 32.5195V32.5205C34.019 33.194 33.7753 33.6669 33.3652 34.0381C32.9283 34.4334 32.2742 34.7345 31.4639 34.9482C29.8886 35.3636 27.9908 35.3853 26.6797 35.3906L26.585 29.9014C26.5989 29.9007 26.6129 29.901 26.627 29.9004L26.6279 29.9014ZM26.4189 20.3887C27.5406 20.3395 29.0717 20.2864 30.334 20.6045C30.9734 20.7657 31.4766 21.0073 31.8154 21.334C32.0937 21.6024 32.2955 21.9607 32.3496 22.4805L32.3633 22.7139C32.3735 23.3283 32.1698 23.745 31.8486 24.0615C31.5045 24.4005 30.9847 24.662 30.3262 24.8496C29.0846 25.2033 27.5903 25.2303 26.502 25.2334L26.4189 20.3887Z" fill="#EFEFEF" stroke="#444444" stroke-width="1.5"/>
<mask id="path-2-inside-1_2018_7053" fill="white">
<path fill-rule="evenodd" clip-rule="evenodd" d="M21.2221 55.6631C36.2254 59.4035 51.4201 50.2731 55.1604 35.2745C58.9008 20.2735 49.7681 5.0788 34.7648 1.3408C19.7708 -2.40187 4.57611 6.7308 0.838106 21.7341C-2.90223 36.7328 6.22811 51.9275 21.2244 55.6655M31.2158 15.9521C35.3084 16.2415 38.5658 17.4408 38.9928 21.1835C39.3101 23.9228 38.1901 25.5911 36.3724 26.5571C39.4058 27.2291 41.3308 28.9908 41.0274 33.0228C40.6518 38.0278 36.9488 39.4348 31.6334 39.8338L31.7221 45.0838L28.5581 45.1398L28.4671 39.9598C27.6489 39.9754 26.8058 39.9816 25.9378 39.9785L26.0311 45.1818L22.8671 45.2378L22.7738 39.9785L21.8801 39.9855C21.4259 39.9855 20.9701 39.9901 20.5128 39.9995L16.3921 40.0695L16.9544 36.2801C16.9544 36.2801 19.2971 36.2755 19.2551 36.2405C20.1511 36.2218 20.3774 35.5755 20.4264 35.1695L20.2818 26.8675L20.5081 26.8628H20.6154C20.504 26.8493 20.3917 26.8438 20.2794 26.8465L20.1768 20.9198C20.0438 20.2805 19.6144 19.5431 18.3334 19.5665C18.3684 19.5198 16.0328 19.6061 16.0328 19.6061L15.9721 16.2275L20.3401 16.1528V16.1691C20.9981 16.1567 21.6693 16.1365 22.3538 16.1085L22.2651 10.9075L25.4291 10.8538L25.5178 15.9498C26.3624 15.9195 27.2118 15.8868 28.0448 15.8728L27.9561 10.8095L31.1224 10.7535L31.2158 15.9521Z"/>
</mask>
<path fill-rule="evenodd" clip-rule="evenodd" d="M21.2221 55.6631C36.2254 59.4035 51.4201 50.2731 55.1604 35.2745C58.9008 20.2735 49.7681 5.0788 34.7648 1.3408C19.7708 -2.40187 4.57611 6.7308 0.838106 21.7341C-2.90223 36.7328 6.22811 51.9275 21.2244 55.6655M31.2158 15.9521C35.3084 16.2415 38.5658 17.4408 38.9928 21.1835C39.3101 23.9228 38.1901 25.5911 36.3724 26.5571C39.4058 27.2291 41.3308 28.9908 41.0274 33.0228C40.6518 38.0278 36.9488 39.4348 31.6334 39.8338L31.7221 45.0838L28.5581 45.1398L28.4671 39.9598C27.6489 39.9754 26.8058 39.9816 25.9378 39.9785L26.0311 45.1818L22.8671 45.2378L22.7738 39.9785L21.8801 39.9855C21.4259 39.9855 20.9701 39.9901 20.5128 39.9995L16.3921 40.0695L16.9544 36.2801C16.9544 36.2801 19.2971 36.2755 19.2551 36.2405C20.1511 36.2218 20.3774 35.5755 20.4264 35.1695L20.2818 26.8675L20.5081 26.8628H20.6154C20.504 26.8493 20.3917 26.8438 20.2794 26.8465L20.1768 20.9198C20.0438 20.2805 19.6144 19.5431 18.3334 19.5665C18.3684 19.5198 16.0328 19.6061 16.0328 19.6061L15.9721 16.2275L20.3401 16.1528V16.1691C20.9981 16.1567 21.6693 16.1365 22.3538 16.1085L22.2651 10.9075L25.4291 10.8538L25.5178 15.9498C26.3624 15.9195 27.2118 15.8868 28.0448 15.8728L27.9561 10.8095L31.1224 10.7535L31.2158 15.9521Z" fill="#EFEFEF"/>
<path d="M55.1604 35.2745L56.6159 35.6374L56.6159 35.6374L55.1604 35.2745ZM34.7648 1.3408L34.4015 2.79615L34.4021 2.7963L34.7648 1.3408ZM0.838106 21.7341L2.29353 22.0971L2.29361 22.0968L0.838106 21.7341ZM31.2158 15.9521L29.716 15.9791L29.7407 17.3516L31.11 17.4484L31.2158 15.9521ZM38.9928 21.1835L37.5024 21.3535L37.5027 21.3561L38.9928 21.1835ZM36.3724 26.5571L35.6685 25.2326L32.0762 27.1417L36.048 28.0216L36.3724 26.5571ZM41.0274 33.0228L39.5317 32.9103L39.5316 32.9105L41.0274 33.0228ZM31.6334 39.8338L31.5212 38.338L30.1098 38.444L30.1337 39.8591L31.6334 39.8338ZM31.7221 45.0838L31.7486 46.5836L33.2472 46.557L33.2219 45.0585L31.7221 45.0838ZM28.5581 45.1398L27.0583 45.1661L27.0847 46.6661L28.5847 46.6396L28.5581 45.1398ZM28.4671 39.9598L29.9669 39.9334L29.9405 38.4315L28.4386 38.4601L28.4671 39.9598ZM25.9378 39.9785L25.9431 38.4785L24.4105 38.473L24.438 40.0054L25.9378 39.9785ZM26.0311 45.1818L26.0576 46.6816L27.5578 46.655L27.5309 45.1549L26.0311 45.1818ZM22.8671 45.2378L21.3673 45.2644L21.394 46.7641L22.8937 46.7376L22.8671 45.2378ZM22.7738 39.9785L24.2735 39.9519L24.2472 38.4669L22.762 38.4785L22.7738 39.9785ZM21.8801 39.9855V41.4855L21.8919 41.4854L21.8801 39.9855ZM20.5128 39.9995L20.5382 41.4993L20.5434 41.4992L20.5128 39.9995ZM16.3921 40.0695L14.9084 39.8493L14.6487 41.5993L16.4176 41.5692L16.3921 40.0695ZM16.9544 36.2801L16.9515 34.7801L15.6602 34.7827L15.4707 36.0599L16.9544 36.2801ZM19.2551 36.2405L19.2239 34.7408L15.2127 34.8244L18.2948 37.3928L19.2551 36.2405ZM20.4264 35.1695L21.9156 35.3492L21.928 35.2466L21.9262 35.1433L20.4264 35.1695ZM20.2818 26.8675L20.2509 25.3678L18.7559 25.3986L18.782 26.8936L20.2818 26.8675ZM20.5081 26.8628V25.3628H20.4926L20.4772 25.3631L20.5081 26.8628ZM20.6154 26.8628V28.3628L20.7961 25.3737L20.6154 26.8628ZM20.2794 26.8465L18.7797 26.8724L18.8058 28.3816L20.3148 28.346L20.2794 26.8465ZM20.1768 20.9198L21.6765 20.8938L21.6741 20.7526L21.6453 20.6143L20.1768 20.9198ZM18.3334 19.5665L17.1334 18.6665L15.2917 21.1221L18.3608 21.0662L18.3334 19.5665ZM16.0328 19.6061L14.533 19.6331L14.5605 21.1616L16.0882 21.1051L16.0328 19.6061ZM15.9721 16.2275L15.9465 14.7277L14.4454 14.7533L14.4723 16.2544L15.9721 16.2275ZM20.3401 16.1528H21.8401V14.6269L20.3145 14.653L20.3401 16.1528ZM20.3401 16.1691H18.8401V17.6978L20.3685 17.6689L20.3401 16.1691ZM22.3538 16.1085L22.4151 17.6072L23.8785 17.5473L23.8536 16.0829L22.3538 16.1085ZM22.2651 10.9075L22.2397 9.40768L20.7398 9.43312L20.7653 10.933L22.2651 10.9075ZM25.4291 10.8538L26.9289 10.8277L26.9028 9.32859L25.4037 9.35401L25.4291 10.8538ZM25.5178 15.9498L24.018 15.9759L24.0446 17.5037L25.5716 17.4488L25.5178 15.9498ZM28.0448 15.8728L28.07 17.3726L29.5708 17.3474L29.5445 15.8465L28.0448 15.8728ZM27.9561 10.8095L27.9296 9.3097L26.4301 9.33622L26.4563 10.8357L27.9561 10.8095ZM31.1224 10.7535L32.6222 10.7265L32.5953 9.22718L31.0959 9.2537L31.1224 10.7535ZM20.8593 57.1186C36.6663 61.0593 52.6751 51.4399 56.6159 35.6374L53.705 34.9115C50.1651 49.1063 35.7846 57.7477 21.5849 54.2077L20.8593 57.1186ZM56.6159 35.6374C60.5567 19.8323 50.9345 3.82356 35.1274 -0.114707L34.4021 2.7963C48.6017 6.33404 57.2449 20.7146 53.705 34.9116L56.6159 35.6374ZM35.128 -0.114548C19.3294 -4.05805 3.32079 5.56464 -0.6174 21.3715L2.29361 22.0968C5.83142 7.89696 20.2121 -0.745686 34.4015 2.79615L35.128 -0.114548ZM-0.61732 21.3712C-4.5581 37.1736 5.06135 53.1825 20.8616 57.1209L21.5872 54.21C7.39486 50.6724 -1.24635 36.292 2.29353 22.0971L-0.61732 21.3712ZM31.11 17.4484C33.0792 17.5876 34.6419 17.9384 35.7236 18.5688C36.7139 19.1459 37.3452 19.9749 37.5024 21.3535L40.4831 21.0134C40.2134 18.6494 39.0025 17.0074 37.2342 15.9768C35.5573 14.9996 33.445 14.606 31.3216 14.4559L31.11 17.4484ZM37.5027 21.3561C37.6335 22.4853 37.4568 23.27 37.1585 23.8317C36.8592 24.3951 36.3711 24.8592 35.6685 25.2326L37.0764 27.8817C38.1915 27.2891 39.1721 26.436 39.808 25.2389C40.4447 24.0401 40.6693 22.621 40.4828 21.0109L37.5027 21.3561ZM36.048 28.0216C37.378 28.3163 38.2495 28.8039 38.7798 29.4668C39.2963 30.1127 39.6644 31.1456 39.5317 32.9103L42.5232 33.1353C42.6938 30.868 42.2511 29.004 41.1226 27.5931C40.0079 26.1992 38.4002 25.47 36.6969 25.0926L36.048 28.0216ZM39.5316 32.9105C39.3757 34.9877 38.5786 36.1364 37.3856 36.885C36.0723 37.709 34.1271 38.1424 31.5212 38.338L31.7457 41.3296C34.4551 41.1262 37.019 40.6566 38.9801 39.4261C41.0613 38.1202 42.3035 36.0629 42.5232 33.1351L39.5316 32.9105ZM30.1337 39.8591L30.2223 45.1091L33.2219 45.0585L33.1332 39.8085L30.1337 39.8591ZM31.6956 43.584L28.5316 43.64L28.5847 46.6396L31.7486 46.5836L31.6956 43.584ZM30.0579 45.1135L29.9669 39.9334L26.9673 39.9861L27.0583 45.1661L30.0579 45.1135ZM28.4386 38.4601C27.6323 38.4754 26.8005 38.4815 25.9431 38.4785L25.9324 41.4785C26.811 41.4816 27.6654 41.4753 28.4956 41.4595L28.4386 38.4601ZM24.438 40.0054L24.5313 45.2087L27.5309 45.1549L27.4375 39.9516L24.438 40.0054ZM26.0046 43.682L22.8406 43.738L22.8937 46.7376L26.0576 46.6816L26.0046 43.682ZM24.3669 45.2112L24.2735 39.9519L21.274 40.0051L21.3673 45.2644L24.3669 45.2112ZM22.762 38.4785L21.8684 38.4855L21.8919 41.4854L22.7855 41.4784L22.762 38.4785ZM21.8801 38.4855C21.4156 38.4855 20.9496 38.4902 20.4822 38.4998L20.5434 41.4992C20.9906 41.49 21.4362 41.4855 21.8801 41.4855V38.4855ZM20.4873 38.4997L16.3666 38.5697L16.4176 41.5692L20.5382 41.4992L20.4873 38.4997ZM17.8759 40.2897L18.4382 36.5003L15.4707 36.0599L14.9084 39.8493L17.8759 40.2897ZM16.9544 36.2801C16.9574 37.7801 16.9574 37.7801 16.9575 37.7801C16.9575 37.7801 16.9575 37.7801 16.9576 37.7801C16.9577 37.7801 16.9578 37.7801 16.9579 37.7801C16.9583 37.7801 16.9587 37.7801 16.9593 37.7801C16.9605 37.7801 16.9622 37.7801 16.9645 37.7801C16.9691 37.7801 16.9758 37.7801 16.9845 37.7801C17.0019 37.78 17.0273 37.78 17.0596 37.7799C17.1242 37.7797 17.2163 37.7793 17.3266 37.7788C17.5469 37.7778 17.8412 37.7762 18.1348 37.7734C18.4266 37.7706 18.7251 37.7666 18.9509 37.761C19.0607 37.7582 19.1692 37.7547 19.255 37.7497C19.29 37.7477 19.3593 37.7434 19.4321 37.7338C19.4442 37.7322 19.569 37.7177 19.7138 37.6709C19.7578 37.6566 19.8346 37.6297 19.925 37.5845C19.9982 37.5479 20.1817 37.4505 20.3587 37.2582C20.5547 37.0454 20.8255 36.6121 20.74 36.0251C20.6639 35.5023 20.3487 35.1993 20.2154 35.0881L18.2948 37.3928C18.1621 37.2822 17.8474 36.9797 17.7713 36.4574C17.6859 35.871 17.9565 35.4382 18.152 35.2259C18.3285 35.0342 18.5112 34.9373 18.5834 34.9012C18.6727 34.8566 18.7482 34.8302 18.7906 34.8165C18.8752 34.7891 18.9429 34.7759 18.9684 34.7711C19.001 34.7649 19.0265 34.7613 19.0402 34.7595C19.0833 34.7539 19.1067 34.7533 19.0816 34.7547C19.0473 34.7567 18.9797 34.7593 18.8757 34.7619C18.6742 34.767 18.3949 34.7707 18.1062 34.7735C17.8194 34.7762 17.5307 34.7779 17.3131 34.7789C17.2044 34.7794 17.1138 34.7797 17.0504 34.7799C17.0187 34.78 16.9939 34.78 16.977 34.7801C16.9686 34.7801 16.9621 34.7801 16.9578 34.7801C16.9557 34.7801 16.954 34.7801 16.953 34.7801C16.9524 34.7801 16.952 34.7801 16.9518 34.7801C16.9517 34.7801 16.9516 34.7801 16.9515 34.7801C16.9515 34.7801 16.9515 34.7801 16.9515 34.7801C16.9515 34.7801 16.9515 34.7801 16.9544 36.2801ZM19.2864 37.7401C20.1414 37.7223 20.8488 37.3782 21.3218 36.7971C21.7448 36.2774 21.8733 35.6997 21.9156 35.3492L18.9372 34.9897C18.9354 35.0054 18.9331 35.0095 18.936 35.0012C18.9392 34.9924 18.9541 34.9536 18.995 34.9034C19.0403 34.8478 19.1023 34.7972 19.1711 34.7648C19.2375 34.7337 19.2664 34.7399 19.2239 34.7408L19.2864 37.7401ZM21.9262 35.1433L21.7815 26.8413L18.782 26.8936L18.9267 35.1956L21.9262 35.1433ZM20.3127 28.3671L20.539 28.3625L20.4772 25.3631L20.2509 25.3678L20.3127 28.3671ZM20.5081 28.3628H20.6154V25.3628H20.5081V28.3628ZM20.7961 25.3737C20.613 25.3515 20.4285 25.3425 20.2441 25.3469L20.3148 28.346C20.3549 28.3451 20.395 28.3471 20.4348 28.3519L20.7961 25.3737ZM21.7792 26.8205L21.6765 20.8938L18.677 20.9458L18.7797 26.8724L21.7792 26.8205ZM21.6453 20.6143C21.5402 20.1087 21.2928 19.4349 20.7011 18.8907C20.0813 18.3205 19.2553 18.0494 18.3061 18.0667L18.3608 21.0662C18.536 21.063 18.6264 21.0868 18.6592 21.098C18.6876 21.1076 18.6838 21.1112 18.6701 21.0986C18.6466 21.077 18.6804 21.0916 18.7082 21.2253L21.6453 20.6143ZM19.5334 20.4665C19.6784 20.2732 19.8498 19.9422 19.8327 19.5064C19.8155 19.069 19.6172 18.7504 19.4532 18.5664C19.1848 18.2652 18.8705 18.1627 18.832 18.149C18.6652 18.0897 18.5213 18.0736 18.5026 18.0712C18.4151 18.0601 18.334 18.057 18.2968 18.0557C18.2033 18.0524 18.0889 18.0522 17.978 18.053C17.7483 18.0547 17.4473 18.0614 17.1555 18.0694C16.8613 18.0773 16.5669 18.0868 16.3466 18.0942C16.2364 18.0979 16.1443 18.1012 16.0797 18.1035C16.0474 18.1046 16.022 18.1055 16.0046 18.1062C15.9958 18.1065 15.9891 18.1067 15.9845 18.1069C15.9822 18.107 15.9805 18.107 15.9793 18.1071C15.9787 18.1071 15.9782 18.1071 15.9779 18.1071C15.9777 18.1071 15.9776 18.1071 15.9775 18.1071C15.9775 18.1071 15.9774 18.1072 15.9774 18.1072C15.9774 18.1072 15.9774 18.1072 16.0328 19.6061C16.0882 21.1051 16.0882 21.1051 16.0882 21.1051C16.0882 21.1051 16.0882 21.1051 16.0882 21.1051C16.0883 21.1051 16.0884 21.1051 16.0885 21.1051C16.0887 21.1051 16.0891 21.1051 16.0896 21.1051C16.0907 21.105 16.0923 21.105 16.0944 21.1049C16.0987 21.1047 16.1051 21.1045 16.1134 21.1042C16.1302 21.1036 16.1549 21.1027 16.1864 21.1016C16.2494 21.0993 16.3396 21.0962 16.4477 21.0925C16.6643 21.0852 16.9517 21.076 17.237 21.0682C17.5247 21.0604 17.8011 21.0544 17.9995 21.0529C18.1026 21.0522 18.1649 21.0529 18.1925 21.0539C18.2157 21.0547 18.1813 21.0545 18.1241 21.0472C18.1206 21.0468 17.9879 21.0328 17.8278 20.9759C17.7787 20.9585 17.6996 20.9276 17.6077 20.8769C17.5246 20.8311 17.3669 20.7345 17.2136 20.5624C17.0501 20.379 16.8522 20.0611 16.835 19.6243C16.8179 19.1892 16.989 18.859 17.1334 18.6665L19.5334 20.4665ZM17.5325 19.5792L17.4719 16.2005L14.4723 16.2544L14.533 19.6331L17.5325 19.5792ZM15.9977 17.7272L20.3657 17.6526L20.3145 14.653L15.9465 14.7277L15.9977 17.7272ZM18.8401 16.1528V16.1691H21.8401V16.1528H18.8401ZM20.3685 17.6689C21.0379 17.6562 21.7201 17.6356 22.4151 17.6072L22.2925 14.6097C21.6186 14.6373 20.9583 14.6572 20.3117 14.6694L20.3685 17.6689ZM23.8536 16.0829L23.7649 10.8819L20.7653 10.933L20.854 16.134L23.8536 16.0829ZM22.2905 12.4073L25.4545 12.3536L25.4037 9.35401L22.2397 9.40768L22.2905 12.4073ZM23.9293 10.8799L24.018 15.9759L27.0175 15.9237L26.9289 10.8277L23.9293 10.8799ZM25.5716 17.4488C26.4229 17.4183 27.2548 17.3863 28.07 17.3726L28.0196 14.373C27.1687 14.3873 26.302 14.4207 25.4639 14.4508L25.5716 17.4488ZM29.5445 15.8465L29.4559 10.7832L26.4563 10.8357L26.545 15.8991L29.5445 15.8465ZM27.9826 12.3092L31.149 12.2532L31.0959 9.2537L27.9296 9.3097L27.9826 12.3092ZM29.6227 10.7804L29.716 15.9791L32.7155 15.9252L32.6222 10.7265L29.6227 10.7804Z" fill="#444444" mask="url(#path-2-inside-1_2018_7053)"/>
</g>
<defs>
<clipPath id="clip0_2018_7053">
<rect width="56" height="56" fill="white" transform="translate(0 0.5)"/>
</clipPath>
</defs>
</svg>
