<svg width="56" height="57" viewBox="0 0 56 57" fill="none" xmlns="http://www.w3.org/2000/svg">
<path d="M43.1719 36.25C43.2767 36.2495 43.3482 36.2711 43.4082 36.3135L43.4648 36.3623C43.5434 36.442 43.583 36.5279 43.583 36.667V43.25H50.166C50.2731 43.25 50.3462 43.2726 50.4072 43.3154L50.4648 43.3643C50.5412 43.4411 50.5823 43.5275 50.583 43.6729C50.5835 43.7774 50.5617 43.8483 50.5195 43.9082L50.4707 43.9658C50.391 44.0444 50.3051 44.083 50.166 44.083H43.583V50.667C43.583 50.7738 43.5602 50.8463 43.5176 50.9072L43.4688 50.9648C43.3919 51.0412 43.3055 51.0823 43.1602 51.083C43.0555 51.0835 42.9848 51.0618 42.9248 51.0195L42.8672 50.9707C42.7887 50.8911 42.7501 50.8058 42.75 50.667V44.083H36.166C36.0237 44.0829 35.9421 44.0432 35.8682 43.9688C35.7919 43.8919 35.7507 43.8063 35.75 43.6611C35.7495 43.5562 35.7711 43.4849 35.8135 43.4248L35.8623 43.3672C35.9418 43.2888 36.0273 43.2501 36.166 43.25H42.75V36.667C42.75 36.5601 42.7718 36.4867 42.8145 36.4258L42.8643 36.3682C42.9218 36.311 42.9843 36.2733 43.0732 36.2578L43.1719 36.25ZM8.87988 18.75H37.7861C38.0675 18.7501 38.3048 18.8311 38.5234 19.001V19.002C38.7156 19.1518 38.8359 19.3247 38.9004 19.5342L38.9248 19.626L38.9258 19.6299L41.2588 29.8594L41.2646 29.8828C41.3466 30.1942 41.3101 30.4503 41.1396 30.7021L41.0586 30.8096C40.8014 31.1198 40.5181 31.249 40.1641 31.25H38.377V38.4629C38.377 38.568 38.3552 38.6416 38.3115 38.7041L38.2607 38.7637C38.1847 38.8397 38.1026 38.8786 37.9639 38.8779L37.8662 38.8701C37.807 38.8599 37.7592 38.8397 37.7168 38.8105L37.6562 38.7598C37.5851 38.6895 37.5439 38.6085 37.5439 38.4609V31.25H25.4551V44.1143C25.4551 44.4178 25.3723 44.6508 25.209 44.8467L25.1338 44.9287C24.9211 45.1414 24.667 45.2499 24.3203 45.25H9.42383C9.12033 45.25 8.88827 45.1663 8.69238 45.0029L8.61035 44.9287C8.39753 44.7159 8.28906 44.4612 8.28906 44.1143V31.25H6.5C6.19163 31.2499 5.93708 31.1519 5.70605 30.9189L5.6084 30.8105C5.39858 30.5566 5.32548 30.3077 5.37305 30.0127L5.40039 29.8838L5.4043 29.8711L5.40723 29.8594L7.74023 19.6299L7.74121 19.626C7.79016 19.4061 7.89149 19.2254 8.0625 19.0703L8.14062 19.0059L8.14355 19.0039C8.36254 18.8324 8.59913 18.7501 8.87988 18.75ZM9.12207 44.417H24.6221V31.25H9.12207V44.417ZM8.52539 11.75H38.1406C38.2474 11.75 38.32 11.7728 38.3809 11.8154L38.4385 11.8643C38.4958 11.922 38.5334 11.985 38.5488 12.0742L38.5566 12.1729C38.5572 12.3124 38.5188 12.3923 38.4443 12.4658C38.3647 12.5443 38.2794 12.583 38.1406 12.583H8.52539C8.41857 12.583 8.34462 12.561 8.28223 12.5176L8.22266 12.4668C8.16628 12.4103 8.13049 12.3499 8.11621 12.2637L8.10938 12.168C8.10989 12.0579 8.13308 11.9828 8.17578 11.9209L8.22461 11.8623C8.29455 11.7919 8.37612 11.7501 8.52539 11.75Z" fill="#EFEFEF" stroke="#444444" stroke-width="1.5"/>
</svg>
