<svg width="56" height="56" viewBox="0 0 56 56" fill="none" xmlns="http://www.w3.org/2000/svg">
<path d="M16.3346 17.5007C22.778 17.5007 28.0013 14.889 28.0013 11.6673C28.0013 8.44566 22.778 5.83398 16.3346 5.83398C9.89131 5.83398 4.66797 8.44566 4.66797 11.6673C4.66797 14.889 9.89131 17.5007 16.3346 17.5007Z" fill="#EFEFEF" stroke="#444444" stroke-width="2" stroke-linecap="round" stroke-linejoin="round"/>
<path d="M4.66797 11.668V19.8346C4.66797 23.0558 9.89114 25.668 16.3346 25.668C22.7781 25.668 28.0013 23.0558 28.0013 19.8346V11.668" stroke="#444444" stroke-width="2" stroke-linecap="round" stroke-linejoin="round"/>
<path d="M4.66797 19.834V28.0007C4.66797 31.2218 9.89114 33.834 16.3346 33.834C22.7781 33.834 28.0013 31.2218 28.0013 28.0007V19.834" stroke="#444444" stroke-width="2" stroke-linecap="round" stroke-linejoin="round"/>
<path d="M4.66797 28V36.1667C4.66797 39.3878 9.89114 42 16.3346 42C22.7781 42 28.0013 39.3878 28.0013 36.1667V28" stroke="#444444" stroke-width="2" stroke-linecap="round" stroke-linejoin="round"/>
<path d="M4.66797 36.168V44.3346C4.66797 47.5558 9.89114 50.168 16.3346 50.168C22.7781 50.168 28.0013 47.5558 28.0013 44.3346V36.168" stroke="#444444" stroke-width="2" stroke-linecap="round" stroke-linejoin="round"/>
<path d="M39.6667 33.8346C46.11 33.8346 51.3333 31.223 51.3333 28.0013C51.3333 24.7796 46.11 22.168 39.6667 22.168C33.2233 22.168 28 24.7796 28 28.0013C28 31.223 33.2233 33.8346 39.6667 33.8346Z" fill="#EFEFEF" stroke="#444444" stroke-width="2" stroke-linecap="round" stroke-linejoin="round"/>
<path d="M28 28V36.1667C28 39.3878 33.2232 42 39.6667 42C46.1102 42 51.3333 39.3878 51.3333 36.1667V28" stroke="#444444" stroke-width="2" stroke-linecap="round" stroke-linejoin="round"/>
<path d="M28 36.168V44.3346C28 47.5558 33.2232 50.168 39.6667 50.168C46.1102 50.168 51.3333 47.5558 51.3333 44.3346V36.168" stroke="#444444" stroke-width="2" stroke-linecap="round" stroke-linejoin="round"/>
</svg>
