<svg width="37" height="37" viewBox="0 0 37 37" fill="none" xmlns="http://www.w3.org/2000/svg">
<rect x="0.86084" y="0.708984" width="35.3011" height="35.3011" rx="17.6506" fill="#6982B5" fill-opacity="0.09"/>
<path d="M17.3608 18.709C16.5358 18.709 15.8296 18.4152 15.2421 17.8277C14.6546 17.2402 14.3608 16.534 14.3608 15.709C14.3608 14.884 14.6546 14.1777 15.2421 13.5902C15.8296 13.0027 16.5358 12.709 17.3608 12.709C18.1858 12.709 18.8921 13.0027 19.4796 13.5902C20.0671 14.1777 20.3608 14.884 20.3608 15.709C20.3608 16.534 20.0671 17.2402 19.4796 17.8277C18.8921 18.4152 18.1858 18.709 17.3608 18.709ZM11.3608 23.209V22.609C11.3608 22.1965 11.4671 21.809 11.6796 21.4465C11.8921 21.084 12.1858 20.809 12.5608 20.6215C13.2858 20.259 14.0358 19.9745 14.8108 19.768C15.5858 19.5615 16.3796 19.4585 17.1921 19.459C17.4046 19.459 17.5828 19.534 17.7268 19.684C17.8708 19.834 17.9426 20.0152 17.9421 20.2277C17.9416 20.4402 17.8696 20.6185 17.7261 20.7625C17.5826 20.9065 17.4046 20.9782 17.1921 20.9777C16.4921 20.9777 15.8138 21.0652 15.1573 21.2402C14.5008 21.4152 13.8603 21.659 13.2358 21.9715C13.1108 22.034 13.0171 22.1215 12.9546 22.234C12.8921 22.3465 12.8608 22.4715 12.8608 22.609V23.209H17.1921C17.4046 23.209 17.5828 23.281 17.7268 23.425C17.8708 23.569 17.9426 23.747 17.9421 23.959C17.9416 24.171 17.8696 24.3492 17.7261 24.4937C17.5826 24.6382 17.4046 24.71 17.1921 24.709H12.8608C12.4483 24.709 12.0953 24.5622 11.8018 24.2687C11.5083 23.9752 11.3613 23.622 11.3608 23.209ZM21.7483 24.859L21.6358 24.334C21.4858 24.2715 21.3453 24.206 21.2143 24.1375C21.0833 24.069 20.9488 23.9845 20.8108 23.884L20.2671 24.0527C20.1046 24.1027 19.9453 24.0965 19.7893 24.034C19.6333 23.9715 19.5113 23.8715 19.4233 23.734L19.2733 23.4715C19.1858 23.3215 19.1546 23.159 19.1796 22.984C19.2046 22.809 19.2858 22.6652 19.4233 22.5527L19.8358 22.1965C19.8108 22.0215 19.7983 21.859 19.7983 21.709C19.7983 21.559 19.8108 21.3965 19.8358 21.2215L19.4233 20.8652C19.2858 20.7527 19.2046 20.612 19.1796 20.443C19.1546 20.274 19.1858 20.1147 19.2733 19.9652L19.4421 19.684C19.5296 19.5465 19.6483 19.4465 19.7983 19.384C19.9483 19.3215 20.1046 19.3152 20.2671 19.3652L20.8108 19.534C20.9483 19.434 21.0828 19.3495 21.2143 19.2805C21.3458 19.2115 21.4863 19.146 21.6358 19.084L21.7483 18.5402C21.7858 18.3652 21.8703 18.2247 22.0018 18.1187C22.1333 18.0127 22.2863 17.9595 22.4608 17.959H22.7608C22.9358 17.959 23.0891 18.0152 23.2206 18.1277C23.3521 18.2402 23.4363 18.384 23.4733 18.559L23.5858 19.084C23.7358 19.1465 23.8763 19.2152 24.0073 19.2902C24.1383 19.3652 24.2728 19.459 24.4108 19.5715L24.9171 19.4027C25.0921 19.3402 25.2608 19.3402 25.4233 19.4027C25.5858 19.4652 25.7108 19.5715 25.7983 19.7215L25.9483 19.984C26.0358 20.134 26.0671 20.2965 26.0421 20.4715C26.0171 20.6465 25.9358 20.7902 25.7983 20.9027L25.3858 21.259C25.4108 21.409 25.4233 21.5652 25.4233 21.7277C25.4233 21.8902 25.4108 22.0465 25.3858 22.1965L25.7983 22.5527C25.9358 22.6652 26.0171 22.806 26.0421 22.975C26.0671 23.144 26.0358 23.3032 25.9483 23.4527L25.7796 23.734C25.6921 23.8715 25.5733 23.9715 25.4233 24.034C25.2733 24.0965 25.1171 24.1027 24.9546 24.0527L24.4108 23.884C24.2733 23.984 24.1388 24.0682 24.0073 24.1367C23.8758 24.2052 23.7353 24.271 23.5858 24.334L23.4733 24.8777C23.4358 25.0527 23.3516 25.1935 23.2206 25.3C23.0896 25.4065 22.9363 25.4595 22.7608 25.459H22.4608C22.2858 25.459 22.1328 25.4027 22.0018 25.2902C21.8708 25.1777 21.7863 25.034 21.7483 24.859ZM22.6108 23.209C23.0233 23.209 23.3766 23.0622 23.6706 22.7687C23.9646 22.4752 24.1113 22.122 24.1108 21.709C24.1103 21.296 23.9636 20.943 23.6706 20.65C23.3776 20.357 23.0243 20.21 22.6108 20.209C22.1973 20.208 21.8443 20.355 21.5518 20.65C21.2593 20.945 21.1123 21.298 21.1108 21.709C21.1093 22.12 21.2563 22.4732 21.5518 22.7687C21.8473 23.0642 22.2003 23.211 22.6108 23.209ZM17.3608 17.209C17.7733 17.209 18.1266 17.0622 18.4206 16.7687C18.7146 16.4752 18.8613 16.122 18.8608 15.709C18.8603 15.296 18.7136 14.943 18.4206 14.65C18.1276 14.357 17.7743 14.21 17.3608 14.209C16.9473 14.208 16.5943 14.355 16.3018 14.65C16.0093 14.945 15.8623 15.298 15.8608 15.709C15.8593 16.12 16.0063 16.4732 16.3018 16.7687C16.5973 17.0642 16.9503 17.211 17.3608 17.209Z" fill="#6982B5"/>
</svg>
