<svg width="37" height="37" viewBox="0 0 37 37" fill="none" xmlns="http://www.w3.org/2000/svg">
<rect x="0.86084" y="0.917969" width="35.3011" height="35.3011" rx="17.6506" fill="#6982B5" fill-opacity="0.09"/>
<path d="M18.8608 25.6403C17.3538 25.1928 16.1021 24.2801 15.1056 22.9021C14.1091 21.5241 13.6108 19.9713 13.6108 18.2438V14.1878L18.8608 12.2266L24.1108 14.1878V18.2438C24.1108 19.9708 23.6126 21.5233 22.6161 22.9013C21.6196 24.2793 20.3678 25.1918 18.8608 25.6403ZM18.8608 24.8446C20.0733 24.4696 21.0858 23.7291 21.8983 22.6231C22.7108 21.5171 23.1858 20.2823 23.3233 18.9188H18.8608V13.0268L14.3608 14.7001V18.5671C14.3608 18.6641 14.3733 18.7813 14.3983 18.9188H18.8608V24.8446Z" fill="#6982B5"/>
</svg>
