<svg width="36" height="37" viewBox="0 0 36 37" fill="none" xmlns="http://www.w3.org/2000/svg">
<rect x="0.349609" y="0.917969" width="35.3011" height="35.3011" rx="17.6506" fill="#6982B5" fill-opacity="0.09"/>
<path d="M19.3879 17.0586L12.1819 17.5791C11.2152 17.6488 10.3879 16.9596 10.3879 16.0836C10.3879 15.2083 11.2152 14.5191 12.1819 14.5888L19.3879 15.1093" stroke="#6982B5" stroke-width="1.125" stroke-linecap="round" stroke-linejoin="round"/>
<path d="M24.6372 20.209H18.6379M24.6379 11.959H18.6379M17.8879 25.462H25.3864M18.8067 25.462C19.2199 24.721 19.5289 23.3042 20.9929 23.2247C21.4279 23.2007 21.8704 23.2007 22.3054 23.2247C23.7687 23.3042 24.0792 24.721 24.4932 25.462M23.8879 11.959H19.3879C19.3879 11.959 19.0129 14.1805 19.0129 16.084C19.0129 17.9882 19.3879 20.209 19.3879 20.209H23.8879C23.8879 20.209 24.2629 17.9882 24.2629 16.084C24.2629 14.1805 23.8879 11.959 23.8879 11.959Z" stroke="#6982B5" stroke-width="1.125" stroke-linecap="round" stroke-linejoin="round"/>
</svg>
