<svg width="37" height="36" viewBox="0 0 37 36" fill="none" xmlns="http://www.w3.org/2000/svg">
<rect x="0.838135" y="0.417969" width="35.3011" height="35.3011" rx="17.6506" fill="#6982B5" fill-opacity="0.09"/>
<path d="M11.9567 22.5564H25.4567C25.5632 22.5564 25.6522 22.5924 25.7237 22.6644C25.7952 22.7364 25.8312 22.8257 25.8317 22.9322C25.8322 23.0387 25.7962 23.1277 25.7237 23.1992C25.6512 23.2707 25.5622 23.3064 25.4567 23.3064H11.9567C11.8502 23.3064 11.7612 23.2704 11.6897 23.1984C11.6182 23.1264 11.5822 23.0372 11.5817 22.9307C11.5812 22.8242 11.6172 22.7352 11.6897 22.6637C11.7622 22.5922 11.8512 22.5564 11.9567 22.5564ZM12.7067 17.5569L12.1487 18.5409C12.1042 18.6224 12.038 18.6742 11.95 18.6962C11.861 18.7187 11.776 18.7077 11.695 18.6632C11.6145 18.6182 11.5632 18.5514 11.5412 18.4629C11.5192 18.3734 11.5312 18.2889 11.5772 18.2094L12.1352 17.2254H11.0192C10.9232 17.2254 10.844 17.1942 10.7815 17.1317C10.719 17.0692 10.6877 16.9902 10.6877 16.8947C10.6877 16.7992 10.719 16.7199 10.7815 16.6569C10.844 16.5939 10.9232 16.5624 11.0192 16.5624H12.136L11.5772 15.6159C11.5312 15.5359 11.5192 15.4514 11.5412 15.3624C11.5632 15.2734 11.6147 15.2067 11.6957 15.1622C11.7767 15.1177 11.8615 15.1067 11.95 15.1292C12.0385 15.1517 12.1047 15.2034 12.1487 15.2844L12.7067 16.2302L13.2647 15.2844C13.3092 15.2029 13.3757 15.1509 13.4642 15.1284C13.5527 15.1059 13.6372 15.1172 13.7177 15.1622C13.7982 15.2072 13.8497 15.2739 13.8722 15.3624C13.8947 15.4509 13.8827 15.5354 13.8362 15.6159L13.2767 16.5624H14.3942C14.4902 16.5624 14.5695 16.5937 14.632 16.6562C14.6945 16.7187 14.7257 16.7977 14.7257 16.8932C14.7257 16.9887 14.6945 17.0679 14.632 17.1309C14.5695 17.1939 14.4902 17.2254 14.3942 17.2254H13.2775L13.8362 18.2094C13.8822 18.2894 13.8942 18.3739 13.8722 18.4629C13.8502 18.5519 13.7987 18.6187 13.7177 18.6632C13.6372 18.7077 13.5527 18.7187 13.4642 18.6962C13.3757 18.6742 13.3092 18.6224 13.2647 18.5409L12.7067 17.5569ZM18.7067 17.5569L18.1487 18.5409C18.1042 18.6224 18.0377 18.6742 17.9492 18.6962C17.8607 18.7187 17.7762 18.7077 17.6957 18.6632C17.6147 18.6182 17.5632 18.5514 17.5412 18.4629C17.5192 18.3734 17.5312 18.2889 17.5772 18.2094L18.1352 17.2254H17.0192C16.9232 17.2254 16.844 17.1942 16.7815 17.1317C16.719 17.0692 16.6877 16.9902 16.6877 16.8947C16.6877 16.7992 16.719 16.7199 16.7815 16.6569C16.844 16.5939 16.9232 16.5624 17.0192 16.5624H18.136L17.5772 15.6159C17.5312 15.5359 17.5192 15.4514 17.5412 15.3624C17.5632 15.2734 17.6147 15.2067 17.6957 15.1622C17.7767 15.1177 17.8615 15.1067 17.95 15.1292C18.0385 15.1517 18.1047 15.2034 18.1487 15.2844L18.7067 16.2302L19.2647 15.2844C19.3092 15.2029 19.3757 15.1509 19.4642 15.1284C19.5527 15.1059 19.6372 15.1172 19.7177 15.1622C19.7987 15.2072 19.8502 15.2739 19.8722 15.3624C19.8942 15.4509 19.8822 15.5354 19.8362 15.6159L19.2782 16.5624H20.3942C20.4902 16.5624 20.5695 16.5937 20.632 16.6562C20.6945 16.7187 20.7257 16.7977 20.7257 16.8932C20.7257 16.9887 20.6945 17.0679 20.632 17.1309C20.5695 17.1939 20.4902 17.2254 20.3942 17.2254H19.2775L19.8362 18.2094C19.8822 18.2894 19.8942 18.3739 19.8722 18.4629C19.8502 18.5519 19.7987 18.6187 19.7177 18.6632C19.6367 18.7077 19.552 18.7187 19.4635 18.6962C19.375 18.6737 19.3087 18.6219 19.2647 18.5409L18.7067 17.5569ZM24.7067 17.5569L24.1487 18.5409C24.1042 18.6224 24.0377 18.6742 23.9492 18.6962C23.8607 18.7187 23.7762 18.7077 23.6957 18.6632C23.6147 18.6182 23.5632 18.5514 23.5412 18.4629C23.5192 18.3734 23.5312 18.2889 23.5772 18.2094L24.1352 17.2254H23.0192C22.9232 17.2254 22.844 17.1942 22.7815 17.1317C22.719 17.0692 22.6877 16.9902 22.6877 16.8947C22.6877 16.7992 22.719 16.7199 22.7815 16.6569C22.844 16.5939 22.9232 16.5624 23.0192 16.5624H24.136L23.5772 15.6159C23.5312 15.5359 23.5192 15.4514 23.5412 15.3624C23.5632 15.2734 23.6147 15.2067 23.6957 15.1622C23.7767 15.1177 23.8612 15.1067 23.9492 15.1292C24.0372 15.1517 24.1037 15.2034 24.1487 15.2844L24.7067 16.2302L25.2647 15.2844C25.3092 15.2029 25.3757 15.1509 25.4642 15.1284C25.5527 15.1059 25.6372 15.1172 25.7177 15.1622C25.7982 15.2072 25.8497 15.2739 25.8722 15.3624C25.8947 15.4509 25.8827 15.5354 25.8362 15.6159L25.2782 16.5624H26.3942C26.4902 16.5624 26.5695 16.5937 26.632 16.6562C26.6945 16.7187 26.7257 16.7977 26.7257 16.8932C26.7257 16.9887 26.6945 17.0679 26.632 17.1309C26.5695 17.1939 26.4902 17.2254 26.3942 17.2254H25.2775L25.8362 18.2094C25.8822 18.2894 25.8942 18.3739 25.8722 18.4629C25.8502 18.5519 25.7987 18.6187 25.7177 18.6632C25.6367 18.7077 25.5522 18.7187 25.4642 18.6962C25.3762 18.6737 25.3097 18.6219 25.2647 18.5409L24.7067 17.5569Z" fill="#6982B5"/>
</svg>
