<svg width="37" height="37" viewBox="0 0 37 37" fill="none" xmlns="http://www.w3.org/2000/svg">
<rect x="0.838135" y="0.849609" width="35.3011" height="35.3011" rx="17.6506" fill="#6982B5" fill-opacity="0.09"/>
<path d="M14.3381 11.5371C13.7911 11.5371 13.2665 11.7544 12.8797 12.1412C12.4929 12.528 12.2756 13.0526 12.2756 13.5996V24.0996C12.2756 24.6466 12.4929 25.1712 12.8797 25.558C13.2665 25.9448 13.7911 26.1621 14.3381 26.1621H19.5881C19.7373 26.1621 19.8804 26.1028 19.9859 25.9974C20.0914 25.8919 20.1506 25.7488 20.1506 25.5996C20.1506 25.4504 20.0914 25.3074 19.9859 25.2019C19.8804 25.0964 19.7373 25.0371 19.5881 25.0371H14.3381C13.8206 25.0371 13.4006 24.6171 13.4006 24.0996V13.5996C13.4006 13.0821 13.8206 12.6621 14.3381 12.6621H21.8381C22.3556 12.6621 22.7756 13.0821 22.7756 13.5996V17.7246C22.7756 17.8738 22.8349 18.0169 22.9404 18.1224C23.0459 18.2278 23.189 18.2871 23.3381 18.2871C23.4873 18.2871 23.6304 18.2278 23.7359 18.1224C23.8414 18.0169 23.9006 17.8738 23.9006 17.7246V13.5996C23.9006 13.0526 23.6833 12.528 23.2965 12.1412C22.9097 11.7544 22.3851 11.5371 21.8381 11.5371H14.3381Z" fill="#6982B5"/>
<path d="M15.0881 17.5371C14.939 17.5371 14.7959 17.5964 14.6904 17.7019C14.5849 17.8074 14.5256 17.9504 14.5256 18.0996C14.5256 18.2488 14.5849 18.3919 14.6904 18.4974C14.7959 18.6028 14.939 18.6621 15.0881 18.6621H15.4631C15.6123 18.6621 15.7554 18.6028 15.8609 18.4974C15.9664 18.3919 16.0256 18.2488 16.0256 18.0996C16.0256 17.9504 15.9664 17.8074 15.8609 17.7019C15.7554 17.5964 15.6123 17.5371 15.4631 17.5371H15.0881ZM17.3381 17.5371C17.189 17.5371 17.0459 17.5964 16.9404 17.7019C16.8349 17.8074 16.7756 17.9504 16.7756 18.0996C16.7756 18.2488 16.8349 18.3919 16.9404 18.4974C17.0459 18.6028 17.189 18.6621 17.3381 18.6621H21.0881C21.2373 18.6621 21.3804 18.6028 21.4859 18.4974C21.5914 18.3919 21.6506 18.2488 21.6506 18.0996C21.6506 17.9504 21.5914 17.8074 21.4859 17.7019C21.3804 17.5964 21.2373 17.5371 21.0881 17.5371H17.3381ZM15.0881 19.7871C14.939 19.7871 14.7959 19.8464 14.6904 19.9519C14.5849 20.0574 14.5256 20.2004 14.5256 20.3496C14.5256 20.4988 14.5849 20.6419 14.6904 20.7474C14.7959 20.8528 14.939 20.9121 15.0881 20.9121H15.4631C15.6123 20.9121 15.7554 20.8528 15.8609 20.7474C15.9664 20.6419 16.0256 20.4988 16.0256 20.3496C16.0256 20.2004 15.9664 20.0574 15.8609 19.9519C15.7554 19.8464 15.6123 19.7871 15.4631 19.7871H15.0881ZM17.3381 19.7871C17.189 19.7871 17.0459 19.8464 16.9404 19.9519C16.8349 20.0574 16.7756 20.2004 16.7756 20.3496C16.7756 20.4988 16.8349 20.6419 16.9404 20.7474C17.0459 20.8528 17.189 20.9121 17.3381 20.9121H19.9631C20.1123 20.9121 20.2554 20.8528 20.3609 20.7474C20.4664 20.6419 20.5256 20.4988 20.5256 20.3496C20.5256 20.2004 20.4664 20.0574 20.3609 19.9519C20.2554 19.8464 20.1123 19.7871 19.9631 19.7871H17.3381ZM15.0881 22.0371C14.939 22.0371 14.7959 22.0964 14.6904 22.2019C14.5849 22.3074 14.5256 22.4504 14.5256 22.5996C14.5256 22.7488 14.5849 22.8919 14.6904 22.9974C14.7959 23.1028 14.939 23.1621 15.0881 23.1621H15.4631C15.6123 23.1621 15.7554 23.1028 15.8609 22.9974C15.9664 22.8919 16.0256 22.7488 16.0256 22.5996C16.0256 22.4504 15.9664 22.3074 15.8609 22.2019C15.7554 22.0964 15.6123 22.0371 15.4631 22.0371H15.0881ZM17.3381 22.0371C17.189 22.0371 17.0459 22.0964 16.9404 22.2019C16.8349 22.3074 16.7756 22.4504 16.7756 22.5996C16.7756 22.7488 16.8349 22.8919 16.9404 22.9974C17.0459 23.1028 17.189 23.1621 17.3381 23.1621H18.8381C18.9873 23.1621 19.1304 23.1028 19.2359 22.9974C19.3414 22.8919 19.4006 22.7488 19.4006 22.5996C19.4006 22.4504 19.3414 22.3074 19.2359 22.2019C19.1304 22.0964 18.9873 22.0371 18.8381 22.0371H17.3381Z" fill="#6982B5"/>
<path opacity="0.5" d="M14.3951 14.0624C14.3381 14.2004 14.3381 14.3751 14.3381 14.7246C14.3381 15.0741 14.3381 15.2489 14.3951 15.3869C14.4714 15.5703 14.6173 15.7159 14.8009 15.7919C14.9389 15.8496 15.1136 15.8496 15.4631 15.8496H20.7131C21.0626 15.8496 21.2374 15.8496 21.3754 15.7926C21.5588 15.7163 21.7044 15.5704 21.7804 15.3869C21.8381 15.2489 21.8381 15.0741 21.8381 14.7246C21.8381 14.3751 21.8381 14.2004 21.7811 14.0624C21.7049 13.879 21.5589 13.7333 21.3754 13.6574C21.2374 13.5996 21.0626 13.5996 20.7131 13.5996H15.4631C15.1136 13.5996 14.9389 13.5996 14.8009 13.6566C14.6175 13.7329 14.4711 13.8788 14.3951 14.0624ZM23.9006 20.3496C23.9006 20.2004 23.8414 20.0574 23.7359 19.9519C23.6304 19.8464 23.4873 19.7871 23.3381 19.7871C23.189 19.7871 23.0459 19.8464 22.9404 19.9519C22.8349 20.0574 22.7756 20.2004 22.7756 20.3496V20.6624H22.7104C21.9926 20.6624 21.2756 21.1874 21.2756 21.9869C21.2756 22.3199 21.3656 22.6259 21.5914 22.8666C21.7999 23.0879 22.0661 23.1899 22.2724 23.2514L24.0859 23.7771C24.1549 23.7974 24.2006 23.8161 24.2306 23.8311C24.2417 23.8367 24.2522 23.8433 24.2621 23.8506L24.2636 23.8536C24.2729 23.8891 24.277 23.9257 24.2756 23.9624C24.2756 23.9901 24.2636 24.0321 24.2126 24.0779C24.1429 24.1346 24.055 24.1644 23.9651 24.1619H22.8364C22.5221 24.1619 22.4006 23.9564 22.4006 23.8499C22.4006 23.7007 22.3414 23.5576 22.2359 23.4521C22.1304 23.3466 21.9873 23.2874 21.8381 23.2874C21.689 23.2874 21.5459 23.3466 21.4404 23.4521C21.3349 23.5576 21.2756 23.7007 21.2756 23.8499C21.2756 24.6899 22.0054 25.2576 22.7756 25.2861V25.5996C22.7756 25.7488 22.8349 25.8919 22.9404 25.9974C23.0459 26.1028 23.189 26.1621 23.3381 26.1621C23.4873 26.1621 23.6304 26.1028 23.7359 25.9974C23.8414 25.8919 23.9006 25.7488 23.9006 25.5996V25.2869H23.9659C24.6836 25.2869 25.4006 24.7619 25.4006 23.9624C25.4006 23.6294 25.3106 23.3234 25.0849 23.0826C24.8764 22.8614 24.6101 22.7594 24.4039 22.6979L22.5904 22.1721C22.5404 22.1591 22.4919 22.141 22.4456 22.1181C22.4346 22.1125 22.4241 22.106 22.4141 22.0986L22.4126 22.0956C22.4033 22.0601 22.3993 22.0235 22.4006 21.9869C22.4006 21.9591 22.4126 21.9171 22.4636 21.8714C22.5334 21.8146 22.6212 21.7848 22.7111 21.7874H23.8399C24.1541 21.7874 24.2756 21.9929 24.2756 22.0994C24.2756 22.2485 24.3349 22.3916 24.4404 22.4971C24.5459 22.6026 24.689 22.6619 24.8381 22.6619C24.9873 22.6619 25.1304 22.6026 25.2359 22.4971C25.3414 22.3916 25.4006 22.2485 25.4006 22.0994C25.4006 21.2594 24.6709 20.6916 23.9006 20.6631V20.3496Z" fill="#6982B5"/>
</svg>
