<svg width="36" height="37" viewBox="0 0 36 37" fill="none" xmlns="http://www.w3.org/2000/svg">
<rect x="0.349609" y="0.849609" width="35.3011" height="35.3011" rx="17.6506" fill="#6982B5" fill-opacity="0.09"/>
<path d="M17.921 13.707H14.0639C13.6092 13.707 13.1732 13.8876 12.8517 14.2091C12.5302 14.5306 12.3496 14.9667 12.3496 15.4213V23.1356C12.3496 23.5903 12.5302 24.0263 12.8517 24.3478C13.1732 24.6693 13.6092 24.8499 14.0639 24.8499H22.6353C23.09 24.8499 23.526 24.6693 23.8475 24.3478C24.169 24.0263 24.3496 23.5903 24.3496 23.1356V19.2785" stroke="#6982B5" stroke-width="0.857143" stroke-linecap="round" stroke-linejoin="round"/>
<path d="M22.6352 14.5636L23.4521 15.4207M24.3495 12.821C24.5784 13.0571 24.7052 13.3737 24.7025 13.7025C24.6998 14.0314 24.5677 14.3459 24.3349 14.5781L18.3495 20.5636L15.7781 21.4207L16.6352 18.8493L22.6241 12.8098C22.8347 12.5979 23.1164 12.4714 23.4148 12.455C23.7132 12.4385 24.0071 12.5332 24.2398 12.7207L24.3495 12.821Z" stroke="#6982B5" stroke-width="0.857143" stroke-linecap="round" stroke-linejoin="round"/>
</svg>
